<svg xmlns="http://www.w3.org/2000/svg" xmlns:xlink="http://www.w3.org/1999/xlink" viewBox="0 0 862.45 615.51"><defs><clipPath id="clip-path"><rect x="574.28" y="199.87" width="288.18" height="415.3" style="fill:none"/></clipPath><clipPath id="clip-path-3"><rect x="642.98" y="579.84" width="163.48" height="35.27" style="fill:none"/></clipPath><clipPath id="clip-path-4"><rect x="743.49" y="484.9" width="36.28" height="93.69" style="fill:none"/></clipPath><clipPath id="clip-path-5"><rect x="660.8" y="366.59" width="17" height="30.84" style="fill:none"/></clipPath><clipPath id="clip-path-6"><rect x="797.47" y="386.44" width="9.95" height="16.23" style="fill:none"/></clipPath><clipPath id="clip-path-7"><path d="M754.65,201.43l-10.53,12.49a3.2,3.2,0,0,0-.28,3.67c3,5.19,3.93,17.59-8.09,16.86-11-.67-9.8-11.3-8.78-15.81a2.46,2.46,0,0,0-1.49-2.82l-9.17-3.74a1.8,1.8,0,0,0-2.44,2.11l5.31,19.7.52,21,54.28,9.9,7-21.16L792,224.71a1.8,1.8,0,0,0-.65-2.45,1.76,1.76,0,0,0-1.29-.2l-10.42,2.13a2.36,2.36,0,0,0-1.89,2.44c.48,7.39-2.83,16-13.82,12.42-9.54-3.09-5.78-13.58-1.37-19.09a3.14,3.14,0,0,0,.49-3.09l-5.73-15a1.59,1.59,0,0,0-2.06-.91,1.53,1.53,0,0,0-.64.45" style="fill:none"/></clipPath><linearGradient id="Degradado_sin_nombre_2" x1="-542.95" y1="888.34" x2="-542.94" y2="888.34" gradientTransform="matrix(88.53, 0, 0, -71.31, 48643.78, 63575.7)" gradientUnits="userSpaceOnUse"><stop offset="0" stop-color="#dba949"/><stop offset="1" stop-color="#c37a00"/></linearGradient><clipPath id="clip-path-9"><rect x="747.54" y="205.41" width="13.03" height="32.48" style="fill:none"/></clipPath><clipPath id="clip-path-10"><rect x="774.04" y="225.52" width="13.53" height="30.48" style="fill:none"/></clipPath><clipPath id="clip-path-11"><rect x="716.84" y="215.81" width="10.38" height="17.89" style="fill:none"/></clipPath></defs><g id="Capa_2" data-name="Capa 2"><g id="Capa_1-2" data-name="Capa 1"><g id="meet_our_team" data-name="meet our team" style="isolation:isolate"><g style="isolation:isolate"><path d="M257.22,1V175.8H214.64V71L175.55,175.8H141.19L101.84,70.72V175.8H59.27V1h50.29l49.06,121L207.17,1Z" style="fill:none;stroke:#2f0d31;stroke-width:2px"/><path d="M330.43,35.11V70.47h57v32.87h-57v38.34h64.49V175.8H287.85V1H394.92V35.11Z" style="fill:none;stroke:#2f0d31;stroke-width:2px"/><path d="M465.13,35.11V70.47h57v32.87h-57v38.34h64.49V175.8H422.55V1H529.62V35.11Z" style="fill:none;stroke:#2f0d31;stroke-width:2px"/><path d="M683,1V35.11H636.69V175.8H594.11V35.11H547.8V1Z" style="fill:none;stroke:#2f0d31;stroke-width:2px"/></g><g style="isolation:isolate"><path d="M208.29,371.09a85.66,85.66,0,0,1-32.62-32Q163.6,318.55,163.6,292.9t12.07-46.06A86,86,0,0,1,208.29,215a94.92,94.92,0,0,1,90.39,0,84.23,84.23,0,0,1,32.37,31.88q11.82,20.41,11.83,46.06t-12,46.19a84.94,84.94,0,0,1-32.37,32,94.66,94.66,0,0,1-90.26,0ZM287,329.75q12.57-13.94,12.57-36.85,0-23.16-12.57-37T253.49,242.1q-21.18,0-33.74,13.7t-12.58,37.1q0,23.16,12.58,37t33.74,13.82Q274.4,343.7,287,329.75Z" style="fill:none;stroke:#2f0d31;stroke-width:2px"/><path d="M408.36,206V310.58q0,15.69,7.72,24.15t22.66,8.47q14.94,0,22.91-8.47t8-24.15V206H512.2V310.33q0,23.42-10,39.59a63.81,63.81,0,0,1-26.77,24.4q-16.82,8.22-37.48,8.22t-37-8.09a60.23,60.23,0,0,1-25.77-24.4q-9.47-16.31-9.47-39.72V206Z" style="fill:none;stroke:#2f0d31;stroke-width:2px"/><path d="M631.21,380.8l-36.35-66H584.65v66H542.07V206h71.47q20.65,0,35.23,7.22T670.56,233a55.27,55.27,0,0,1,7.22,28,52,52,0,0,1-9.84,31.12q-9.84,13.71-29,19.43l40.34,69.22Zm-46.56-96.12h26.4q11.7,0,17.55-5.72t5.85-16.19q0-10-5.85-15.69t-17.55-5.72h-26.4Z" style="fill:none;stroke:#2f0d31;stroke-width:2px"/></g><g style="isolation:isolate"><path d="M136.21,411v34.11H89.89V585.8H47.31V445.11H1V411Z" style="fill:none;stroke:#2f0d31;stroke-width:2px"/><path d="M200.2,445.11v35.36h57v32.87h-57v38.34h64.49V585.8H157.62V411H264.69v34.11Z" style="fill:none;stroke:#2f0d31;stroke-width:2px"/><path d="M401.14,554.92H335.9L325.44,585.8H280.87L344.12,411h49.3l63.24,174.8H411.59Zm-11-32.87-21.66-64-21.42,64Z" style="fill:none;stroke:#2f0d31;stroke-width:2px"/><path d="M673.79,411V585.8H631.21V481L592.12,585.8H557.76L518.42,480.72V585.8H475.84V411h50.29l49.06,121,48.55-121Z" style="fill:none;stroke:#2f0d31;stroke-width:2px"/></g></g><g style="clip-path:url(#clip-path)"><g id="Grupo_477" data-name="Grupo 477"><g id="Grupo_463" data-name="Grupo 463"><g style="clip-path:url(#clip-path)"><g id="Grupo_462" data-name="Grupo 462"><g id="Grupo_452" data-name="Grupo 452"><g id="Grupo_451" data-name="Grupo 451"><g style="clip-path:url(#clip-path-3)"><g id="Grupo_450" data-name="Grupo 450"><path id="Trazado_1942" data-name="Trazado 1942" d="M806.47,597.48c0,9.74-36.6,17.63-81.75,17.63S643,607.22,643,597.48s36.6-17.64,81.74-17.64,81.75,7.9,81.75,17.64" style="fill:#becee1"/></g></g></g></g><path id="Trazado_1943" data-name="Trazado 1943" d="M751.94,488.63s27.64-3.72,37.58,12.56c10.05,16.46-7.35,36.28-37.49,31s-69.8-24.3-93.73-18.14-22.68,7.79-23.51,6.57-5-4.47-.84-6.93,15.25-8.59,40.84-9.45,66.83,18.77,90.84,16.52c17.74-1.67,12.71-15.92,4.09-17.94C762,501.05,752,499.23,752,499.23Z" style="fill:#ef8226"/><path id="Trazado_1944" data-name="Trazado 1944" d="M751.94,488.63s27.64-3.72,37.58,12.56c10.05,16.46-7.35,36.28-37.49,31s-69.8-24.3-93.73-18.14-22.68,7.79-23.51,6.57-5-4.47-.84-6.93,15.25-8.59,40.84-9.45,66.83,18.77,90.84,16.52c17.74-1.67,12.71-15.92,4.09-17.94C762,501.05,752,499.23,752,499.23Z" style="fill:none;stroke:#dc6628;stroke-miterlimit:10;stroke-width:2.4615391561734015px"/><path id="Trazado_1945" data-name="Trazado 1945" d="M687.73,507.06s-23.42-1.45-42.27,3.94c0,0,29.26-3.7,41.62-.09Z" style="fill:#faad3f"/><path id="Trazado_1946" data-name="Trazado 1946" d="M757.28,491.08s23.63-1.77,30.6,11.49c3.68,7,1.38,13.51-3,18.53a1.23,1.23,0,0,1-2-1.36c2-4,3.36-9,1.09-13.52-4.79-9.62-24.3-10-24.3-10Z" style="fill:#faad3f"/><path id="Trazado_1947" data-name="Trazado 1947" d="M641.44,511.66s-15-13.31-26.57-9L613,506.48s8.69,0,13,1.88c0,0-5.32-1.9-19.79,3.38l1.45,2.86,5.31-.49s-9.15,6.69-11.56,11.46L614,535.08s6.73-12.89,11.07-13.37c0,0-6.73,11.93-4.8,13.83h5.8l4.8-9.54L628,540.29l5.8-1s11.07-15.76,7.66-27.66" style="fill:#563317"/><path id="Trazado_1948" data-name="Trazado 1948" d="M641.44,511.66s-15-13.31-26.57-9L613,506.48s8.69,0,13,1.88c0,0-5.32-1.9-19.79,3.38l1.45,2.86,5.31-.49s-9.15,6.69-11.56,11.46L614,535.08s6.73-12.89,11.07-13.37c0,0-6.73,11.93-4.8,13.83h5.8l4.8-9.54L628,540.29l5.8-1S644.85,523.57,641.44,511.66Z" style="fill:none;stroke:#3f1f1c;stroke-miterlimit:10;stroke-width:3.0995501560049945px"/><path id="Trazado_1949" data-name="Trazado 1949" d="M709.86,574.43s2.45,6,4.49,7.74,5.32,17.67-4.84,18.12c-4.29.19-14,2.55-20,4.67-1.76,3.82-12.5,5.74-12.5,5.74s-18.3,2.63-19.93-2.11c0,0-11.83.38-12.65-2.2,0,0-7.28,2.24-8.1-3.36s-.67-11.19,1.36-14.22,14.86-3.92,20.15-4.36,28.44-11.27,28.44-11.27Z" style="fill:#faad3f"/><path id="Trazado_1950" data-name="Trazado 1950" d="M709.86,574.43s2.45,6,4.49,7.74,5.32,17.67-4.84,18.12c-4.29.19-14,2.55-20,4.67-1.76,3.82-12.5,5.74-12.5,5.74s-18.3,2.63-19.93-2.11c0,0-11.83.38-12.65-2.2,0,0-7.28,2.24-8.1-3.36s-.67-11.19,1.36-14.22,14.86-3.92,20.15-4.36,28.44-11.27,28.44-11.27Z" style="fill:none;stroke:#dc6628;stroke-miterlimit:10;stroke-width:2.51261579995861px"/><path id="Trazado_1951" data-name="Trazado 1951" d="M682.51,575.76s5.17,5.32,9.64,5.77,8.69,1.15,10.57,3.69,0,7.19-2.8,7.43-14.78,7.45-16.66,7.45-16.42,4.9-20.18,3.75-5.18-5.56-5.18-5.56-1.17,5.11-.93,6-11.5.26-12.23-7.62l-.69,4.41s-6.41-2.21-7.35-5.88c0,0-1.21,6.34,1.16,9.57,1.64,2.24,7,.81,7,.81s.45,2.6,13,2.08c0,0-.49,4,12.26,3.33,11.76-.57,18.35-4.54,18.82-6.86,0,0,9.57-2.93,14.26-3.87s9.63-.25,11.26-4,1.39-10.9,0-12.52-5.19-8.34-5.19-8.34l-25.13-3.19Z" style="fill:#ef8226"/><path id="Trazado_1952" data-name="Trazado 1952" d="M655.84,608.88c.06-2,.18-3.9.36-5.85a29.72,29.72,0,0,1,1-5.85,3.69,3.69,0,0,1,.78-1.46,4.29,4.29,0,0,1,1.37-.84,15.63,15.63,0,0,1,2.84-.82c1-.19,1.92-.33,2.89-.44.48,0,1-.09,1.45-.11a7,7,0,0,1,1.45,0,6.83,6.83,0,0,0-1.43.09c-.48.07-1,.15-1.43.25-.94.18-1.88.41-2.8.68a15.23,15.23,0,0,0-2.63,1,3.72,3.72,0,0,0-1,.76,3,3,0,0,0-.45,1.13,28.71,28.71,0,0,0-.44,5.63c0,1.91,0,3.84.15,5.74Z" style="fill:#dc6628"/><path id="Trazado_1953" data-name="Trazado 1953" d="M643.33,606.78c0-1.94.17-3.85.35-5.78a31.32,31.32,0,0,1,1-5.77,3.38,3.38,0,0,1,2-2.41,16.33,16.33,0,0,1,2.69-1.14c.91-.3,1.84-.57,2.77-.79.47-.11.94-.21,1.41-.29a4.87,4.87,0,0,1,1.42-.11,4.72,4.72,0,0,0-1.39.24c-.46.12-.92.27-1.37.42-.9.3-1.78.64-2.65,1A15,15,0,0,0,647,593.5a2.52,2.52,0,0,0-1.35,2,30.54,30.54,0,0,0-.42,5.57c0,1.88,0,3.79.16,5.66Z" style="fill:#dc6628"/><path id="Trazado_1954" data-name="Trazado 1954" d="M675.43,597.17s-2.58-2.61-8-2.6-6.81,1.24-7.52,2.4c0,0,8.44-2.33,15.5.2" style="fill:#f9d772"/><path id="Trazado_1955" data-name="Trazado 1955" d="M658.16,594.67a8,8,0,0,0-5.95-2.21c-4,0-5.07,1-5.6,2,0,0,6.29-2,11.55.17" style="fill:#f9d772"/><path id="Trazado_1956" data-name="Trazado 1956" d="M646.86,592.16a5.9,5.9,0,0,0-4.91-3c-3.32,0-4.18,1.4-4.62,2.74,0,0,5.19-2.67,9.53.24" style="fill:#f9d772"/><path id="Trazado_1957" data-name="Trazado 1957" d="M779.93,573.79s11.21,10.33,20.2,12.18,9.47,3.71,10.42,9.78,1.65,10.83-3.75,12.62a47.17,47.17,0,0,1-8,1.88s-4.26-1.86-4.26-3.26c0,0,1.42,3.73-2.36,4.67s-13.29,1.9-16.8.83a7.66,7.66,0,0,1-4.74-4.66s-1.4,5.14-3.29,5.61-10.88,1.42-14.19-.44-6.63-4.66-5.7-9.33,8-27.64,8-27.64" style="fill:#faad3f"/><path id="Trazado_1958" data-name="Trazado 1958" d="M779.93,573.79s11.21,10.33,20.2,12.18,9.47,3.71,10.42,9.78,1.65,10.83-3.75,12.62a47.17,47.17,0,0,1-8,1.88s-4.26-1.86-4.26-3.26c0,0,1.42,3.73-2.36,4.67s-13.29,1.9-16.8.83a7.66,7.66,0,0,1-4.74-4.66s-1.4,5.14-3.29,5.61-10.88,1.42-14.19-.44-6.63-4.66-5.7-9.33,8-27.64,8-27.64" style="fill:none;stroke:#dc6628;stroke-miterlimit:10;stroke-width:2.820868339101949px"/><path id="Trazado_1959" data-name="Trazado 1959" d="M785.38,578.48s-2.63,4.51-7.67,5-8.65-1.88-13.69-2.11-11.76,3.11-11.76,3.11l1.67-6.17,27.87-3.56a6.48,6.48,0,0,0,3.57,3.74" style="fill:#ef8226"/><path id="Trazado_1960" data-name="Trazado 1960" d="M810,599.31a9.62,9.62,0,0,1-6.64,4.39c-4.93,1-5.28-.16-6.47-2.51s-4.46-9.92-11.79-12.43c0,0,5.63,4.37,6.84,9.41s.36,7.57-4.75,7.92-11.59.86-13.29-1.49-5.15-14.79-5.15-14.79.37,13.46,0,15.14-5.1,2.2-10,1.54-7.84.86-8.19-4,1.84-16.66,1.84-16.66-4.73,17.67-4.39,19.69a10.86,10.86,0,0,0,7.34,7.56c4.6,1.33,11.42.48,12.27-.7a45.85,45.85,0,0,0,2.54-5.05s3.25,3.86,5.8,4.36,15.85-.2,17.21-1.38a10.27,10.27,0,0,0,2.2-3.88s1.54,2.69,3.76,2.69,13.46-.54,10.88-9.78" style="fill:#ef8226"/><path id="Trazado_1961" data-name="Trazado 1961" d="M794,609.4c-.11-1.46-.27-3-.47-4.44s-.45-3-.75-4.43a32.43,32.43,0,0,0-1.17-4.32,12.71,12.71,0,0,0-.93-2,3.65,3.65,0,0,0-1.57-1.54,3.7,3.7,0,0,1,1.78,1.39,12.7,12.7,0,0,1,1.2,2,32.65,32.65,0,0,1,1.71,4.26c.48,1.45.9,2.91,1.28,4.39s.72,3,1,4.48Z" style="fill:#dc6628"/><path id="Trazado_1962" data-name="Trazado 1962" d="M769.69,609l-.13-8.62c-.07-2.86-.12-5.74-.29-8.61.52,2.83.92,5.68,1.34,8.53l1.19,8.55Z" style="fill:#dc6628"/><path id="Trazado_1963" data-name="Trazado 1963" d="M804.36,590.05s-5.52-1.41-9.59,1.2a40.16,40.16,0,0,0,9.59-1.2" style="fill:#f9d772"/><path id="Trazado_1964" data-name="Trazado 1964" d="M786.85,592.93a14.23,14.23,0,0,0-9.61-2.35c-5.52.72-6.23,4-6.23,4a20.72,20.72,0,0,1,15.84-1.69" style="fill:#f9d772"/><path id="Trazado_1965" data-name="Trazado 1965" d="M766.45,594.16a11.91,11.91,0,0,0-8.41-3.07c-5.52,0-6,1.44-7.44,2.86,0,0,8.64-2.38,15.84.21" style="fill:#f9d772"/><path id="Trazado_1966" data-name="Trazado 1966" d="M756.94,477.73s7.83,26.36,11,53.25l5.7,6.91s4.13,29.54,7,36.46c0,0-6.48,6.33-11.76,4.92s-14.62-1.4-14.62-1.4-2.91-26.08-9-34.21a183.89,183.89,0,0,1-11.59-18s-8.53-2-15.42.44c0,0-8.32,10.71-8.31,13.57s2.86,6.92,2.86,6.92-3.17,25-1.94,28.48c0,0-14.23,3.13-17.08,3.14s-8.78-5.08-8.78-5.08,3-30.57-1.47-46l8-47.08s60.38-2.67,65.45-2.27" style="fill:#2683a9"/><path id="Trazado_1967" data-name="Trazado 1967" d="M756.94,477.73s7.83,26.36,11,53.25l5.7,6.91s4.13,29.54,7,36.46c0,0-6.48,6.33-11.76,4.92s-14.62-1.4-14.62-1.4-2.91-26.08-9-34.21a183.89,183.89,0,0,1-11.59-18s-8.53-2-15.42.44c0,0-8.32,10.71-8.31,13.57s2.86,6.92,2.86,6.92-3.17,25-1.94,28.48c0,0-14.23,3.13-17.08,3.14s-8.78-5.08-8.78-5.08,3-30.57-1.47-46l8-47.08S751.87,477.33,756.94,477.73Z" style="fill:none;stroke:#004b79;stroke-miterlimit:10;stroke-width:2.4409292523803856px"/><path id="Trazado_1968" data-name="Trazado 1968" d="M714.47,485.59s.32,22.81,1.27,29.08c.5,3.3,8.47,1.79,8.47,1.79l-1-31.08Z" style="fill:none;stroke:#004b79;stroke-miterlimit:10;stroke-width:0.8960826992988586px"/><g id="Grupo_455" data-name="Grupo 455"><g id="Grupo_454" data-name="Grupo 454"><g style="clip-path:url(#clip-path-4)"><g id="Grupo_453" data-name="Grupo 453"><path id="Trazado_1969" data-name="Trazado 1969" d="M743.49,486.84s9.48,28,9.7,30.4c0,0,4.59,8.89,6.59,10,0,0,6,9,6.71,13.62s4.07,29.44,3.86,31.2-3.78,6.17-3.78,6.17,5.13,1.3,9.58-.9,3.55-3.09,3.55-3.09-6.74-28.12-6.31-35.15l-6.47-7.68s-3.43-34-9-46.49a126.91,126.91,0,0,1-14.41,1.94" style="fill:#94afc7"/></g></g></g></g><path id="Trazado_1970" data-name="Trazado 1970" d="M762.7,505.72,747,502.5l-10.53-11.59" style="fill:none;stroke:#004b79;stroke-miterlimit:10;stroke-width:0.8960826992988586px"/><path id="Trazado_1971" data-name="Trazado 1971" d="M762.35,503.11,748,500.5l-8.9-13" style="fill:none;stroke:#004b79;stroke-miterlimit:10;stroke-width:0.8960826992988586px"/><path id="Trazado_1972" data-name="Trazado 1972" d="M705.32,488.68l-5.62,8.9L689,501" style="fill:none;stroke:#004b79;stroke-miterlimit:10;stroke-width:0.8960826992988586px"/><path id="Trazado_1973" data-name="Trazado 1973" d="M702.44,487.49,698,495.27l-8.44,2.34" style="fill:none;stroke:#004b79;stroke-miterlimit:10;stroke-width:0.8960826992988586px"/><path id="Trazado_1974" data-name="Trazado 1974" d="M767.31,531.81c-1.53-.83-3-1.69-4.49-2.6s-2.92-1.84-4.34-2.83a44.64,44.64,0,0,1-4.08-3.18,19.86,19.86,0,0,1-1.83-1.84,7.73,7.73,0,0,1-1.39-2.17,7.44,7.44,0,0,0,1.56,2,18,18,0,0,0,2,1.64,44.82,44.82,0,0,0,4.29,2.77c1.47.84,3,1.64,4.51,2.39s3.07,1.48,4.62,2.15Z" style="fill:#004b79"/><path id="Trazado_1975" data-name="Trazado 1975" d="M773.18,577.83c-1.6-7.6-3-15.22-4.27-22.89-.3-1.91-.59-3.83-.84-5.77-.13-1-.24-1.91-.4-2.85s-.33-1.89-.53-2.82a75.12,75.12,0,0,0-3.37-11,27.81,27.81,0,0,0-1.16-2.59,4.48,4.48,0,0,0-.32-.56,3.06,3.06,0,0,1-.38-.82c-.17-.49-.3-1-.43-1.43-.51-1.89-1-3.78-1.4-5.67q-1.29-5.68-2.47-11.38-2.36-11.4-4.45-22.84l5.31,22.65c.89,3.78,1.77,7.55,2.7,11.31.47,1.88.94,3.76,1.46,5.6.14.46.27.92.43,1.36a2.33,2.33,0,0,0,.21.49,6.12,6.12,0,0,1,.43.69A26.5,26.5,0,0,1,765,532a68.55,68.55,0,0,1,3.46,11.21,51.94,51.94,0,0,1,.9,5.81c.21,1.91.46,3.83.73,5.75,1,7.68,2.14,15.36,3.13,23.05" style="fill:#004b79"/><path id="Trazado_1976" data-name="Trazado 1976" d="M709.86,542.73c-1.58-1.62-3.08-3.28-4.54-5a59.29,59.29,0,0,1-4.11-5.35,22.11,22.11,0,0,1-1.68-3,8,8,0,0,1-.56-1.65,6.14,6.14,0,0,1-.12-.86,7.92,7.92,0,0,1-.05-.85,11.33,11.33,0,0,1,1.71-6.43,11,11,0,0,0-1.21,6.4c.07,2.22,1.39,4,2.69,5.79a57.2,57.2,0,0,0,4.36,5c1.54,1.58,3.14,3.13,4.77,4.59Z" style="fill:#004b79"/><path id="Trazado_1977" data-name="Trazado 1977" d="M704.45,575.8a73.65,73.65,0,0,1-2.19-16.72,25.48,25.48,0,0,1,.35-4.28,13.89,13.89,0,0,1,.56-2.13c.3-.74.58-1.3.81-1.94a22.62,22.62,0,0,0,1.26-8,25.2,25.2,0,0,0-.33-4.07c-.06-.34-.12-.67-.2-1a4.87,4.87,0,0,0-.28-.84,1.68,1.68,0,0,1-.16-.39,1.91,1.91,0,0,1-.06-.33,4,4,0,0,1,0-.58c0-.37,0-.73,0-1.09A76.8,76.8,0,0,1,705,526c.39-2.79.89-5.56,1.53-8.3.34-1.37.7-2.73,1.14-4.07a15,15,0,0,1,1.75-3.84A17.32,17.32,0,0,0,708,513.7c-.34,1.35-.62,2.72-.85,4.1-.49,2.75-.84,5.52-1.14,8.3s-.53,5.57-.57,8.33c0,.34,0,.68,0,1s.05.7.13.74a5.55,5.55,0,0,1,.42,1.14c.09.36.16.72.23,1.08a27.93,27.93,0,0,1,.39,4.29,23.4,23.4,0,0,1-1.4,8.49c-.26.67-.62,1.36-.86,1.92a12.76,12.76,0,0,0-.55,1.92,29.45,29.45,0,0,0-.46,4.08,70.51,70.51,0,0,0,.23,8.35c.19,2.79.54,5.57.91,8.35" style="fill:#004b79"/><path id="Trazado_1978" data-name="Trazado 1978" d="M758,534.1s-12.81-10.25-13.68-13.67c0,0,3.71,12,6.53,13.9s9.8,19,10.23,20.74-2.42-19.9-3.08-21" style="fill:#7fbee7"/><path id="Trazado_1979" data-name="Trazado 1979" d="M702.54,540.42s-7.18-10.47-7.18-12.61,2.8-9.85,2.8-9.85S693,525.24,693,527.6s6.75,10.69,9.57,12.82" style="fill:#7fbee7"/><path id="Trazado_1980" data-name="Trazado 1980" d="M690.56,486.58s4,3.08,28.54,4,39.65-4.09,39.65-4.09l-.86-5.68s-22.57,3.15-38.53,2.69a149.85,149.85,0,0,1-29-3.74s-.57,4.35.19,6.84" style="fill:#20120d"/><path id="Trazado_1981" data-name="Trazado 1981" d="M725.13,491.47l-13.39-.23a3.21,3.21,0,0,1-3.17-3.24v-.06l.13-3.79a3.23,3.23,0,0,1,3.32-3.08l13.32.36a3.2,3.2,0,0,1,3.14,3.24l-.06,3.67a3.21,3.21,0,0,1-3.28,3.13h0" style="fill:#c78b39"/><path id="Trazado_1982" data-name="Trazado 1982" d="M725.13,491.47l-13.39-.23a3.21,3.21,0,0,1-3.17-3.24v-.06l.13-3.79a3.23,3.23,0,0,1,3.32-3.08l13.32.36a3.2,3.2,0,0,1,3.14,3.24l-.06,3.67a3.21,3.21,0,0,1-3.29,3.13Z" style="fill:none;stroke:#3f1f1c;stroke-miterlimit:10;stroke-width:3.174820988233577px"/><path id="Trazado_1983" data-name="Trazado 1983" d="M696.06,489.73s-.22-7.42,1.19-9.53l3.37.94s-1.93,5.63-1.4,9.33" style="fill:#2683a9"/><path id="Trazado_1984" data-name="Trazado 1984" d="M696.06,489.73s-.22-7.42,1.19-9.53l3.37.94s-1.93,5.63-1.4,9.33" style="fill:none;stroke:#004b79;stroke-linecap:round;stroke-linejoin:round;stroke-width:1.7805163132519795px"/><path id="Trazado_1985" data-name="Trazado 1985" d="M737.5,491.45s-.21-7.22-1.12-9.88c0,0,3.71-1.76,4.18-.12s1.49,8.22.3,10.52" style="fill:#2683a9"/><path id="Trazado_1986" data-name="Trazado 1986" d="M737.5,491.45s-.21-7.22-1.12-9.88c0,0,3.71-1.76,4.18-.12s1.49,8.22.3,10.52" style="fill:none;stroke:#004b79;stroke-linecap:round;stroke-linejoin:round;stroke-width:1.7805163132519795px"/><path id="Trazado_1987" data-name="Trazado 1987" d="M755.11,487.76s-.17-6.08-.94-8.32c0,0,3.12-1.48,3.52-.1s1.25,6.92.25,8.86" style="fill:#2683a9"/><path id="Trazado_1988" data-name="Trazado 1988" d="M755.11,487.76s-.17-6.08-.94-8.32c0,0,3.12-1.48,3.52-.1s1.25,6.92.25,8.86" style="fill:none;stroke:#004b79;stroke-linecap:round;stroke-linejoin:round;stroke-width:1.4991463362718562px"/><path id="Trazado_1989" data-name="Trazado 1989" d="M615.63,323.86s-7.93-20.3-12.79-22.08-8.19,2.11-9.7,5.1,1.84,9.55,4,11.34S602.29,329,602,330.76" style="fill:#fff"/><path id="Trazado_1990" data-name="Trazado 1990" d="M615.63,323.86s-7.93-20.3-12.79-22.08-8.19,2.11-9.7,5.1,1.84,9.55,4,11.34S602.29,329,602,330.76" style="fill:none;stroke:#dc6628;stroke-miterlimit:10;stroke-width:3.355829606325699px"/><path id="Trazado_1991" data-name="Trazado 1991" d="M694.15,407.16s-26,5.79-36.72,9.14L653,426.85l-2-8.58-4.8,9.15a63.17,63.17,0,0,0-2.27-8.88c-1.13-2.77-35-28.77-42.93-51.5,0,0-8.72-3.75-11-9.29s1.34-18.43,1.34-18.43,17.71-13,22-11.49,8.21,8.35,6.7,13.13,3.27,9.9,3.27,9.9,3.61,7.25,14.34,16.66c7.61,6.68,15.23,6.62,15.23,6.62l10-8.17" style="fill:#faad3f"/><path id="Trazado_1992" data-name="Trazado 1992" d="M694.15,407.16s-26,5.79-36.72,9.14L653,426.85l-2-8.58-4.8,9.15a63.17,63.17,0,0,0-2.27-8.88c-1.13-2.77-35-28.77-42.93-51.5,0,0-8.72-3.75-11-9.29s1.34-18.43,1.34-18.43,17.71-13,22-11.49,8.21,8.35,6.7,13.13,3.27,9.9,3.27,9.9,3.61,7.25,14.34,16.66c7.61,6.68,15.23,6.62,15.23,6.62l10-8.17" style="fill:none;stroke:#dc6628;stroke-miterlimit:10;stroke-width:3.355829606325699px"/><path id="Trazado_1993" data-name="Trazado 1993" d="M609.7,327.1s-13.7,4.12-16.31,13.8c-1,3.77-3.71,13.37-.38,15s20.34-9.45,23.09-14.64,2.34-8.59-.16-11.59-3.47-3.81-6.24-2.57" style="fill:#fff"/><path id="Trazado_1994" data-name="Trazado 1994" d="M609.7,327.1s-13.7,4.12-16.31,13.8c-1,3.77-3.71,13.37-.38,15s20.34-9.45,23.09-14.64,2.34-8.59-.16-11.59S612.47,325.87,609.7,327.1Z" style="fill:none;stroke:#dc6628;stroke-miterlimit:10;stroke-width:1.912240536705454px"/><path id="Trazado_1995" data-name="Trazado 1995" d="M666.62,390.77s-17.93,5.37-24,3.39-14.24-9.31-29.53-32.61c-2.7,3-11.59,4.42-11.59,4.42s2.48,8.6,15.38,23.91a260.54,260.54,0,0,0,28.5,28.27l.69,7.66,5.06-11,2.72,8.33,3-8.34,24.71-3.71-1-13Z" style="fill:#ef8226"/><path id="Trazado_1996" data-name="Trazado 1996" d="M622.36,351.46s5.83-12,5.82-15.59-3.36-14-3.36-14-5.48-5.67-7.92-10.44c-1.16-2.28-11.22,1.51-9.38,9a20.52,20.52,0,0,0,7.61,11.33l-11.21,8.69" style="fill:#faad3f"/><path id="Trazado_1997" data-name="Trazado 1997" d="M622.36,351.46s5.83-12,5.82-15.59-3.36-14-3.36-14-5.48-5.67-7.92-10.44c-1.16-2.28-11.22,1.51-9.38,9a20.52,20.52,0,0,0,7.61,11.33l-11.21,8.69" style="fill:none;stroke:#dc6628;stroke-miterlimit:10;stroke-width:3.355829606325699px"/><path id="Trazado_1998" data-name="Trazado 1998" d="M589.94,344s-7.24-7.8-9.92-7.49-3.57,4.59-4.65,7.28,7.31,8.32,9.38,8.4,7.65-5.81,5.19-8.2" style="fill:#faad3f"/><path id="Trazado_1999" data-name="Trazado 1999" d="M589.94,344s-7.24-7.8-9.92-7.49-3.57,4.59-4.65,7.28,7.31,8.32,9.38,8.4S592.4,346.37,589.94,344Z" style="fill:none;stroke:#dc6628;stroke-miterlimit:10;stroke-width:2.6649499272051003px"/><path id="Trazado_2000" data-name="Trazado 2000" d="M583.85,345.65s.95,3.85-1.74,4.39c0,0,2,2,3,1.46a29.77,29.77,0,0,0,3.5-3.33Z" style="fill:#fff"/><path id="Trazado_2001" data-name="Trazado 2001" d="M583.85,345.65s.95,3.85-1.74,4.39c0,0,2,2,3,1.46a29.77,29.77,0,0,0,3.5-3.33Z" style="fill:none;stroke:#dc6628;stroke-miterlimit:10;stroke-width:1.912240536705454px"/><path id="Trazado_2002" data-name="Trazado 2002" d="M593.79,342.54s-2.79-11.29-5.22-12.36-5.05,2.62-7.16,4.66,2.62,11.83,4.36,13,9.09-1.7,8-5.28" style="fill:#faad3f"/><path id="Trazado_2003" data-name="Trazado 2003" d="M593.79,342.54s-2.79-11.29-5.22-12.36-5.05,2.62-7.16,4.66,2.62,11.83,4.36,13S594.86,346.11,593.79,342.54Z" style="fill:none;stroke:#dc6628;stroke-miterlimit:10;stroke-width:2.735740457031426px"/><path id="Trazado_2004" data-name="Trazado 2004" d="M584.66,344.58s4.46.39,6.74-3.33l2,1.72a4.69,4.69,0,0,1-2.69,3.33c-2.29.93-4,1.33-5,.27a4.14,4.14,0,0,1-1.08-2" style="fill:#fff"/><path id="Trazado_2005" data-name="Trazado 2005" d="M584.66,344.58s4.46.39,6.74-3.33l2,1.72a4.69,4.69,0,0,1-2.69,3.33c-2.29.93-4,1.33-5,.27A4.24,4.24,0,0,1,584.66,344.58Z" style="fill:none;stroke:#dc6628;stroke-miterlimit:10;stroke-width:1.912240536705454px"/><path id="Trazado_2006" data-name="Trazado 2006" d="M604.6,336.9s-2.15-13.14-5.19-14.63-7,2.4-10,4.5,1.85,13.74,4,15.23,12.13-.92,11.21-5.1" style="fill:#faad3f"/><path id="Trazado_2007" data-name="Trazado 2007" d="M604.6,336.9s-2.15-13.14-5.19-14.63-7,2.4-10,4.5,1.85,13.74,4,15.23S605.52,341.08,604.6,336.9Z" style="fill:none;stroke:#dc6628;stroke-miterlimit:10;stroke-width:3.355829606325699px"/><path id="Trazado_2008" data-name="Trazado 2008" d="M600.81,362.24c4.94,2,11.81-.35,17.19-10s6.39-14.68,5-19.68-1-7.66-4.07-11.32-4.08-10-7.45-8-4.37,6-.65,12,6.1,6.32,6.1,6.32-15.51,12.69-17.86,14-14.08,10.2,1.72,16.66" style="fill:#fff"/><path id="Trazado_2009" data-name="Trazado 2009" d="M598.92,323s2.59,11.42,2.32,13-7,4.92-9.38,2.67a5.62,5.62,0,0,0,2.51,2.52c1.62.66,8.77,0,9.3-3.34s-2-12.22-4.75-14.87" style="fill:#fff"/><path id="Trazado_2010" data-name="Trazado 2010" d="M598.92,323s2.59,11.42,2.32,13-7,4.92-9.38,2.67a5.62,5.62,0,0,0,2.51,2.52c1.62.66,8.77,0,9.3-3.34S601.62,325.68,598.92,323Z" style="fill:none;stroke:#dc6628;stroke-miterlimit:10;stroke-width:1.912240536705454px"/><path id="Trazado_2011" data-name="Trazado 2011" d="M647.94,377.93s-21.57-13.8-25.34-22.2a32.47,32.47,0,0,0,9.3,16.8c8,7.89,16,5.4,16,5.4" style="fill:#f9d772"/><path id="Trazado_2012" data-name="Trazado 2012" d="M699.23,336.49s-25.18,5.39-46.07,31.56c0,0,5.19,20.31,23.22,29.71,0,0,18.35-13.47,23.48-18.92" style="fill:#2a0922"/><path id="Trazado_2013" data-name="Trazado 2013" d="M699.23,336.49s-25.18,5.39-46.07,31.56c0,0,5.19,20.31,23.22,29.71,0,0,18.35-13.47,23.48-18.92" style="fill:none;stroke:#3f1f1c;stroke-miterlimit:10;stroke-width:2.92302184031513px"/><path id="Trazado_2014" data-name="Trazado 2014" d="M658.53,360.78S662.9,376.29,683,392.7l-6.64,5.06S656.62,384,650.22,370.47c0,0,4.89-8.23,8.31-9.69" style="fill:#c78b39"/><path id="Trazado_2015" data-name="Trazado 2015" d="M658.53,360.78S662.9,376.29,683,392.7l-6.64,5.06S656.62,384,650.22,370.47C650.22,370.47,655.11,362.24,658.53,360.78Z" style="fill:none;stroke:#3f1f1c;stroke-miterlimit:10;stroke-width:2.890762851176376px"/><g id="Grupo_458" data-name="Grupo 458"><g id="Grupo_457" data-name="Grupo 457"><g style="clip-path:url(#clip-path-5)"><g id="Grupo_456" data-name="Grupo 456"><path id="Trazado_2016" data-name="Trazado 2016" d="M677.81,366.59s-3.76,15.64-17,19c0,0,9.24,10.08,12.61,11.85,0,0,.15-19.75,4.39-30.84" style="fill:#cca471"/></g></g></g></g><path id="Trazado_2017" data-name="Trazado 2017" d="M678.86,364.37c-13.66,27.12-3.72,71.23.38,86.21,3.7,13.54,7.7,19.62,9.59,24.18a7.2,7.2,0,0,0-1.65,3.86c1.62,2.37,2.12,4.32,33.39,4.53,33.31.22,41.37-3.36,41.37-3.36s2.36-1.23.52-5.36c.95-4.77,2.76-13.56,6.1-28.52,4.52-20.28,35.19-40,31.68-85.45-1.31-16.9-53.13-29.26-72.54-29.94-13.32-.47-25.72,0-33.77,10.59" style="fill:#2a0922"/><path id="Trazado_2018" data-name="Trazado 2018" d="M678.86,364.37a59.55,59.55,0,0,0-4.45,13.46,92.56,92.56,0,0,0-1.78,14.06,150.32,150.32,0,0,0,1.48,28.28c.65,4.69,1.48,9.34,2.44,14s1.92,9.25,3.11,13.82a114.11,114.11,0,0,0,4.28,13.44q1.29,3.28,2.81,6.46c1,2.13,2.11,4.22,3.08,6.49l.25.61-.45.52a5.32,5.32,0,0,0-.92,1.51,5.44,5.44,0,0,0-.29.86,5.08,5.08,0,0,0-.16.85l-.19-.69a4.12,4.12,0,0,0,1.41,1.52,9.37,9.37,0,0,0,2.1.8,35.49,35.49,0,0,0,4.9.8c3.35.36,6.75.53,10.15.66,6.8.25,13.63.3,20.44.27s13.62-.3,20.39-.89c3.37-.32,6.74-.71,10-1.34.82-.17,1.64-.34,2.43-.55.4-.11.79-.21,1.17-.34l.27-.09.09,0s0,0,0,0h0a.84.84,0,0,0,.23-.23,2.23,2.23,0,0,0,.41-1.64,7.21,7.21,0,0,0-.59-2.1l-.14-.32.06-.33c1-4.94,2-9.86,3.08-14.77l1.6-7.37.81-3.68c.29-1.24.52-2.42.85-3.71,1.36-5.07,3.94-9.56,6.6-13.85s5.58-8.4,8.3-12.6a141.85,141.85,0,0,0,7.55-12.89,87.92,87.92,0,0,0,5.65-13.75,81.66,81.66,0,0,0,3.42-29.39c0-.6-.07-1.26-.13-1.83a4.52,4.52,0,0,0-.13-.82,5.54,5.54,0,0,0-.21-.8,11,11,0,0,0-1.56-3,23.62,23.62,0,0,0-5.16-5,65.88,65.88,0,0,0-13-7,140.26,140.26,0,0,0-14.08-5q-7.15-2.16-14.5-3.74c-4.88-1-9.78-2.06-14.72-2.78-2.47-.36-4.94-.65-7.42-.81s-5-.26-7.48-.29a47.38,47.38,0,0,0-14.75,1.74,25.69,25.69,0,0,0-6.71,3.19,25,25,0,0,0-5.48,5.1,24.76,24.76,0,0,1,12-9,48.55,48.55,0,0,1,15-2.41c2.54-.08,5-.07,7.58,0s5.07.31,7.58.6a145.19,145.19,0,0,1,15,2.49,173.72,173.72,0,0,1,29,8.92A67.39,67.39,0,0,1,793.35,349a25.58,25.58,0,0,1,5.64,5.45,13.22,13.22,0,0,1,1.87,3.64,6.93,6.93,0,0,1,.26,1,7.27,7.27,0,0,1,.17,1c.07.68.09,1.28.14,1.92a83.87,83.87,0,0,1-3.53,30.16,89.89,89.89,0,0,1-5.78,14.09,140.35,140.35,0,0,1-7.67,13.09c-2.74,4.24-5.62,8.36-8.28,12.58s-5.09,8.56-6.34,13.24c-.29,1.14-.55,2.42-.83,3.63l-.8,3.67-1.6,7.36c-1.06,4.91-2.1,9.82-3.07,14.74l-.07-.65a9.17,9.17,0,0,1,.77,2.81,4.45,4.45,0,0,1-.89,3.19,3.55,3.55,0,0,1-.7.64l-.13.09-.18.08-.2.08-.34.12c-.44.15-.87.26-1.3.38-.86.22-1.71.4-2.57.58-3.41.65-6.84,1.05-10.26,1.37-6.85.6-13.71.84-20.56.89s-13.69,0-20.55-.26c-3.42-.13-6.85-.31-10.3-.67a38.53,38.53,0,0,1-5.21-.87,10.29,10.29,0,0,1-2.66-1,5.45,5.45,0,0,1-1.24-1,9.48,9.48,0,0,1-.85-1.15l-.23-.32,0-.37a7.52,7.52,0,0,1,.23-1.24,9.11,9.11,0,0,1,.38-1.15A7.54,7.54,0,0,1,688,474l-.19,1.13c-.89-2.1-2-4.22-3-6.38s-2-4.36-2.87-6.6a119.48,119.48,0,0,1-4.36-13.68c-1.19-4.62-2.3-9.27-3.15-14s-1.53-9.42-2-14.16a152.28,152.28,0,0,1-.67-28.56,89.52,89.52,0,0,1,2.23-14.11,59.91,59.91,0,0,1,4.94-13.36" style="fill:#3f1f1c"/><path id="Trazado_2019" data-name="Trazado 2019" d="M710.8,379.79s-.75,12.58.2,19.58l8.61.12s1.12-13,3.92-19.69Z" style="fill:#c78b39"/><path id="Trazado_2020" data-name="Trazado 2020" d="M710.8,379.79s-.75,12.58.2,19.58l8.61.12s1.12-13,3.92-19.69Z" style="fill:none;stroke:#3f1f1c;stroke-miterlimit:10;stroke-width:2.890762851176376px"/><path id="Trazado_2021" data-name="Trazado 2021" d="M824.44,366.15s19.61,7.17,24.07,26.4-13.18,21.08-30.23,16.07c-9.47-2.79-11.53-6.33-27.72-13.92" style="fill:#faad3f"/><path id="Trazado_2022" data-name="Trazado 2022" d="M824.44,366.15s19.61,7.17,24.07,26.4-13.18,21.08-30.23,16.07c-9.47-2.79-11.53-6.33-27.72-13.92" style="fill:none;stroke:#dc6628;stroke-miterlimit:10;stroke-width:2.92302184031513px"/><path id="Trazado_2023" data-name="Trazado 2023" d="M805,390.44s6.19,5.27,13.6,5.66a22.31,22.31,0,0,0-7,9.77s-10.3-4.45-11.94-5.66c0,0,.8-7.73,5.32-9.77" style="fill:#ef8226"/><path id="Trazado_2024" data-name="Trazado 2024" d="M773.67,335.74s33.42,4.79,56.63,31.24c0,0-27,19.52-28,36.22,0,0-18.07-8.09-23.23-13.53" style="fill:#2a0922"/><path id="Trazado_2025" data-name="Trazado 2025" d="M773.67,335.74a73,73,0,0,1,8.17,1.28c2.7.56,5.38,1.28,8,2.07a57.74,57.74,0,0,1,7.75,3q3.79,1.7,7.46,3.67t7.15,4.25c2.31,1.53,4.59,3.12,6.77,4.84a90.79,90.79,0,0,1,12.12,11.4l.79.89-1,.72c-3.08,2.29-6.08,4.79-9,7.39a104.14,104.14,0,0,0-8.17,8.24,59.39,59.39,0,0,0-6.82,9.26,24.84,24.84,0,0,0-3.65,10.51l-.11,1.58-1.43-.65c-2.07-.94-4.1-1.91-6.13-2.91s-4-2.07-6-3.11c-1-.56-1.91-1.24-2.85-1.88s-1.86-1.3-2.77-2a29.21,29.21,0,0,1-5-4.62,22.66,22.66,0,0,0,2.75,1.93c1,.59,1.93,1.13,2.92,1.65,2,1.06,4,2,6,2.95,1.94,1.12,3.95,2.11,5.94,3.12s4,2,6.05,2.88l-1.54.93a27,27,0,0,1,3.94-11.48,61.52,61.52,0,0,1,7.07-9.6,105.3,105.3,0,0,1,8.35-8.42c2.93-2.65,5.93-5.17,9.14-7.54l-.18,1.61a89.6,89.6,0,0,0-11.83-11.13c-2.13-1.67-4.36-3.23-6.61-4.73s-4.62-2.85-7-4.16-4.83-2.48-7.31-3.59-5.05-2-7.53-3.13a105.08,105.08,0,0,0-15.54-5.22" style="fill:#3f1f1c"/><path id="Trazado_2026" data-name="Trazado 2026" d="M824.7,358.69s-29.44,19.95-28.21,40.74l6.86,4.55s7.58-25.87,30.2-36.12c0,0-5.67-7.21-8.85-9.17" style="fill:#c78b39"/><path id="Trazado_2027" data-name="Trazado 2027" d="M824.7,358.69s-29.44,19.95-28.21,40.74l6.86,4.55s7.58-25.87,30.2-36.12C833.55,367.86,827.88,360.65,824.7,358.69Z" style="fill:none;stroke:#3f1f1c;stroke-miterlimit:10;stroke-width:2.890762851176376px"/><g id="Grupo_461" data-name="Grupo 461"><g id="Grupo_460" data-name="Grupo 460"><g style="clip-path:url(#clip-path-6)"><g id="Grupo_459" data-name="Grupo 459"><path id="Trazado_2028" data-name="Trazado 2028" d="M807.42,392.38s-6.11-4.37-7.33-5.94a43.42,43.42,0,0,0-2.62,12.74l5.41,3.49s3.14-8.38,4.54-10.29" style="fill:#cca471"/></g></g></g></g><path id="Trazado_2029" data-name="Trazado 2029" d="M841.41,388.5c9.62.19,18.92,6.46,20,14.84-3-2.3-8.82-.34-8.82-.34,4.86,7.69-.29,15.27-.29,15.27L848.58,410s1.07,13.77-22.31,30.23c-17.86,12.57-30.95,26.57-37,25.67s-18.41-6.71-19-7.82S756,465.74,756,465.74s-8.83,3.77-10.48-6.6l2.18-3.72s-3.21.63-3.68-1.75-3-11-3-11l2.65-1.34-4-9s11.48-7.16,17.66-7.54S787.07,442,787.07,442s10-13,14-26.15c6.49-21.82,20.53-27.15,20.53-27.15" style="fill:#faad3f"/><path id="Trazado_2030" data-name="Trazado 2030" d="M841.41,388.5a23.62,23.62,0,0,1,6.69.9,22.58,22.58,0,0,1,6.23,2.76,19.12,19.12,0,0,1,5.08,4.66,14.58,14.58,0,0,1,2.77,6.43l.27,1.77L861,404a6.11,6.11,0,0,0-3.85-.84,15.19,15.19,0,0,0-2.12.28,17.87,17.87,0,0,0-2.06.56l.53-1.48a14.76,14.76,0,0,1,1.85,3.91,14.38,14.38,0,0,1,.6,4.33,15.2,15.2,0,0,1-.74,4.28,18.31,18.31,0,0,1-.78,2,16,16,0,0,1-1.06,1.95l-1.21,1.85-.91-2-3.74-8.32,2.33-.59a8.38,8.38,0,0,1,0,1.12c0,.35-.06.69-.11,1-.09.67-.23,1.33-.38,2a27.34,27.34,0,0,1-1.26,3.77,36.06,36.06,0,0,1-3.79,6.85,60,60,0,0,1-10.49,11.33c-2,1.66-4,3.25-6.06,4.72s-4.09,2.93-6.1,4.45c-4,3-8,6.19-11.87,9.38s-7.8,6.44-12.08,9.35a32.14,32.14,0,0,1-3.39,2,10.83,10.83,0,0,1-4.08,1.25h-.61c-.2,0-.43,0-.58-.07-.34,0-.67-.12-1-.19-.65-.13-1.29-.3-1.91-.47-1.26-.36-2.48-.77-3.69-1.2-2.42-.88-4.78-1.86-7.11-2.93-1.16-.54-2.32-1.1-3.47-1.72a19.12,19.12,0,0,1-1.74-1,4.33,4.33,0,0,1-.52-.42l-.18-.19a1.88,1.88,0,0,1-.12-.18c0-.06,0,0,0,0a1.07,1.07,0,0,0,.14.16.85.85,0,0,0,.62.27c.08,0,0,0-.14,0l-.35.12a30.44,30.44,0,0,0-3.24,1.6c-1.09.6-2.17,1.23-3.25,1.88-2.15,1.28-4.3,2.61-6.41,4l-.1.06-.08,0a11,11,0,0,1-4.09.77,7.45,7.45,0,0,1-6.91-4.45,13.28,13.28,0,0,1-1.16-3.85l-.07-.43.22-.38,2.18-3.71,1.28,1.81a6.47,6.47,0,0,1-1.24.09,5.39,5.39,0,0,1-1.27-.16,3.85,3.85,0,0,1-1.32-.6,3.21,3.21,0,0,1-1-1.24,3.13,3.13,0,0,1-.24-.71l-.11-.49-.22-.94-.5-1.92c-.67-2.55-1.39-5.11-2.11-7.66l-.28-1,.9-.46,2.65-1.33-.57,1.57-4-9-.43-1,.91-.54a78.33,78.33,0,0,1,12.22-6.2,32.5,32.5,0,0,1,3.34-1.08,18.05,18.05,0,0,1,1.78-.35c.31-.05.62-.07.95-.09a6.52,6.52,0,0,1,1.08.06,15.42,15.42,0,0,1,3.5,1.08c1.09.45,2.12,1,3.14,1.49a129.92,129.92,0,0,1,11.62,7.07q5.64,3.76,11.07,7.81l-1.7.23c1.59-2.1,3.11-4.33,4.53-6.58s2.8-4.55,4-6.92,2.43-4.74,3.5-7.17,1.89-4.91,2.82-7.53a51.68,51.68,0,0,1,7.94-14.3,38.46,38.46,0,0,1,5.73-5.82,27.09,27.09,0,0,1,6.92-4.22,26.87,26.87,0,0,0-6.59,4.61,40.3,40.3,0,0,0-5.29,6,50.06,50.06,0,0,0-7,14.31c-.75,2.51-1.47,5.23-2.45,7.79a58.61,58.61,0,0,1-3.41,7.48,111.48,111.48,0,0,1-8.8,13.83l-.71,1-1-.73q-5.39-4-11-7.74a128.7,128.7,0,0,0-11.4-6.93c-1-.51-2-1-3-1.4a12.88,12.88,0,0,0-2.92-.92,4.08,4.08,0,0,0-.61,0c-.22,0-.48,0-.72.07a15.34,15.34,0,0,0-1.53.31,28.13,28.13,0,0,0-3.07,1,78.25,78.25,0,0,0-11.8,6l.47-1.52,4,9,.46,1.06-1,.52-2.65,1.34.63-1.43c.73,2.57,1.44,5.13,2.13,7.72l.5,2,.24,1,.1.48a.9.9,0,0,0,.08.23,1,1,0,0,0,.72.5,3.73,3.73,0,0,0,1.45,0l2.6-.44L748.71,456l-2.18,3.71.16-.8a11.12,11.12,0,0,0,.94,3.17,5.42,5.42,0,0,0,1.91,2.28,5.27,5.27,0,0,0,2.84.79,9.4,9.4,0,0,0,1.59-.14,8.69,8.69,0,0,0,1.51-.43l-.18.1c2.15-1.38,4.3-2.71,6.49-4,1.09-.65,2.19-1.29,3.32-1.91a30.9,30.9,0,0,1,3.56-1.75,5.63,5.63,0,0,1,.54-.19,3.11,3.11,0,0,1,.8-.13,1.81,1.81,0,0,1,.4,0,1.46,1.46,0,0,1,.66.35,1.18,1.18,0,0,1,.18.21l.06.09a.22.22,0,0,0,0-.08l0,0,.22.17a15.41,15.41,0,0,0,1.51.9c1.07.58,2.2,1.13,3.33,1.65,2.26,1,4.57,2,6.91,2.85,1.16.42,2.34.81,3.52,1.15.59.16,1.18.31,1.76.44l.87.16a2.88,2.88,0,0,0,.35,0h.34a8.54,8.54,0,0,0,3.11-1,31.83,31.83,0,0,0,3.13-1.86c4.09-2.78,8-6,11.9-9.21s7.87-6.38,11.93-9.43c2-1.53,4.11-3,6.15-4.49s4-3,5.9-4.6a57.27,57.27,0,0,0,10.06-10.86,34.12,34.12,0,0,0,3.55-6.39,25.88,25.88,0,0,0,1.14-3.42c.13-.58.26-1.16.34-1.74,0-.29.07-.58.08-.86a7.16,7.16,0,0,0,0-.77l-.31-6.46,2.64,5.87,3.74,8.32-2.12-.19a13.33,13.33,0,0,0,.83-1.59,16.34,16.34,0,0,0,1.33-5.38,12.09,12.09,0,0,0-.31-3.65,12.51,12.51,0,0,0-1.4-3.43l-.67-1.14,1.2-.35a19.23,19.23,0,0,1,2.37-.51,17.66,17.66,0,0,1,2.41-.19,10.29,10.29,0,0,1,2.47.28,6.08,6.08,0,0,1,2.35,1.12l-1.22.7a13.11,13.11,0,0,0-2.22-6,18.24,18.24,0,0,0-4.58-4.65,23.77,23.77,0,0,0-12.46-4.33" style="fill:#dc6628"/><path id="Trazado_2031" data-name="Trazado 2031" d="M759.68,436.17s-11.71-.42-13.29-1.53a6.33,6.33,0,0,1-2-3.55l-3.59,1.78,3.61,7.55Z" style="fill:#ef8226"/><path id="Trazado_2032" data-name="Trazado 2032" d="M763.52,445.5s-10.58,1.35-13.73,2.69-7-3.54-7-3.54,1.59,7.78,2.72,9.33,3.6.22,5.4-1.34,11.24-6.7,12.59-7.14" style="fill:#ef8226"/><path id="Trazado_2033" data-name="Trazado 2033" d="M746.93,454.46c2.42-1.59,4.86-3.08,7.37-4.49,1.25-.69,2.52-1.37,3.82-2a16.18,16.18,0,0,1,4-1.42,16.11,16.11,0,0,0-3.75,1.95c-1.18.79-2.32,1.62-3.45,2.48-2.24,1.73-4.44,3.54-6.55,5.4Z" style="fill:#dc6628"/><path id="Trazado_2034" data-name="Trazado 2034" d="M743,440.22c2.46-.73,4.91-1.42,7.38-2.07,1.23-.32,2.47-.63,3.71-.92s2.5-.53,3.76-.71a37,37,0,0,0-3.57,1.29c-1.18.48-2.34,1-3.5,1.49-2.31,1-4.62,2.09-6.89,3.19Z" style="fill:#dc6628"/><path id="Trazado_2035" data-name="Trazado 2035" d="M859.93,401.73s-9.49-6.84-16.22-4.54a7.56,7.56,0,0,1,1.48,4.16,26.21,26.21,0,0,0-3.16-2.49s-.4,8.11-4,14.35-17.43,21-26,27.91-20.18,12.73-22.29,13.35-10.74-.18-14.32-2.05-4.21-1.44-8.84,1.68-18.3,9.6-18.3,9.6,1.27,2.7,6.32,1.65,15.77-8.55,15.77-8.55,11.18,7.25,18.76,8.06,18.71-12.09,29-19.8,30.06-22.73,30.88-36a13.83,13.83,0,0,1,3.38,7.06s4-8.12.6-13.72c0,0,5-1.88,6.95-.64" style="fill:#ef8226"/><path id="Trazado_2036" data-name="Trazado 2036" d="M829.53,397.18s-10.19,3.61-14.31,9.62c0,0,4.61-2.41,8-2.18,0,0-9,4.23-13.34,9.62-4.6,5.77-7.74,13.69-10.65,16.57,0,0,4.58-15.84,11.6-25.44s18.69-8.2,18.69-8.2" style="fill:#f9d772"/><path id="Trazado_2037" data-name="Trazado 2037" d="M765.26,438.79a8.88,8.88,0,0,0-7.77-.46c-4.62,1.69-11.65,5.06-11.65,5.06s15.29-5.55,19.42-4.6" style="fill:#f9d772"/><path id="Trazado_2038" data-name="Trazado 2038" d="M767.22,446.46s-14.32,7.71-16.74,11.07c0,0,12.14-5.3,16.74-11.07" style="fill:#f9d772"/><path id="Trazado_2039" data-name="Trazado 2039" d="M762.57,431.13s-3.65-3.83-5.84-3.58-10.92,4.09-10.92,4.09,8.74-1.69,11.17-1.46a55.27,55.27,0,0,1,5.59.95" style="fill:#f9d772"/><path id="Trazado_2040" data-name="Trazado 2040" d="M854.07,398.59s-6.84-5.57-13.63-4.89l.78,3.26s-.13-3.24,12.85,1.63" style="fill:#f9d772"/><path id="Trazado_2041" data-name="Trazado 2041" d="M743.81,476.53a77.14,77.14,0,0,1-11.66,2.33,96.51,96.51,0,0,1-11.89.79,74.33,74.33,0,0,1-11.92-.91,41.09,41.09,0,0,1-11.4-3.52,81.31,81.31,0,0,0,11.61,1.84c1,.06,2,.13,2.92.21s1.95.08,2.93.12,2,.08,2.92.08,1.95,0,2.93,0h2.94c1,0,1.95-.07,2.93-.08,2,0,3.92-.14,5.88-.22,3.92-.19,7.85-.42,11.81-.65" style="fill:#3f2836"/><path id="Trazado_2042" data-name="Trazado 2042" d="M676,348.19a28.09,28.09,0,0,1-2.87-7.16,32.22,32.22,0,0,1-1-7.7c0-.65,0-1.3.05-1.95l.18-1.94c.07-.65.24-1.28.35-1.92l.19-1c.08-.32.19-.63.29-.93.2-.62.39-1.25.59-1.86l.81-1.77c.14-.29.27-.58.42-.87l.51-.82q.52-.82,1-1.62c-.23.61-.47,1.2-.71,1.78l-.38.88c-.1.3-.19.6-.28.9l-.58,1.79-.42,1.84a32.67,32.67,0,0,0-.73,7.44,43.76,43.76,0,0,0,.7,7.49,55.31,55.31,0,0,0,1.85,7.38" style="fill:#906331"/><path id="Trazado_2043" data-name="Trazado 2043" d="M727.16,337.8c-15.48-1.91-32.33-1.64-41.75,8.59s-3.68,24.15-3.68,24.15,6.55-4.09,12.69-4.5,9,11.87,9,11.87l8.19,2,9.78,2.55,11.91-2.15s6.14-9.41,12.27-9S761,380.67,761,380.67a39.88,39.88,0,0,0,7.86-19.13c1.64-11.87-11.87-20.06-41.74-23.74" style="fill:#c78b39"/><path id="Trazado_2044" data-name="Trazado 2044" d="M727.16,337.8c-15.48-1.91-32.33-1.64-41.75,8.59s-3.68,24.15-3.68,24.15,6.55-4.09,12.69-4.5,9,11.87,9,11.87l8.19,2,9.78,2.55,11.91-2.15s6.14-9.41,12.27-9S761,380.67,761,380.67a39.88,39.88,0,0,0,7.86-19.13C770.54,349.67,757,341.48,727.16,337.8Z" style="fill:none;stroke:#3f1f1c;stroke-miterlimit:10;stroke-width:2.890762851176376px"/><path id="Trazado_2045" data-name="Trazado 2045" d="M712.16,268.15s-9.47-3.92-10-6.75.12-7.15,4.73-10.87,10.39-5.14,11.25-3.66,2.19,12.14,3.61,14.07a65.6,65.6,0,0,0-9.6,7.21" style="fill:#faad3f"/><path id="Trazado_2046" data-name="Trazado 2046" d="M712.16,268.15s-9.47-3.92-10-6.75.12-7.15,4.73-10.87,10.39-5.14,11.25-3.66,2.19,12.14,3.61,14.07A65.6,65.6,0,0,0,712.16,268.15Z" style="fill:none;stroke:#dc6628;stroke-miterlimit:10;stroke-width:1.8217361208380112px"/><path id="Trazado_2047" data-name="Trazado 2047" d="M715.55,256.55c-.37-2.22-2.23-5.79-6.44-2s-4.47,6.32-3.37,7.43,8.69,3.64,8.69,3.64l3.45-2.24Z" style="fill:#ef8226"/><path id="Trazado_2048" data-name="Trazado 2048" d="M718.67,263.62a28.74,28.74,0,0,1-2.53-4.62,44.29,44.29,0,0,0-2.17-4.63,1.8,1.8,0,0,0-1.52-1,4.85,4.85,0,0,0-2,.93c-1.35.94-2.64,2.09-4.06,3.18a12.42,12.42,0,0,1,3.28-4.23,5,5,0,0,1,2.71-1.21,2.54,2.54,0,0,1,1.63.56,4.2,4.2,0,0,1,1,1.16,14.52,14.52,0,0,1,1.08,2.5c.29.84.55,1.67.81,2.49.54,1.65,1.12,3.29,1.78,4.91" style="fill:#dc6628"/><path id="Trazado_2049" data-name="Trazado 2049" d="M789.66,278.19c13.31,18.11,19.88,24.51,26.66,26.56,0,0-5.26,1.82-11.72-1.62,0,0,8.88,8.93,9.87,22.14s-6.55,23.27-6.55,23.27,1.9-14.07-2.24-19.31c0,0-1.92,17.2-13.88,29.58s-20.61,18.77-68.59,14-53.93-40.3-51.43-55.69S681.86,300.43,689.1,291s13.15-17.11,13.15-17.11-5.46.64-11.73,5.51c0,0,3.57-7.22,13.17-12.13,10-5.09,13.76-7.63,18-10.88,5.73-4.44,11.62-10.2,29-8.48,25.08,2.48,32.28,21.14,39,30.25" style="fill:#563317"/><path id="Trazado_2050" data-name="Trazado 2050" d="M789.66,278.19c13.31,18.11,19.88,24.51,26.66,26.56,0,0-5.26,1.82-11.72-1.62,0,0,8.88,8.93,9.87,22.14s-6.55,23.27-6.55,23.27,1.9-14.07-2.24-19.31c0,0-1.92,17.2-13.88,29.58s-20.61,18.77-68.59,14-53.93-40.3-51.43-55.69S681.86,300.43,689.1,291s13.15-17.11,13.15-17.11-5.46.64-11.73,5.51c0,0,3.57-7.22,13.17-12.13,10-5.09,13.76-7.63,18-10.88,5.73-4.44,11.62-10.2,29-8.48C775.77,250.42,783,269.08,789.66,278.19Z" style="fill:none;stroke:#3f1f1c;stroke-miterlimit:10;stroke-width:2.1505985637743663px"/><path id="Trazado_2051" data-name="Trazado 2051" d="M720.34,260.34S708.8,270.43,705,272.44l7.32.49s-4.65,5.27-14.35,19.85-16.54,19.87-16.54,19.87a12.76,12.76,0,0,0,9.34-4.27s-8.6,8.89-9.75,25a62.87,62.87,0,0,1,4.65-7.67s-.53,14.77,6,21.63c0,0-.65-7.95.79-10.2a34.37,34.37,0,0,0,13.11,18.74c10.61,7.5,14.09,11.43,14.09,11.43s20.75-4.16,28.08-7.26,8.52-12.3,8.52-12.3,2.49,4.07,2,11.19c0,0,15.1-.9,21-10.83s5.27-23.38,5.27-23.38,2.08,3.31.84,10.83c0,0,6.3-12,4.31-23.47s-9.51-20.77-11.38-26.22a14.64,14.64,0,0,0,6.93,3.32s-5.7-5.82-7.38-10.77c-1-2.93-5.14-13.6-12.34-19.14-4.93-3.79-11.14-4-19.36-2.39,0,0-6.59-4.24-11.74-3.55s-9.56,3.59-14,7" style="fill:#40220d"/><path id="Trazado_2052" data-name="Trazado 2052" d="M718.79,261.92c-1.52,3.17-3.1,6.3-4.66,9.44s-3.19,6.24-4.78,9.37l-.06.11-.13.09a32.47,32.47,0,0,0-4.69,4.15,42.16,42.16,0,0,0-3.93,4.9,49.88,49.88,0,0,0-3.23,5.39,48.65,48.65,0,0,0-2.53,5.73l-1.39-.88q2.68-2.55,5.43-5c.91-.82,1.84-1.63,2.78-2.44a37.31,37.31,0,0,1,3-2.32l5.38-3.59-4.24,4.92a56,56,0,0,0-4.37,5.91c-1.34,2.07-2.56,4.22-3.7,6.41a71.22,71.22,0,0,0-5.39,13.79,59.55,59.55,0,0,0-2.13,14.66,57.71,57.71,0,0,0,.29,7.44,68,68,0,0,0,1.23,7.38,55.15,55.15,0,0,1-2.37-14.82,59.68,59.68,0,0,1,1.68-15,67.15,67.15,0,0,1,5.2-14.2,70.28,70.28,0,0,1,3.75-6.59,57.71,57.71,0,0,1,4.49-6.16l1.14,1.32c-.94.64-1.89,1.42-2.82,2.19s-1.85,1.58-2.76,2.39q-2.75,2.43-5.41,4.95L692,303.88l1.2-3.33a46.65,46.65,0,0,1,2.7-5.94,54,54,0,0,1,3.42-5.52,36.82,36.82,0,0,1,9.19-9.15l-.19.21c1.73-3,3.42-6.12,5.19-9.15s3.5-6.08,5.31-9.08" style="fill:#3f1f1c"/></g></g></g><g id="Grupo_465" data-name="Grupo 465"><g style="clip-path:url(#clip-path-7)"><g id="Grupo_464" data-name="Grupo 464"><rect id="Rectángulo_947" data-name="Rectángulo 947" x="713.48" y="200.87" width="79.33" height="63.9" style="fill:url(#Degradado_sin_nombre_2)"/></g></g></g><g id="Grupo_476" data-name="Grupo 476"><g style="clip-path:url(#clip-path)"><g id="Grupo_475" data-name="Grupo 475"><path id="Trazado_2054" data-name="Trazado 2054" d="M719.18,233.89l-5.31-19.7a1.79,1.79,0,0,1,1.29-2.19,1.81,1.81,0,0,1,1.15.08l9.16,3.74a2.47,2.47,0,0,1,1.49,2.83c-1,4.5-2.21,15.13,8.79,15.8,12,.73,11.08-11.67,8.09-16.86a3.18,3.18,0,0,1,.28-3.66l10.53-12.5a1.6,1.6,0,0,1,2.25-.18,1.56,1.56,0,0,1,.45.63l5.73,15a3.14,3.14,0,0,1-.49,3.09c-4.41,5.51-8.18,16,1.37,19.1,11,3.56,14.3-5,13.82-12.43a2.34,2.34,0,0,1,1.89-2.43l10.42-2.14a1.79,1.79,0,0,1,2.14,1.36,1.87,1.87,0,0,1-.2,1.29l-11.09,18.91-7,21.16-54.28-9.9Z" style="fill:none;stroke:#a25f1a;stroke-miterlimit:10;stroke-width:2.6712224787539185px"/><g id="Grupo_468" data-name="Grupo 468" style="opacity:0.30000001192092896"><g id="Grupo_467" data-name="Grupo 467"><g style="clip-path:url(#clip-path-9)"><g id="Grupo_466" data-name="Grupo 466"><path id="Trazado_2055" data-name="Trazado 2055" d="M747.53,215.59s6.85-10.6,8.18-10.16S760.56,218,760.56,218s-4.63,4.41-5.52,10.38a11.88,11.88,0,0,0,2.43,9.49S752.08,234,753.28,226a13.82,13.82,0,0,1,4.86-8.84L754.82,209a38.9,38.9,0,0,0-7.29,6.63" style="fill:#fff"/></g></g></g></g><g id="Grupo_471" data-name="Grupo 471" style="opacity:0.30000001192092896"><g id="Grupo_470" data-name="Grupo 470"><g style="clip-path:url(#clip-path-10)"><g id="Grupo_469" data-name="Grupo 469"><path id="Trazado_2056" data-name="Trazado 2056" d="M780.66,227.07l5.92-1.52a.79.79,0,0,1,1,.56.81.81,0,0,1-.08.59c-2.23,3.89-7.78,13.64-9,16.27-1.54,3.32-4.41,13-4.41,13s1.1-11.7,2.86-14.13,7.51-13.7,7.51-13.7Z" style="fill:#fff"/></g></g></g></g><g id="Grupo_474" data-name="Grupo 474" style="opacity:0.30000001192092896"><g id="Grupo_473" data-name="Grupo 473"><g style="clip-path:url(#clip-path-11)"><g id="Grupo_472" data-name="Grupo 472"><path id="Trazado_2057" data-name="Trazado 2057" d="M716.83,215.81l7.51,2.86s-3.09,10.16,2.87,15c0,0-6.85-2.86-4.86-13.69Z" style="fill:#fff"/></g></g></g></g><path id="Trazado_2058" data-name="Trazado 2058" d="M768.56,262.21s10.72-8.53,13.15-9.07,6.17-.36,9.89,7.82,2.33,12.15-.49,12.65-19.21,2.07-19.21,2.07Z" style="fill:#faad3f"/><path id="Trazado_2059" data-name="Trazado 2059" d="M768.56,262.21s10.72-8.53,13.15-9.07,6.17-.36,9.89,7.82,2.33,12.15-.49,12.65-19.21,2.07-19.21,2.07Z" style="fill:none;stroke:#dc6628;stroke-miterlimit:10;stroke-width:1.8217361208380112px"/><path id="Trazado_2060" data-name="Trazado 2060" d="M789.19,266.07c-1.56-3.6-4.57-10.11-9-8.3s-10.59,7.93-10.59,7.93l1.93,6.76s13.44.28,16-1.19,1.58-5.2,1.58-5.2" style="fill:#ef8226"/><path id="Trazado_2061" data-name="Trazado 2061" d="M699.07,343s-3.71,3.08-2.36,9.15c-1.83,4-4.77,8.62-4.79,12.46a13.54,13.54,0,0,1,4.76-1.79s.09,10.41,7.07,16.07c0,0,0-4.52,2.09-7,0,0,2.69,11.8,14.44,15.67,0,0,6-11.61,14.35-15.08s19.89-8.44,25.13-28.49c0,0,1.08,11.63-.12,16.71,0,0,8.41-13,7.32-29.34s-2.49-20.59-2.49-20.59l-39.34-2.76s-8.5,16.12-14.69,23-6.5,4.62-11.38,12.05" style="fill:#fff"/><path id="Trazado_2062" data-name="Trazado 2062" d="M699.07,343s-3.71,3.08-2.36,9.15c-1.83,4-4.77,8.62-4.79,12.46a13.54,13.54,0,0,1,4.76-1.79s.09,10.41,7.07,16.07c0,0,0-4.52,2.09-7,0,0,2.69,11.8,14.44,15.67,0,0,6-11.61,14.35-15.08s19.89-8.44,25.13-28.49c0,0,1.08,11.63-.12,16.71,0,0,8.41-13,7.32-29.34s-2.49-20.59-2.49-20.59l-39.34-2.76s-8.5,16.12-14.69,23S704,335.52,699.07,343Z" style="fill:none;stroke:#3f1f1c;stroke-miterlimit:10;stroke-width:1.7805163132519795px"/><path id="Trazado_2063" data-name="Trazado 2063" d="M711.94,330s-6.44,7.91-8.84,11.65-.77,5.69,9.18,6.88,15,2.68,20.42-2.76,12.49-19.85,12.49-19.85Z" style="fill:#ca2e23"/><path id="Trazado_2064" data-name="Trazado 2064" d="M716.64,343.17a15.12,15.12,0,0,1,.39-2.5,23.59,23.59,0,0,1,.74-2.44c.3-.8.63-1.59,1-2.36s.8-1.53,1.24-2.28a1,1,0,0,1,1.74,1l-.12.16v0c-.54.6-1.08,1.21-1.56,1.86s-1,1.32-1.4,2-.81,1.43-1.16,2.18a13,13,0,0,0-.86,2.33" style="fill:#3f1f1c"/><path id="Trazado_2065" data-name="Trazado 2065" d="M717.06,287s-1.8-12.45-2.61-13.58,6.22-14,17.06-13.73,28.22,4.61,34.09,3.37c0,0,0,9.72.64,26,0,0-.65,14.51-2.56,19.18s-23.69,19.94-27.79,22c-1.59.79-6.74,4-9.39,3.25-4.42-1.3-7.16-.32-11.09-1.89-1.95-.78-3.53-4.92-3.53-4.92s-2.32,1.34-4,2.18-3.35,1.89-7.2-.51-9-3.61-7.58-8.64c1.89-6.49,3.73-16.63,6.41-20.81s3.53-4.51,17.6-11.82" style="fill:#faad3f"/><path id="Trazado_2066" data-name="Trazado 2066" d="M717.06,287s-1.8-12.45-2.61-13.58,6.22-14,17.06-13.73,28.22,4.61,34.09,3.37c0,0,0,9.72.64,26,0,0-.65,14.51-2.56,19.18s-23.69,19.94-27.79,22c-1.59.79-6.74,4-9.39,3.25-4.42-1.3-7.16-.32-11.09-1.89-1.95-.78-3.53-4.92-3.53-4.92s-2.32,1.34-4,2.18-3.35,1.89-7.2-.51-9-3.61-7.58-8.64c1.89-6.49,3.73-16.63,6.41-20.81S703,294.31,717.06,287Z" style="fill:none;stroke:#dc6628;stroke-miterlimit:10;stroke-width:1.8217361208380112px"/><path id="Trazado_2067" data-name="Trazado 2067" d="M727.66,261.08s12.81,2.87,19.21,4.2,13.92,3.31,13.92,3.31-.23,31.15-.45,31.81,6.19-2,6.19-2l-1.16-35.5s-35.06-3.81-37.71-1.82" style="fill:#ef8226"/><path id="Trazado_2068" data-name="Trazado 2068" d="M740.81,328.56s-1.74,7.14-4.49,9c0,0-.53-5.39-1.66-6.18Z" style="fill:#fff"/><path id="Trazado_2069" data-name="Trazado 2069" d="M740.81,328.56s-1.74,7.14-4.49,9c0,0-.53-5.39-1.66-6.18Z" style="fill:none;stroke:#3f1f1c;stroke-linecap:round;stroke-linejoin:round;stroke-width:1.9337464582503685px"/><path id="Trazado_2070" data-name="Trazado 2070" d="M700.79,329.26s2.15,7,5,8.61c0,0,.19-5.37,1.27-6.23Z" style="fill:#fff"/><path id="Trazado_2071" data-name="Trazado 2071" d="M700.79,329.26s2.15,7,5,8.61c0,0,.19-5.37,1.27-6.23Z" style="fill:none;stroke:#3f1f1c;stroke-linecap:round;stroke-linejoin:round;stroke-width:1.9185130882542722px"/><path id="Trazado_2072" data-name="Trazado 2072" d="M699.46,298.81s-1.27,1.16-3,6.47-3.1,12.59-3.83,15.48c-.62,2.42.47,5.52,4.76,7.78s8.13,6.52,14,1a6.2,6.2,0,0,0,4.59,4.7c3.83.78,14,1,19.09-1.18,2.37-1,27.46-17.78,30.64-26.8l-.25-7.74s-22.21,7.43-29.32,6.53-36.6-6.23-36.6-6.23" style="fill:#fff"/><path id="Trazado_2073" data-name="Trazado 2073" d="M699.46,298.81s-1.27,1.16-3,6.47-3.1,12.59-3.83,15.48c-.62,2.42.47,5.52,4.76,7.78s8.13,6.52,14,1a6.2,6.2,0,0,0,4.59,4.7c3.83.78,14,1,19.09-1.18,2.37-1,27.46-17.78,30.64-26.8l-.25-7.74s-22.21,7.43-29.32,6.53S699.46,298.81,699.46,298.81Z" style="fill:none;stroke:#3f1f1c;stroke-miterlimit:10;stroke-width:1.7805163132519795px"/><path id="Trazado_2074" data-name="Trazado 2074" d="M718.42,331.65s10.74,2.39,16.24-.31,22.22-16.59,28.15-23.56c0,0-21.43,18.27-28.12,20.93s-16.27,2.94-16.27,2.94" style="fill:#c3cfd7"/><path id="Trazado_2075" data-name="Trazado 2075" d="M705.72,329.71s-6.78-2.54-9-4.09-2.45-5.05-1-12c0,0-.6,7.67,2.54,10.25,3.45,2.82,7.45,5.88,7.45,5.88" style="fill:#c3cfd7"/><path id="Trazado_2076" data-name="Trazado 2076" d="M717.06,287s7.85-1.9,13.18-1.37" style="fill:#faad3f"/><path id="Trazado_2077" data-name="Trazado 2077" d="M716.9,286.33a64.75,64.75,0,0,1,6.66-.82,32.44,32.44,0,0,1,6.68.12,31.76,31.76,0,0,0-6.6.56,64.13,64.13,0,0,0-6.42,1.47Z" style="fill:#dc6628"/><path id="Trazado_2078" data-name="Trazado 2078" d="M763.12,360a75.51,75.51,0,0,0,3.37-11.51c3-14.14,1.11-24.79,1.07-24.55-1.28,7.53-5.56,8.9-5.56,8.9s2.54-7.15,3.07-25.22-.25-43.42-.25-43.42c-3.71.91-14.82-1.72-23.19-3.31s-16.22-.58-20.75-2.92a10.36,10.36,0,0,1-5.76-9.77s4,2.4,6.2,3.54a21.5,21.5,0,0,0,6.16,1.53c-9.67-5.78-1.41-16.64-1.41-16.64s1.18,9.46,6.81,13.7c0,0-3.78-13.63,3.48-21,0,0,1.18,9.08,8.93,13.07,0,0-4.48-8.72-.46-16.15,0,0,.11,12.67,9,18.84,4.44,3.06,11.34,5.34,16.18,11.58,2.22,2.87.58,13.94,2.65,24.1s10.14,22.44,11.49,29.46c0,0-3.32-2.88-5.73-4.65,0,0,6,10,3.27,26.36A62.23,62.23,0,0,1,776,349.34a65,65,0,0,1-7,11.26" style="fill:#563317"/><path id="Trazado_2079" data-name="Trazado 2079" d="M763.12,360c.42-2,.88-3.89,1.32-5.81s.88-3.84,1.26-5.77a79,79,0,0,0,1.53-11.67,64.75,64.75,0,0,0-.32-11.73c0-.24-.07-.48-.11-.7l0-.13h0a.59.59,0,0,0,.06.14c.5,0-.89.47,1.38.07.28-.68.08-.18.14-.33v0l0,.1-.07.38c-.09.51-.21,1-.35,1.51A15.49,15.49,0,0,1,766.8,329a11.31,11.31,0,0,1-1.8,2.64,7.93,7.93,0,0,1-1.22,1.1,5.7,5.7,0,0,1-.7.47,4.88,4.88,0,0,1-.83.4l-1.56.55.51-1.64a37.54,37.54,0,0,0,1-4.06c.27-1.39.5-2.79.7-4.2.39-2.82.67-5.66.88-8.5.43-5.7.51-11.42.56-17.16.08-11.46-.13-22.94-.46-34.4l1.17.89a11.48,11.48,0,0,1-3,.2c-1,0-1.91-.13-2.85-.24-1.87-.22-3.72-.53-5.56-.86-3.67-.66-7.31-1.43-10.94-2.13a71.75,71.75,0,0,0-10.93-1.26c-1.85-.11-3.72-.21-5.61-.44a17.09,17.09,0,0,1-5.7-1.52l.07,0a9,9,0,0,1-1.48-.85,11.49,11.49,0,0,1-3.34-3.6,12.27,12.27,0,0,1-1.59-6.27l0-1.8,1.55.92c1.92,1.15,3.87,2.3,5.81,3.34l.69.34c.23.1.47.19.71.27a15.78,15.78,0,0,0,1.53.44,26.56,26.56,0,0,0,3.19.54l-.63,1.92a11.32,11.32,0,0,1-3.8-3.58,9.34,9.34,0,0,1-1.4-5.12,14.38,14.38,0,0,1,1.08-5,20.12,20.12,0,0,1,2.42-4.44l1.49-2.07.36,2.57a28.82,28.82,0,0,0,.81,3.66,28.15,28.15,0,0,0,1.29,3.53,18.21,18.21,0,0,0,1.83,3.21,12,12,0,0,0,2.48,2.59l-1.63,1.11A33.88,33.88,0,0,1,731,245a30.37,30.37,0,0,1,.06-5.72,21.14,21.14,0,0,1,1.37-5.64,18.17,18.17,0,0,1,1.36-2.63,16,16,0,0,1,1.87-2.33l1.43-1.49.33,2.09a19.22,19.22,0,0,0,2.8,7.16,15.3,15.3,0,0,0,2.46,2.93,13.76,13.76,0,0,0,3.11,2.19l-1.38,1.4a22.27,22.27,0,0,1-1.51-4.14,22.5,22.5,0,0,1-.7-4.32,17.22,17.22,0,0,1,.27-4.42,14.7,14.7,0,0,1,1.49-4.23l1.82-3.43.14,3.91a28.2,28.2,0,0,0,.85,5.79,26.32,26.32,0,0,0,2,5.5,19,19,0,0,0,3.34,4.71,19.71,19.71,0,0,0,4.67,3.44c3.48,2,7.26,3.85,10.46,6.63a14.72,14.72,0,0,1,1.17,1.06c.39.36.75.75,1.11,1.14s.7.8,1,1.21l.25.3c.09.12.2.28.29.42a6,6,0,0,1,.4.85,14.24,14.24,0,0,1,.65,3.23c.1,1.05.16,2.08.2,3.11.14,4.1.16,8.14.58,12.14a41.11,41.11,0,0,0,2.77,11.61c1.44,3.75,3.18,7.42,4.9,11.11.86,1.85,1.72,3.7,2.52,5.6a32.12,32.12,0,0,1,2,6l.51,2.55-2-1.71c-1.84-1.58-3.73-3.17-5.66-4.61h0l1.28-1.17a24.75,24.75,0,0,1,1.51,3.51,35.68,35.68,0,0,1,1.06,3.58,42.65,42.65,0,0,1,1.13,7.36,51.24,51.24,0,0,1-1.18,14.71,63,63,0,0,1-5,13.84A68.5,68.5,0,0,1,769,360.58a68.2,68.2,0,0,0,7.37-12.6,62.32,62.32,0,0,0,4.5-13.83,50.26,50.26,0,0,0,.72-14.43,42.61,42.61,0,0,0-1.3-7.08c-.32-1.15-.69-2.29-1.12-3.4a23.52,23.52,0,0,0-1.48-3.18l-2.16-3.72L779,304.9h0c2,1.5,3.91,3.07,5.8,4.68l-1.47.85a30.32,30.32,0,0,0-1.88-5.61c-.78-1.85-1.64-3.68-2.51-5.52-1.73-3.69-3.5-7.38-5-11.23a48.68,48.68,0,0,1-1.89-5.93,47.11,47.11,0,0,1-1-6.14c-.45-4.11-.48-8.23-.63-12.26,0-1-.1-2-.21-3a11.67,11.67,0,0,0-.54-2.74,3.65,3.65,0,0,0-.25-.53,2.12,2.12,0,0,0-.15-.21L769,257c-.32-.38-.61-.76-1-1.11s-.66-.72-1-1a14.67,14.67,0,0,0-1.1-1c-3-2.58-6.58-4.35-10.17-6.37a30.43,30.43,0,0,1-2.67-1.68,17.54,17.54,0,0,1-2.46-2.09,21.26,21.26,0,0,1-3.72-5.21,28.45,28.45,0,0,1-2.2-5.94,30.12,30.12,0,0,1-.91-6.27l2,.49a12.67,12.67,0,0,0-1.28,3.63,15.48,15.48,0,0,0-.23,3.9,20.92,20.92,0,0,0,.64,3.93,21.35,21.35,0,0,0,1.34,3.71l1.38,2.86-2.78-1.46a16.14,16.14,0,0,1-3.57-2.5,17.74,17.74,0,0,1-2.79-3.33,20.74,20.74,0,0,1-2-3.84,20.35,20.35,0,0,1-1.16-4.19l1.77.6a13.22,13.22,0,0,0-1.59,2,15.44,15.44,0,0,0-1.19,2.28,18.94,18.94,0,0,0-1.23,5.09,28.75,28.75,0,0,0-.06,5.33,33.56,33.56,0,0,0,.84,5.28l.74,2.9-2.36-1.79a14.22,14.22,0,0,1-2.92-3,21.33,21.33,0,0,1-2-3.57,27.37,27.37,0,0,1-1.39-3.83,28.43,28.43,0,0,1-.88-4l1.86.5a17.94,17.94,0,0,0-2.15,3.94,12.35,12.35,0,0,0-.93,4.28,7.17,7.17,0,0,0,1.07,4,9.21,9.21,0,0,0,3.11,2.91l4,2.43-4.6-.51a28.9,28.9,0,0,1-3.47-.59,16.89,16.89,0,0,1-1.72-.49c-.29-.1-.58-.22-.87-.34s-.58-.27-.82-.4c-2-1.09-4-2.23-5.92-3.4l1.57-.88a10.22,10.22,0,0,0,1.3,5.22,9.19,9.19,0,0,0,1.67,2.11,9.51,9.51,0,0,0,1,.85,8.14,8.14,0,0,0,1.1.65l.06,0h0a15.62,15.62,0,0,0,5,1.33c1.79.22,3.63.32,5.49.44A73.84,73.84,0,0,1,743,260.17c3.65.71,7.28,1.49,10.91,2.16,1.82.33,3.63.64,5.45.86.9.11,1.8.2,2.69.24a10,10,0,0,0,2.51-.14l1.15-.26,0,1.15c.3,11.5.46,23,.35,34.48-.06,5.75-.17,11.51-.61,17.27-.22,2.87-.52,5.75-.93,8.61-.2,1.44-.45,2.86-.73,4.29a39.67,39.67,0,0,1-1.06,4.3l-1-1.08c.17-.07.34-.16.51-.25a6.18,6.18,0,0,0,.53-.36,7.66,7.66,0,0,0,1-.89,9.61,9.61,0,0,0,1.54-2.26,13.7,13.7,0,0,0,1-2.63q.2-.68.33-1.38l.07-.35,0-.09v0c.06-.16-.14.33.14-.35,2.28-.42.89.11,1.39.07a.46.46,0,0,1,.07.16v0l0,.05,0,.24c.05.26.08.52.12.77a67.29,67.29,0,0,1,.3,12,80.79,80.79,0,0,1-1.61,11.91,46.4,46.4,0,0,1-1.64,5.78,34.15,34.15,0,0,1-2.47,5.48" style="fill:#3f1f1c"/><path id="Trazado_2080" data-name="Trazado 2080" d="M765.6,263.06s0,20.88,0,30.67.43,29.2-2.85,37.72c0,0,2.89-1,5-7.67,0,0,3.7,12.59-1.93,30,0,0,8.82-8.21,6.3-33.55s-6.52-57.13-6.52-57.13" style="fill:#40220d"/><path id="Trazado_2081" data-name="Trazado 2081" d="M708.86,330.69s-3.89,5.91-6.52,9.51-4.15,6.49-.81,8,13.47,2.95,21.09,2.89,8.43-.26,12.46-5.26c4.71-5.83,8.49-10.74,12-20.95l-3.53,2.29s-4.74,11.05-11,17.39c-2.75,2.78-3.85,3.48-9,3.58s-16.15-1-18.27-2.42-2.22-2.45-.06-5.49,6.66-8.88,6.66-8.88l-.65-2.68Z" style="fill:#3f1f1c"/><path id="Trazado_2082" data-name="Trazado 2082" d="M700.7,319.83a.71.71,0,1,0-.79.63h0a.69.69,0,0,0,.78-.62h0" style="fill:#20120d"/><path id="Trazado_2083" data-name="Trazado 2083" d="M725.71,328.13a.72.72,0,1,0-1.43-.16.72.72,0,0,0,.64.79h0a.72.72,0,0,0,.79-.63h0" style="fill:#20120d"/><path id="Trazado_2084" data-name="Trazado 2084" d="M727.87,323.64a.71.71,0,1,0-1.42-.16.72.72,0,0,0,.63.8h0a.71.71,0,0,0,.78-.63h0" style="fill:#20120d"/><path id="Trazado_2085" data-name="Trazado 2085" d="M726.23,317.65a.72.72,0,0,0-.63-.79.72.72,0,0,0-.16,1.43h0a.71.71,0,0,0,.78-.63h0" style="fill:#20120d"/><path id="Trazado_2086" data-name="Trazado 2086" d="M724.94,322.1a.72.72,0,1,0-.8.64h0a.72.72,0,0,0,.79-.63h0" style="fill:#20120d"/><path id="Trazado_2087" data-name="Trazado 2087" d="M701.16,325a.71.71,0,1,0-1.42-.16.72.72,0,0,0,.63.79h0a.71.71,0,0,0,.78-.63h0" style="fill:#20120d"/><path id="Trazado_2088" data-name="Trazado 2088" d="M705.49,318.52a.71.71,0,1,0-.79.63h0a.7.7,0,0,0,.78-.63h0" style="fill:#20120d"/><path id="Trazado_2089" data-name="Trazado 2089" d="M702.6,313.79a.71.71,0,1,0-.79.64h0a.71.71,0,0,0,.78-.63h0" style="fill:#20120d"/><path id="Trazado_2090" data-name="Trazado 2090" d="M728.43,280.81c-.2,1.95-1.58,3.42-3.08,3.27s-2.56-1.86-2.36-3.81,1.58-3.42,3.08-3.28,2.56,1.86,2.36,3.82" style="fill:#3f1f1c"/><path id="Trazado_2091" data-name="Trazado 2091" d="M728,279.61c-.07.76-.61,1.33-1.19,1.27a1.24,1.24,0,0,1-.91-1.48c.08-.75.61-1.32,1.19-1.26a1.23,1.23,0,0,1,.91,1.47" style="fill:#fdfcfc"/><path id="Trazado_2092" data-name="Trazado 2092" d="M749.08,282.85c-.2,1.95-1.58,3.42-3.08,3.27s-2.56-1.86-2.36-3.81,1.58-3.42,3.08-3.28,2.56,1.86,2.36,3.82" style="fill:#3f1f1c"/><path id="Trazado_2093" data-name="Trazado 2093" d="M748.45,281.63a1.09,1.09,0,1,1-2.1-.21c.07-.75.61-1.32,1.19-1.26a1.23,1.23,0,0,1,.91,1.47" style="fill:#fdfcfc"/><path id="Trazado_2094" data-name="Trazado 2094" d="M716.4,277.7s2.36-5.14,6.43-5.64a18.37,18.37,0,0,1,7.48,1.15,1.3,1.3,0,0,0,1.73-.63,1.46,1.46,0,0,0,.1-.34l.38-5a1.49,1.49,0,0,0-1.19-1.47c-2-.53-6-1.38-8.24-.66-3.1,1-6.46,8.4-7.05,10.87s.36,1.75.36,1.75" style="fill:#3f1f1c"/><path id="Trazado_2095" data-name="Trazado 2095" d="M737.85,266.36a.72.72,0,0,1,.72-.68c2.59,0,12.19.09,15.27,1.69a9,9,0,0,1,5.08,7.57c.29,2.81.28,6.39-.22,6.88s-.67-1.34-2.11-4.05-4-3.85-8.24-4.43a42.71,42.71,0,0,0-10.13.48.94.94,0,0,1-1-.86,1,1,0,0,1,0-.17Z" style="fill:#3f1f1c"/><path id="Trazado_2096" data-name="Trazado 2096" d="M702.49,304.9s-3.89-2.93-3.19-6.55c.49-2.6,4.42-3.3,14-3.46,9-.14,25.2,4,24.72,7.52s-7.16,6.11-7.16,6.11c-1.85.85-5.77.35-4.07-1.44s-1.94-2.73-3.91-2.93-2.26,1-2.84,3.11c-.63,2.31-.88,4.17-1.37,5.46-.86,2.21-2.1,2.8-4.06,1.45A2.69,2.69,0,0,1,710.4,312a31,31,0,0,1-.07-7.27c.35-1.75-1.52-2.56-3.28-2.17-1.08.24-2.26.36-1.73,2,.67,2.11-1.77,1.33-2.83.3" style="fill:#3f1f1c"/><path id="Trazado_2097" data-name="Trazado 2097" d="M728.31,316.58s19.18-4.17,29.57-5.33" style="fill:none;stroke:#3f1f1c;stroke-miterlimit:10;stroke-width:0.89070621891263px"/><path id="Trazado_2098" data-name="Trazado 2098" d="M728.28,321.54s24.29-.2,32.49.84" style="fill:none;stroke:#3f1f1c;stroke-miterlimit:10;stroke-width:0.89070621891263px"/><path id="Trazado_2099" data-name="Trazado 2099" d="M728.87,326.1s19.4,2,28.62,5.6" style="fill:none;stroke:#3f1f1c;stroke-miterlimit:10;stroke-width:0.89070621891263px"/><path id="Trazado_2100" data-name="Trazado 2100" d="M774.92,261.45a20.81,20.81,0,0,1,2.68-2.63,10.31,10.31,0,0,1,3.35-1.94,3.45,3.45,0,0,1,1.11-.13,2.49,2.49,0,0,1,.6.14,3.22,3.22,0,0,1,.5.23,8.63,8.63,0,0,1,1.6,1.21,20.43,20.43,0,0,1,2.49,2.92,20.78,20.78,0,0,1,1.92,3.29,10.23,10.23,0,0,1,.67,1.85,4.33,4.33,0,0,1,.15,1,8,8,0,0,1,0,1,4.48,4.48,0,0,1-.52,2,3,3,0,0,1-1.56,1.35,7.58,7.58,0,0,1-3.78.18,8.72,8.72,0,0,0,3.52-.74,2.43,2.43,0,0,0,1.07-1.17,4.08,4.08,0,0,0,.26-1.62,8.5,8.5,0,0,0-.07-.87,3.7,3.7,0,0,0-.18-.8,11,11,0,0,0-.69-1.61,26.87,26.87,0,0,0-1.9-3.06,21.64,21.64,0,0,0-2.29-2.76,7.27,7.27,0,0,0-1.3-1.11,1.53,1.53,0,0,0-.62-.25,2.29,2.29,0,0,0-.74,0,7.29,7.29,0,0,0-1.62.58,17.61,17.61,0,0,0-1.59.87c-1.05.63-2.06,1.34-3.07,2.06" style="fill:#dc6628"/><path id="Trazado_2101" data-name="Trazado 2101" d="M729,353.93S713.53,355,704,351.47" style="fill:#3f1f1c"/><path id="Trazado_2102" data-name="Trazado 2102" d="M729,353.93a49.15,49.15,0,0,1-6.3.56,60.8,60.8,0,0,1-6.33-.14,47.47,47.47,0,0,1-6.28-.89,27.46,27.46,0,0,1-6-2,59.27,59.27,0,0,0,6.16,1.2c2.06.29,4.14.49,6.22.65s4.17.27,6.26.37Z" style="fill:#3f1f1c"/><path id="Trazado_2103" data-name="Trazado 2103" d="M699.37,363s.93,8.12,3.08,10.72a22.78,22.78,0,0,1,4.72-7.56s.72,12.43,11.51,18.7c0,0,3.43-7.9,10-11.8s11.46-4.73,14-8c0,0-7.76,2.92-14.37,5.31-5.2,1.87-10.75,8.48-10.75,8.48s-8.76-6.72-8.19-16.64a17,17,0,0,0-7,6.46,10.72,10.72,0,0,1-2.93-5.71" style="fill:#c3cfd7"/><path id="Trazado_2104" data-name="Trazado 2104" d="M811.76,332.71a36.61,36.61,0,0,0-.38-5.64,45.44,45.44,0,0,0-2.9-10.81,44.37,44.37,0,0,0-5.5-9.69c-.54-.76-1.15-1.47-1.74-2.2-.3-.36-.63-.69-.93-1s-.61-.71-.95-1a61.75,61.75,0,0,0-8.55-7.35,42.17,42.17,0,0,1,9.29,6.61,38.58,38.58,0,0,1,7.1,9,37.56,37.56,0,0,1,4.07,10.74,32.08,32.08,0,0,1,.49,11.39" style="fill:#906331"/><path id="Trazado_2105" data-name="Trazado 2105" d="M808.53,323.46c-.75-1.74-1.54-3.42-2.4-5.06a43.44,43.44,0,0,0-2.86-4.71,29.25,29.25,0,0,0-3.55-4.15,25.77,25.77,0,0,0-4.48-3.28,14.3,14.3,0,0,1,5.15,2.48,19.92,19.92,0,0,1,4,4.18,25.5,25.5,0,0,1,2.71,5,21.39,21.39,0,0,1,1.46,5.5" style="fill:#906331"/><path id="Trazado_2106" data-name="Trazado 2106" d="M698.72,273a11,11,0,0,1,2.13-1.9,19.71,19.71,0,0,1,2.47-1.45,25.3,25.3,0,0,1,2.62-1.14l2.65-.91a32.54,32.54,0,0,0,5-2.34,40.25,40.25,0,0,0,4.59-3.17,17.83,17.83,0,0,1-4,4,21.77,21.77,0,0,1-5.06,2.75c-.45.16-.92.31-1.37.45s-.88.26-1.31.42c-.89.27-1.75.59-2.62.9a30,30,0,0,0-5,2.38" style="fill:#906331"/><path id="Trazado_2107" data-name="Trazado 2107" d="M730.43,258.71s-10.52-1.28-11.15-4.68c0,0,11.27,3.5,15.27,2.22,0,0-9.92-4.8-10.52-8.45,0,0,10.49,8.69,19.51,8.15,0,0-7.34-1.69-7.41-10.53a6.85,6.85,0,0,0,2.76,3.85,33.14,33.14,0,0,1-1.78-6.39s1,4.4,6.79,7.12,15.29,9.17,15.29,9.17a21.85,21.85,0,0,0-4.63-6.91s11.64,5.9,10.82,10.65c0,0-3.77,1.93-18-1.8-6.12-1.61-16.94-2.4-16.94-2.4" style="fill:#40220d"/><path id="Trazado_2108" data-name="Trazado 2108" d="M725.57,246.21a29.82,29.82,0,0,0,2.58,3.53c.47.54.94,1.08,1.45,1.59.26.24.5.51.75.76l.8.72c.25.25.54.46.81.69a10.72,10.72,0,0,0,.84.67l.86.65.89.61c.58.43,1.22.78,1.83,1.18s1.27.72,1.9,1.14a18.8,18.8,0,0,1-2.18-.55,16.34,16.34,0,0,1-2.08-.87,17,17,0,0,1-3.76-2.53,16.48,16.48,0,0,1-3-3.45,11.82,11.82,0,0,1-1.74-4.14" style="fill:#906331"/><path id="Trazado_2109" data-name="Trazado 2109" d="M722.48,254.57c1.85.35,3.55.77,5.3,1.12l2.61.54c.88.18,1.77.34,2.69.6a9.07,9.07,0,0,1-2.78.43,12.55,12.55,0,0,1-5.46-1.15,8,8,0,0,1-2.36-1.54" style="fill:#906331"/><path id="Trazado_2110" data-name="Trazado 2110" d="M736.21,236.16a1.71,1.71,0,0,0-.25.76c-.06.26-.09.53-.13.8-.06.54-.11,1.08-.13,1.61a31.44,31.44,0,0,0,0,3.22,23.2,23.2,0,0,0,1.13,6.22,14,14,0,0,0,3.12,5.34,15.38,15.38,0,0,0,5.28,3.52,11.61,11.61,0,0,1-6-2.77,12.74,12.74,0,0,1-2.21-2.59,15.2,15.2,0,0,1-1.45-3.08,18.91,18.91,0,0,1-.9-6.64,21.52,21.52,0,0,1,.38-3.3,14.64,14.64,0,0,1,.42-1.61,3.89,3.89,0,0,1,.74-1.48" style="fill:#906331"/><path id="Trazado_2111" data-name="Trazado 2111" d="M772,287.9c1.25,2.49,2.29,5,3.36,7.56q.79,1.91,1.62,3.78a26.27,26.27,0,0,0,1.87,3.66,12.14,12.14,0,0,1-2.57-3.3,35.17,35.17,0,0,1-1.84-3.75c-.52-1.28-1-2.58-1.42-3.91a31,31,0,0,1-1-4" style="fill:#906331"/><path id="Trazado_2112" data-name="Trazado 2112" d="M771.53,290.48a92,92,0,0,0,3.22,10,35.61,35.61,0,0,0,2.24,4.71,29.44,29.44,0,0,1,2.1,4.94,35.17,35.17,0,0,1,1.62,10.53,36.86,36.86,0,0,1-1.46,10.49c.29-1.73.5-3.48.62-5.23a43.66,43.66,0,0,0,.07-5.24,41,41,0,0,0-.57-5.19,34.23,34.23,0,0,0-1.23-5.06,28.94,28.94,0,0,0-2-4.79,33.23,33.23,0,0,1-2.14-4.89,56.73,56.73,0,0,1-2.48-10.29" style="fill:#906331"/><path id="Trazado_2113" data-name="Trazado 2113" d="M700.39,281a114,114,0,0,1-7,11.15,59,59,0,0,1-4.13,5.18c-.37.42-.78.81-1.17,1.21s-.76.76-1.13,1.15c-.73.78-1.44,1.6-2.12,2.44a47.56,47.56,0,0,0-3.76,5.27,48.89,48.89,0,0,0-3.08,5.7,41.48,41.48,0,0,0-2.17,6.11,31.94,31.94,0,0,0-1,6.45,28.54,28.54,0,0,1,.35-6.59,35.23,35.23,0,0,1,1.86-6.37,44.42,44.42,0,0,1,6.76-11.41c.71-.86,1.45-1.69,2.22-2.5l2.32-2.31c1.49-1.56,2.86-3.25,4.22-4.95,2.69-3.44,5.28-7,7.84-10.53" style="fill:#906331"/><path id="Trazado_2114" data-name="Trazado 2114" d="M684.24,342.75a21.24,21.24,0,0,1-2.1-5.82,28.87,28.87,0,0,1-.5-3.07c-.08-1-.15-2.08-.14-3.12V330l.06-.78c0-.52.06-1,.13-1.56a26.61,26.61,0,0,1,.58-3.06,23.22,23.22,0,0,1,2.25-5.76,60.59,60.59,0,0,0-1.22,6,38.7,38.7,0,0,0-.47,6,41.53,41.53,0,0,0,.32,6,50.44,50.44,0,0,0,1.08,6" style="fill:#906331"/><path id="Trazado_2115" data-name="Trazado 2115" d="M700.31,314.84s-14.69-6.91-20.64-10.5" style="fill:none;stroke:#3f1f1c;stroke-miterlimit:10;stroke-width:0.89070621891263px"/><path id="Trazado_2116" data-name="Trazado 2116" d="M695.62,318.53s-16.58-3.47-24.2-4.34" style="fill:none;stroke:#3f1f1c;stroke-miterlimit:10;stroke-width:0.89070621891263px"/><path id="Trazado_2117" data-name="Trazado 2117" d="M697,323.86s-15.19-1.13-23.66-1.74" style="fill:none;stroke:#3f1f1c;stroke-miterlimit:10;stroke-width:0.89070621891263px"/><path id="Trazado_2118" data-name="Trazado 2118" d="M710.9,329.75a68.54,68.54,0,0,1,.12-7.31,33,33,0,0,1,1.22-7.17,32.27,32.27,0,0,0-.73,7.19,66.69,66.69,0,0,0,.36,7.21Z" style="fill:#3f1f1c"/><path id="Trazado_2119" data-name="Trazado 2119" d="M738.89,241.43a36,36,0,0,0,3.81,6.15,29.49,29.49,0,0,0,5,5.12,26.82,26.82,0,0,0,2.93,2c1,.63,2.07,1.22,3.13,1.8s2.14,1.12,3.23,1.63c.55.25,1.1.5,1.66.73.28.11.57.21.85.3l.44.13.22,0c.06,0,.18,0,.14-.09.06.09-.08.13-.14.12h-.24a3.44,3.44,0,0,1-.45-.05c-.31,0-.61-.12-.9-.19-.59-.16-1.18-.33-1.76-.52a34.72,34.72,0,0,1-3.41-1.38,31.57,31.57,0,0,1-6.32-3.78,24.63,24.63,0,0,1-5-5.45,24.35,24.35,0,0,1-3.19-6.59" style="fill:#906331"/><path id="Trazado_2120" data-name="Trazado 2120" d="M774.82,309a36.46,36.46,0,0,1,2.9,9,47.2,47.2,0,0,1,.92,9.41c0,.79,0,1.58-.07,2.37s-.05,1.58-.16,2.36a46,46,0,0,1-.72,4.68c-.17.77-.27,1.55-.51,2.31l-.65,2.27a22.49,22.49,0,0,1-.78,2.22c-.28.73-.57,1.46-.87,2.18.16-.77.34-1.53.52-2.29s.39-1.5.5-2.28c.28-1.53.6-3,.76-4.58a63.49,63.49,0,0,0,.64-9.24,66.49,66.49,0,0,0-.61-9.24,63.07,63.07,0,0,0-1.88-9.12" style="fill:#906331"/><path id="Trazado_2121" data-name="Trazado 2121" d="M805.2,304.78c-1.17-1.16-2.4-2.32-3.63-3.44s-2.5-2.24-3.77-3.33q-3.82-3.27-7.83-6.35,4.23,2.74,8.33,5.71,2,1.5,4.05,3c1.34,1,2.65,2.08,4,3.2Z" style="fill:#3f1f1c"/><path id="Trazado_2122" data-name="Trazado 2122" d="M805.4,330.34a7.76,7.76,0,0,0-.42-1.23,12.93,12.93,0,0,0-.63-1.23,16.29,16.29,0,0,0-1.63-2.31,21.61,21.61,0,0,0-2-2c-.36-.32-.75-.6-1.13-.91s-.79-.56-1.19-.84l1.3.67c.42.26.86.48,1.25.76a18.87,18.87,0,0,1,2.37,1.79,17.07,17.07,0,0,1,2.06,2.19,11.66,11.66,0,0,1,.87,1.25,8.56,8.56,0,0,1,.73,1.45Z" style="fill:#3f1f1c"/><path id="Trazado_2123" data-name="Trazado 2123" d="M792.78,315.62a54.43,54.43,0,0,1,.63,12.23A50.42,50.42,0,0,1,791.29,340a39.65,39.65,0,0,1-2.33,5.74,32.28,32.28,0,0,1-3.37,5.22,27,27,0,0,1-4.45,4.29,25.59,25.59,0,0,1-5.36,3,28.12,28.12,0,0,0,9-7.92A36.76,36.76,0,0,0,790,339.57a45.22,45.22,0,0,0,1.47-5.83c.4-2,.67-4,.9-6s.35-4,.41-6.05.07-4,0-6.09" style="fill:#906331"/><path id="Trazado_2124" data-name="Trazado 2124" d="M739.34,249.42a27.44,27.44,0,0,0,5.4,5.73,16.55,16.55,0,0,0,3.32,2,19.75,19.75,0,0,0,3.75,1.28,10.47,10.47,0,0,1-4-.55,12.25,12.25,0,0,1-3.63-1.95,14.86,14.86,0,0,1-2.88-2.94,12.72,12.72,0,0,1-1.91-3.58" style="fill:#906331"/><path id="Trazado_2125" data-name="Trazado 2125" d="M704.72,297.57a23.44,23.44,0,0,1,6.37-1.19,39.22,39.22,0,0,1,6.5.15,42,42,0,0,1,6.37,1.25c1,.26,2.06.65,3.08,1s2,.82,3,1.28c-1.07-.18-2.11-.44-3.16-.65l-1.57-.31c-.52-.11-1-.21-1.57-.29s-1-.18-1.56-.28l-1.58-.24c-1-.18-2.09-.28-3.14-.42-2.11-.24-4.21-.38-6.33-.44a56.75,56.75,0,0,0-6.39.15" style="fill:#6a4f4f"/><path id="Trazado_2126" data-name="Trazado 2126" d="M716.92,394a1.69,1.69,0,1,0-1.66,1.72h0a1.68,1.68,0,0,0,1.64-1.72" style="fill:#c78b39"/><path id="Trazado_2127" data-name="Trazado 2127" d="M716.92,394a1.69,1.69,0,1,0-1.66,1.72h0A1.68,1.68,0,0,0,716.92,394Z" style="fill:none;stroke:#3f1f1c;stroke-miterlimit:10;stroke-width:1.7805163132519795px"/><path id="Trazado_2128" data-name="Trazado 2128" d="M762.75,200.49,764,212.23h5l-4.08,3,1.56,4.81-4.08-3-7.25,8.82,4.72-10.65-4.08-3h5Z" style="fill:#fff"/><path id="Trazado_2129" data-name="Trazado 2129" d="M715.06,216.88l.94,8.72h3.74l-3,2.2,1.16,3.56-3-2.2-5.38,6.54,3.5-7.9-3-2.21h3.75Z" style="fill:#fff"/><path id="Trazado_2130" data-name="Trazado 2130" d="M774.59,235.13l.93,8.71h3.75l-3,2.21,1.15,3.56-3-2.2L769,254l3.5-7.91-3-2.2h3.75Z" style="fill:#fff"/><path id="Trazado_2131" data-name="Trazado 2131" d="M739.5,382.15l2.71,6.49a1.31,1.31,0,0,1-.35,1.19,2.44,2.44,0,0,0-.93,1.32c-.17.6-.16.91-.58,1s-.86-.1-1.39,0-.83.56-1.08,1.77a41.18,41.18,0,0,0-1,9.83,11.6,11.6,0,0,0,3.56,7.46c1.36,1.14,5,3.53,5,3.53a2.16,2.16,0,0,0,1.72.21c1-.29,5.73-1.56,7.88-3.66a11.11,11.11,0,0,0,3.56-5.68,70.2,70.2,0,0,0,1.07-9.26c0-1.49-.56-1.71-1.36-1.91a1.21,1.21,0,0,1-1-1.2,9.81,9.81,0,0,0-.48-2c-.16-.38.17-1,.74-1.86s3.31-4.43,3.31-4.43-5.38,1.56-6.33,1.85-1.46.14-1.8-.83-2.22-5-2.22-5-3,3.94-3.43,4.57-.8.72-1.61.21-6-3.6-6-3.6" style="fill:#fff"/><path id="Trazado_2132" data-name="Trazado 2132" d="M742.55,386c.17-.25.4-.18.86.1S745,387,745,387a5.06,5.06,0,0,0,0,2.29,1.8,1.8,0,0,0,2.36.89,1.88,1.88,0,0,0,1.22-2.14,3.88,3.88,0,0,0-.74-1.46s1.92-2.62,2.19-3,.41,0,.56.34,1.24,3,1.24,3a5.65,5.65,0,0,0-1.17,1.8,1.72,1.72,0,0,0,1.15,2.15l0,0a1.94,1.94,0,0,0,2.38-.82,5.27,5.27,0,0,0,.19-1.58c.05-.41.25-.5.69-.68s1-.22,1.53-.38.64.11.41.47-1.33,2.43-1.6,3.08-.19.66.12,1,.69.58.53,1.29a1.29,1.29,0,0,0,.63,1.67c.78.52,2,.74,1.77,2.05a31.08,31.08,0,0,0-.36,3.61c-.06,1.52.05,2.75-.46,2.88s-1.6-.88-2.24-1,0,.34.23.6a14.47,14.47,0,0,0,1.46,1.47c.46.32.36.84.18,1.31a11.76,11.76,0,0,1-1.59,3.09,7.15,7.15,0,0,1-1.32,1.48c-.3.26-.67.14-1.18-.6s-1-1.34-1-1.34a20.56,20.56,0,0,1,.54,2.42.94.94,0,0,1-.57,1c-.44.18-4.3,1.58-4.82,1.74a1.3,1.3,0,0,1-1.39-.08c-.61-.38-4.14-2.68-4.52-3s-.4-.5-.08-1.23.73-1.93.73-1.93-1,.95-1.37,1.21-.69.41-1.15-.22a8.79,8.79,0,0,1-1.2-3c-.39-1.49-.41-2.56-.19-2.8s2.78-1.95,2.78-1.95a15.05,15.05,0,0,1-2.39.55c-.49,0-.81-.48-.41-1.35a8.9,8.9,0,0,0,.87-3.39c0-1.22-.19-2.5.49-2.8s1.67-.52,2.08-.78.58-1.64,1.13-2.11.73-.37.52-1.77a18.31,18.31,0,0,0-.76-2.91" style="fill:#2a0922"/><path id="Trazado_2133" data-name="Trazado 2133" d="M743.77,395.24a12,12,0,0,0,1.31-1.05,1.57,1.57,0,0,1,1.78-.07,15.41,15.41,0,0,0,2.47,1,6.81,6.81,0,0,1-1.67.48,4.37,4.37,0,0,0,2.21-.25,3.9,3.9,0,0,1,2.55-.43,3.69,3.69,0,0,1,1.41,1.57c.14.31-.13.67-.68.69a8,8,0,0,0-2.29.21,1.37,1.37,0,0,0-1,1.35c0,.57.33,1.07.18,1.37s-.34.21-1.56.07-1.43-.23-1.74-.27-.36-.13,0-.92a1.88,1.88,0,0,0-.3-2.24,18.65,18.65,0,0,0-2.57-.79c-.35-.16-.36-.39-.14-.68" style="fill:#fff"/><path id="Trazado_2134" data-name="Trazado 2134" d="M743.15,397.37a10.47,10.47,0,0,1,2.23.95,1.19,1.19,0,0,1,.42,1.49c-.15.36-.54.74,0,1.14s1.88.6,1.81,1.43-1,1.4-1.74,1.79a1.8,1.8,0,0,1-2.22-.61l1.09-.5-2,.39.71-.49,0-.63,1.2,0s-1.37-.25-1.74-.78l.89,0,.22-.23,1.21.44L744,401l.11-.24s.45.11.55-.51a1.06,1.06,0,0,0-.37-1.19l-.36-.33.07-.08s.94.52,1,.93c0,0,.09-.51-.93-1.26s-.89-.94-.89-.94" style="fill:#fff"/><path id="Trazado_2135" data-name="Trazado 2135" d="M753.88,398.67a10.2,10.2,0,0,0-2.4.39,1.19,1.19,0,0,0-.77,1.35c.07.38.36.84-.25,1.11s-2,.14-2.09,1,.61,1.6,1.26,2.16a1.8,1.8,0,0,0,2.3-.06l-.94-.75,1.87.86-.58-.64.19-.61-1.17-.31s1.4.08,1.88-.35l-.87-.16-.17-.28-1.27.13,1.34-.47-.06-.26s-.45,0-.41-.63a1.1,1.1,0,0,1,.65-1.07l.43-.23-.05-.09s-1,.27-1.2.66c0,0,0-.51,1.21-1s1.09-.7,1.09-.7" style="fill:#fff"/><path id="Trazado_2136" data-name="Trazado 2136" d="M745,405.5a3.94,3.94,0,0,1,1.89-.26l-1.2,1.18a8.21,8.21,0,0,1,1.82,3.48,4.27,4.27,0,0,0,1.7-3.66,3,3,0,0,1,.79,1.07,2.17,2.17,0,0,0-.89-2.4c-1.38-1.14-3-.53-4.11.59" style="fill:#fff"/></g></g></g></g></g></g></g></svg>