<svg xmlns="http://www.w3.org/2000/svg" xmlns:xlink="http://www.w3.org/1999/xlink" viewBox="0 0 362.82 523.01"><defs><clipPath id="clip-path" transform="translate(0.23 0.23)"><rect width="362.59" height="522.54" style="fill:none"/></clipPath><clipPath id="clip-path-3" transform="translate(0.23 0.23)"><rect x="86.44" y="478.09" width="205.7" height="44.38" style="fill:none"/></clipPath><clipPath id="clip-path-4" transform="translate(0.23 0.23)"><rect x="212.91" y="358.63" width="45.65" height="117.89" style="fill:none"/></clipPath><clipPath id="clip-path-5" transform="translate(0.23 0.23)"><rect x="108.87" y="209.78" width="21.39" height="38.81" style="fill:none"/></clipPath><clipPath id="clip-path-6" transform="translate(0.23 0.23)"><rect x="280.83" y="234.75" width="12.51" height="20.42" style="fill:none"/></clipPath><clipPath id="clip-path-7" transform="translate(0.23 0.23)"><path d="M227,2,213.71,17.68a4,4,0,0,0-.36,4.61c3.76,6.53,4.94,22.14-10.18,21.21-13.84-.84-12.33-14.21-11.06-19.88a3.1,3.1,0,0,0-1.87-3.55l-11.53-4.71a2.26,2.26,0,0,0-3,1.22,2.29,2.29,0,0,0-.11,1.44l6.69,24.78L183,69.19l68.31,12.47L260,55l14-23.79a2.26,2.26,0,0,0-2.44-3.34L258.43,30.6a2.94,2.94,0,0,0-2.37,3.06c.6,9.31-3.57,20.12-17.4,15.64-12-3.89-7.27-17.09-1.73-24a4,4,0,0,0,.62-3.89l-7.2-18.85a2,2,0,0,0-2.6-1.14A2.06,2.06,0,0,0,227,2" style="fill:none"/></clipPath><linearGradient id="Degradado_sin_nombre_4" x1="-777.74" y1="801.08" x2="-777.73" y2="801.08" gradientTransform="matrix(99.82, 0, 0, -80.39, 77633.95, 64444.15)" gradientUnits="userSpaceOnUse"><stop offset="0" stop-color="#dba949"/><stop offset="1" stop-color="#c37a00"/></linearGradient><clipPath id="clip-path-9" transform="translate(0.23 0.23)"><rect x="218" y="6.98" width="16.4" height="40.87" style="fill:none"/></clipPath><clipPath id="clip-path-10" transform="translate(0.23 0.23)"><rect x="251.34" y="32.28" width="17.03" height="38.35" style="fill:none"/></clipPath><clipPath id="clip-path-11" transform="translate(0.23 0.23)"><rect x="179.37" y="20.06" width="13.06" height="22.51" style="fill:none"/></clipPath></defs><g id="Capa_2" data-name="Capa 2"><g id="Capa_1-2" data-name="Capa 1"><g style="clip-path:url(#clip-path)"><g id="Grupo_477" data-name="Grupo 477"><g id="Grupo_463" data-name="Grupo 463"><g style="clip-path:url(#clip-path)"><g id="Grupo_462" data-name="Grupo 462"><g id="Grupo_452" data-name="Grupo 452"><g id="Grupo_451" data-name="Grupo 451"><g style="clip-path:url(#clip-path-3)"><g id="Grupo_450" data-name="Grupo 450"><path id="Trazado_1942" data-name="Trazado 1942" d="M292.14,500.28c0,12.25-46,22.19-102.84,22.19S86.45,512.53,86.45,500.28s46-22.19,102.85-22.19S292.14,488,292.14,500.28" transform="translate(0.23 0.23)" style="fill:#becee1"/></g></g></g></g><path id="Trazado_1943" data-name="Trazado 1943" d="M223.53,363.33s34.79-4.69,47.29,15.8c12.65,20.71-9.25,45.65-47.17,39.06s-87.83-30.58-117.93-22.83-28.54,9.8-29.58,8.27-6.25-5.63-1.06-8.72,19.19-10.8,51.39-11.9,84.09,23.62,114.29,20.79c22.32-2.1,16-20,5.14-22.57-9.72-2.28-22.34-4.57-22.34-4.57Z" transform="translate(0.23 0.23)" style="fill:#ef8226"/><path id="Trazado_1944" data-name="Trazado 1944" d="M223.53,363.33s34.79-4.69,47.29,15.8c12.65,20.71-9.25,45.65-47.17,39.06s-87.83-30.58-117.93-22.83-28.54,9.8-29.58,8.27-6.25-5.63-1.06-8.72,19.19-10.8,51.39-11.9,84.09,23.62,114.29,20.79c22.32-2.1,16-20,5.14-22.57-9.72-2.28-22.34-4.57-22.34-4.57Z" transform="translate(0.23 0.23)" style="fill:none;stroke:#dc6628;stroke-miterlimit:10;stroke-width:2.746999979019165px"/><path id="Trazado_1945" data-name="Trazado 1945" d="M142.74,386.52s-29.46-1.83-53.18,5c0,0,36.82-4.65,52.37-.1Z" transform="translate(0.23 0.23)" style="fill:#faad3f"/><path id="Trazado_1946" data-name="Trazado 1946" d="M230.26,366.4s29.73-2.21,38.49,14.47c4.63,8.81,1.75,17-3.7,23.31a1.55,1.55,0,0,1-2.57-1.71c2.55-5,4.23-11.27,1.37-17-6-12.11-30.57-12.6-30.57-12.6Z" transform="translate(0.23 0.23)" style="fill:#faad3f"/><path id="Trazado_1947" data-name="Trazado 1947" d="M84.51,392.31S65.64,375.56,51.08,381l-2.42,4.8s10.93,0,16.4,2.37c0,0-6.69-2.39-24.89,4.25L42,396l6.68-.61S37.15,403.8,34.13,409.8l15.82,12s8.47-16.21,13.94-16.82c0,0-8.48,15-6,17.4l7.29,0,6-12-3.61,18,7.29-1.22s13.92-19.82,9.64-34.8" transform="translate(0.23 0.23)" style="fill:#563317"/><path id="Trazado_1948" data-name="Trazado 1948" d="M84.51,392.31S65.64,375.56,51.08,381l-2.42,4.8s10.93,0,16.4,2.37c0,0-6.69-2.39-24.89,4.25L42,396l6.68-.61S37.15,403.8,34.13,409.8l15.82,12s8.47-16.21,13.94-16.82c0,0-8.48,15-6,17.4l7.29,0,6-12-3.61,18,7.29-1.22S88.79,407.29,84.51,392.31Z" transform="translate(0.23 0.23)" style="fill:none;stroke:#3f1f1c;stroke-miterlimit:10;stroke-width:3.4590001106262207px"/><path id="Trazado_1949" data-name="Trazado 1949" d="M170.59,471.28s3.09,7.58,5.65,9.75,6.7,22.22-6.09,22.79c-5.39.24-17.6,3.21-25.18,5.87-2.21,4.82-15.73,7.23-15.73,7.23s-23,3.3-25.08-2.66c0,0-14.87.48-15.91-2.77,0,0-9.16,2.82-10.2-4.23s-.83-14.08,1.72-17.88,18.7-4.94,25.35-5.49,35.79-14.18,35.79-14.18Z" transform="translate(0.23 0.23)" style="fill:#faad3f"/><path id="Trazado_1950" data-name="Trazado 1950" d="M170.59,471.28s3.09,7.58,5.65,9.75,6.7,22.22-6.09,22.79c-5.39.24-17.6,3.21-25.18,5.87-2.21,4.82-15.73,7.23-15.73,7.23s-23,3.3-25.08-2.66c0,0-14.87.48-15.91-2.77,0,0-9.16,2.82-10.2-4.23s-.83-14.08,1.72-17.88,18.7-4.94,25.35-5.49,35.79-14.18,35.79-14.18Z" transform="translate(0.23 0.23)" style="fill:none;stroke:#dc6628;stroke-miterlimit:10;stroke-width:2.803999900817871px"/><path id="Trazado_1951" data-name="Trazado 1951" d="M136.18,473s6.51,6.7,12.12,7.27,10.94,1.44,13.31,4.64,0,9-3.53,9.34-18.59,9.38-21,9.38-20.67,6.17-25.4,4.72-6.52-7-6.52-7-1.46,6.42-1.16,7.59-14.48.32-15.39-9.59l-.87,5.54s-8.07-2.78-9.25-7.39c0,0-1.53,8,1.46,12,2.07,2.83,8.86,1,8.86,1s.56,3.26,16.33,2.61c0,0-.62,5,15.42,4.2,14.8-.73,23.1-5.72,23.68-8.64,0,0,12-3.69,18-4.87s12.11-.31,14.17-5,1.74-13.72,0-15.76-6.53-10.48-6.53-10.48l-31.62-4Z" transform="translate(0.23 0.23)" style="fill:#ef8226"/><path id="Trazado_1952" data-name="Trazado 1952" d="M102.63,514.64c.07-2.48.22-4.92.45-7.37a38.05,38.05,0,0,1,1.26-7.35,4.88,4.88,0,0,1,1-1.85,5.41,5.41,0,0,1,1.72-1.05,19.1,19.1,0,0,1,3.58-1q1.8-.36,3.63-.54c.61-.07,1.22-.12,1.82-.15a8,8,0,0,1,1.83,0,8.43,8.43,0,0,0-1.81.11c-.6.09-1.2.19-1.79.31-1.19.23-2.37.52-3.53.86a18.72,18.72,0,0,0-3.31,1.28,4.39,4.39,0,0,0-1.3,1,3.66,3.66,0,0,0-.57,1.42,36.61,36.61,0,0,0-.57,7.09c0,2.4.06,4.83.2,7.21Z" transform="translate(0.23 0.23)" style="fill:#dc6628"/><path id="Trazado_1953" data-name="Trazado 1953" d="M86.88,512c.07-2.45.22-4.85.44-7.28a39.49,39.49,0,0,1,1.21-7.25,4.29,4.29,0,0,1,2.46-3A21.52,21.52,0,0,1,94.38,493a35.32,35.32,0,0,1,3.48-1c.59-.14,1.18-.27,1.77-.37a6.06,6.06,0,0,1,1.8-.14,6.25,6.25,0,0,0-1.76.3c-.57.16-1.14.34-1.71.53-1.14.38-2.25.81-3.34,1.29a20.06,20.06,0,0,0-3.1,1.66,3.18,3.18,0,0,0-1.7,2.53,39.2,39.2,0,0,0-.53,7c0,2.37.07,4.77.2,7.12Z" transform="translate(0.23 0.23)" style="fill:#dc6628"/><path id="Trazado_1954" data-name="Trazado 1954" d="M127.27,499.89s-3.24-3.28-10-3.27-8.57,1.55-9.47,3c0,0,10.63-2.94,19.5.25" transform="translate(0.23 0.23)" style="fill:#f9d772"/><path id="Trazado_1955" data-name="Trazado 1955" d="M105.54,496.75s-2.42-2.8-7.48-2.79-6.38,1.33-7,2.58c0,0,7.92-2.5,14.53.21" transform="translate(0.23 0.23)" style="fill:#f9d772"/><path id="Trazado_1956" data-name="Trazado 1956" d="M91.32,493.6a7.43,7.43,0,0,0-6.17-3.77c-4.18,0-5.26,1.78-5.82,3.46,0,0,6.53-3.36,12,.31" transform="translate(0.23 0.23)" style="fill:#f9d772"/><path id="Trazado_1957" data-name="Trazado 1957" d="M258.76,470.48s14.1,13,25.41,15.32,11.92,4.67,13.12,12.31,2.07,13.62-4.72,15.87a59.53,59.53,0,0,1-10.12,2.38s-5.36-2.34-5.36-4.1c0,0,1.79,4.7-3,5.88s-16.73,2.38-21.14,1a9.55,9.55,0,0,1-6-5.86s-1.77,6.46-4.15,7.06-13.69,1.79-17.86-.55-8.34-5.86-7.16-11.74,10-34.77,10-34.77" transform="translate(0.23 0.23)" style="fill:#faad3f"/><path id="Trazado_1958" data-name="Trazado 1958" d="M258.76,470.48s14.1,13,25.41,15.32,11.92,4.67,13.12,12.31,2.07,13.62-4.72,15.87a59.53,59.53,0,0,1-10.12,2.38s-5.36-2.34-5.36-4.1c0,0,1.79,4.7-3,5.88s-16.73,2.38-21.14,1a9.55,9.55,0,0,1-6-5.86s-1.77,6.46-4.15,7.06-13.69,1.79-17.86-.55-8.34-5.86-7.16-11.74,10-34.77,10-34.77" transform="translate(0.23 0.23)" style="fill:none;stroke:#dc6628;stroke-miterlimit:10;stroke-width:3.1480000019073486px"/><path id="Trazado_1959" data-name="Trazado 1959" d="M265.61,476.37s-3.31,5.68-9.65,6.29-10.88-2.37-17.23-2.65-14.79,3.9-14.79,3.9l2.1-7.75,35.07-4.49a8.13,8.13,0,0,0,4.5,4.7" transform="translate(0.23 0.23)" style="fill:#ef8226"/><path id="Trazado_1960" data-name="Trazado 1960" d="M296.54,502.58s-2.14,4.24-8.35,5.52-6.65-.2-8.16-3.16-5.6-12.47-14.82-15.63c0,0,7.09,5.49,8.6,11.84s.45,9.52-6,10-14.58,1.09-16.73-1.87-6.47-18.62-6.47-18.62.47,16.94,0,19.05-6.42,2.77-12.64,1.93-9.86,1.08-10.3-5.06,2.31-21,2.31-21-5.95,22.23-5.52,24.77a13.68,13.68,0,0,0,9.24,9.51c5.79,1.68,14.36.6,15.43-.88a55.62,55.62,0,0,0,3.2-6.36s4.09,4.86,7.3,5.49,19.94-.25,21.65-1.74,2.78-4.87,2.78-4.87,1.94,3.38,4.72,3.38,16.93-.67,13.69-12.3" transform="translate(0.23 0.23)" style="fill:#ef8226"/><path id="Trazado_1961" data-name="Trazado 1961" d="M276.45,515.29c-.14-1.85-.35-3.74-.6-5.6s-.55-3.72-.93-5.57a40.72,40.72,0,0,0-1.48-5.43,15,15,0,0,0-1.17-2.54,4.53,4.53,0,0,0-2-1.94,4.7,4.7,0,0,1,2.25,1.75,15.54,15.54,0,0,1,1.51,2.47,41.21,41.21,0,0,1,2.15,5.35c.61,1.82,1.13,3.67,1.61,5.53s.91,3.72,1.28,5.63Z" transform="translate(0.23 0.23)" style="fill:#dc6628"/><path id="Trazado_1962" data-name="Trazado 1962" d="M245.87,514.74l-.16-10.84c-.09-3.61-.15-7.22-.36-10.83.65,3.56,1.16,7.14,1.68,10.72l1.5,10.76Z" transform="translate(0.23 0.23)" style="fill:#dc6628"/><path id="Trazado_1963" data-name="Trazado 1963" d="M289.5,490.94s-6.95-1.78-12.08,1.51c0,0,7.25,0,12.08-1.51" transform="translate(0.23 0.23)" style="fill:#f9d772"/><path id="Trazado_1964" data-name="Trazado 1964" d="M267.46,494.56a17.9,17.9,0,0,0-12.09-3c-6.94.91-7.84,5.09-7.84,5.09a26,26,0,0,1,19.93-2.13" transform="translate(0.23 0.23)" style="fill:#f9d772"/><path id="Trazado_1965" data-name="Trazado 1965" d="M241.79,496.1s-3.63-3.87-10.58-3.85-7.55,1.8-9.36,3.6c0,0,10.87-3,19.94.26" transform="translate(0.23 0.23)" style="fill:#f9d772"/><path id="Trazado_1966" data-name="Trazado 1966" d="M229.83,349.61s9.85,33.17,13.8,67l7.17,8.7s5.2,37.17,8.8,45.87c0,0-8.16,8-14.8,6.19s-18.39-1.76-18.39-1.76-3.66-32.81-11.34-43a232.32,232.32,0,0,1-14.59-22.66s-10.73-2.54-19.41.56c0,0-10.46,13.47-10.45,17.06s3.59,8.71,3.59,8.71-4,31.48-2.44,35.84c0,0-17.9,3.94-21.48,3.95s-11-6.39-11-6.39,3.81-38.46-1.85-57.93l10.09-59.23s76-3.37,82.35-2.87" transform="translate(0.23 0.23)" style="fill:#2683a9"/><path id="Trazado_1967" data-name="Trazado 1967" d="M229.83,349.61s9.85,33.17,13.8,67l7.17,8.7s5.2,37.17,8.8,45.87c0,0-8.16,8-14.8,6.19s-18.39-1.76-18.39-1.76-3.66-32.81-11.34-43a232.32,232.32,0,0,1-14.59-22.66s-10.73-2.54-19.41.56c0,0-10.46,13.47-10.45,17.06s3.59,8.71,3.59,8.71-4,31.48-2.44,35.84c0,0-17.9,3.94-21.48,3.95s-11-6.39-11-6.39,3.81-38.46-1.85-57.93l10.09-59.23S223.45,349.11,229.83,349.61Z" transform="translate(0.23 0.23)" style="fill:none;stroke:#004b79;stroke-miterlimit:10;stroke-width:2.7239999771118164px"/><path id="Trazado_1968" data-name="Trazado 1968" d="M176.39,359.5s.41,28.7,1.6,36.58c.63,4.16,10.65,2.25,10.65,2.25l-1.24-39.1Z" transform="translate(0.23 0.23)" style="fill:none;stroke:#004b79;stroke-miterlimit:10"/><g id="Grupo_455" data-name="Grupo 455"><g id="Grupo_454" data-name="Grupo 454"><g style="clip-path:url(#clip-path-4)"><g id="Grupo_453" data-name="Grupo 453"><path id="Trazado_1969" data-name="Trazado 1969" d="M212.91,361.07s11.92,35.22,12.21,38.26c0,0,5.76,11.18,8.29,12.55,0,0,7.59,11.33,8.44,17.13s5.12,37.06,4.85,39.27S242,476,242,476s6.45,1.65,12-1.13,4.48-3.88,4.48-3.88-8.48-35.38-7.94-44.24l-8.15-9.66s-4.31-42.74-11.34-58.49c0,0-11.3,2.17-18.13,2.44" transform="translate(0.23 0.23)" style="fill:#94afc7"/></g></g></g></g><path id="Trazado_1970" data-name="Trazado 1970" d="M237.08,384.84l-19.74-4.07-13.25-14.58" transform="translate(0.23 0.23)" style="fill:none;stroke:#004b79;stroke-miterlimit:10"/><path id="Trazado_1971" data-name="Trazado 1971" d="M236.64,381.55l-18-3.29-11.2-16.39" transform="translate(0.23 0.23)" style="fill:none;stroke:#004b79;stroke-miterlimit:10"/><path id="Trazado_1972" data-name="Trazado 1972" d="M164.87,363.39l-7.06,11.2-13.45,4.3" transform="translate(0.23 0.23)" style="fill:none;stroke:#004b79;stroke-miterlimit:10"/><path id="Trazado_1973" data-name="Trazado 1973" d="M161.26,361.89l-5.57,9.78-10.61,2.95" transform="translate(0.23 0.23)" style="fill:none;stroke:#004b79;stroke-miterlimit:10"/><path id="Trazado_1974" data-name="Trazado 1974" d="M242.88,417.66c-1.93-1.05-3.8-2.13-5.66-3.27s-3.67-2.32-5.45-3.56a55.36,55.36,0,0,1-5.14-4,23.88,23.88,0,0,1-2.3-2.31,9.94,9.94,0,0,1-1.75-2.73,9.65,9.65,0,0,0,2,2.53,23.13,23.13,0,0,0,2.46,2.06,54.56,54.56,0,0,0,5.4,3.48c1.86,1.07,3.75,2.06,5.67,3s3.87,1.86,5.82,2.7Z" transform="translate(0.23 0.23)" style="fill:#004b79"/><path id="Trazado_1975" data-name="Trazado 1975" d="M250.26,475.56c-2-9.56-3.82-19.15-5.37-28.8-.38-2.41-.74-4.83-1.06-7.26-.16-1.23-.3-2.41-.49-3.6s-.43-2.37-.68-3.54a94.26,94.26,0,0,0-4.25-13.85,35.49,35.49,0,0,0-1.44-3.25,8,8,0,0,0-.41-.7,4.25,4.25,0,0,1-.48-1c-.21-.61-.38-1.2-.54-1.8-.65-2.38-1.21-4.76-1.76-7.14q-1.62-7.14-3.11-14.31-3-14.34-5.6-28.74l6.68,28.5c1.12,4.74,2.22,9.5,3.4,14.22.59,2.36,1.17,4.73,1.84,7.05.16.58.34,1.16.53,1.7a3.52,3.52,0,0,0,.27.63,7.86,7.86,0,0,1,.54.87,34,34,0,0,1,1.59,3.4,85.48,85.48,0,0,1,4.35,14.1,63.68,63.68,0,0,1,1.13,7.3c.27,2.41.59,4.82.92,7.24,1.31,9.65,2.69,19.32,3.93,29" transform="translate(0.23 0.23)" style="fill:#004b79"/><path id="Trazado_1976" data-name="Trazado 1976" d="M170.59,431.4c-2-2-3.88-4.13-5.71-6.28a72.05,72.05,0,0,1-5.17-6.74,27.88,27.88,0,0,1-2.12-3.72,11.49,11.49,0,0,1-.71-2.07,8,8,0,0,1-.14-1.08,9.73,9.73,0,0,1-.06-1.07,14.17,14.17,0,0,1,2.15-8.09,13.88,13.88,0,0,0-1.53,8c.1,2.79,1.76,5.07,3.39,7.29a72.39,72.39,0,0,0,5.49,6.25c1.94,2,3.95,3.93,6,5.77Z" transform="translate(0.23 0.23)" style="fill:#004b79"/><path id="Trazado_1977" data-name="Trazado 1977" d="M163.79,473A92.26,92.26,0,0,1,161,452a30.4,30.4,0,0,1,.45-5.39,16.5,16.5,0,0,1,.7-2.68c.37-.93.72-1.63,1-2.44a28.72,28.72,0,0,0,1.59-10.1,31.42,31.42,0,0,0-.42-5.13c-.07-.42-.15-.84-.25-1.24a5.63,5.63,0,0,0-.35-1.05,2.13,2.13,0,0,1-.21-.49c0-.14-.05-.28-.07-.42a6.4,6.4,0,0,1,0-.73c0-.47,0-.92,0-1.37a96.89,96.89,0,0,1,1-10.61c.49-3.5,1.12-7,1.92-10.44.42-1.73.88-3.44,1.43-5.12a19,19,0,0,1,2.2-4.83,21.82,21.82,0,0,0-1.8,4.94c-.43,1.7-.78,3.43-1.08,5.16-.6,3.46-1.05,7-1.43,10.45s-.66,7-.71,10.47c0,.43,0,.86,0,1.28s.06.88.16.93a6,6,0,0,1,.53,1.43c.12.46.21.9.29,1.36a33.57,33.57,0,0,1,.49,5.4A29.47,29.47,0,0,1,164.7,442c-.33.84-.78,1.71-1.08,2.42a16.6,16.6,0,0,0-.69,2.41,34.11,34.11,0,0,0-.57,5.14,85.58,85.58,0,0,0,.28,10.5c.24,3.51.67,7,1.14,10.51" transform="translate(0.23 0.23)" style="fill:#004b79"/><path id="Trazado_1978" data-name="Trazado 1978" d="M231.2,420.53s-16.13-12.89-17.23-17.2c0,0,4.67,15.08,8.22,17.49s12.33,23.95,12.88,26.1-3-25-3.88-26.38" transform="translate(0.23 0.23)" style="fill:#7fbee7"/><path id="Trazado_1979" data-name="Trazado 1979" d="M161.38,428.49s-9-13.18-9-15.87,3.52-12.4,3.52-12.4-6.53,9.17-6.52,12.13,8.48,13.45,12,16.14" transform="translate(0.23 0.23)" style="fill:#7fbee7"/><path id="Trazado_1980" data-name="Trazado 1980" d="M146.3,360.75s5.06,3.88,35.92,5,49.88-5.14,49.88-5.14L231,353.47s-28.39,4-48.47,3.38a189.44,189.44,0,0,1-36.5-4.71s-.71,5.48.25,8.61" transform="translate(0.23 0.23)" style="fill:#20120d"/><path id="Trazado_1981" data-name="Trazado 1981" d="M189.81,366.9,173,366.61a4,4,0,0,1-4-4.07v-.08l.17-4.77a4,4,0,0,1,4.17-3.87l16.76.44a4,4,0,0,1,4,4.08l-.08,4.62a4,4,0,0,1-4.13,3.94" transform="translate(0.23 0.23)" style="fill:#c78b39"/><path id="Trazado_1982" data-name="Trazado 1982" d="M189.81,366.9,173,366.61a4,4,0,0,1-4-4.07v-.08l.17-4.77a4,4,0,0,1,4.17-3.87l16.76.44a4,4,0,0,1,4,4.08l-.08,4.62A4,4,0,0,1,189.81,366.9Z" transform="translate(0.23 0.23)" style="fill:none;stroke:#3f1f1c;stroke-miterlimit:10;stroke-width:3.5429999828338623px"/><path id="Trazado_1983" data-name="Trazado 1983" d="M153.23,364.71s-.27-9.34,1.49-12L159,353.9s-2.42,7.08-1.76,11.74" transform="translate(0.23 0.23)" style="fill:#2683a9"/><path id="Trazado_1984" data-name="Trazado 1984" d="M153.23,364.71s-.27-9.34,1.49-12L159,353.9s-2.42,7.08-1.76,11.74" transform="translate(0.23 0.23)" style="fill:none;stroke:#004b79;stroke-linecap:round;stroke-linejoin:round;stroke-width:1.9869999885559082px"/><path id="Trazado_1985" data-name="Trazado 1985" d="M205.37,366.87s-.26-9.08-1.41-12.43c0,0,4.67-2.21,5.26-.14s1.88,10.33.38,13.23" transform="translate(0.23 0.23)" style="fill:#2683a9"/><path id="Trazado_1986" data-name="Trazado 1986" d="M205.37,366.87s-.26-9.08-1.41-12.43c0,0,4.67-2.21,5.26-.14s1.88,10.33.38,13.23" transform="translate(0.23 0.23)" style="fill:none;stroke:#004b79;stroke-linecap:round;stroke-linejoin:round;stroke-width:1.9869999885559082px"/><path id="Trazado_1987" data-name="Trazado 1987" d="M227.53,362.23s-.22-7.64-1.19-10.46c0,0,3.94-1.86,4.43-.13s1.58,8.7.32,11.15" transform="translate(0.23 0.23)" style="fill:#2683a9"/><path id="Trazado_1988" data-name="Trazado 1988" d="M227.53,362.23s-.22-7.64-1.19-10.46c0,0,3.94-1.86,4.43-.13s1.58,8.7.32,11.15" transform="translate(0.23 0.23)" style="fill:none;stroke:#004b79;stroke-linecap:round;stroke-linejoin:round;stroke-width:1.6729999780654907px"/><path id="Trazado_1989" data-name="Trazado 1989" d="M52,156s-10-25.54-16.09-27.78-10.3,2.65-12.2,6.41,2.31,12,5,14.27,6.52,13.52,6.14,15.78" transform="translate(0.23 0.23)" style="fill:#fff"/><path id="Trazado_1990" data-name="Trazado 1990" d="M52,156s-10-25.54-16.09-27.78-10.3,2.65-12.2,6.41,2.31,12,5,14.27,6.52,13.52,6.14,15.78" transform="translate(0.23 0.23)" style="fill:none;stroke:#dc6628;stroke-miterlimit:10;stroke-width:3.744999885559082px"/><path id="Trazado_1991" data-name="Trazado 1991" d="M150.82,260.82s-32.73,7.28-46.19,11.5L99,285.59l-2.47-10.8-6,11.52s-1.44-7.68-2.86-11.17-44-36.2-54-64.8c0,0-11-4.71-13.81-11.68s1.69-23.19,1.69-23.19S43.75,159.14,49.1,161s10.33,10.5,8.43,16.52S61.64,190,61.64,190s4.54,9.12,18,21c9.58,8.4,19.16,8.33,19.16,8.33L111.43,209" transform="translate(0.23 0.23)" style="fill:#faad3f"/><path id="Trazado_1992" data-name="Trazado 1992" d="M150.82,260.82s-32.73,7.28-46.19,11.5L99,285.59l-2.47-10.8-6,11.52s-1.44-7.68-2.86-11.17-44-36.2-54-64.8c0,0-11-4.71-13.81-11.68s1.69-23.19,1.69-23.19S43.75,159.14,49.1,161s10.33,10.5,8.43,16.52S61.64,190,61.64,190s4.54,9.12,18,21c9.58,8.4,19.16,8.33,19.16,8.33L111.43,209" transform="translate(0.23 0.23)" style="fill:none;stroke:#dc6628;stroke-miterlimit:10;stroke-width:3.744999885559082px"/><path id="Trazado_1993" data-name="Trazado 1993" d="M44.57,160.09s-17.24,5.18-20.52,17.36c-1.28,4.75-4.67,16.82-.49,18.87s25.59-11.89,29.06-18.41,2.94-10.81-.2-14.58-4.36-4.8-7.85-3.24" transform="translate(0.23 0.23)" style="fill:#fff"/><path id="Trazado_1994" data-name="Trazado 1994" d="M44.57,160.09s-17.24,5.18-20.52,17.36c-1.28,4.75-4.67,16.82-.49,18.87s25.59-11.89,29.06-18.41,2.94-10.81-.2-14.58S48.05,158.53,44.57,160.09Z" transform="translate(0.23 0.23)" style="fill:none;stroke:#dc6628;stroke-miterlimit:10;stroke-width:2.134000062942505px"/><path id="Trazado_1995" data-name="Trazado 1995" d="M116.18,240.2S93.62,247,86,244.46,68,232.75,48.8,203.44C45.4,207.22,34.22,209,34.22,209s3.12,10.82,19.34,30.07,35.86,35.58,35.86,35.58l.87,9.64,6.36-13.85,3.43,10.47,3.81-10.49L135,265.75l-1.31-16.36Z" transform="translate(0.23 0.23)" style="fill:#ef8226"/><path id="Trazado_1996" data-name="Trazado 1996" d="M60.49,190.74s7.34-15.12,7.33-19.63-4.23-17.65-4.23-17.65-6.89-7.13-10-13.14c-1.46-2.87-14.12,1.91-11.81,11.3a25.84,25.84,0,0,0,9.58,14.27L37.3,176.82" transform="translate(0.23 0.23)" style="fill:#faad3f"/><path id="Trazado_1997" data-name="Trazado 1997" d="M60.49,190.74s7.34-15.12,7.33-19.63-4.23-17.65-4.23-17.65-6.89-7.13-10-13.14c-1.46-2.87-14.12,1.91-11.81,11.3a25.84,25.84,0,0,0,9.58,14.27L37.3,176.82" transform="translate(0.23 0.23)" style="fill:none;stroke:#dc6628;stroke-miterlimit:10;stroke-width:3.744999885559082px"/><path id="Trazado_1998" data-name="Trazado 1998" d="M19.7,181.33s-9.11-9.81-12.47-9.41-4.49,5.77-5.85,9.15,9.19,10.48,11.8,10.58,9.62-7.32,6.53-10.32" transform="translate(0.23 0.23)" style="fill:#faad3f"/><path id="Trazado_1999" data-name="Trazado 1999" d="M19.7,181.33s-9.11-9.81-12.47-9.41-4.49,5.77-5.85,9.15,9.19,10.48,11.8,10.58S22.8,184.33,19.7,181.33Z" transform="translate(0.23 0.23)" style="fill:none;stroke:#dc6628;stroke-miterlimit:10;stroke-width:2.9739999771118164px"/><path id="Trazado_2000" data-name="Trazado 2000" d="M12.05,183.42s1.2,4.85-2.2,5.53c0,0,2.55,2.5,3.74,1.83a35.57,35.57,0,0,0,4.4-4.19Z" transform="translate(0.23 0.23)" style="fill:#fff"/><path id="Trazado_2001" data-name="Trazado 2001" d="M12.05,183.42s1.2,4.85-2.2,5.53c0,0,2.55,2.5,3.74,1.83a35.57,35.57,0,0,0,4.4-4.19Z" transform="translate(0.23 0.23)" style="fill:none;stroke:#dc6628;stroke-miterlimit:10;stroke-width:2.134000062942505px"/><path id="Trazado_2002" data-name="Trazado 2002" d="M24.55,179.51S21,165.31,18,164s-6.36,3.28-9,5.86,3.3,14.88,5.48,16.32,11.43-2.15,10.09-6.64" transform="translate(0.23 0.23)" style="fill:#faad3f"/><path id="Trazado_2003" data-name="Trazado 2003" d="M24.55,179.51S21,165.31,18,164s-6.36,3.28-9,5.86,3.3,14.88,5.48,16.32S25.89,184,24.55,179.51Z" transform="translate(0.23 0.23)" style="fill:none;stroke:#dc6628;stroke-miterlimit:10;stroke-width:3.052999973297119px"/><path id="Trazado_2004" data-name="Trazado 2004" d="M13.06,182.08s5.6.49,8.49-4.2l2.55,2.17a5.91,5.91,0,0,1-3.39,4.19c-2.89,1.17-5.09,1.68-6.28.35a5.32,5.32,0,0,1-1.37-2.5" transform="translate(0.23 0.23)" style="fill:#fff"/><path id="Trazado_2005" data-name="Trazado 2005" d="M13.06,182.08s5.6.49,8.49-4.2l2.55,2.17a5.91,5.91,0,0,1-3.39,4.19c-2.89,1.17-5.09,1.68-6.28.35A5.44,5.44,0,0,1,13.06,182.08Z" transform="translate(0.23 0.23)" style="fill:none;stroke:#dc6628;stroke-miterlimit:10;stroke-width:2.134000062942505px"/><path id="Trazado_2006" data-name="Trazado 2006" d="M38.15,172.41s-2.7-16.53-6.52-18.4-8.78,3-12.59,5.66,2.33,17.29,5,19.16,15.27-1.16,14.11-6.42" transform="translate(0.23 0.23)" style="fill:#faad3f"/><path id="Trazado_2007" data-name="Trazado 2007" d="M38.15,172.41s-2.7-16.53-6.52-18.4-8.78,3-12.59,5.66,2.33,17.29,5,19.16S39.31,177.67,38.15,172.41Z" transform="translate(0.23 0.23)" style="fill:none;stroke:#dc6628;stroke-miterlimit:10;stroke-width:3.744999885559082px"/><path id="Trazado_2008" data-name="Trazado 2008" d="M33.38,204.31c6.21,2.54,14.87-.45,21.64-12.63s8-18.47,6.32-24.75-1.3-9.65-5.13-14.25-5.12-12.57-9.37-10.05-5.5,7.56-.81,15.1,7.66,8,7.66,8-19.5,16-22.48,17.66-17.71,12.83,2.17,21" transform="translate(0.23 0.23)" style="fill:#fff"/><path id="Trazado_2009" data-name="Trazado 2009" d="M31,155s3.25,14.36,2.92,16.37-8.75,6.21-11.8,3.37a7.08,7.08,0,0,0,3.16,3.17c2,.83,11,0,11.7-4.2S34.41,158.3,31,155" transform="translate(0.23 0.23)" style="fill:#fff"/><path id="Trazado_2010" data-name="Trazado 2010" d="M31,155s3.25,14.36,2.92,16.37-8.75,6.21-11.8,3.37a7.08,7.08,0,0,0,3.16,3.17c2,.83,11,0,11.7-4.2S34.41,158.3,31,155Z" transform="translate(0.23 0.23)" style="fill:none;stroke:#dc6628;stroke-miterlimit:10;stroke-width:2.134000062942505px"/><path id="Trazado_2011" data-name="Trazado 2011" d="M92.69,224S65.55,206.68,60.8,196.11c0,0,1.6,11.2,11.7,21.13S92.68,224,92.68,224" transform="translate(0.23 0.23)" style="fill:#f9d772"/><path id="Trazado_2012" data-name="Trazado 2012" d="M157.22,171.9s-31.68,6.78-58,39.7c0,0,6.53,25.56,29.21,37.38,0,0,23.09-16.94,29.55-23.79" transform="translate(0.23 0.23)" style="fill:#2a0922"/><path id="Trazado_2013" data-name="Trazado 2013" d="M157.22,171.9s-31.68,6.78-58,39.7c0,0,6.53,25.56,29.21,37.38,0,0,23.09-16.94,29.55-23.79" transform="translate(0.23 0.23)" style="fill:none;stroke:#3f1f1c;stroke-miterlimit:10;stroke-width:3.26200008392334px"/><path id="Trazado_2014" data-name="Trazado 2014" d="M106,202.46s5.49,19.52,30.81,40.16L128.46,249s-24.86-17.3-32.91-34.33c0,0,6.15-10.36,10.46-12.2" transform="translate(0.23 0.23)" style="fill:#c78b39"/><path id="Trazado_2015" data-name="Trazado 2015" d="M106,202.46s5.49,19.52,30.81,40.16L128.46,249s-24.86-17.3-32.91-34.33C95.56,214.66,101.7,204.3,106,202.46Z" transform="translate(0.23 0.23)" style="fill:none;stroke:#3f1f1c;stroke-miterlimit:10;stroke-width:3.2260000705718994px"/><g id="Grupo_458" data-name="Grupo 458"><g id="Grupo_457" data-name="Grupo 457"><g style="clip-path:url(#clip-path-5)"><g id="Grupo_456" data-name="Grupo 456"><path id="Trazado_2016" data-name="Trazado 2016" d="M130.26,209.78s-4.73,19.67-21.39,23.9c0,0,11.62,12.68,15.87,14.91,0,0,.18-24.85,5.52-38.81" transform="translate(0.23 0.23)" style="fill:#cca471"/></g></g></g></g><path id="Trazado_2017" data-name="Trazado 2017" d="M131.59,207c-17.19,34.13-4.68,89.64.47,108.49,4.66,17,9.69,24.67,12.06,30.42a9.07,9.07,0,0,0-2.07,4.86c2,3,2.67,5.43,42,5.7,41.9.28,52.05-4.23,52.05-4.23s3-1.56.66-6.75c1.18-6,3.46-17,7.66-35.89,5.68-25.51,44.27-50.27,39.86-107.51-1.64-21.26-66.85-36.81-91.27-37.67-16.76-.6-32.36,0-42.49,13.33" transform="translate(0.23 0.23)" style="fill:#2a0922"/><path id="Trazado_2018" data-name="Trazado 2018" d="M131.59,207a74.58,74.58,0,0,0-5.6,16.95,115.64,115.64,0,0,0-2.24,17.69,189,189,0,0,0,1.86,35.58c.82,5.89,1.86,11.75,3.07,17.58s2.42,11.64,3.92,17.39A145.07,145.07,0,0,0,138,329.07c1.08,2.75,2.26,5.45,3.54,8.12s2.66,5.3,3.86,8.16l.33.78-.57.65a6.83,6.83,0,0,0-1.16,1.89,8.74,8.74,0,0,0-.37,1.09,7.76,7.76,0,0,0-.2,1.07l-.24-.86a5.23,5.23,0,0,0,1.78,1.9,10.63,10.63,0,0,0,2.65,1,45.75,45.75,0,0,0,6.16,1c4.21.45,8.49.67,12.76.83,8.56.31,17.16.38,25.73.33s17.14-.37,25.65-1.12c4.24-.39,8.49-.88,12.63-1.68,1-.21,2.06-.43,3.06-.69.5-.13,1-.27,1.46-.42l.34-.12.12,0s.06,0,0,0h0a1.64,1.64,0,0,0,.3-.29,2.79,2.79,0,0,0,.5-2.06,8.39,8.39,0,0,0-.74-2.64l-.17-.4.08-.42c1.23-6.21,2.54-12.4,3.87-18.58l2-9.27,1-4.63c.35-1.56.65-3,1.06-4.67,1.71-6.38,5-12,8.31-17.42s7-10.57,10.44-15.86a175.31,175.31,0,0,0,9.5-16.22,110.43,110.43,0,0,0,7.1-17.31,102.72,102.72,0,0,0,4.32-37c-.06-.77-.1-1.59-.17-2.31a8.83,8.83,0,0,0-.16-1,6,6,0,0,0-.27-1,13.82,13.82,0,0,0-2-3.82,29.6,29.6,0,0,0-6.5-6.24A82.68,82.68,0,0,0,257.66,181,179.22,179.22,0,0,0,240,174.68q-9-2.72-18.25-4.7c-6.15-1.32-12.3-2.6-18.52-3.49-3.1-.45-6.22-.82-9.33-1s-6.29-.33-9.42-.37c-6.26-.06-12.58.31-18.56,2.19a32.25,32.25,0,0,0-8.44,4,31.32,31.32,0,0,0-6.89,6.41,31.15,31.15,0,0,1,15-11.3c6-2.18,12.49-2.83,18.83-3,3.19-.1,6.35-.09,9.54,0s6.38.39,9.54.75a186.58,186.58,0,0,1,18.8,3.13,219,219,0,0,1,36.44,11.22,86.1,86.1,0,0,1,16.9,9.18,32.31,32.31,0,0,1,7.1,6.86,16.42,16.42,0,0,1,2.35,4.58,9.11,9.11,0,0,1,.33,1.27,10.06,10.06,0,0,1,.21,1.32c.09.85.11,1.61.17,2.42A105.16,105.16,0,0,1,281.36,242a113.56,113.56,0,0,1-7.27,17.74,182.16,182.16,0,0,1-9.65,16.47c-3.45,5.33-7.08,10.51-10.42,15.82s-6.41,10.78-8,16.66c-.36,1.44-.69,3-1,4.57l-1,4.63-2,9.25c-1.33,6.18-2.64,12.36-3.86,18.54l-.09-.82a11.56,11.56,0,0,1,1,3.55,5.53,5.53,0,0,1-1.12,4,3.76,3.76,0,0,1-.88.81l-.17.11-.23.11-.25.1-.43.15c-.55.19-1.09.33-1.63.48-1.08.28-2.15.51-3.23.73-4.3.82-8.6,1.32-12.91,1.72-8.62.75-17.25,1.06-25.87,1.13s-17.23,0-25.85-.33c-4.31-.17-8.63-.38-13-.85a48.12,48.12,0,0,1-6.55-1.09,13.45,13.45,0,0,1-3.36-1.3A6.54,6.54,0,0,1,142,353a13.42,13.42,0,0,1-1.07-1.44l-.28-.41,0-.46a10.57,10.57,0,0,1,.29-1.57,10.75,10.75,0,0,1,.49-1.45A9.32,9.32,0,0,1,143.1,345l-.24,1.42c-1.12-2.64-2.53-5.3-3.81-8s-2.51-5.48-3.61-8.3A147.93,147.93,0,0,1,130,312.85c-1.5-5.81-2.9-11.65-4-17.56s-1.93-11.85-2.58-17.81a190.16,190.16,0,0,1-.84-35.94,111.26,111.26,0,0,1,2.8-17.76,74.94,74.94,0,0,1,6.22-16.8" transform="translate(0.23 0.23)" style="fill:#3f1f1c"/><path id="Trazado_2019" data-name="Trazado 2019" d="M171.78,226.38s-.95,15.83.24,24.64l10.84.15s1.41-16.31,4.93-24.78Z" transform="translate(0.23 0.23)" style="fill:#c78b39"/><path id="Trazado_2020" data-name="Trazado 2020" d="M171.78,226.38s-.95,15.83.24,24.64l10.84.15s1.41-16.31,4.93-24.78Z" transform="translate(0.23 0.23)" style="fill:none;stroke:#3f1f1c;stroke-miterlimit:10;stroke-width:3.2260000705718994px"/><path id="Trazado_2021" data-name="Trazado 2021" d="M314.76,209.22s24.68,9,30.28,33.21S328.47,269,307,262.65c-11.92-3.5-14.51-8-34.88-17.5" transform="translate(0.23 0.23)" style="fill:#faad3f"/><path id="Trazado_2022" data-name="Trazado 2022" d="M314.76,209.22s24.68,9,30.28,33.21S328.47,269,307,262.65c-11.92-3.5-14.51-8-34.88-17.5" transform="translate(0.23 0.23)" style="fill:none;stroke:#dc6628;stroke-miterlimit:10;stroke-width:3.26200008392334px"/><path id="Trazado_2023" data-name="Trazado 2023" d="M290.29,239.79s7.78,6.63,17.11,7.12a27.87,27.87,0,0,0-8.78,12.29s-13-5.6-15-7.13c0,0,1-9.72,6.71-12.29" transform="translate(0.23 0.23)" style="fill:#ef8226"/><path id="Trazado_2024" data-name="Trazado 2024" d="M250.88,171s42,6,71.25,39.31c0,0-33.94,24.57-35.28,45.58,0,0-22.74-10.19-29.23-17" transform="translate(0.23 0.23)" style="fill:#2a0922"/><path id="Trazado_2025" data-name="Trazado 2025" d="M250.88,171a89.68,89.68,0,0,1,10.28,1.62c3.4.7,6.77,1.61,10.11,2.6A71.71,71.71,0,0,1,281,179q4.77,2.13,9.38,4.61c3.07,1.66,6.07,3.45,9,5.34s5.78,3.93,8.52,6.1a113.75,113.75,0,0,1,15.25,14.35l1,1.12-1.23.9c-3.87,2.88-7.65,6-11.26,9.3A132.35,132.35,0,0,0,301.4,231a75.2,75.2,0,0,0-8.58,11.65c-2.39,4.13-4.27,8.62-4.59,13.23l-.14,2-1.8-.82c-2.6-1.18-5.16-2.41-7.71-3.67s-5.06-2.6-7.6-3.91c-1.24-.7-2.4-1.56-3.58-2.36s-2.35-1.64-3.48-2.52a36.16,36.16,0,0,1-6.29-5.82,26.17,26.17,0,0,0,3.45,2.44c1.19.74,2.43,1.42,3.67,2.07,2.48,1.33,5.05,2.49,7.58,3.72,2.43,1.4,4.95,2.65,7.46,3.91s5.07,2.47,7.62,3.63l-1.94,1.17c.37-5.27,2.45-10.09,4.95-14.44a77.47,77.47,0,0,1,8.9-12.09,134.39,134.39,0,0,1,10.5-10.58c3.69-3.34,7.48-6.5,11.5-9.5l-.22,2a111.36,111.36,0,0,0-14.88-14c-2.68-2.11-5.48-4.07-8.32-5.95s-5.81-3.59-8.81-5.24-6.07-3.12-9.2-4.52-6.35-2.52-9.47-3.94A133.13,133.13,0,0,0,250.88,171" transform="translate(0.23 0.23)" style="fill:#3f1f1c"/><path id="Trazado_2026" data-name="Trazado 2026" d="M315.09,199.84s-37,25.09-35.49,51.25l8.63,5.73s9.53-32.55,38-45.45c0,0-7.14-9.07-11.14-11.53" transform="translate(0.23 0.23)" style="fill:#c78b39"/><path id="Trazado_2027" data-name="Trazado 2027" d="M315.09,199.84s-37,25.09-35.49,51.25l8.63,5.73s9.53-32.55,38-45.45C326.23,211.37,319.09,202.3,315.09,199.84Z" transform="translate(0.23 0.23)" style="fill:none;stroke:#3f1f1c;stroke-miterlimit:10;stroke-width:3.2260000705718994px"/><g id="Grupo_461" data-name="Grupo 461"><g id="Grupo_460" data-name="Grupo 460"><g style="clip-path:url(#clip-path-6)"><g id="Grupo_459" data-name="Grupo 459"><path id="Trazado_2028" data-name="Trazado 2028" d="M293.34,242.22s-7.68-5.49-9.22-7.47a54.94,54.94,0,0,0-3.29,16l6.8,4.39s4-10.54,5.71-12.95" transform="translate(0.23 0.23)" style="fill:#cca471"/></g></g></g></g><path id="Trazado_2029" data-name="Trazado 2029" d="M336.11,237.34c12.1.24,23.81,8.14,25.19,18.68-3.72-2.9-11.1-.44-11.1-.44,6.12,9.68-.36,19.22-.36,19.22l-4.7-10.47s1.35,17.33-28.07,38c-22.47,15.82-38.94,33.42-46.5,32.3s-23.17-8.44-24-9.84-18,9.7-18,9.7-11.11,4.74-13.19-8.31l2.74-4.67s-4,.78-4.63-2.21-3.7-13.87-3.7-13.87l3.33-1.68-5-11.35s14.45-9,22.22-9.48,37.34,21.73,37.34,21.73,12.63-16.33,17.56-32.9c8.16-27.45,25.83-34.15,25.83-34.15" transform="translate(0.23 0.23)" style="fill:#faad3f"/><path id="Trazado_2030" data-name="Trazado 2030" d="M336.11,237.34a30.31,30.31,0,0,1,8.42,1.13,28.82,28.82,0,0,1,7.84,3.47,24.29,24.29,0,0,1,6.39,5.86,18.3,18.3,0,0,1,3.48,8.09l.35,2.24-1.88-1.36a7.6,7.6,0,0,0-4.84-1,17.14,17.14,0,0,0-2.67.36,19.56,19.56,0,0,0-2.6.7l.67-1.87a18.51,18.51,0,0,1,2.33,4.92,17.94,17.94,0,0,1,.75,5.45,19.27,19.27,0,0,1-.92,5.38,22.27,22.27,0,0,1-1,2.54,18.34,18.34,0,0,1-1.34,2.46L349.59,278l-1.15-2.57L343.74,265l2.92-.74a9.48,9.48,0,0,1,0,1.41c0,.44-.08.87-.13,1.29-.12.85-.29,1.68-.49,2.5a33,33,0,0,1-1.57,4.75,46.38,46.38,0,0,1-4.77,8.61A75.36,75.36,0,0,1,326.47,297c-2.46,2.09-5,4.09-7.62,6s-5.15,3.69-7.68,5.6c-5.05,3.81-10,7.79-14.92,11.8s-9.83,8.1-15.21,11.76a41.53,41.53,0,0,1-4.26,2.53,13.45,13.45,0,0,1-5.13,1.58,5,5,0,0,1-.77,0l-.74-.08c-.42-.07-.84-.15-1.25-.24-.82-.17-1.62-.38-2.41-.6-1.58-.44-3.12-1-4.64-1.5-3-1.1-6-2.34-8.94-3.69-1.47-.68-2.92-1.39-4.36-2.17a23.28,23.28,0,0,1-2.2-1.32,5.49,5.49,0,0,1-.65-.52l-.23-.24c-.05-.07-.11-.15-.15-.22s-.05-.06,0,0a1.06,1.06,0,0,0,.17.2,1.08,1.08,0,0,0,.78.34c.1,0-.06,0-.17,0l-.44.16a38.58,38.58,0,0,0-4.08,2q-2.06,1.14-4.09,2.36c-2.71,1.62-5.41,3.3-8.06,5l-.13.08-.1,0a13.91,13.91,0,0,1-5.14,1,9.65,9.65,0,0,1-5.2-1.49,9.8,9.8,0,0,1-3.5-4.1,17.43,17.43,0,0,1-1.46-4.85l-.08-.54.28-.47,2.74-4.67,1.61,2.28a8.24,8.24,0,0,1-1.57.12,7.69,7.69,0,0,1-1.59-.2,5,5,0,0,1-1.67-.77,4.08,4.08,0,0,1-1.27-1.55,4.76,4.76,0,0,1-.3-.9l-.14-.62-.28-1.18-.61-2.41c-.86-3.22-1.76-6.44-2.67-9.65l-.35-1.22,1.13-.57,3.34-1.68-.72,2-5-11.36-.54-1.24,1.13-.68a99.58,99.58,0,0,1,15.38-7.8A36.24,36.24,0,0,1,227,282a21.11,21.11,0,0,1,2.24-.44c.39-.06.77-.09,1.19-.12a6.8,6.8,0,0,1,1.35.08,18.93,18.93,0,0,1,4.41,1.36c1.36.57,2.67,1.2,3.95,1.87a163.89,163.89,0,0,1,14.63,8.9c4.73,3.16,9.36,6.43,13.93,9.83l-2.13.29c2-2.64,3.9-5.45,5.7-8.28s3.52-5.73,5-8.71,3.06-6,4.41-9,2.37-6.18,3.55-9.47a64.82,64.82,0,0,1,10-18,47.47,47.47,0,0,1,7.21-7.31,34.08,34.08,0,0,1,8.7-5.33,34.16,34.16,0,0,0-8.29,5.8,50.51,50.51,0,0,0-6.66,7.58,63,63,0,0,0-8.79,18c-.95,3.15-1.86,6.57-3.09,9.8a73.79,73.79,0,0,1-4.28,9.41A139.87,139.87,0,0,1,269,305.62l-.9,1.2-1.23-.91c-4.5-3.35-9.12-6.61-13.79-9.74a162.58,162.58,0,0,0-14.34-8.72c-1.23-.64-2.47-1.24-3.72-1.77a17,17,0,0,0-3.67-1.15,3.94,3.94,0,0,0-.77,0c-.28,0-.6,0-.91.09-.65.1-1.29.22-1.92.38a34.74,34.74,0,0,0-3.86,1.25A97.19,97.19,0,0,0,209,293.73l.6-1.91,5,11.35.58,1.33-1.3.66-3.34,1.68.79-1.79c.92,3.23,1.82,6.45,2.68,9.7l.63,2.46.3,1.25.14.61a1.13,1.13,0,0,0,1,.92,4.85,4.85,0,0,0,1.82.05l3.27-.55-1.65,2.83L216.75,327l.19-1a13.9,13.9,0,0,0,1.18,4,6.79,6.79,0,0,0,2.41,2.87,6.62,6.62,0,0,0,3.57,1,11.19,11.19,0,0,0,2-.18,11.4,11.4,0,0,0,1.9-.53l-.23.12c2.7-1.73,5.4-3.42,8.16-5.06,1.38-.82,2.76-1.62,4.18-2.4a38.59,38.59,0,0,1,4.47-2.2l.68-.24a3.8,3.8,0,0,1,1-.16,1.8,1.8,0,0,1,.52.05,1.92,1.92,0,0,1,.82.44,2.85,2.85,0,0,1,.23.26l.07.11a.36.36,0,0,0-.07-.1l0,0,.28.22a20.22,20.22,0,0,0,1.9,1.13c1.35.73,2.76,1.42,4.18,2.07,2.85,1.32,5.76,2.53,8.7,3.59,1.47.53,2.95,1,4.43,1.44.74.21,1.49.4,2.22.56.37.08.73.14,1.09.2a2.8,2.8,0,0,0,.45.05h.43a10.62,10.62,0,0,0,3.91-1.26,38,38,0,0,0,3.93-2.34c5.15-3.5,10-7.6,15-11.58s9.9-8,15-11.87c2.54-1.93,5.17-3.81,7.74-5.65s5-3.76,7.42-5.78A72.41,72.41,0,0,0,337.15,281a43.23,43.23,0,0,0,4.46-8,30.53,30.53,0,0,0,1.43-4.3c.17-.73.33-1.46.43-2.19,0-.36.08-.72.11-1.08s0-.75,0-1l-.38-8.12,3.31,7.38,4.7,10.47-2.67-.24a15.24,15.24,0,0,0,1.05-2,20.14,20.14,0,0,0,.82-2.2,20.35,20.35,0,0,0,.85-4.57,15.17,15.17,0,0,0-.38-4.6,16.19,16.19,0,0,0-1.77-4.31l-.84-1.43,1.5-.44a23.39,23.39,0,0,1,3-.64,20.41,20.41,0,0,1,3-.24,13,13,0,0,1,3.1.35,7.58,7.58,0,0,1,3,1.41l-1.53.88a16.59,16.59,0,0,0-2.8-7.49,22.88,22.88,0,0,0-5.76-5.85,29.94,29.94,0,0,0-15.68-5.46" transform="translate(0.23 0.23)" style="fill:#dc6628"/><path id="Trazado_2031" data-name="Trazado 2031" d="M233.27,297.32s-14.73-.53-16.72-1.93-2.56-4.47-2.56-4.47l-4.52,2.25,4.55,9.5Z" transform="translate(0.23 0.23)" style="fill:#ef8226"/><path id="Trazado_2032" data-name="Trazado 2032" d="M238.11,309.05s-13.31,1.71-17.27,3.4-8.79-4.46-8.79-4.46,2,9.79,3.42,11.74,4.54.27,6.8-1.69,14.15-8.42,15.85-9" transform="translate(0.23 0.23)" style="fill:#ef8226"/><path id="Trazado_2033" data-name="Trazado 2033" d="M217.24,320.33c3-2,6.11-3.87,9.26-5.64,1.58-.88,3.18-1.73,4.81-2.5a20.48,20.48,0,0,1,5.1-1.79,19.64,19.64,0,0,0-4.72,2.46c-1.49,1-2.93,2-4.35,3.11-2.82,2.17-5.58,4.46-8.24,6.79Z" transform="translate(0.23 0.23)" style="fill:#dc6628"/><path id="Trazado_2034" data-name="Trazado 2034" d="M212.33,302.41c3.09-.91,6.17-1.78,9.28-2.6,1.55-.4,3.11-.79,4.68-1.15a44.11,44.11,0,0,1,4.72-.89,45.56,45.56,0,0,0-4.5,1.62q-2.2.9-4.4,1.87c-2.91,1.29-5.81,2.64-8.67,4Z" transform="translate(0.23 0.23)" style="fill:#dc6628"/><path id="Trazado_2035" data-name="Trazado 2035" d="M359.42,254s-11.94-8.61-20.41-5.71a9.51,9.51,0,0,1,1.86,5.23,34.32,34.32,0,0,0-4-3.14s-.51,10.21-5,18.06S310,294.9,299.12,303.55s-25.4,16-28.05,16.8-13.51-.23-18-2.58-5.3-1.82-11.12,2.12-23,12.07-23,12.07,1.6,3.4,8,2.08,19.85-10.77,19.85-10.77,14.06,9.13,23.6,10.15,23.54-15.22,36.51-24.92,37.82-28.59,38.84-45.33c0,0,3.72,3.92,4.26,8.88,0,0,5-10.21.76-17.26,0,0,6.35-2.37,8.74-.8" transform="translate(0.23 0.23)" style="fill:#ef8226"/><path id="Trazado_2036" data-name="Trazado 2036" d="M321.17,248.26s-12.83,4.55-18,12.1c0,0,5.8-3,10.08-2.73,0,0-11.37,5.31-16.79,12.1-5.79,7.25-9.74,17.21-13.4,20.84,0,0,5.77-19.92,14.6-32s23.51-10.31,23.51-10.31" transform="translate(0.23 0.23)" style="fill:#f9d772"/><path id="Trazado_2037" data-name="Trazado 2037" d="M240.3,300.62a11.19,11.19,0,0,0-9.78-.58c-5.8,2.12-14.66,6.36-14.66,6.36s19.24-7,24.44-5.78" transform="translate(0.23 0.23)" style="fill:#f9d772"/><path id="Trazado_2038" data-name="Trazado 2038" d="M242.76,310.27s-18,9.69-21,13.92c0,0,15.26-6.67,21-13.92" transform="translate(0.23 0.23)" style="fill:#f9d772"/><path id="Trazado_2039" data-name="Trazado 2039" d="M236.91,291s-4.59-4.81-7.34-4.51-13.74,5.16-13.74,5.16,11-2.13,14-1.84c2.36.28,4.71.68,7,1.19" transform="translate(0.23 0.23)" style="fill:#f9d772"/><path id="Trazado_2040" data-name="Trazado 2040" d="M352,250s-8.6-7-17.15-6.15l1,4.1s-.17-4.08,16.16,2" transform="translate(0.23 0.23)" style="fill:#f9d772"/><path id="Trazado_2041" data-name="Trazado 2041" d="M213.31,348.11A96.42,96.42,0,0,1,198.64,351a120.86,120.86,0,0,1-15,1,93,93,0,0,1-15-1.15,51.86,51.86,0,0,1-14.34-4.42A103.05,103.05,0,0,0,169,348.77c1.23.07,2.45.16,3.67.27s2.46.1,3.68.14,2.45.1,3.68.1,2.46.07,3.69,0h3.69c1.23,0,2.46-.08,3.69-.1,2.47-.05,4.93-.17,7.4-.27,4.94-.24,9.88-.53,14.87-.82" transform="translate(0.23 0.23)" style="fill:#3f2836"/><path id="Trazado_2042" data-name="Trazado 2042" d="M127.92,186.62a36,36,0,0,1-3.6-9,41.14,41.14,0,0,1-1.28-9.68c0-.82,0-1.64.06-2.46l.24-2.45c.07-.81.3-1.61.43-2.41l.25-1.2c.09-.4.23-.79.35-1.18.25-.78.49-1.56.75-2.33l1-2.23c.18-.37.34-.74.53-1.1l.64-1c.43-.69.87-1.36,1.32-2-.29.76-.59,1.51-.9,2.24l-.47,1.1c-.13.38-.24.76-.36,1.14l-.73,2.26-.52,2.31a41.55,41.55,0,0,0-.92,9.37,56.11,56.11,0,0,0,.87,9.41,72,72,0,0,0,2.33,9.28" transform="translate(0.23 0.23)" style="fill:#906331"/><path id="Trazado_2043" data-name="Trazado 2043" d="M192.36,173.54c-19.48-2.4-40.68-2.06-52.53,10.82s-4.63,30.38-4.63,30.38,8.24-5.15,16-5.66S162.49,224,162.49,224l10.3,2.58,12.32,3.22,15-2.7s7.73-11.85,15.45-11.33S235,227.5,235,227.5a50.38,50.38,0,0,0,9.89-24.08c2.06-14.94-14.94-25.24-52.53-29.87" transform="translate(0.23 0.23)" style="fill:#c78b39"/><path id="Trazado_2044" data-name="Trazado 2044" d="M192.36,173.54c-19.48-2.4-40.68-2.06-52.53,10.82s-4.63,30.38-4.63,30.38,8.24-5.15,16-5.66S162.49,224,162.49,224l10.3,2.58,12.32,3.22,15-2.7s7.73-11.85,15.45-11.33S235,227.5,235,227.5a50.38,50.38,0,0,0,9.89-24.08C247,188.48,230,178.18,192.36,173.54Z" transform="translate(0.23 0.23)" style="fill:none;stroke:#3f1f1c;stroke-miterlimit:10;stroke-width:3.2260000705718994px"/><path id="Trazado_2045" data-name="Trazado 2045" d="M173.49,85.91s-11.92-4.93-12.57-8.5.15-9,6-13.67,13.07-6.47,14.15-4.61,2.76,15.29,4.54,17.72a81.81,81.81,0,0,0-12.07,9.06" transform="translate(0.23 0.23)" style="fill:#faad3f"/><path id="Trazado_2046" data-name="Trazado 2046" d="M173.49,85.91s-11.92-4.93-12.57-8.5.15-9,6-13.67,13.07-6.47,14.15-4.61,2.76,15.29,4.54,17.72A82.52,82.52,0,0,0,173.49,85.91Z" transform="translate(0.23 0.23)" style="fill:none;stroke:#dc6628;stroke-miterlimit:10;stroke-width:2.0329999923706055px"/><path id="Trazado_2047" data-name="Trazado 2047" d="M177.76,71.32c-.48-2.8-2.81-7.28-8.11-2.55s-5.62,8-4.24,9.34,10.94,4.58,10.94,4.58l4.34-2.82Z" transform="translate(0.23 0.23)" style="fill:#ef8226"/><path id="Trazado_2048" data-name="Trazado 2048" d="M181.67,80.22a37.19,37.19,0,0,1-3.17-5.81,56.23,56.23,0,0,0-2.73-5.83,2.3,2.3,0,0,0-1.92-1.32,6.2,6.2,0,0,0-2.5,1.18c-1.7,1.18-3.33,2.63-5.11,4a15.42,15.42,0,0,1,4.13-5.31,6.2,6.2,0,0,1,3.4-1.53,3.11,3.11,0,0,1,2,.7,5.31,5.31,0,0,1,1.24,1.47,17.89,17.89,0,0,1,1.35,3.15c.36,1,.69,2.09,1,3.13.68,2.08,1.4,4.13,2.24,6.17" transform="translate(0.23 0.23)" style="fill:#dc6628"/><path id="Trazado_2049" data-name="Trazado 2049" d="M271,98.55c16.74,22.78,25,30.84,33.55,33.42,0,0-6.63,2.29-14.75-2,0,0,11.17,11.23,12.42,27.86S294,187.07,294,187.07s2.38-17.71-2.82-24.3c0,0-2.41,21.63-17.46,37.22s-25.93,23.61-86.3,17.65-67.85-50.7-64.72-70.07,12.69-21,21.8-32.87S161,93.18,161,93.18s-6.87.8-14.78,6.93c0,0,4.5-9.09,16.59-15.26,12.53-6.4,17.3-9.61,22.58-13.7,7.21-5.58,14.63-12.83,36.54-10.67,31.56,3.12,40.61,26.6,49,38.06" transform="translate(0.23 0.23)" style="fill:#563317"/><path id="Trazado_2050" data-name="Trazado 2050" d="M271,98.55c16.74,22.78,25,30.84,33.55,33.42,0,0-6.63,2.29-14.75-2,0,0,11.17,11.23,12.42,27.86S294,187.07,294,187.07s2.38-17.71-2.82-24.3c0,0-2.41,21.63-17.46,37.22s-25.93,23.61-86.3,17.65-67.85-50.7-64.72-70.07,12.69-21,21.8-32.87S161,93.18,161,93.18s-6.87.8-14.78,6.93c0,0,4.5-9.09,16.59-15.26,12.53-6.4,17.3-9.61,22.58-13.7,7.21-5.58,14.63-12.83,36.54-10.67C253.52,63.61,262.57,87.09,271,98.55Z" transform="translate(0.23 0.23)" style="fill:none;stroke:#3f1f1c;stroke-miterlimit:10;stroke-width:2.4000000953674316px"/><path id="Trazado_2051" data-name="Trazado 2051" d="M183.77,76.09s-14.52,12.69-19.35,15.23l9.22.61s-5.85,6.64-18.06,25-20.81,25-20.81,25a16.1,16.1,0,0,0,11.75-5.37S135.7,147.72,134.25,168a80.07,80.07,0,0,1,5.85-9.64s-.66,18.57,7.6,27.21c0,0-.81-10,1-12.83a43.29,43.29,0,0,0,16.5,23.58c13.35,9.44,17.72,14.38,17.72,14.38s26.12-5.24,35.35-9.14S229,186.1,229,186.1s3.14,5.12,2.53,14.08c0,0,19-1.13,26.36-13.63s6.64-29.41,6.64-29.41,2.62,4.16,1.05,13.63c0,0,7.93-15.15,5.43-29.53s-12-26.14-14.33-33a18.41,18.41,0,0,0,8.72,4.17s-7.18-7.32-9.29-13.55c-1.25-3.69-6.46-17.11-15.53-24.08-6.2-4.78-14-5-24.36-3,0,0-8.29-5.33-14.77-4.47s-12,4.53-17.65,8.78" transform="translate(0.23 0.23)" style="fill:#40220d"/><path id="Trazado_2052" data-name="Trazado 2052" d="M181.82,78.08c-1.9,4-3.9,7.92-5.86,11.87s-4,7.86-6,11.79l-.07.15-.16.11a39.57,39.57,0,0,0-5.9,5.22,53.09,53.09,0,0,0-4.94,6.16,62.93,62.93,0,0,0-4.08,6.79,60.86,60.86,0,0,0-3.17,7.21l-1.75-1.12q3.38-3.2,6.82-6.31c1.16-1,2.32-2,3.51-3.06A42.57,42.57,0,0,1,164,114l6.77-4.52-5.34,6.19a70,70,0,0,0-5.49,7.45c-1.69,2.6-3.23,5.31-4.66,8.06a89.35,89.35,0,0,0-6.78,17.35,74.7,74.7,0,0,0-2.68,18.45,73.17,73.17,0,0,0,.36,9.36,85.56,85.56,0,0,0,1.56,9.28,69.34,69.34,0,0,1-3-18.64,74.89,74.89,0,0,1,2.11-18.87,84.14,84.14,0,0,1,6.55-17.87,88.11,88.11,0,0,1,4.71-8.3,72.45,72.45,0,0,1,5.66-7.75l1.43,1.67c-1.18.8-2.38,1.78-3.55,2.75s-2.33,2-3.48,3q-3.43,3.06-6.8,6.23l-3.26,3.07,1.52-4.19a57.07,57.07,0,0,1,3.4-7.47,64.68,64.68,0,0,1,4.3-7,46.11,46.11,0,0,1,11.55-11.51l-.23.26c2.17-3.84,4.3-7.7,6.52-11.51s4.4-7.65,6.68-11.43" transform="translate(0.23 0.23)" style="fill:#3f1f1c"/></g></g></g><g id="Grupo_465" data-name="Grupo 465"><g style="clip-path:url(#clip-path-7)"><g id="Grupo_464" data-name="Grupo 464"><rect id="Rectángulo_947" data-name="Rectángulo 947" x="175.38" y="1.49" width="99.82" height="80.39" style="fill:url(#Degradado_sin_nombre_4)"/></g></g></g><g id="Grupo_476" data-name="Grupo 476"><g style="clip-path:url(#clip-path)"><g id="Grupo_475" data-name="Grupo 475"><path id="Trazado_2054" data-name="Trazado 2054" d="M182.32,42.8,175.63,18a2.28,2.28,0,0,1,3.08-2.66l11.53,4.71a3.1,3.1,0,0,1,1.87,3.55c-1.27,5.67-2.78,19,11.06,19.89,15.12.92,13.94-14.69,10.18-21.21a4,4,0,0,1,.36-4.61L227,2a2,2,0,0,1,3.4.57l7.2,18.84a4,4,0,0,1-.62,3.9c-5.55,6.93-10.28,20.13,1.72,24,13.83,4.48,18-6.33,17.4-15.64a3,3,0,0,1,2.38-3.06l13.11-2.69A2.25,2.25,0,0,1,274,31.24L260,55l-8.75,26.62L183,69.2Z" transform="translate(0.23 0.23)" style="fill:none;stroke:#a25f1a;stroke-miterlimit:10;stroke-width:2.9809999465942383px"/><g id="Grupo_468" data-name="Grupo 468" style="opacity:0.30000001192092896"><g id="Grupo_467" data-name="Grupo 467"><g style="clip-path:url(#clip-path-9)"><g id="Grupo_466" data-name="Grupo 466"><path id="Trazado_2055" data-name="Trazado 2055" d="M218,19.78S226.61,6.44,228.28,7s6.12,15.84,6.12,15.84-5.84,5.56-7,13.06a14.9,14.9,0,0,0,3.06,12s-6.79-4.87-5.28-15a17.37,17.37,0,0,1,6.11-11.12l-4.17-10.28A48.75,48.75,0,0,0,218,19.78" transform="translate(0.23 0.23)" style="fill:#fff"/></g></g></g></g><g id="Grupo_471" data-name="Grupo 471" style="opacity:0.30000001192092896"><g id="Grupo_470" data-name="Grupo 470"><g style="clip-path:url(#clip-path-10)"><g id="Grupo_469" data-name="Grupo 469"><path id="Trazado_2056" data-name="Trazado 2056" d="M259.68,34.23l7.44-1.92a1,1,0,0,1,1.21.72,1,1,0,0,1-.09.73c-2.8,4.91-9.79,17.16-11.34,20.47-1.94,4.17-5.56,16.4-5.56,16.4s1.39-14.72,3.62-17.78,9.44-17.23,9.44-17.23Z" transform="translate(0.23 0.23)" style="fill:#fff"/></g></g></g></g><g id="Grupo_474" data-name="Grupo 474" style="opacity:0.30000001192092896"><g id="Grupo_473" data-name="Grupo 473"><g style="clip-path:url(#clip-path-11)"><g id="Grupo_472" data-name="Grupo 472"><path id="Trazado_2057" data-name="Trazado 2057" d="M179.37,20.06l9.44,3.61s-3.89,12.78,3.62,18.9c0,0-8.62-3.62-6.12-17.23Z" transform="translate(0.23 0.23)" style="fill:#fff"/></g></g></g></g><path id="Trazado_2058" data-name="Trazado 2058" d="M244.45,78.44S257.94,67.71,261,67s7.76-.46,12.44,9.83,2.94,15.29-.61,15.92-24.18,2.6-24.18,2.6Z" transform="translate(0.23 0.23)" style="fill:#faad3f"/><path id="Trazado_2059" data-name="Trazado 2059" d="M244.45,78.44S257.94,67.71,261,67s7.76-.46,12.44,9.83,2.94,15.29-.61,15.92-24.18,2.6-24.18,2.6Z" transform="translate(0.23 0.23)" style="fill:none;stroke:#dc6628;stroke-miterlimit:10;stroke-width:2.0329999923706055px"/><path id="Trazado_2060" data-name="Trazado 2060" d="M270.4,83.3c-2-4.54-5.74-12.72-11.25-10.45s-13.32,10-13.32,10l2.42,8.51s16.9.35,20.17-1.5,2-6.53,2-6.53" transform="translate(0.23 0.23)" style="fill:#ef8226"/><path id="Trazado_2061" data-name="Trazado 2061" d="M157,180s-4.67,3.87-3,11.52c-2.31,5-6,10.84-6,15.67a17.42,17.42,0,0,1,6-2.26s.11,13.1,8.9,20.23c0,0,0-5.69,2.62-8.85,0,0,3.4,14.85,18.17,19.72,0,0,7.53-14.62,18.06-19s25-10.61,31.62-35.84c0,0,1.36,14.63-.15,21,0,0,10.58-16.31,9.21-36.93s-3.13-25.91-3.13-25.91L189.81,136s-10.7,20.27-18.48,28.89S163.15,170.68,157,180" transform="translate(0.23 0.23)" style="fill:#fff"/><path id="Trazado_2062" data-name="Trazado 2062" d="M157,180s-4.67,3.87-3,11.52c-2.31,5-6,10.84-6,15.67a17.42,17.42,0,0,1,6-2.26s.11,13.1,8.9,20.23c0,0,0-5.69,2.62-8.85,0,0,3.4,14.85,18.17,19.72,0,0,7.53-14.62,18.06-19s25-10.61,31.62-35.84c0,0,1.36,14.63-.15,21,0,0,10.58-16.31,9.21-36.93s-3.13-25.91-3.13-25.91L189.81,136s-10.7,20.27-18.48,28.89S163.15,170.68,157,180Z" transform="translate(0.23 0.23)" style="fill:none;stroke:#3f1f1c;stroke-miterlimit:10;stroke-width:1.9869999885559082px"/><path id="Trazado_2063" data-name="Trazado 2063" d="M173.21,163.71s-8.11,10-11.12,14.66-1,7.16,11.54,8.65,18.92,3.37,25.7-3.47,15.71-25,15.71-25Z" transform="translate(0.23 0.23)" style="fill:#ca2e23"/><path id="Trazado_2064" data-name="Trazado 2064" d="M179.13,180.31a18.74,18.74,0,0,1,.48-3.15,30.17,30.17,0,0,1,.94-3.07,31,31,0,0,1,1.27-3c.48-1,1-1.92,1.56-2.86a1.27,1.27,0,1,1,2.18,1.29,1,1,0,0,1-.15.2l0,0c-.67.76-1.34,1.53-2,2.34s-1.2,1.66-1.75,2.54a27.53,27.53,0,0,0-1.47,2.73,17.28,17.28,0,0,0-1.08,2.94" transform="translate(0.23 0.23)" style="fill:#3f1f1c"/><path id="Trazado_2065" data-name="Trazado 2065" d="M179.65,109.62S177.4,94,176.37,92.54s7.83-17.6,21.46-17.27,35.51,5.8,42.89,4.23c0,0,.05,12.23.82,32.67,0,0-.82,18.25-3.22,24.13s-29.82,25.09-35,27.63c-2,1-8.49,5.07-11.82,4.09-5.56-1.63-9-.4-13.95-2.38-2.45-1-4.44-6.19-4.44-6.19s-2.93,1.69-5.1,2.75-4.21,2.38-9.06-.65-11.38-4.54-9.54-10.86c2.38-8.17,4.7-20.92,8.07-26.19s4.45-5.67,22.14-14.87" transform="translate(0.23 0.23)" style="fill:#faad3f"/><path id="Trazado_2066" data-name="Trazado 2066" d="M179.65,109.62S177.4,94,176.37,92.54s7.83-17.6,21.46-17.27,35.51,5.8,42.89,4.23c0,0,.05,12.23.82,32.67,0,0-.82,18.25-3.22,24.13s-29.82,25.09-35,27.63c-2,1-8.49,5.07-11.82,4.09-5.56-1.63-9-.4-13.95-2.38-2.45-1-4.44-6.19-4.44-6.19s-2.93,1.69-5.1,2.75-4.21,2.38-9.06-.65-11.38-4.54-9.54-10.86c2.38-8.17,4.7-20.92,8.07-26.19S162,118.82,179.65,109.62Z" transform="translate(0.23 0.23)" style="fill:none;stroke:#dc6628;stroke-miterlimit:10;stroke-width:2.0329999923706055px"/><path id="Trazado_2067" data-name="Trazado 2067" d="M193,77s16.11,3.61,24.17,5.28,17.51,4.17,17.51,4.17-.27,39.18-.55,40,7.78-2.5,7.78-2.5l-1.45-44.66S196.33,74.52,193,77" transform="translate(0.23 0.23)" style="fill:#ef8226"/><path id="Trazado_2068" data-name="Trazado 2068" d="M209.53,161.93s-2.19,9-5.65,11.27c0,0-.66-6.79-2.08-7.78Z" transform="translate(0.23 0.23)" style="fill:#fff"/><path id="Trazado_2069" data-name="Trazado 2069" d="M209.53,161.93s-2.19,9-5.65,11.27c0,0-.66-6.79-2.08-7.78Z" transform="translate(0.23 0.23)" style="fill:none;stroke:#3f1f1c;stroke-linecap:round;stroke-linejoin:round;stroke-width:2.1579999923706055px"/><path id="Trazado_2070" data-name="Trazado 2070" d="M159.18,162.8s2.71,8.77,6.28,10.83c0,0,.24-6.75,1.6-7.82Z" transform="translate(0.23 0.23)" style="fill:#fff"/><path id="Trazado_2071" data-name="Trazado 2071" d="M159.18,162.8s2.71,8.77,6.28,10.83c0,0,.24-6.75,1.6-7.82Z" transform="translate(0.23 0.23)" style="fill:none;stroke:#3f1f1c;stroke-linecap:round;stroke-linejoin:round;stroke-width:2.1410000324249268px"/><path id="Trazado_2072" data-name="Trazado 2072" d="M157.51,124.5s-1.6,1.45-3.82,8.13-3.9,15.84-4.83,19.47c-.77,3.05.59,7,6,9.79s10.22,8.22,17.56,1.25c0,0,1,4.93,5.77,5.91s17.57,1.22,24-1.48c3-1.23,34.54-22.37,38.54-33.72l-.31-9.74s-27.95,9.35-36.9,8.21-46-7.82-46-7.82" transform="translate(0.23 0.23)" style="fill:#fff"/><path id="Trazado_2073" data-name="Trazado 2073" d="M157.51,124.5s-1.6,1.45-3.82,8.13-3.9,15.84-4.83,19.47c-.77,3.05.59,7,6,9.79s10.22,8.22,17.56,1.25c0,0,1,4.93,5.77,5.91s17.57,1.22,24-1.48c3-1.23,34.54-22.37,38.54-33.72l-.31-9.74s-27.95,9.35-36.9,8.21S157.51,124.5,157.51,124.5Z" transform="translate(0.23 0.23)" style="fill:none;stroke:#3f1f1c;stroke-miterlimit:10;stroke-width:1.9869999885559082px"/><path id="Trazado_2074" data-name="Trazado 2074" d="M181.36,165.81s13.51,3,20.44-.39,28-20.87,35.41-29.64c0,0-27,23-35.37,26.33s-20.48,3.7-20.48,3.7" transform="translate(0.23 0.23)" style="fill:#c3cfd7"/><path id="Trazado_2075" data-name="Trazado 2075" d="M165.38,163.37s-8.54-3.2-11.3-5.15-3.09-6.35-1.28-15.15c0,0-.74,9.66,3.21,12.9,4.33,3.55,9.37,7.4,9.37,7.4" transform="translate(0.23 0.23)" style="fill:#c3cfd7"/><path id="Trazado_2076" data-name="Trazado 2076" d="M179.65,109.63s9.87-2.39,16.58-1.72" transform="translate(0.23 0.23)" style="fill:#faad3f"/><path id="Trazado_2077" data-name="Trazado 2077" d="M179.45,108.79a81.25,81.25,0,0,1,8.38-1,41.38,41.38,0,0,1,8.4.16,39.74,39.74,0,0,0-8.29.7,79.61,79.61,0,0,0-8.09,1.85Z" transform="translate(0.23 0.23)" style="fill:#dc6628"/><path id="Trazado_2078" data-name="Trazado 2078" d="M237.61,201.5A96.18,96.18,0,0,0,241.85,187c3.72-17.79,1.39-31.2,1.34-30.88-1.61,9.47-7,11.19-7,11.19s3.19-9,3.86-31.73S239.75,81,239.75,81c-4.67,1.14-18.65-2.16-29.18-4.17s-20.42-.73-26.11-3.67a13,13,0,0,1-7.25-12.3s5,3,7.8,4.46,7.75,1.93,7.75,1.93C180.6,59.93,191,46.27,191,46.27s1.48,11.9,8.56,17.23c0,0-4.76-17.14,4.38-26.37,0,0,1.48,11.43,11.23,16.45,0,0-5.63-11-.58-20.32,0,0,.15,15.94,11.38,23.7,5.58,3.86,14.27,6.73,20.35,14.57,2.8,3.62.74,17.54,3.35,30.32s12.75,28.24,14.45,37.08c0,0-4.18-3.63-7.21-5.85,0,0,7.5,12.62,4.12,33.16a78.62,78.62,0,0,1-7.24,21.83A81.66,81.66,0,0,1,245,202.23" transform="translate(0.23 0.23)" style="fill:#563317"/><path id="Trazado_2079" data-name="Trazado 2079" d="M237.61,201.5c.52-2.48,1.1-4.89,1.66-7.31s1.1-4.83,1.58-7.26a99.47,99.47,0,0,0,1.94-14.69,82.73,82.73,0,0,0-.41-14.76c0-.3-.09-.6-.14-.88l0-.16h0v0a1.42,1.42,0,0,0,.08.18c.63-.06-1.13.58,1.74.07.35-.85.1-.22.17-.41v0l0,.12-.1.48c-.12.64-.26,1.27-.44,1.9a20.27,20.27,0,0,1-1.39,3.69,14.26,14.26,0,0,1-2.27,3.32,11.17,11.17,0,0,1-1.53,1.39,10.38,10.38,0,0,1-.88.59,7.78,7.78,0,0,1-1.05.5l-2,.7.65-2.06a50.07,50.07,0,0,0,1.25-5.11c.33-1.75.63-3.52.87-5.29.5-3.55.86-7.12,1.12-10.7.53-7.16.64-14.37.7-21.58.09-14.42-.16-28.87-.59-43.29L240,82.12a15.3,15.3,0,0,1-3.82.25c-1.22-.05-2.4-.17-3.58-.3-2.37-.28-4.69-.67-7-1.09-4.63-.83-9.2-1.8-13.78-2.68a89.37,89.37,0,0,0-13.74-1.58c-2.33-.15-4.68-.27-7.07-.56a21.6,21.6,0,0,1-7.17-1.91l.1,0a12.37,12.37,0,0,1-1.87-1.07,14.4,14.4,0,0,1-4.19-4.53,15.35,15.35,0,0,1-2-7.89l0-2.27,1.95,1.17c2.42,1.44,4.87,2.88,7.31,4.2.32.17.6.3.87.43s.58.24.9.34a18.82,18.82,0,0,0,1.91.55,34.43,34.43,0,0,0,4,.68l-.8,2.42a14.32,14.32,0,0,1-4.78-4.51,11.71,11.71,0,0,1-1.76-6.44,18.53,18.53,0,0,1,1.35-6.32,26.28,26.28,0,0,1,3-5.58l1.88-2.6.46,3.23a34.64,34.64,0,0,0,1,4.6,35.18,35.18,0,0,0,1.62,4.44,23.47,23.47,0,0,0,2.3,4.05,15.81,15.81,0,0,0,3.12,3.26l-2,1.39a43,43,0,0,1-1.15-7.12,38.5,38.5,0,0,1,.07-7.2,26.81,26.81,0,0,1,1.73-7.1,22,22,0,0,1,1.72-3.3A19.84,19.84,0,0,1,203,36.21l1.81-1.88.42,2.63a23.05,23.05,0,0,0,1.3,4.66A23.64,23.64,0,0,0,208.75,46a19.64,19.64,0,0,0,3.1,3.7,18.13,18.13,0,0,0,3.92,2.76L214,54.17A28.94,28.94,0,0,1,212.11,49a28.59,28.59,0,0,1-.89-5.44,22.05,22.05,0,0,1,.34-5.56,18.52,18.52,0,0,1,1.87-5.32l2.3-4.32.17,4.93A35.06,35.06,0,0,0,217,40.53a33.63,33.63,0,0,0,2.55,6.92,24.39,24.39,0,0,0,4.2,5.92,25,25,0,0,0,5.88,4.34c4.38,2.48,9.14,4.84,13.16,8.33.51.42,1,.87,1.48,1.34s.94.94,1.4,1.43.88,1,1.3,1.52l.32.39c.11.14.24.35.36.52a8,8,0,0,1,.5,1.07,17.18,17.18,0,0,1,.81,4.07c.14,1.32.2,2.62.26,3.91.18,5.16.2,10.25.73,15.27a60.22,60.22,0,0,0,1.21,7.43,59.89,59.89,0,0,0,2.28,7.18c1.8,4.73,4,9.34,6.16,14,1.08,2.33,2.17,4.66,3.17,7.06a40.45,40.45,0,0,1,2.48,7.5l.65,3.2-2.49-2.13c-2.33-2-4.7-4-7.14-5.81h0l1.62-1.46a31.86,31.86,0,0,1,1.9,4.41c.52,1.48,1,3,1.33,4.51a55.6,55.6,0,0,1,1.43,9.25A65.14,65.14,0,0,1,261,169.2a79.11,79.11,0,0,1-6.23,17.41A86,86,0,0,1,245,202.23a85.92,85.92,0,0,0,9.28-15.86A78.32,78.32,0,0,0,260,169a63.08,63.08,0,0,0,.92-18.14,53.66,53.66,0,0,0-1.65-8.9,44.64,44.64,0,0,0-1.41-4.28,29.06,29.06,0,0,0-1.86-4L253.24,129l4.33,3.21h0c2.54,1.88,4.91,3.87,7.29,5.9L263,139.14a39.75,39.75,0,0,0-2.37-7c-1-2.33-2.07-4.64-3.16-7-2.18-4.63-4.41-9.28-6.27-14.12a63.45,63.45,0,0,1-2.39-7.46,59.65,59.65,0,0,1-1.29-7.73c-.57-5.17-.6-10.35-.8-15.43-.06-1.27-.13-2.53-.26-3.75a15,15,0,0,0-.68-3.46,4,4,0,0,0-.31-.66c-.07-.09-.1-.16-.19-.27L245,71.9c-.4-.47-.77-1-1.2-1.4s-.84-.9-1.29-1.31-.9-.85-1.38-1.24c-3.75-3.24-8.27-5.48-12.79-8-1.14-.64-2.27-1.33-3.37-2.1a23.54,23.54,0,0,1-3.09-2.64,26.81,26.81,0,0,1-4.68-6.55,34.91,34.91,0,0,1-2.76-7.47,37.67,37.67,0,0,1-1.16-7.9l2.47.61a16.07,16.07,0,0,0-1.62,4.57,19.72,19.72,0,0,0-.29,4.91,25.85,25.85,0,0,0,.81,4.94A26.17,26.17,0,0,0,216.35,53l1.73,3.59-3.5-1.83a20.49,20.49,0,0,1-4.5-3.16,22.31,22.31,0,0,1-3.51-4.19,26.5,26.5,0,0,1-2.47-4.83,25.88,25.88,0,0,1-1.45-5.27l2.23.76a16,16,0,0,0-2,2.5,18.16,18.16,0,0,0-1.49,2.87,23.88,23.88,0,0,0-1.56,6.4,36.69,36.69,0,0,0-.07,6.71,40.06,40.06,0,0,0,1.07,6.62l.93,3.65-3-2.26a17.68,17.68,0,0,1-3.67-3.81,27.09,27.09,0,0,1-2.57-4.5,37.71,37.71,0,0,1-1.74-4.8,37.16,37.16,0,0,1-1.1-5l2.33.63a23.13,23.13,0,0,0-2.7,5,15.6,15.6,0,0,0-1.17,5.39,9.17,9.17,0,0,0,1.36,5,11.61,11.61,0,0,0,3.91,3.66l5,3.06-5.8-.65a37.43,37.43,0,0,1-4.36-.74,22.49,22.49,0,0,1-2.17-.62c-.36-.12-.73-.27-1.09-.42s-.73-.35-1-.51c-2.55-1.37-5-2.81-7.44-4.27l2-1.11a12.81,12.81,0,0,0,1.64,6.57,11.41,11.41,0,0,0,2.1,2.65,12.57,12.57,0,0,0,1.32,1.07,9.07,9.07,0,0,0,1.38.81l.08,0h0a19.2,19.2,0,0,0,6.31,1.66c2.25.28,4.57.42,6.9.57a92.35,92.35,0,0,1,14.07,1.66c4.6.91,9.16,1.88,13.74,2.72,2.28.42,4.57.8,6.85,1.09,1.13.13,2.27.25,3.39.3a12.91,12.91,0,0,0,3.16-.18l1.43-.33,0,1.45c.38,14.46.59,28.91.45,43.38-.08,7.23-.21,14.48-.77,21.73-.28,3.62-.65,7.23-1.17,10.84-.25,1.8-.57,3.6-.91,5.4a52.56,52.56,0,0,1-1.34,5.4l-1.32-1.36a4.6,4.6,0,0,0,.63-.31,6.67,6.67,0,0,0,.68-.45,8.92,8.92,0,0,0,1.25-1.13,12.15,12.15,0,0,0,1.94-2.83,17.81,17.81,0,0,0,1.26-3.3c.16-.58.3-1.16.41-1.75l.09-.44,0-.11v0c.08-.2-.18.42.18-.44,2.87-.52,1.11.14,1.74.09a2,2,0,0,1,.1.21v.05l0,.06.06.3c.06.34.1.65.15,1a84.36,84.36,0,0,1,.37,15.16,101,101,0,0,1-2,15,59.52,59.52,0,0,1-2.06,7.27,42.63,42.63,0,0,1-3.11,6.89" transform="translate(0.23 0.23)" style="fill:#3f1f1c"/><path id="Trazado_2080" data-name="Trazado 2080" d="M240.72,79.51s0,26.27,0,38.6.54,36.74-3.59,47.45c0,0,3.64-1.28,6.29-9.64,0,0,4.65,15.84-2.43,37.69,0,0,11.1-10.33,7.93-42.22s-8.21-71.88-8.21-71.88" transform="translate(0.23 0.23)" style="fill:#40220d"/><path id="Trazado_2081" data-name="Trazado 2081" d="M169.33,164.6s-4.89,7.43-8.2,12-5.22,8.17-1,10.12,17,3.72,26.54,3.64,10.6-.33,15.68-6.62c5.92-7.34,10.68-13.51,15.09-26.36L213,160.23s-6,13.9-13.86,21.87c-3.46,3.5-4.85,4.38-11.33,4.5s-20.31-1.24-23-3-2.79-3.09-.08-6.91,8.38-11.18,8.38-11.18l-.82-3.37Z" transform="translate(0.23 0.23)" style="fill:#3f1f1c"/><path id="Trazado_2082" data-name="Trazado 2082" d="M159.07,150.94a.9.9,0,1,0-1,.8h0a.89.89,0,0,0,1-.79h0" transform="translate(0.23 0.23)" style="fill:#20120d"/><path id="Trazado_2083" data-name="Trazado 2083" d="M190.53,161.38a.89.89,0,0,0-.8-1,.9.9,0,0,0-.19,1.79h0a.89.89,0,0,0,1-.79h0" transform="translate(0.23 0.23)" style="fill:#20120d"/><path id="Trazado_2084" data-name="Trazado 2084" d="M193.25,155.74a.89.89,0,0,0-.8-1,.9.9,0,0,0-1,.8.91.91,0,0,0,.8,1h0a.89.89,0,0,0,1-.79h0" transform="translate(0.23 0.23)" style="fill:#20120d"/><path id="Trazado_2085" data-name="Trazado 2085" d="M191.19,148.2a.9.9,0,0,0-1.79-.19.9.9,0,0,0,.8,1h0a.89.89,0,0,0,1-.79h0" transform="translate(0.23 0.23)" style="fill:#20120d"/><path id="Trazado_2086" data-name="Trazado 2086" d="M189.56,153.8a.9.9,0,1,0-1,.8h0a.89.89,0,0,0,1-.79h0" transform="translate(0.23 0.23)" style="fill:#20120d"/><path id="Trazado_2087" data-name="Trazado 2087" d="M159.65,157.47a.9.9,0,1,0-1,.8h0a.88.88,0,0,0,1-.79h0" transform="translate(0.23 0.23)" style="fill:#20120d"/><path id="Trazado_2088" data-name="Trazado 2088" d="M165.1,149.29a.9.9,0,1,0-1,.8h0a.9.9,0,0,0,1-.79h0" transform="translate(0.23 0.23)" style="fill:#20120d"/><path id="Trazado_2089" data-name="Trazado 2089" d="M161.46,143.34a.9.9,0,1,0-1,.8h0a.9.9,0,0,0,1-.79h0" transform="translate(0.23 0.23)" style="fill:#20120d"/><path id="Trazado_2090" data-name="Trazado 2090" d="M194,101.84c-.24,2.46-2,4.3-3.87,4.12s-3.22-2.34-3-4.8,2-4.31,3.87-4.12,3.22,2.33,3,4.8" transform="translate(0.23 0.23)" style="fill:#3f1f1c"/><path id="Trazado_2091" data-name="Trazado 2091" d="M193.46,100.34c-.1,1-.77,1.66-1.5,1.59a1.58,1.58,0,0,1-1.15-1.86c.1-.95.77-1.66,1.5-1.59a1.58,1.58,0,0,1,1.15,1.86" transform="translate(0.23 0.23)" style="fill:#fdfcfc"/><path id="Trazado_2092" data-name="Trazado 2092" d="M219.94,104.41c-.25,2.46-2,4.3-3.88,4.11s-3.22-2.33-3-4.8,2-4.3,3.88-4.12,3.22,2.34,3,4.81" transform="translate(0.23 0.23)" style="fill:#3f1f1c"/><path id="Trazado_2093" data-name="Trazado 2093" d="M219.15,102.87c-.1,1-.77,1.67-1.5,1.6a1.58,1.58,0,0,1-1.15-1.86c.1-1,.77-1.67,1.5-1.59a1.56,1.56,0,0,1,1.15,1.85" transform="translate(0.23 0.23)" style="fill:#fdfcfc"/><path id="Trazado_2094" data-name="Trazado 2094" d="M178.83,97.93s3-6.47,8.08-7.09c3.26-.4,7.08.64,9.41,1.45a1.65,1.65,0,0,0,2.18-.81,2,2,0,0,0,.13-.43l.47-6.33a1.86,1.86,0,0,0-1.49-1.84c-2.56-.66-7.56-1.73-10.38-.83-3.9,1.23-8.12,10.57-8.86,13.68s.45,2.2.45,2.2" transform="translate(0.23 0.23)" style="fill:#3f1f1c"/><path id="Trazado_2095" data-name="Trazado 2095" d="M205.82,83.66a.9.9,0,0,1,.89-.86c3.26,0,15.34.11,19.22,2.13a11.39,11.39,0,0,1,6.39,9.52c.36,3.54.35,8.06-.28,8.67s-.84-1.69-2.66-5.1-5-4.85-10.36-5.58c-4.07-.54-10.06.2-12.75.6A1.15,1.15,0,0,1,205,92a.74.74,0,0,1,0-.21Z" transform="translate(0.23 0.23)" style="fill:#3f1f1c"/><path id="Trazado_2096" data-name="Trazado 2096" d="M161.33,132.16s-4.89-3.69-4-8.24c.62-3.28,5.56-4.16,17.65-4.36,11.34-.18,31.7,5,31.1,9.47s-9,7.67-9,7.67c-2.31,1.08-7.25.45-5.11-1.81s-2.44-3.43-4.92-3.68-2.84,1.26-3.57,3.91c-.8,2.91-1.11,5.26-1.74,6.87-1.07,2.79-2.63,3.53-5.1,1.83-3,1.6-5.09-.35-5.32-2.7-.25-2.66-.55-6.76-.08-9.14.43-2.2-1.92-3.23-4.14-2.74-1.36.3-2.84.45-2.17,2.55.84,2.65-2.23,1.67-3.57.37" transform="translate(0.23 0.23)" style="fill:#3f1f1c"/><path id="Trazado_2097" data-name="Trazado 2097" d="M193.81,146.85s24.13-5.25,37.21-6.7" transform="translate(0.23 0.23)" style="fill:none;stroke:#3f1f1c;stroke-miterlimit:10;stroke-width:0.9940000176429749px"/><path id="Trazado_2098" data-name="Trazado 2098" d="M193.77,153.09s30.57-.25,40.88,1.06" transform="translate(0.23 0.23)" style="fill:none;stroke:#3f1f1c;stroke-miterlimit:10;stroke-width:0.9940000176429749px"/><path id="Trazado_2099" data-name="Trazado 2099" d="M194.51,158.83s24.41,2.55,36,7" transform="translate(0.23 0.23)" style="fill:none;stroke:#3f1f1c;stroke-miterlimit:10;stroke-width:0.9940000176429749px"/><path id="Trazado_2100" data-name="Trazado 2100" d="M252.45,77.48a26.27,26.27,0,0,1,3.37-3.3A12.66,12.66,0,0,1,260,71.74a3.84,3.84,0,0,1,1.39-.16,2.78,2.78,0,0,1,.76.16,5.31,5.31,0,0,1,.64.3,10.52,10.52,0,0,1,2,1.52A25.43,25.43,0,0,1,268,77.23a27.2,27.2,0,0,1,2.43,4.14,13.78,13.78,0,0,1,.84,2.33,6.09,6.09,0,0,1,.19,1.28c0,.41,0,.83,0,1.24a5.7,5.7,0,0,1-.66,2.49,3.8,3.8,0,0,1-2,1.7,9.6,9.6,0,0,1-4.76.23,11,11,0,0,0,4.43-.94,3,3,0,0,0,1.35-1.46,5.11,5.11,0,0,0,.33-2,10.22,10.22,0,0,0-.09-1.09,5.09,5.09,0,0,0-.23-1,12.43,12.43,0,0,0-.87-2,32.49,32.49,0,0,0-2.39-3.85,28.15,28.15,0,0,0-2.88-3.48,9.38,9.38,0,0,0-1.63-1.38,1.86,1.86,0,0,0-.78-.33,2.84,2.84,0,0,0-.92,0,8.53,8.53,0,0,0-2,.72,20.34,20.34,0,0,0-2,1.1c-1.32.79-2.59,1.68-3.87,2.6" transform="translate(0.23 0.23)" style="fill:#dc6628"/><path id="Trazado_2101" data-name="Trazado 2101" d="M194.64,193.84s-19.43,1.4-31.36-3.1" transform="translate(0.23 0.23)" style="fill:#3f1f1c"/><path id="Trazado_2102" data-name="Trazado 2102" d="M194.64,193.84a60.06,60.06,0,0,1-7.93.71,78.33,78.33,0,0,1-8-.17,61.57,61.57,0,0,1-7.9-1.12,34.88,34.88,0,0,1-7.57-2.52,72.6,72.6,0,0,0,7.75,1.5c2.6.36,5.21.62,7.82.82s5.25.34,7.88.47Z" transform="translate(0.23 0.23)" style="fill:#3f1f1c"/><path id="Trazado_2103" data-name="Trazado 2103" d="M157.39,205.31s1.18,10.21,3.88,13.48a28.72,28.72,0,0,1,5.94-9.51s.9,15.65,14.48,23.54c0,0,4.32-9.94,12.56-14.86s14.42-5.94,17.6-10c0,0-9.77,3.67-18.09,6.67-6.53,2.35-13.52,10.67-13.52,10.67s-11-8.46-10.31-20.94a21.53,21.53,0,0,0-8.84,8.13,13.4,13.4,0,0,1-3.69-7.19" transform="translate(0.23 0.23)" style="fill:#c3cfd7"/><path id="Trazado_2104" data-name="Trazado 2104" d="M298.8,167.14a44.44,44.44,0,0,0-.48-7.1,56.7,56.7,0,0,0-1.4-6.93,58.69,58.69,0,0,0-2.24-6.67,55.4,55.4,0,0,0-6.92-12.19c-.68-1-1.45-1.85-2.19-2.76-.37-.45-.78-.88-1.17-1.32s-.77-.89-1.19-1.3a77.88,77.88,0,0,0-10.77-9.25,52.86,52.86,0,0,1,11.69,8.32,48.39,48.39,0,0,1,8.93,11.36,47.48,47.48,0,0,1,5.13,13.51,40.62,40.62,0,0,1,.61,14.33" transform="translate(0.23 0.23)" style="fill:#906331"/><path id="Trazado_2105" data-name="Trazado 2105" d="M294.74,155.51c-.94-2.19-1.94-4.31-3-6.37a55,55,0,0,0-3.59-5.93,37.18,37.18,0,0,0-4.48-5.22,32.54,32.54,0,0,0-5.63-4.12A17.86,17.86,0,0,1,284.5,137a25.41,25.41,0,0,1,5,5.25,32.42,32.42,0,0,1,3.41,6.36,27.13,27.13,0,0,1,1.83,6.91" transform="translate(0.23 0.23)" style="fill:#906331"/><path id="Trazado_2106" data-name="Trazado 2106" d="M156.58,92.05a13,13,0,0,1,2.68-2.39,25.54,25.54,0,0,1,3.1-1.84c1.08-.53,2.18-1,3.3-1.43L169,85.25a41.23,41.23,0,0,0,6.23-3,50.66,50.66,0,0,0,5.78-4,22.7,22.7,0,0,1-5.08,5,27.05,27.05,0,0,1-6.36,3.46c-.57.2-1.16.39-1.72.57s-1.11.33-1.66.52c-1.11.34-2.2.75-3.29,1.14a37,37,0,0,0-6.33,3" transform="translate(0.23 0.23)" style="fill:#906331"/><path id="Trazado_2107" data-name="Trazado 2107" d="M196.47,74s-13.24-1.61-14-5.9c0,0,14.17,4.4,19.21,2.8,0,0-12.49-6-13.24-10.63,0,0,13.21,10.93,24.55,10.24,0,0-9.23-2.11-9.32-13.25,0,0,.87,3.4,3.47,4.86a40.84,40.84,0,0,1-2.24-8s1.27,5.53,8.54,9S232.65,74.6,232.65,74.6a27.28,27.28,0,0,0-5.81-8.69s14.64,7.43,13.6,13.4c0,0-4.73,2.43-22.65-2.27-7.71-2-21.32-3-21.32-3" transform="translate(0.23 0.23)" style="fill:#40220d"/><path id="Trazado_2108" data-name="Trazado 2108" d="M190.35,58.31a39.24,39.24,0,0,0,3.26,4.44c.59.68,1.18,1.36,1.82,2,.33.31.63.64.95,1l1,.9c.32.32.68.59,1,.88a12.21,12.21,0,0,0,1.06.84l1.08.82c.37.26.75.5,1.12.77.73.54,1.53,1,2.3,1.48s1.6.9,2.4,1.44a25.54,25.54,0,0,1-2.74-.69A20.73,20.73,0,0,1,201,71a21.9,21.9,0,0,1-4.73-3.18,20.8,20.8,0,0,1-3.71-4.34,14.79,14.79,0,0,1-2.2-5.22" transform="translate(0.23 0.23)" style="fill:#906331"/><path id="Trazado_2109" data-name="Trazado 2109" d="M186.47,68.83c2.33.44,4.47,1,6.67,1.4l3.28.68c1.11.24,2.22.43,3.38.76a11.53,11.53,0,0,1-3.5.55,15.94,15.94,0,0,1-6.87-1.45,10.39,10.39,0,0,1-3-1.94" transform="translate(0.23 0.23)" style="fill:#906331"/><path id="Trazado_2110" data-name="Trazado 2110" d="M203.75,45.66a2.23,2.23,0,0,0-.32,1c-.07.33-.12.67-.16,1-.08.67-.14,1.35-.17,2-.06,1.35-.06,2.7,0,4.05a29.71,29.71,0,0,0,1.42,7.82,17.86,17.86,0,0,0,3.93,6.73,19.67,19.67,0,0,0,6.66,4.43,14.68,14.68,0,0,1-7.57-3.49,15.49,15.49,0,0,1-2.78-3.26,19.85,19.85,0,0,1-1.83-3.87,23.66,23.66,0,0,1-1.13-8.35,26.37,26.37,0,0,1,.48-4.16,20.17,20.17,0,0,1,.53-2,4.87,4.87,0,0,1,.93-1.86" transform="translate(0.23 0.23)" style="fill:#906331"/><path id="Trazado_2111" data-name="Trazado 2111" d="M248.77,110.77c1.58,3.13,2.89,6.33,4.24,9.51.66,1.6,1.35,3.17,2,4.75a33.8,33.8,0,0,0,2.36,4.6,15,15,0,0,1-3.23-4.15,43.75,43.75,0,0,1-2.32-4.71c-.66-1.62-1.28-3.25-1.79-4.92a38.93,38.93,0,0,1-1.28-5.08" transform="translate(0.23 0.23)" style="fill:#906331"/><path id="Trazado_2112" data-name="Trazado 2112" d="M248.19,114a115.67,115.67,0,0,0,4.05,12.61,46.62,46.62,0,0,0,2.82,5.93,36.54,36.54,0,0,1,2.64,6.21,44.06,44.06,0,0,1,2,13.25,46.81,46.81,0,0,1-1.84,13.2,66.16,66.16,0,0,0,.78-6.59,53.65,53.65,0,0,0,.08-6.59,51.12,51.12,0,0,0-.71-6.53,42.43,42.43,0,0,0-1.55-6.36,36.81,36.81,0,0,0-2.49-6,41.51,41.51,0,0,1-2.69-6.15A71.07,71.07,0,0,1,248.19,114" transform="translate(0.23 0.23)" style="fill:#906331"/><path id="Trazado_2113" data-name="Trazado 2113" d="M158.68,102.12a141.7,141.7,0,0,1-8.82,14,74.28,74.28,0,0,1-5.2,6.52c-.47.53-1,1-1.47,1.52s-1,1-1.42,1.44c-.93,1-1.82,2-2.67,3.07a59.22,59.22,0,0,0-4.74,6.63,61.27,61.27,0,0,0-3.87,7.18,52.5,52.5,0,0,0-2.74,7.69,41.09,41.09,0,0,0-1.24,8.11A35.43,35.43,0,0,1,127,150a43.86,43.86,0,0,1,2.34-8,55.69,55.69,0,0,1,8.51-14.36c.89-1.08,1.81-2.12,2.78-3.14l2.92-2.91c1.88-2,3.6-4.09,5.32-6.23,3.37-4.32,6.64-8.76,9.86-13.24" transform="translate(0.23 0.23)" style="fill:#906331"/><path id="Trazado_2114" data-name="Trazado 2114" d="M138.36,179.77a26.42,26.42,0,0,1-2.65-7.32,38.79,38.79,0,0,1-.63-3.86c-.1-1.3-.19-2.62-.17-3.93v-1l.07-1c.06-.65.08-1.31.17-2a33.94,33.94,0,0,1,.74-3.85,28.74,28.74,0,0,1,2.83-7.25c-.58,2.53-1.22,5-1.55,7.5a51.54,51.54,0,0,0-.59,7.54,54.65,54.65,0,0,0,.41,7.56,62.22,62.22,0,0,0,1.36,7.53" transform="translate(0.23 0.23)" style="fill:#906331"/><path id="Trazado_2115" data-name="Trazado 2115" d="M158.58,144.66s-18.48-8.69-26-13.21" transform="translate(0.23 0.23)" style="fill:none;stroke:#3f1f1c;stroke-miterlimit:10;stroke-width:0.9940000176429749px"/><path id="Trazado_2116" data-name="Trazado 2116" d="M152.67,149.31s-20.86-4.37-30.45-5.47" transform="translate(0.23 0.23)" style="fill:none;stroke:#3f1f1c;stroke-miterlimit:10;stroke-width:0.9940000176429749px"/><path id="Trazado_2117" data-name="Trazado 2117" d="M154.34,156s-19.1-1.42-29.77-2.19" transform="translate(0.23 0.23)" style="fill:none;stroke:#3f1f1c;stroke-miterlimit:10;stroke-width:0.9940000176429749px"/><path id="Trazado_2118" data-name="Trazado 2118" d="M171.9,163.42a85.41,85.41,0,0,1,.16-9.19,41.11,41.11,0,0,1,1.52-9,41,41,0,0,0-.91,9,85.8,85.8,0,0,0,.45,9.07Z" transform="translate(0.23 0.23)" style="fill:#3f1f1c"/><path id="Trazado_2119" data-name="Trazado 2119" d="M207.12,52.3a44.7,44.7,0,0,0,4.8,7.73,37.47,37.47,0,0,0,6.27,6.44,32.39,32.39,0,0,0,3.7,2.55c1.29.8,2.6,1.55,3.94,2.27s2.68,1.41,4.06,2c.69.32,1.38.64,2.09.91.35.14.71.28,1.07.39a5.52,5.52,0,0,0,.54.16l.28,0c.08,0,.23,0,.18-.11.08.11-.1.16-.18.16h-.29a5.41,5.41,0,0,1-.58-.07c-.38-.07-.76-.15-1.13-.25-.75-.19-1.49-.4-2.22-.65a42.63,42.63,0,0,1-4.28-1.74,39.8,39.8,0,0,1-8-4.75,31.41,31.41,0,0,1-6.27-6.85,30.88,30.88,0,0,1-4-8.29" transform="translate(0.23 0.23)" style="fill:#906331"/><path id="Trazado_2120" data-name="Trazado 2120" d="M252.32,137.35A45.63,45.63,0,0,1,256,148.61a59.64,59.64,0,0,1,1.16,11.84c0,1,0,2-.09,3s-.06,2-.2,3a55.64,55.64,0,0,1-.9,5.88c-.22,1-.34,2-.64,2.9l-.82,2.86c-.28.95-.61,1.88-1,2.8s-.72,1.84-1.1,2.75c.21-1,.42-1.93.65-2.89s.49-1.89.63-2.86c.35-1.93.75-3.84,1-5.77a86.47,86.47,0,0,0,0-23.25,78.71,78.71,0,0,0-2.36-11.48" transform="translate(0.23 0.23)" style="fill:#906331"/><path id="Trazado_2121" data-name="Trazado 2121" d="M290.55,132c-1.46-1.47-3-2.92-4.56-4.34s-3.15-2.81-4.75-4.19q-4.82-4.11-9.85-8,5.33,3.47,10.48,7.19,2.56,1.88,5.1,3.83c1.68,1.3,3.33,2.62,5,4Z" transform="translate(0.23 0.23)" style="fill:#3f1f1c"/><path id="Trazado_2122" data-name="Trazado 2122" d="M290.81,164.16a10.41,10.41,0,0,0-.54-1.54,13.42,13.42,0,0,0-.79-1.56,20.82,20.82,0,0,0-2.05-2.9,25.58,25.58,0,0,0-2.55-2.55c-.45-.41-.95-.76-1.42-1.15s-1-.7-1.5-1.05c.54.28,1.1.55,1.63.84s1.08.6,1.59.95a26,26,0,0,1,3,2.25,21.12,21.12,0,0,1,2.59,2.76,15.53,15.53,0,0,1,1.1,1.59,11,11,0,0,1,.92,1.81Z" transform="translate(0.23 0.23)" style="fill:#3f1f1c"/><path id="Trazado_2123" data-name="Trazado 2123" d="M274.93,145.65a68.87,68.87,0,0,1,.8,15.38,63.77,63.77,0,0,1-2.68,15.26,49.69,49.69,0,0,1-2.92,7.23,40.82,40.82,0,0,1-4.24,6.56,33.74,33.74,0,0,1-5.61,5.4,32.22,32.22,0,0,1-6.74,3.75,35.2,35.2,0,0,0,11.31-10,46.24,46.24,0,0,0,6.6-13.49,59.72,59.72,0,0,0,1.85-7.34c.5-2.48.84-5,1.13-7.52s.44-5.07.52-7.61.09-5.1,0-7.67" transform="translate(0.23 0.23)" style="fill:#906331"/><path id="Trazado_2124" data-name="Trazado 2124" d="M207.69,62.35a34.17,34.17,0,0,0,6.79,7.21,21.42,21.42,0,0,0,4.17,2.54,26.24,26.24,0,0,0,4.72,1.6,13.09,13.09,0,0,1-5.08-.69,15.46,15.46,0,0,1-4.58-2.45,19.46,19.46,0,0,1-3.61-3.7,16.26,16.26,0,0,1-2.41-4.52" transform="translate(0.23 0.23)" style="fill:#906331"/><path id="Trazado_2125" data-name="Trazado 2125" d="M164.12,122.93a29.61,29.61,0,0,1,8-1.5,48.47,48.47,0,0,1,8.17.2,52.15,52.15,0,0,1,8,1.57c1.32.32,2.6.82,3.88,1.24s2.52,1,3.75,1.6c-1.35-.22-2.65-.55-4-.81l-2-.38c-.66-.14-1.31-.28-2-.38s-1.32-.22-2-.35l-2-.3c-1.32-.24-2.64-.36-4-.53-2.65-.3-5.3-.48-8-.56a71.94,71.94,0,0,0-8,.19" transform="translate(0.23 0.23)" style="fill:#6a4f4f"/><path id="Trazado_2126" data-name="Trazado 2126" d="M179.47,244.2a2.13,2.13,0,1,0-2.09,2.16h0a2.1,2.1,0,0,0,2.06-2.16" transform="translate(0.23 0.23)" style="fill:#c78b39"/><path id="Trazado_2127" data-name="Trazado 2127" d="M179.47,244.2a2.13,2.13,0,1,0-2.09,2.16h0A2.1,2.1,0,0,0,179.47,244.2Z" transform="translate(0.23 0.23)" style="fill:none;stroke:#3f1f1c;stroke-miterlimit:10;stroke-width:1.9869999885559082px"/><path id="Trazado_2128" data-name="Trazado 2128" d="M237.14.78l1.58,14.77h6.36l-5.14,3.73,2,6-5.14-3.74-9.12,11.1,5.94-13.4-5.14-3.74h6.36Z" transform="translate(0.23 0.23)" style="fill:#fff"/><path id="Trazado_2129" data-name="Trazado 2129" d="M177.14,21.41l1.17,11H183l-3.81,2.77,1.45,4.49-3.81-2.77-6.77,8.23,4.41-10-3.82-2.77h4.72Z" transform="translate(0.23 0.23)" style="fill:#fff"/><path id="Trazado_2130" data-name="Trazado 2130" d="M252,44.36l1.18,11h4.71l-3.81,2.77,1.46,4.48-3.81-2.77L245,68.05l4.41-9.95-3.82-2.77h4.72Z" transform="translate(0.23 0.23)" style="fill:#fff"/><path id="Trazado_2131" data-name="Trazado 2131" d="M207.89,229.35l3.4,8.16a1.62,1.62,0,0,1-.44,1.5,3.2,3.2,0,0,0-1.17,1.67c-.22.75-.2,1.14-.73,1.27s-1.08-.13-1.74,0-1.06.71-1.37,2.22-1.61,7.95-1.24,12.38a14.63,14.63,0,0,0,4.48,9.39c1.7,1.43,6.31,4.44,6.31,4.44a2.75,2.75,0,0,0,2.17.26c1.2-.37,7.21-2,9.92-4.61s3.84-4.57,4.47-7.14a87.64,87.64,0,0,0,1.35-11.66c0-1.86-.71-2.15-1.71-2.39a1.52,1.52,0,0,1-1.3-1.52,12.26,12.26,0,0,0-.6-2.53c-.2-.47.22-1.26.93-2.34s4.16-5.56,4.16-5.56-6.76,2-8,2.33-1.83.16-2.26-1-2.79-6.28-2.79-6.28-3.83,5-4.31,5.74-1,.91-2,.27-7.52-4.52-7.52-4.52" transform="translate(0.23 0.23)" style="fill:#fff"/><path id="Trazado_2132" data-name="Trazado 2132" d="M211.72,234.17c.23-.31.51-.23,1.09.13s2,1.11,2,1.11a6.32,6.32,0,0,0,0,2.87,2.27,2.27,0,0,0,3,1.13,2.37,2.37,0,0,0,1.52-2.69,4.72,4.72,0,0,0-.93-1.84s2.41-3.3,2.75-3.74.53,0,.72.42,1.55,3.78,1.55,3.78a7.21,7.21,0,0,0-1.47,2.27,2.17,2.17,0,0,0,1.45,2.71h0a2.43,2.43,0,0,0,3-1,6.6,6.6,0,0,0,.24-2c.07-.52.32-.64.87-.86s1.24-.28,1.93-.48.8.14.5.59-1.66,3.05-2,3.88-.24.83.14,1.21a1.51,1.51,0,0,1,.67,1.62,1.64,1.64,0,0,0,.8,2.1c1,.65,2.48.93,2.23,2.57a38.72,38.72,0,0,0-.45,4.55c-.09,1.91.06,3.46-.59,3.62s-2-1.11-2.81-1.3,0,.43.29.75a16.16,16.16,0,0,0,1.84,1.86c.57.4.44,1.06.23,1.65a14.87,14.87,0,0,1-2,3.88,8.42,8.42,0,0,1-1.66,1.86c-.38.34-.84.19-1.49-.75s-1.24-1.69-1.24-1.69a27,27,0,0,1,.69,3.06,1.21,1.21,0,0,1-.72,1.2c-.56.23-5.42,2-6.07,2.2a1.67,1.67,0,0,1-1.76-.12c-.75-.48-5.2-3.36-5.68-3.76s-.5-.63-.1-1.54.92-2.43.92-2.43-1.25,1.19-1.72,1.52-.88.51-1.45-.27a11.27,11.27,0,0,1-1.51-3.78c-.49-1.88-.52-3.23-.24-3.53s3.5-2.45,3.5-2.45a19.19,19.19,0,0,1-3,.69c-.62,0-1-.6-.52-1.69a11.37,11.37,0,0,0,1.09-4.28c0-1.53-.24-3.14.62-3.52s2.09-.66,2.61-1,.73-2.07,1.42-2.65.92-.47.66-2.22a23.28,23.28,0,0,0-.95-3.67" transform="translate(0.23 0.23)" style="fill:#2a0922"/><path id="Trazado_2133" data-name="Trazado 2133" d="M213.26,245.82a13.93,13.93,0,0,0,1.64-1.32,2,2,0,0,1,2.25-.09,19.11,19.11,0,0,0,3.1,1.2,8.49,8.49,0,0,1-2.09.61,5.57,5.57,0,0,0,2.77-.31,4.9,4.9,0,0,1,3.2-.55,4.55,4.55,0,0,1,1.78,2c.17.38-.17.85-.86.87a10,10,0,0,0-2.88.27,1.68,1.68,0,0,0-1.22,1.69c0,.72.42,1.35.23,1.72s-.43.27-2,.09-1.8-.29-2.2-.34-.45-.16,0-1.15.33-2.38-.38-2.82a24.14,24.14,0,0,0-3.23-1c-.45-.2-.45-.49-.19-.85" transform="translate(0.23 0.23)" style="fill:#fff"/><path id="Trazado_2134" data-name="Trazado 2134" d="M212.47,248.5a12.46,12.46,0,0,1,2.81,1.2,1.47,1.47,0,0,1,.53,1.87c-.2.44-.69.93,0,1.44s2.37.75,2.28,1.79-1.23,1.76-2.19,2.26a2.26,2.26,0,0,1-2.79-.77l1.37-.63-2.55.49.9-.62,0-.8,1.52,0s-1.73-.32-2.19-1l1.11.07.29-.29L215,254l-1.51-1,.15-.31s.56.14.69-.64a1.35,1.35,0,0,0-.47-1.5l-.46-.41.09-.1s1.18.64,1.26,1.16c0,0,.12-.64-1.17-1.59s-1.12-1.18-1.12-1.18" transform="translate(0.23 0.23)" style="fill:#fff"/><path id="Trazado_2135" data-name="Trazado 2135" d="M226,250.13a12.8,12.8,0,0,0-3,.5,1.48,1.48,0,0,0-1,1.69c.08.48.45,1.06-.32,1.4s-2.47.17-2.63,1.2.77,2,1.58,2.72a2.27,2.27,0,0,0,2.9-.09l-1.18-.93,2.36,1.07-.74-.81.24-.76-1.47-.39s1.76.1,2.37-.44l-1.1-.2-.21-.35-1.61.17,1.7-.59-.07-.33s-.58,0-.52-.79a1.36,1.36,0,0,1,.81-1.34l.54-.3-.05-.12s-1.31.35-1.51.83c0,0,0-.64,1.52-1.26s1.37-.88,1.37-.88" transform="translate(0.23 0.23)" style="fill:#fff"/><path id="Trazado_2136" data-name="Trazado 2136" d="M214.77,258.73a4.72,4.72,0,0,1,2.38-.32l-1.51,1.47a10.34,10.34,0,0,1,2.28,4.39,5.37,5.37,0,0,0,2.15-4.61,3.91,3.91,0,0,1,1,1.35,2.73,2.73,0,0,0-1.12-3c-1.74-1.44-3.7-.67-5.17.74" transform="translate(0.23 0.23)" style="fill:#fff"/></g></g></g></g></g></g></g></svg>