<svg xmlns="http://www.w3.org/2000/svg" xmlns:xlink="http://www.w3.org/1999/xlink" viewBox="0 0 208.59 197"><defs><clipPath id="clip-path" transform="translate(0)"><rect width="208.59" height="197" style="fill:none"/></clipPath></defs><g id="Capa_2" data-name="Capa 2"><g id="Capa_1-2" data-name="Capa 1"><g style="clip-path:url(#clip-path)"><g id="Grupo_422" data-name="Grupo 422"><path id="Trazado_1931" data-name="Trazado 1931" d="M189.78,33.9c-1.7,0-3.4,0-5.36,0,0,1.9,0,3.53,0,5.17,0,2.43-.55,3-2.9,3s-4.46,0-6.69,0c-2,.06-2.9-.9-2.86-2.86,0-1.7,0-3.41,0-5.33-1.94,0-3.58,0-5.22,0-2.38,0-2.87-.54-2.91-3,0-2,0-4,0-6,0-2.94.54-3.45,3.58-3.47H172c0-1.9,0-3.61,0-5.32s.82-2.8,2.73-2.78c2.3,0,4.6,0,6.9,0,2,0,2.9.9,2.84,2.88-.05,1.69,0,3.37,0,5.24,2.1,0,3.82,0,5.53,0a2.34,2.34,0,0,1,2.63,2,2.15,2.15,0,0,1,0,.67c0,2.37,0,4.75,0,7.12,0,1.93-.92,2.73-2.78,2.68m-1.67-8.18c-1.77,0-3.47,0-5.17,0-2,.06-2.88-.93-2.85-2.88,0-1.64,0-3.27,0-5.07h-3.82v3c0,5,0,5-5.07,4.95H168.3v3.85c1.69,0,3.39,0,5.08,0,2,0,2.93.88,2.9,2.87,0,1.65,0,3.3,0,5.2h3.82c0-1.7,0-3.38,0-5.06,0-2.27.72-2.94,3-3,1.64,0,3.27,0,5,0Z" transform="translate(0)" style="fill:#fff1d4"/><path id="Trazado_1932" data-name="Trazado 1932" d="M.56,114Q15.17,84.91,29.78,55.77A2.8,2.8,0,0,1,32.6,54q32.25,0,64.49,0V3.81c0-3.47.34-3.81,3.83-3.81H201.65c3.36,0,3.73.37,3.73,3.71V72.1c0,.57.2,1.31-.07,1.69-.57.78-1.39,1.88-2.11,1.88s-1.64-1.08-2-1.9a6.09,6.09,0,0,1-.09-2.55V4.38H101.41V54.16a2.62,2.62,0,0,0,0,.28A3.52,3.52,0,0,1,102.68,56q11.41,23.45,22.92,46.85c.23.47.57.9.79,1.39a6.51,6.51,0,0,1,.83,2.21c.11,2.82.07,5.64.07,8.46,0,2.26-.58,2.86-2.86,2.86h-23c0,.28,0,.57,0,.86,0,1.5,0,5.16,0,6.94h72c3.85,0,3.87,0,4.38,3.88a11.64,11.64,0,0,0,10.22,9.9,10.87,10.87,0,0,0,11.93-6.5,16.59,16.59,0,0,0,1-5.88c.08-14.24.05-28.49,0-42.73,0-1.54.17-3,2.16-3,1.82,0,2.16,1.36,2.16,2.86,0,14.74.09,29.49,0,44.24-.06,7.4-4.62,13.23-11.43,14.9a30,30,0,0,1-6.42.58c-3.4.09-6.81,0-10.22,0l-.37.66a17.93,17.93,0,0,1,1.87,1.37q14.26,13.5,28.5,27c.46.45,1.19.86,1.3,1.39.18.87.31,2.16-.18,2.66s-1.77.44-2.65.29c-.54-.09-1-.79-1.46-1.23l-9-8.56c-1.43,1.5-2.76,2.89-4.08,4.29l-11.59,12.21c-1,1-2.12,1.34-3.21.28s-.87-2.19.1-3.25c.53-.58,1.08-1.15,1.62-1.72l14-14.82-3.27-3L168.18,183c3.5,3.31,6.83,6.48,10.19,9.62,1.16,1.09,2,2.29.71,3.68s-2.56.54-3.69-.55c-3.43-3.28-6.83-6.59-10.36-9.77-1.74-1.57-2.87-3.06-.91-5.22-1.94-1.85-3.7-3.65-5.61-5.28a3.53,3.53,0,0,0-2.31-.65c-10.12.61-20.23,1.31-30.35,1.93a9.62,9.62,0,0,1-3.37-.43q-13.32-4.29-26.6-8.73a9.11,9.11,0,0,1-3.27-1.93q-10.48-9.8-20.85-19.72c-4.51-4.3-4.85-10.43-.87-14.59s10-4.1,14.61.19c5.92,5.57,11.84,11.13,17.68,16.79a4.62,4.62,0,0,0,4.55,1.36l-1.46-5.83c-.24,0-.45-.06-.66-.07-1.68-.09-3.92.37-3.91-2.17,0-2.73,2.39-2,4.08-2.2,1-.14,2.25-.31,2.8-1a11.15,11.15,0,0,1,9.15-4c14.89,0,29.77,0,44.66-.16,3,0,5.41.45,7.15,2.91,2.22,3.11,5.31,2.19,8,2.17l-4.8-9.52H91a5.6,5.6,0,0,1-2.54-.18,3.24,3.24,0,0,1-1.61-2.12c0-.6.92-1.51,1.64-1.85a6.45,6.45,0,0,1,2.55-.16c2,0,4,0,6,0,0-1.8,0-5.39,0-6.82,0-.33,0-.66,0-1l-38.32,0a2.91,2.91,0,0,1-3-1.87c-3.41-7.08-6.89-14.14-10.34-21.2l-9.59-19.6-.67,1.31q-9.76,19.83-19.52,39.66a2.65,2.65,0,0,1-2.72,1.7c-3.35-.06-6.71,0-10.07,0-2.75,0-3.54-1.25-2.32-3.68m165.37,25.73a4.21,4.21,0,0,0-2.62-1.05q-23,0-45.95.11c-3.81,0-6.35,2.25-6.44,5.51s2.33,5.57,6.14,5.86l1.29.06,16.6.57c1,0,2,.09,3,.17,1.4.1,2.38.71,2.3,2.26s-1.16,2-2.53,2c-2.87-.07-5.75-.18-8.62-.29-7.54-.28-15.09-.65-22.63-.83a8.36,8.36,0,0,1-6.1-2.52c-5.95-5.85-12-11.56-18.13-17.25-3.44-3.22-8.47-1.94-9.6,2.38-.63,2.42.3,4.35,2,6,5.33,5,10.81,9.93,15.91,15.2a28.17,28.17,0,0,0,13.09,7.74c6.28,1.75,12.41,4.06,18.64,6a13.24,13.24,0,0,0,4.63.6q15-.89,29.91-2a4.68,4.68,0,0,1,4.07,1.39c2,2,4.05,3.87,6.3,6l18.34-19.36-8.49-8c-3.7-3.52-7.37-7.07-11.14-10.51M49.53,58.33c-.09-.18-.47-.29-.72-.3-1.45,0-2.89,0-4.59,0,1,2,1.8,3.74,2.7,5.5a1,1,0,0,0,.75.44c1.48.05,3,0,4.69,0-1-2-1.88-3.85-2.82-5.66M49.06,68c.95,2,1.79,3.76,2.69,5.52a1.23,1.23,0,0,0,.89.43c1.45,0,2.9,0,4.59,0-1-2-1.87-3.86-2.82-5.7-.09-.17-.49-.26-.75-.26-1.44,0-2.9,0-4.6,0m57.76,25.87c-1-2-1.82-3.78-2.73-5.53a1.2,1.2,0,0,0-.9-.42c-1.53,0-3,0-4.8,0,1,2,1.85,3.8,2.79,5.61a.89.89,0,0,0,.69.34c1.57,0,3.13,0,4.95,0m-3.53,4c1,2,1.84,3.8,2.76,5.59a.91.91,0,0,0,.68.36c1.6,0,3.2,0,5,0-1-2-1.85-3.77-2.76-5.56a.93.93,0,0,0-.67-.39c-1.6,0-3.19,0-5,0m-1.36-13.93c-1-2-1.84-3.79-2.76-5.57a.93.93,0,0,0-.68-.38c-1.59,0-3.19,0-5,0,1,2,1.85,3.79,2.76,5.58a.91.91,0,0,0,.69.37c1.6,0,3.19,0,5,0M99,98.26a1,1,0,0,0-.77-.41c-1.56,0-3.13,0-4.92,0,1,2,1.8,3.72,2.69,5.44a1.15,1.15,0,0,0,.84.5c1.57,0,3.13,0,4.9,0-1-1.93-1.82-3.74-2.75-5.52m-2.15-4.43c-1-2-1.83-3.78-2.73-5.53a1.06,1.06,0,0,0-.78-.42c-1.57,0-3.14,0-4.92,0,1,2,1.86,3.8,2.79,5.61a.94.94,0,0,0,.7.34c1.57,0,3.13,0,4.94,0m-4.9-10c-1-2-1.84-3.81-2.78-5.62a.94.94,0,0,0-.71-.33c-1.57,0-3.13,0-4.93,0,1,2,1.79,3.7,2.68,5.41a1.21,1.21,0,0,0,.83.54c1.57,0,3.13,0,4.91,0M89.05,98.23a.87.87,0,0,0-.66-.38c-1.6,0-3.2,0-5,0,1,2,1.84,3.79,2.75,5.58a1,1,0,0,0,.69.37c1.6,0,3.2,0,5,0-1-2-1.85-3.77-2.76-5.56m-2.14-4.39c-1-2-1.85-3.82-2.78-5.6a1.07,1.07,0,0,0-.82-.35c-1.53,0-3,0-4.83,0,1,2,1.88,3.85,2.83,5.69.09.17.48.26.74.26,1.53,0,3.06,0,4.86,0M82,83.89c-1-2-1.83-3.76-2.75-5.54a.87.87,0,0,0-.66-.4c-1.6,0-3.2,0-5,0,1,2,1.83,3.76,2.75,5.55a.87.87,0,0,0,.67.39c1.6,0,3.2,0,5,0M79.13,98.3a1.15,1.15,0,0,0-.87-.45c-1.53,0-3.06,0-4.83,0,1,2,1.85,3.81,2.8,5.63a1.1,1.1,0,0,0,.82.32c1.53,0,3.06,0,4.82,0-1-2-1.82-3.75-2.74-5.5M77,93.84c-1-2-1.87-3.83-2.81-5.64a.94.94,0,0,0-.72-.31c-1.57,0-3.14,0-4.91,0,.95,1.94,1.78,3.68,2.67,5.4a1.17,1.17,0,0,0,.82.54c1.56.05,3.13,0,4.94,0m-4.9-10c-.95-1.94-1.82-3.75-2.74-5.53a1.07,1.07,0,0,0-.78-.42c-1.57,0-3.13,0-4.91,0,1,2,1.8,3.72,2.7,5.43a1.17,1.17,0,0,0,.84.52c1.56,0,3.12,0,4.9,0M69.14,98.23a1.21,1.21,0,0,0-.9-.39c-1.48,0-3,0-4.7,0,.94,1.94,1.78,3.72,2.67,5.48a1,1,0,0,0,.74.46c1.6,0,3.19,0,5,0-1-2-1.84-3.79-2.78-5.56M67,93.84a43.25,43.25,0,0,1-1.93-4.07,2.53,2.53,0,0,0-3-2l-.14,0a23.22,23.22,0,0,1-3.23,0c.95,2,1.79,3.75,2.7,5.5a1.16,1.16,0,0,0,.88.45c1.48.05,3,0,4.71,0m-4.87-10c-1-2-1.84-3.79-2.77-5.57a1.06,1.06,0,0,0-.81-.38c-1.49,0-3,0-4.67,0,.95,2,1.77,3.71,2.65,5.44a1,1,0,0,0,.71.51c1.56,0,3.13,0,4.89,0M59.56,58.47a1.21,1.21,0,0,0-.89-.43c-1.52,0-3.05,0-4.81,0,1,1.95,1.85,3.79,2.79,5.6a1.05,1.05,0,0,0,.8.36c1.53,0,3.06,0,4.84,0-1-2-1.82-3.77-2.73-5.51m-.8,9.5c1,2,1.82,3.77,2.74,5.55a1,1,0,0,0,.8.39c1.56,0,3.12,0,4.89,0-1-2-1.88-3.82-2.8-5.65a.82.82,0,0,0-.6-.3c-1.6,0-3.2,0-5,0m10.79-9.41a1.17,1.17,0,0,0-.84-.52c-1.57,0-3.14,0-4.91,0,1,1.95,1.86,3.8,2.8,5.62a.9.9,0,0,0,.7.33c1.56,0,3.13,0,4.93,0-1-2-1.79-3.71-2.68-5.42M68.71,68c1,2,1.84,3.8,2.76,5.58a.92.92,0,0,0,.68.37c1.6,0,3.2,0,5,0-1-2-1.85-3.77-2.76-5.56a.91.91,0,0,0-.67-.38c-1.6,0-3.19,0-5,0m10.8-9.41a1.17,1.17,0,0,0-.84-.52c-1.57,0-3.14,0-4.91,0,1,1.95,1.86,3.8,2.8,5.62a.9.9,0,0,0,.7.33c1.56,0,3.12,0,4.93,0-1-2-1.8-3.71-2.68-5.42M78.66,68c1,2,1.84,3.79,2.76,5.58a.92.92,0,0,0,.68.37c1.6,0,3.2,0,5,0-1-2-1.83-3.77-2.75-5.56a.89.89,0,0,0-.67-.38c-1.6,0-3.19,0-5,0m10.8-9.42a1.19,1.19,0,0,0-.84-.51c-1.57,0-3.14,0-4.91,0,1,1.95,1.86,3.8,2.8,5.62a.9.9,0,0,0,.7.33c1.56,0,3.12,0,4.93,0-1-2-1.8-3.71-2.68-5.43M88.6,68c1,2,1.87,3.84,2.81,5.66a1,1,0,0,0,.73.3c1.56,0,3.13,0,4.9,0-1-2-1.8-3.7-2.69-5.42a1.13,1.13,0,0,0-.83-.52C92,68,90.4,68,88.6,68m10.82-9.47a1.14,1.14,0,0,0-.87-.47c-1.56,0-3.13,0-4.89,0,1,1.93,1.81,3.74,2.75,5.52a1.17,1.17,0,0,0,.88.43c1.52,0,3,0,4.85,0-1-2-1.8-3.73-2.72-5.48m4.84,9.84a.81.81,0,0,0-.57-.36c-1.64,0-3.28,0-5.13,0,1,2,1.84,3.8,2.76,5.59a.93.93,0,0,0,.69.35c1.6,0,3.2,0,5,0-1-2-1.85-3.79-2.75-5.59m4.88,10a.9.9,0,0,0-.67-.4c-1.6,0-3.21,0-5,0,1,1.95,1.83,3.76,2.74,5.55a.91.91,0,0,0,.68.39c1.6,0,3.21,0,5,0-1-2-1.83-3.76-2.75-5.55m4.94,10.07a1.17,1.17,0,0,0-.84-.51c-1.56-.05-3.13,0-4.91,0,1,2,1.86,3.8,2.8,5.62a1,1,0,0,0,.7.33c1.56,0,3.12,0,4.93,0-1-2-1.79-3.71-2.68-5.43m4.83,9.87a1,1,0,0,0-.76-.43c-1.56,0-3.13,0-4.92,0,1,2,1.79,3.71,2.68,5.42a1.15,1.15,0,0,0,.83.52c1.57,0,3.13,0,4.89,0-.94-1.92-1.81-3.73-2.73-5.51M12,113.7c.29,0,.65-.55.83-.91q5.79-11.69,11.53-23.4l9.38-19c.46-.94,1-1.8,2.13-1.8s1.68.86,2.14,1.8q10.32,21.15,20.65,42.3a1.58,1.58,0,0,0,1.62,1.13q31,0,61.93,0h1.07v-6h-1.47c-18.48,0-37,0-55.46,0a3.3,3.3,0,0,1-3.45-2.14Q51.66,82.39,40.37,59.17A1.69,1.69,0,0,0,38.5,58a33,33,0,0,1-4.22,0,1.56,1.56,0,0,0-1.69,1Q23.88,76.49,15.12,93.9q-4.65,9.27-9.31,18.54c-.18.36-.34.74-.6,1.3,2.35,0,4.56,0,6.77,0" transform="translate(0)" style="fill:#fff1d4"/><path id="Trazado_1933" data-name="Trazado 1933" d="M138.3,56.21h49.63a2.38,2.38,0,0,1,0,4.75H138.3a2.38,2.38,0,0,1,0-4.75" transform="translate(0)" style="fill:#fff1d4"/><path id="Trazado_1934" data-name="Trazado 1934" d="M187.93,70h-24.6a2.38,2.38,0,1,1,0-4.75h24.6a2.38,2.38,0,0,1,0,4.75h0" transform="translate(0)" style="fill:#fff1d4"/><path id="Trazado_1935" data-name="Trazado 1935" d="M187.93,79.08h-41a2.37,2.37,0,0,1,0-4.74h41a2.37,2.37,0,1,1,0,4.74" transform="translate(0)" style="fill:#fff1d4"/><path id="Trazado_1936" data-name="Trazado 1936" d="M138.3,83.4h49.63a2.37,2.37,0,1,1,0,4.74H138.3a2.37,2.37,0,1,1,0-4.74" transform="translate(0)" style="fill:#fff1d4"/><path id="Trazado_1937" data-name="Trazado 1937" d="M187.93,97.21h-32.8a2.38,2.38,0,1,1,0-4.75h32.8a2.38,2.38,0,0,1,0,4.75" transform="translate(0)" style="fill:#fff1d4"/><path id="Trazado_1938" data-name="Trazado 1938" d="M187.93,106.27H138.3a2.38,2.38,0,0,1,0-4.75h49.63a2.38,2.38,0,0,1,0,4.75" transform="translate(0)" style="fill:#fff1d4"/></g></g></g></g></svg>