<svg xmlns="http://www.w3.org/2000/svg" xmlns:xlink="http://www.w3.org/1999/xlink" viewBox="0 0 411.84 720.22"><defs><clipPath id="clip-path" transform="translate(-0.35)"><rect width="412.2" height="720.47" style="fill:none"/></clipPath><clipPath id="clip-path-3" transform="translate(-0.35)"><rect x="93.28" y="314.86" width="36.35" height="48.29" style="fill:none"/></clipPath><clipPath id="clip-path-4" transform="translate(-0.35)"><rect x="249.46" y="495.15" width="60.01" height="162.4" style="fill:none"/></clipPath><clipPath id="clip-path-5" transform="translate(-0.35)"><rect x="108.43" y="288.08" width="31.19" height="53.2" style="fill:none"/></clipPath><clipPath id="clip-path-6" transform="translate(-0.35)"><rect x="137.8" y="342.13" width="181.2" height="145.38" style="fill:none"/></clipPath><clipPath id="clip-path-7" transform="translate(-0.35)"><rect x="319.58" y="332.03" width="20.14" height="28.07" style="fill:none"/></clipPath><clipPath id="clip-path-8" transform="translate(-0.35)"><path d="M274.78,4.65,256.2,25.92a5.5,5.5,0,0,0-.6,6.32c5,9.07,6.24,30.54-14.53,28.9-19-1.5-16.59-19.83-14.7-27.6a4.27,4.27,0,0,0-2.49-4.93l-15.72-6.75A3.12,3.12,0,0,0,204,23.45a3.2,3.2,0,0,0-.18,2l8.58,34.23L212.68,96l93.56,18.81L318.93,78.4l19.76-32.35a3.1,3.1,0,0,0-3.26-4.65l-18.09,3.38A4,4,0,0,0,314,48.93c.59,12.8-5.4,27.56-24.3,21.05-16.4-5.64-9.57-23.67-1.77-33.05a5.44,5.44,0,0,0,.94-5.34L279.45,5.52a2.76,2.76,0,0,0-4.67-.87" style="fill:none"/></clipPath><linearGradient id="Degradado_sin_nombre_2" x1="-332.33" y1="1035.37" x2="-332.32" y2="1035.37" gradientTransform="matrix(113.52, 0, 0, -138.85, 37725.69, 143825.22)" gradientUnits="userSpaceOnUse"><stop offset="0" stop-color="#dba949"/><stop offset="1" stop-color="#c37a00"/></linearGradient><clipPath id="clip-path-10" transform="translate(-0.35)"><rect x="262.04" y="11.56" width="22.46" height="56.22" style="fill:none"/></clipPath><clipPath id="clip-path-11" transform="translate(-0.35)"><rect x="306.61" y="47.31" width="24.33" height="52.31" style="fill:none"/></clipPath><clipPath id="clip-path-12" transform="translate(-0.35)"><rect x="208.95" y="28.32" width="17.39" height="31.26" style="fill:none"/></clipPath></defs><g id="Capa_2" data-name="Capa 2"><g id="Capa_1-2" data-name="Capa 1"><g style="clip-path:url(#clip-path)"><g id="Grupo_416" data-name="Grupo 416"><g id="Grupo_402" data-name="Grupo 402"><g style="clip-path:url(#clip-path)"><g id="Grupo_401" data-name="Grupo 401"><path id="Trazado_1738" data-name="Trazado 1738" d="M94.74,295.65S77.3,310.73,68.59,330.38s-21.52,45.82,2.38,63,54.46.25,68.37-23.55S175,310.74,149,291.34s-44.78-6.09-54.21,4.3" transform="translate(-0.35)" style="fill:#faad3f"/><path id="Trazado_1739" data-name="Trazado 1739" d="M94.74,295.65S77.3,310.73,68.59,330.38s-21.52,45.82,2.38,63,54.46.25,68.37-23.55S175,310.74,149,291.34,104.17,285.25,94.74,295.65Z" transform="translate(-0.35)" style="fill:none;stroke:#dc6628;stroke-miterlimit:10;stroke-width:3.1570000648498535px"/><path id="Trazado_1740" data-name="Trazado 1740" d="M94.64,325.57l-24.2,24.21s28.27-6.09,55.24,11.56l2.34-7.88Z" transform="translate(-0.35)" style="fill:#ef8226"/><path id="Trazado_1741" data-name="Trazado 1741" d="M135,366.63s-51.5-35.39-50.88-71.4l10.76-11.05s14.91,49.92,54.75,66c0,0-9.27,12.88-14.63,16.49" transform="translate(-0.35)" style="fill:#c78b39"/><path id="Trazado_1742" data-name="Trazado 1742" d="M135,366.63s-51.5-35.39-50.88-71.4l10.76-11.05s14.91,49.92,54.75,66C149.58,350.14,140.31,363,135,366.63Z" transform="translate(-0.35)" style="fill:none;stroke:#3f1f1c;stroke-miterlimit:10;stroke-width:3.2260000705718994px"/><g id="Grupo_388" data-name="Grupo 388"><g id="Grupo_387" data-name="Grupo 387"><g style="clip-path:url(#clip-path-3)"><g id="Grupo_386" data-name="Grupo 386"><path id="Trazado_1743" data-name="Trazado 1743" d="M93.28,327.74s11.6-9,17.4-12.88c0,0,8.06,16.87,18.95,22.78l-.9,25.51a93.52,93.52,0,0,1-35.45-35.41" transform="translate(-0.35)" style="fill:#cca471"/></g></g></g></g><path id="Trazado_1744" data-name="Trazado 1744" d="M264,501.42s47.92-5.58,64.6,22.88c16.87,28.78-13.85,62.51-65.8,52.51s-119.95-44.2-161.51-34.29-39.47,12.76-40.86,10.62-8.44-7.89-1.24-12,26.65-14.37,70.92-15.08,115,34.55,156.55,31.4c30.74-2.32,22.49-27.13,7.64-30.89-13.3-3.37-30.59-6.83-30.59-6.83Z" transform="translate(-0.35)" style="fill:#ef8226"/><path id="Trazado_1745" data-name="Trazado 1745" d="M264,501.42s47.92-5.58,64.6,22.88c16.87,28.78-13.85,62.51-65.8,52.51s-119.95-44.2-161.51-34.29-39.47,12.76-40.86,10.62-8.44-7.89-1.24-12,26.65-14.37,70.92-15.08,115,34.55,156.55,31.4c30.74-2.32,22.49-27.13,7.64-30.89-13.3-3.37-30.59-6.83-30.59-6.83Z" transform="translate(-0.35)" style="fill:none;stroke:#dc6628;stroke-miterlimit:10;stroke-width:2.746999979019165px"/><path id="Trazado_1746" data-name="Trazado 1746" d="M152.4,531.28S112,528,79.19,536.78c0,0,50.71-5.49,72,1.15Z" transform="translate(-0.35)" style="fill:#faad3f"/><path id="Trazado_1747" data-name="Trazado 1747" d="M273.18,505.81s40.9-2.31,52.54,20.83c6.14,12.23,2,23.41-5.67,32a2.14,2.14,0,0,1-3.5-2.42c3.64-6.81,6.1-15.38,2.32-23.35-8-16.78-41.71-18.06-41.71-18.06Z" transform="translate(-0.35)" style="fill:#faad3f"/><path id="Trazado_1748" data-name="Trazado 1748" d="M72.23,537.79S46.72,514.3,26.56,521.4l-3.44,6.54s15,.24,22.48,3.66c0,0-9.13-3.45-34.31,5.22l2.42,5,9.2-.68s-16,11.28-20.35,19.46L24,577.42s12-22.07,19.56-22.77c0,0-12,20.42-8.72,23.77l10,.16,8.61-16.35-5.41,24.64,10-1.49s19.63-26.89,14.12-47.59" transform="translate(-0.35)" style="fill:#563317"/><path id="Trazado_1749" data-name="Trazado 1749" d="M72.23,537.79S46.72,514.3,26.56,521.4l-3.44,6.54s15,.24,22.48,3.66c0,0-9.13-3.45-34.31,5.22l2.42,5,9.2-.68s-16,11.28-20.35,19.46L24,577.42s12-22.07,19.56-22.77c0,0-12,20.42-8.72,23.77l10,.16,8.61-16.35-5.41,24.64,10-1.49S77.74,558.49,72.23,537.79Z" transform="translate(-0.35)" style="fill:none;stroke:#3f1f1c;stroke-miterlimit:10;stroke-width:3.4590001106262207px"/><path id="Trazado_1750" data-name="Trazado 1750" d="M188.57,648.45s4.06,10.5,7.52,13.54,8.66,30.71-8.93,31.18c-7.42.2-24.26,4-34.75,7.44-3.15,6.57-21.8,9.55-21.8,9.55s-31.71,4-34.4-4.28c0,0-20.46.3-21.8-4.2,0,0-12.66,3.65-13.91-6.06s-.8-19.38,2.8-24.54,25.83-6.32,35-6.92,49.54-18.59,49.54-18.59Z" transform="translate(-0.35)" style="fill:#faad3f"/><path id="Trazado_1751" data-name="Trazado 1751" d="M188.57,648.45s4.06,10.5,7.52,13.54,8.66,30.71-8.93,31.18c-7.42.2-24.26,4-34.75,7.44-3.15,6.57-21.8,9.55-21.8,9.55s-31.71,4-34.4-4.28c0,0-20.46.3-21.8-4.2,0,0-12.66,3.65-13.91-6.06s-.8-19.38,2.8-24.54,25.83-6.32,35-6.92,49.54-18.59,49.54-18.59Z" transform="translate(-0.35)" style="fill:none;stroke:#dc6628;stroke-miterlimit:10;stroke-width:2.803999900817871px"/><path id="Trazado_1752" data-name="Trazado 1752" d="M141.23,649.9s8.79,9.37,16.49,10.29,15,2.25,18.17,6.71-.2,12.43-5.08,12.75S145,692.07,141.78,692s-28.56,8-35,5.86S98,688.11,98,688.11s-2.17,8.79-1.79,10.4-19.9.09-20.9-13.56L74,692.54s-11-4-12.52-10.38c0,0-2.3,10.92,1.7,16.59,2.77,3.93,12.15,1.61,12.15,1.61s.69,4.5,22.38,4c0,0-1,6.83,21.09,6.15,20.36-.63,31.88-7.29,32.76-11.29,0,0,16.64-4.77,24.78-6.24s16.66-.14,19.6-6.5,2.74-18.8.35-21.65-8.7-14.57-8.7-14.57L144.18,644Z" transform="translate(-0.35)" style="fill:#ef8226"/><path id="Trazado_1753" data-name="Trazado 1753" d="M94.1,706.36c.16-3.4.42-6.75.8-10.12a51.6,51.6,0,0,1,1.92-10.07,6.38,6.38,0,0,1,1.4-2.5c2.1-1.78,4.79-2.2,7.33-2.75a54,54,0,0,1,7.52-.81,11,11,0,0,1,2.5.1,22.39,22.39,0,0,0-5,.5c-3.81.84-8.26,1.46-11.26,4-1.8,3.32-1.5,7.84-1.77,11.67-.08,3.3,0,6.64.1,9.92Z" transform="translate(-0.35)" style="fill:#dc6628"/><path id="Trazado_1754" data-name="Trazado 1754" d="M72.52,702.33c.16-3.36.41-6.66.78-10,.66-4.15.71-8.7,3.09-12.44,1.92-1.93,4.47-2.64,6.9-3.5a52.9,52.9,0,0,1,7.26-1.74,8.18,8.18,0,0,1,2.47-.14,17.18,17.18,0,0,0-4.8,1.05c-3.63,1.3-7.88,2.52-10.58,5.33-1.64,3.47-1.4,7.74-1.65,11.62-.07,3.26,0,6.56.1,9.8Z" transform="translate(-0.35)" style="fill:#dc6628"/><path id="Trazado_1755" data-name="Trazado 1755" d="M128.32,686.71s-4.37-4.6-13.71-4.75-11.8,1.93-13.08,3.92c0,0,14.68-3.78,26.79.83" transform="translate(-0.35)" style="fill:#f9d772"/><path id="Trazado_1756" data-name="Trazado 1756" d="M98.54,681.86s-3.25-3.91-10.21-4-8.8,1.66-9.75,3.36c0,0,11-3.24,20,.66" transform="translate(-0.35)" style="fill:#f9d772"/><path id="Trazado_1757" data-name="Trazado 1757" d="M79.08,677.16s-2.65-5.23-8.39-5.32-7.28,2.31-8.08,4.6c0,0,9.06-4.45,16.47.73" transform="translate(-0.35)" style="fill:#f9d772"/><path id="Trazado_1758" data-name="Trazado 1758" d="M309.75,649.54s19.07,18.21,34.55,21.69S360.56,678,362,688.47s2.5,18.78-6.89,21.7a82.29,82.29,0,0,1-14,3s-7.31-3.35-7.27-5.77c0,0,2.35,6.5-4.22,8s-23,2.86-29.07.9a13.16,13.16,0,0,1-8.05-8.2s-2.6,8.84-5.88,9.6-18.85,2.12-24.52-1.2-11.32-8.26-9.56-16.31,14.62-47.54,14.62-47.54" transform="translate(-0.35)" style="fill:#faad3f"/><path id="Trazado_1759" data-name="Trazado 1759" d="M309.75,649.54s19.07,18.21,34.55,21.69S360.56,678,362,688.47s2.5,18.78-6.89,21.7a82.29,82.29,0,0,1-14,3s-7.31-3.35-7.27-5.77c0,0,2.35,6.5-4.22,8s-23,2.86-29.07.9a13.16,13.16,0,0,1-8.05-8.2s-2.6,8.84-5.88,9.6-18.85,2.12-24.52-1.2-11.32-8.26-9.56-16.31,14.62-47.54,14.62-47.54" transform="translate(-0.35)" style="fill:none;stroke:#dc6628;stroke-miterlimit:10;stroke-width:3.1480000019073486px"/><path id="Trazado_1760" data-name="Trazado 1760" d="M319,657.81s-4.69,7.72-13.42,8.4-14.89-3.52-23.6-4.07-20.42,5-20.42,5l3.07-10.61,48.31-5.3s1.52,4.87,6.06,6.58" transform="translate(-0.35)" style="fill:#ef8226"/><path id="Trazado_1761" data-name="Trazado 1761" d="M360.88,694.6s-3,5.77-11.61,7.38-9.13-.44-11.12-4.55-7.39-17.28-20-21.84c0,0,9.6,7.71,11.52,16.47s.38,13.1-8.46,13.54-20.06,1.14-22.94-3-8.43-25.74-8.43-25.74.22,23.28-.42,26.18-8.9,3.64-17.42,2.34-13.58,1.24-14-7.21,3.7-28.74,3.7-28.74-8.74,30.41-8.2,33.91,4.54,10.84,12.46,13.29,19.72,1.19,21.23-.82,4.56-8.66,4.56-8.66,5.49,6.78,9.9,7.72S329,715,331.42,713s3.94-6.63,3.94-6.63,2.57,4.7,6.4,4.76,23.29-.5,19.13-16.57" transform="translate(-0.35)" style="fill:#ef8226"/><path id="Trazado_1762" data-name="Trazado 1762" d="M333,711.56c-.58-6.71-1.77-25.82-7.94-29.11,2.55.9,3.89,3.61,5.05,5.88,3.32,7.24,5,15,6.53,22.82l-3.64.41" transform="translate(-0.35)" style="fill:#dc6628"/><path id="Trazado_1763" data-name="Trazado 1763" d="M291,710.05c0-8.78.16-21.14-.18-29.8,1.4,8.52,2.76,20.92,3.83,29.61l-3.65.2" transform="translate(-0.35)" style="fill:#dc6628"/><path id="Trazado_1764" data-name="Trazado 1764" d="M351.5,678.42s-9.51-2.61-16.64,1.78c0,0,10,.16,16.64-1.78" transform="translate(-0.35)" style="fill:#f9d772"/><path id="Trazado_1765" data-name="Trazado 1765" d="M321.12,682.85a24.57,24.57,0,0,0-16.54-4.36c-9.56,1.08-10.9,6.79-10.9,6.79a35.85,35.85,0,0,1,27.44-2.43" transform="translate(-0.35)" style="fill:#f9d772"/><path id="Trazado_1766" data-name="Trazado 1766" d="M285.81,684.34s-4.9-5.41-14.45-5.56-10.41,2.29-12.94,4.71c0,0,15-3.86,27.39.85" transform="translate(-0.35)" style="fill:#f9d772"/><path id="Trazado_1767" data-name="Trazado 1767" d="M273,482.72s12.7,45.83,17.3,92.42l9.64,12.14s6.23,51.2,10.95,63.25c0,0-11.4,10.75-20.49,8.13s-25.23-2.87-25.23-2.87-4.22-45.17-14.52-59.43a318.47,318.47,0,0,1-19.49-31.5s-14.68-3.76-26.68.28c0,0-14.71,18.26-14.79,23.2s4.73,12,4.73,12-6.26,43.17-4.25,49.19c0,0-24.7,5-29.61,4.9s-15-9.05-15-9.05,6.18-52.77-1.11-79.67l15.33-81.15s104.49-2.74,113.25-1.89" transform="translate(-0.35)" style="fill:#2683a9"/><path id="Trazado_1768" data-name="Trazado 1768" d="M273,482.72s12.7,45.83,17.3,92.42l9.64,12.14s6.23,51.2,10.95,63.25c0,0-11.4,10.75-20.49,8.13s-25.23-2.87-25.23-2.87-4.22-45.17-14.52-59.43a318.47,318.47,0,0,1-19.49-31.5s-14.68-3.76-26.68.28c0,0-14.71,18.26-14.79,23.2s4.73,12,4.73,12-6.26,43.17-4.25,49.19c0,0-24.7,5-29.61,4.9s-15-9.05-15-9.05,6.18-52.77-1.11-79.67l15.33-81.15S264.24,481.87,273,482.72Z" transform="translate(-0.35)" style="fill:none;stroke:#004b79;stroke-miterlimit:10;stroke-width:2.7239999771118164px"/><path id="Trazado_1769" data-name="Trazado 1769" d="M199.31,495s-.15,39.46,1.3,50.33c.77,5.73,14.58,3.35,14.58,3.35l-.74-53.78Z" transform="translate(-0.35)" style="fill:none;stroke:#004b79;stroke-miterlimit:10"/><g id="Grupo_391" data-name="Grupo 391"><g id="Grupo_390" data-name="Grupo 390"><g style="clip-path:url(#clip-path-4)"><g id="Grupo_389" data-name="Grupo 389"><path id="Trazado_1770" data-name="Trazado 1770" d="M249.46,498.05s15.51,48.69,15.83,52.88c0,0,7.65,15.5,11.08,17.46,0,0,10.15,15.75,11.18,23.75s6.12,51.05,5.69,54.08-6.72,10.54-6.72,10.54,8.82,2.42,16.58-1.25,6.24-5.23,6.24-5.23-10.77-48.84-9.81-61l-10.95-13.48s-4.87-58.84-14.15-80.66c0,0-15.58,2.7-25,2.9" transform="translate(-0.35)" style="fill:#94afc7"/></g></g></g></g><path id="Trazado_1771" data-name="Trazado 1771" d="M282.09,531.31l-27-6.07L237.2,504.87" transform="translate(-0.35)" style="fill:none;stroke:#004b79;stroke-miterlimit:10"/><path id="Trazado_1772" data-name="Trazado 1772" d="M281.57,526.78l-24.7-5-15-22.81" transform="translate(-0.35)" style="fill:none;stroke:#004b79;stroke-miterlimit:10"/><path id="Trazado_1773" data-name="Trazado 1773" d="M183.39,500.05l-10,15.22-18.59,5.57" transform="translate(-0.35)" style="fill:none;stroke:#004b79;stroke-miterlimit:10"/><path id="Trazado_1774" data-name="Trazado 1774" d="M178.46,497.9l-7.89,13.31L155.9,515" transform="translate(-0.35)" style="fill:none;stroke:#004b79;stroke-miterlimit:10"/><path id="Trazado_1775" data-name="Trazado 1775" d="M289.25,576.56a163.07,163.07,0,0,1-15.1-9.66c-4.62-3.59-9.93-7.17-12.41-12.66,2.92,5.18,8.43,8.21,13.29,11.33a161.16,161.16,0,0,0,15.65,8.14l-1.43,2.85" transform="translate(-0.35)" style="fill:#004b79"/><path id="Trazado_1776" data-name="Trazado 1776" d="M298,656.32c-3.12-16.49-6-33-7.94-49.71a116,116,0,0,0-6.92-29,34.91,34.91,0,0,0-2.46-5.48,5.3,5.3,0,0,1-.63-1.44c-1.21-4.07-2-8.21-2.94-12.33-4.08-19.71-7.61-39.53-10.9-59.39,3,14,9.72,45.52,12.8,59,1,4,1.81,8.14,3,12.09a4.06,4.06,0,0,0,.35.87,33,33,0,0,1,2.82,5.91,107.38,107.38,0,0,1,7,29.56c1.72,16.65,4,33.26,5.78,49.93" transform="translate(-0.35)" style="fill:#004b79"/><path id="Trazado_1777" data-name="Trazado 1777" d="M189.56,593.65c-6.51-7.21-13.21-14.49-17.45-23.33-2.26-5.39-1.13-12.11,2-16.88a19,19,0,0,0-2.3,11c.06,3.84,2.28,7,4.47,10.1a134.12,134.12,0,0,0,15.5,16.81l-2.23,2.28" transform="translate(-0.35)" style="fill:#004b79"/><path id="Trazado_1778" data-name="Trazado 1778" d="M179.18,650.67a126.85,126.85,0,0,1-3.27-29,31.9,31.9,0,0,1,3.24-14.39,43.27,43.27,0,0,0,2-20.9,14.14,14.14,0,0,0-1-3.83,15.49,15.49,0,0,1-.11-3.47,147.84,147.84,0,0,1,6.65-35.86,25.52,25.52,0,0,1,3.14-6.58,28.66,28.66,0,0,0-2.6,6.75,187.59,187.59,0,0,0-5.08,35.76,10,10,0,0,0,.2,3,13.49,13.49,0,0,1,1.05,3.85,43,43,0,0,1-2.15,22.07,31,31,0,0,0-3.46,13.65c-.52,9.61.33,19.32,1.44,28.9" transform="translate(-0.35)" style="fill:#004b79"/><path id="Trazado_1779" data-name="Trazado 1779" d="M273.12,580.22s-21.84-18.12-23.25-24.06c0,0,6,20.83,10.87,24.24s16.34,33.21,17.05,36.18-3.58-34.49-4.67-36.36" transform="translate(-0.35)" style="fill:#7fbee7"/><path id="Trazado_1780" data-name="Trazado 1780" d="M177,589.43s-12.08-18.34-12-22,5.15-16.95,5.15-16.95-9.2,12.44-9.27,16.51,11.33,18.7,16.14,22.48" transform="translate(-0.35)" style="fill:#7fbee7"/><path id="Trazado_1781" data-name="Trazado 1781" d="M157.93,496s6.86,5.46,49.24,7.78,68.68-5.83,68.68-5.83l-1.31-9.85s-39.11,4.74-66.7,3.44a259.2,259.2,0,0,1-50-7.37s-1.12,7.51.13,11.83" transform="translate(-0.35)" style="fill:#20120d"/><path id="Trazado_1782" data-name="Trazado 1782" d="M217.57,505.49l-23.16-.82A5.54,5.54,0,0,1,189,499a.34.34,0,0,1,0-.1l.35-6.56a5.55,5.55,0,0,1,5.82-5.21l23,1a5.55,5.55,0,0,1,5.33,5.7l-.23,6.34a5.54,5.54,0,0,1-5.77,5.31" transform="translate(-0.35)" style="fill:#c78b39"/><path id="Trazado_1783" data-name="Trazado 1783" d="M217.57,505.49l-23.16-.82A5.54,5.54,0,0,1,189,499a.34.34,0,0,1,0-.1l.35-6.56a5.55,5.55,0,0,1,5.82-5.21l23,1a5.55,5.55,0,0,1,5.33,5.7l-.23,6.34a5.55,5.55,0,0,1-5.77,5.32Z" transform="translate(-0.35)" style="fill:none;stroke:#3f1f1c;stroke-miterlimit:10;stroke-width:3.5429999828338623px"/><path id="Trazado_1784" data-name="Trazado 1784" d="M167.35,501.58s-.14-12.85,2.35-16.44l5.8,1.72S172,496.53,172.79,503" transform="translate(-0.35)" style="fill:#2683a9"/><path id="Trazado_1785" data-name="Trazado 1785" d="M167.35,501.58s-.14-12.85,2.35-16.44l5.8,1.72S172,496.53,172.79,503" transform="translate(-0.35)" style="fill:none;stroke:#004b79;stroke-linecap:round;stroke-linejoin:round;stroke-width:1.9869999885559082px"/><path id="Trazado_1786" data-name="Trazado 1786" d="M239,505.83s-.14-12.49-1.64-17.11c0,0,6.48-2.92,7.23-.07s2.33,14.25.2,18.2" transform="translate(-0.35)" style="fill:#2683a9"/><path id="Trazado_1787" data-name="Trazado 1787" d="M239,505.83s-.14-12.49-1.64-17.11c0,0,6.48-2.92,7.23-.07s2.33,14.25.2,18.2" transform="translate(-0.35)" style="fill:none;stroke:#004b79;stroke-linecap:round;stroke-linejoin:round;stroke-width:1.9869999885559082px"/><path id="Trazado_1788" data-name="Trazado 1788" d="M269.53,500s-.12-10.52-1.38-14.41c0,0,5.45-2.46,6.09-.06s2,12,.17,15.32" transform="translate(-0.35)" style="fill:#2683a9"/><path id="Trazado_1789" data-name="Trazado 1789" d="M269.53,500s-.12-10.52-1.38-14.41c0,0,5.45-2.46,6.09-.06s2,12,.17,15.32" transform="translate(-0.35)" style="fill:none;stroke:#004b79;stroke-linecap:round;stroke-linejoin:round;stroke-width:1.6729999780654907px"/><path id="Trazado_1790" data-name="Trazado 1790" d="M171.83,236.16s-35.46,1-75.44,51.29c0,0,8.91,37.66,39.8,54.47,0,0,32.14-22.71,41.2-32" transform="translate(-0.35)" style="fill:#2a0922"/><path id="Trazado_1791" data-name="Trazado 1791" d="M171.83,236.16s-35.46,1-75.44,51.29c0,0,8.91,37.66,39.8,54.47,0,0,32.14-22.71,41.2-32" transform="translate(-0.35)" style="fill:none;stroke:#3f1f1c;stroke-miterlimit:10;stroke-width:3.26200008392334px"/><g id="Grupo_394" data-name="Grupo 394" style="opacity:0.5099999904632568"><g id="Grupo_393" data-name="Grupo 393"><g style="clip-path:url(#clip-path-5)"><g id="Grupo_392" data-name="Grupo 392"><path id="Trazado_1792" data-name="Trazado 1792" d="M139.63,288.08s-15.39,9.59-31.2,28.94c0,0,16.87,21.1,22.64,24.25,0,0,.87-34.14,8.56-53.2" transform="translate(-0.35)" style="fill:#8b787a"/></g></g></g></g><path id="Trazado_1793" data-name="Trazado 1793" d="M141.53,284.26c-24.47,46.48-8.66,123.07-2,149.1,6,23.53,12.7,34.16,15.82,42.1a12.47,12.47,0,0,0-3,6.63c2.73,4.14,3.53,7.53,57.6,8.87,57.57,1.42,71.64-4.52,71.64-4.52s4.11-2.06,1.07-9.26c1.77-8.22,5.18-23.35,11.42-49.13,8.44-34.92,62.09-68,57.44-146.76-1.73-29.26-91-52.25-124.5-54-23-1.23-44.46-.82-58.71,17.27" transform="translate(-0.35)" style="fill:#2a0922"/><path id="Trazado_1794" data-name="Trazado 1794" d="M141.53,284.26c-17.43,36.31-13.07,82-6.19,120.58,3,16,6.24,32.11,11.94,47.37,2.8,7.8,6.52,14.87,9.77,22.57l.43,1.07A11.63,11.63,0,0,0,155,479.3a11,11,0,0,0-.84,3l-.3-1.2a7,7,0,0,0,2.4,2.66c3.57,1.95,7.95,2.4,12,3,5.78.72,11.65,1.13,17.53,1.46,29.26,1.18,59,2.53,88-1.81a54.89,54.89,0,0,0,6.82-1.6c1.9-1.53,1.12-4.68.21-6.87l-.23-.56.12-.56c2.68-12.26,5.84-25.86,8.78-38.14l1.52-6.33c2-10.95,7.4-21.13,13.43-30.13C319,380.75,335,359.89,342.94,335a141.08,141.08,0,0,0,6.84-50.7A18.1,18.1,0,0,0,346.46,273c-14.5-19.45-56.83-31.69-80.18-37.36-16.77-4.06-33.8-7.34-51.1-7.63-17.14-.77-35.63,2.31-46.89,16.5a43.34,43.34,0,0,1,9.27-9.17c10.77-7.87,24.68-9.53,37.64-9.68a170,170,0,0,1,26.2,1.49c27.46,3.46,102,21.75,111.26,50.07,3.84,28.38-3.22,58-16.6,83.12-8.12,15.47-18.8,29.43-28.38,43.88-4.67,7.21-9.08,14.66-11.38,22.7-1.72,7.14-4.39,18-6.06,25.26-2,8.45-3.92,16.91-5.76,25.39l-.11-1.13c1.63,3.63,2.24,9.08-1.85,11.61a21.57,21.57,0,0,1-3.51,1.08c-19,4-38.55,3.85-57.83,3.88-11.85-.15-23.67-.46-35.51-1.1-5.93-.33-11.85-.74-17.8-1.48-4.57-.7-9.33-1.14-13.55-3.54a12.4,12.4,0,0,1-3.92-4.35,15.1,15.1,0,0,1,1.21-4.76,13.1,13.1,0,0,1,2.32-3.61l-.37,2c-3.13-7.42-7.05-14.93-9.79-22.63-16.25-46-26.34-125.29-2.24-169.25" transform="translate(-0.35)" style="fill:#3f1f1c"/><g id="Grupo_397" data-name="Grupo 397" style="opacity:0.5099999904632568"><g id="Grupo_396" data-name="Grupo 396"><g style="clip-path:url(#clip-path-6)"><g id="Grupo_395" data-name="Grupo 395"><path id="Trazado_1795" data-name="Trazado 1795" d="M142.73,440.86s50.48,7.07,59.35,3.27,16.84-6.74,16.84-6.74a23.31,23.31,0,0,0,20.9,12.26c15-.17,31.67,1,31.67,1l-9,36.8s16.44.68,18.54-3.19a4.64,4.64,0,0,0-1.21-6.18l11.42-47.77L319,354.26l-13.86-12.14s-15.05,28.78-25.69,33.44-39.78,9.84-39.78,9.84l-101.88,36a97.43,97.43,0,0,0,4.93,19.46" transform="translate(-0.35)" style="fill:#8b787a"/></g></g></g></g><path id="Trazado_1796" data-name="Trazado 1796" d="M196.27,311.93s-1.7,21.73-.27,33.86l14.89.48s2.34-22.38,7.39-33.93Z" transform="translate(-0.35)" style="fill:#c78b39"/><path id="Trazado_1797" data-name="Trazado 1797" d="M196.27,311.93s-1.7,21.73-.27,33.86l14.89.48s2.34-22.38,7.39-33.93Z" transform="translate(-0.35)" style="fill:none;stroke:#3f1f1c;stroke-miterlimit:10;stroke-width:3.2260000705718994px"/><path id="Trazado_1798" data-name="Trazado 1798" d="M382.6,313s27.84,23,24,56.93S373,396.7,348.06,378.69c-13.84-10-15.15-17-37.17-38.68" transform="translate(-0.35)" style="fill:#faad3f"/><path id="Trazado_1799" data-name="Trazado 1799" d="M382.6,313s27.84,23,24,56.93S373,396.7,348.06,378.69c-13.84-10-15.15-17-37.17-38.68" transform="translate(-0.35)" style="fill:none;stroke:#dc6628;stroke-miterlimit:10;stroke-width:3.26200008392334px"/><path id="Trazado_1800" data-name="Trazado 1800" d="M336.88,341.39s7,12.16,18.9,17.07a38.46,38.46,0,0,0-17,11.9s-14.23-13.2-16.21-16.13c0,0,5.77-12.13,14.32-12.84" transform="translate(-0.35)" style="fill:#ef8226"/><path id="Trazado_1801" data-name="Trazado 1801" d="M317.37,234.12s51.72,27.1,74.3,83.61c0,0-55.24,16.27-66.61,42.87,0,0-24.8-23.63-30.07-35.46" transform="translate(-0.35)" style="fill:#2a0922"/><path id="Trazado_1802" data-name="Trazado 1802" d="M317.37,234.12a147.81,147.81,0,0,1,24.49,14.82c7.72,5.68,14.41,12.66,20.94,19.64a164.16,164.16,0,0,1,31.4,50.35c-19.58,6.16-39.39,14.27-55.4,27.37-5.79,4.85-10.53,10.65-13.1,17.56-3.47-3.33-6.94-6.74-10.27-10.18-4-4.26-8.29-8.37-11.61-13.25S297,330.69,295,325.14a55.91,55.91,0,0,0,7.18,9.11c8.11,8.27,15.83,17,24.2,25l-3.05.62c10.12-22.37,45.57-36.74,67.82-43.94l-1.22,2.52A156.66,156.66,0,0,0,369,281.94c-8.5-11.29-18.72-21.06-29.32-30.35a183.55,183.55,0,0,0-22.31-17.47" transform="translate(-0.35)" style="fill:#3f1f1c"/><path id="Trazado_1803" data-name="Trazado 1803" d="M387.33,301s-59.51,15.54-69.49,50.14l8.55,11.38s27.28-37.81,70.08-41.46c0,0-5.08-15-9.14-20.05" transform="translate(-0.35)" style="fill:#c78b39"/><path id="Trazado_1804" data-name="Trazado 1804" d="M387.33,301s-59.51,15.54-69.49,50.14l8.55,11.38s27.28-37.81,70.08-41.46C396.47,321.05,391.39,306,387.33,301Z" transform="translate(-0.35)" style="fill:none;stroke:#3f1f1c;stroke-miterlimit:10;stroke-width:3.2260000705718994px"/><g id="Grupo_400" data-name="Grupo 400"><g id="Grupo_399" data-name="Grupo 399"><g style="clip-path:url(#clip-path-7)"><g id="Grupo_398" data-name="Grupo 398"><path id="Trazado_1805" data-name="Trazado 1805" d="M339.71,345.93s-7.43-10.63-8.52-13.9c0,0-7.61,8.83-11.62,19.26l6.81,8.81s9.95-11.84,13.34-14.17" transform="translate(-0.35)" style="fill:#cca471"/></g></g></g></g><path id="Trazado_1806" data-name="Trazado 1806" d="M412.2,383s-7.94-13-19.41-15.84l-.6,5.76s1.65-5.35,20,10.08" transform="translate(-0.35)" style="fill:#f9d772"/><path id="Trazado_1807" data-name="Trazado 1807" d="M250.34,480.24c-24.16,6.08-58.34,7.71-81-3.72,26.53,6.65,53.93,4.61,81,3.72" transform="translate(-0.35)" style="fill:#3f2836"/><path id="Trazado_1808" data-name="Trazado 1808" d="M225.87,239.83C199.15,236,170,236,153.41,253.39S146.29,295,146.29,295s11.45-6.87,22.08-7.39,15.2,20.8,15.2,20.8l14.09,3.8L214.51,317l20.64-3.34s10.91-16.09,21.52-15.19S283.12,315,283.12,315s11-12.37,14.19-32.84-19.9-35.05-71.44-42.35" transform="translate(-0.35)" style="fill:#c78b39"/><path id="Trazado_1809" data-name="Trazado 1809" d="M225.87,239.83C199.15,236,170,236,153.41,253.39S146.29,295,146.29,295s11.45-6.87,22.08-7.39,15.2,20.8,15.2,20.8l14.09,3.8L214.51,317l20.64-3.34s10.91-16.09,21.52-15.19S283.12,315,283.12,315s11-12.37,14.19-32.84S277.41,247.13,225.87,239.83Z" transform="translate(-0.35)" style="fill:none;stroke:#3f1f1c;stroke-miterlimit:10;stroke-width:3.2260000705718994px"/><path id="Trazado_1810" data-name="Trazado 1810" d="M199.24,118.69s-16.26-7.08-17.07-12,.44-12.36,8.52-18.65,18.13-8.56,19.56-6,3.41,21.07,5.8,24.46a112,112,0,0,0-16.81,12.16" transform="translate(-0.35)" style="fill:#faad3f"/><path id="Trazado_1811" data-name="Trazado 1811" d="M199.24,118.69s-16.26-7.08-17.07-12,.44-12.36,8.52-18.65,18.13-8.56,19.56-6,3.41,21.07,5.8,24.46A112,112,0,0,0,199.24,118.69Z" transform="translate(-0.35)" style="fill:none;stroke:#dc6628;stroke-miterlimit:10;stroke-width:2.0329999923706055px"/><path id="Trazado_1812" data-name="Trazado 1812" d="M205.46,98.74c-.58-3.86-3.68-10.08-11.07-3.71s-7.92,10.79-6.06,12.73,14.92,6.57,14.92,6.57l6-3.77Z" transform="translate(-0.35)" style="fill:#ef8226"/><path id="Trazado_1813" data-name="Trazado 1813" d="M210.62,111.06c-3.38-4.86-5.09-11.1-7.82-16.14-1.64-2.87-3.8-1.83-6.06-.3s-4.65,3.53-7.13,5.36a21.37,21.37,0,0,1,5.81-7.2c6-4.63,9.25-.57,11,5.41,1.36,4.33,2.58,8.62,4.25,12.87" transform="translate(-0.35)" style="fill:#dc6628"/><path id="Trazado_1814" data-name="Trazado 1814" d="M332.93,138.47c22.44,31.73,33.61,43,45.27,46.76,0,0-9.16,3-20.21-3.17,0,0,15.08,15.72,16.38,38.59s-12.06,40-12.06,40,3.71-24.28-3.26-33.46c0,0-3.86,29.67-24.93,50.72-20.9,20.88-36.22,31.8-119,22.11s-92-71.36-87.2-97.9,18-28.59,30.77-44.63,23.27-29.16,23.27-29.16-9.46.93-20.47,9.16c0,0,6.41-12.38,23.17-20.57,17.38-8.48,24-12.77,31.38-18.26,10-7.49,20.42-17.27,50.47-13.75,43.29,5.06,55.16,37.56,66.45,53.52" transform="translate(-0.35)" style="fill:#563317"/><path id="Trazado_1815" data-name="Trazado 1815" d="M332.93,138.47c22.44,31.73,33.61,43,45.27,46.76,0,0-9.16,3-20.21-3.17,0,0,15.08,15.72,16.38,38.59s-12.06,40-12.06,40,3.71-24.28-3.26-33.46c0,0-3.86,29.67-24.93,50.72-20.9,20.88-36.22,31.8-119,22.11s-92-71.36-87.2-97.9,18-28.59,30.77-44.63,23.27-29.16,23.27-29.16-9.46.93-20.47,9.16c0,0,6.41-12.38,23.17-20.57,17.38-8.48,24-12.77,31.38-18.26,10-7.49,20.42-17.27,50.47-13.75C309.77,90,321.63,122.51,332.93,138.47Z" transform="translate(-0.35)" style="fill:none;stroke:#3f1f1c;stroke-miterlimit:10;stroke-width:2.4000000953674316px"/><path id="Trazado_1816" data-name="Trazado 1816" d="M213.62,105.44s-20.28,17.09-27,20.45L199.3,127s-8.2,9-25.45,33.88-29.21,33.85-29.21,33.85,8.64.7,16.28-7.1c0,0-15.14,15.1-17.64,43,0,0,4.85-9,8.28-13.11,0,0-1.37,25.52,9.77,37.59,0,0-.87-13.77,1.68-17.61a59.44,59.44,0,0,0,22.08,32.81c18.13,13.3,24,20.2,24,20.2s36-6.55,48.8-11.68,15.1-21,15.1-21,4.18,7.12,3.13,19.42c0,0,26.13-1.08,36.55-18.08s9.85-40.26,9.85-40.26,3.5,5.79,1.12,18.76c0,0,11.27-20.62,8.19-40.45S316,160.91,313,151.44a25.19,25.19,0,0,0,11.87,5.95s-9.68-10.25-12.43-18.85c-1.63-5.11-8.46-23.67-20.74-33.49-8.4-6.71-19.13-7.27-33.41-4.73,0,0-11.26-7.54-20.19-6.51s-16.65,5.92-24.46,11.63" transform="translate(-0.35)" style="fill:#40220d"/><path id="Trazado_1817" data-name="Trazado 1817" d="M210.89,108.13c-5.51,10.89-11.23,21.67-17,32.42-12,8.34-20.4,21.18-25.71,34.58l-2.37-1.58c6.42-5.72,12.55-11.62,19.66-16.55l9.42-6.05-7.49,8.38a122.5,122.5,0,0,0-24.09,44.73,104.27,104.27,0,0,0-2,51,97.31,97.31,0,0,1-.28-51.58,117.3,117.3,0,0,1,24.09-46.19l1.93,2.32c-1.64,1.08-3.32,2.39-4.95,3.7-6.41,5.2-12.78,11-18.91,16.57l2.18-5.71c5.15-13.3,15.9-28.4,26.78-34.81,6.12-10.47,12.32-20.89,18.72-31.2" transform="translate(-0.35)" style="fill:#3f1f1c"/></g></g></g><g id="Grupo_404" data-name="Grupo 404"><g style="clip-path:url(#clip-path-8)"><g id="Grupo_403" data-name="Grupo 403"><rect id="Rectángulo_914" data-name="Rectángulo 914" x="214.92" y="-10.2" width="113.52" height="138.85" transform="matrix(0.02, -1, 1, 0.02, 207.22, 329.79)" style="fill:url(#Degradado_sin_nombre_2)"/></g></g></g><g id="Grupo_415" data-name="Grupo 415"><g style="clip-path:url(#clip-path)"><g id="Grupo_414" data-name="Grupo 414"><path id="Trazado_1819" data-name="Trazado 1819" d="M212.44,59.66l-8.57-34.22a3.12,3.12,0,0,1,4.29-3.58l15.72,6.76a4.26,4.26,0,0,1,2.49,4.93c-1.89,7.76-4.3,26.1,14.7,27.6,20.77,1.64,19.53-19.83,14.52-28.9a5.51,5.51,0,0,1,.6-6.33L274.78,4.65a2.75,2.75,0,0,1,3.89-.25,2.68,2.68,0,0,1,.78,1.12l9.43,26.08a5.45,5.45,0,0,1-.95,5.33C280.14,46.32,273.3,64.34,289.7,70c18.9,6.5,24.89-8.25,24.3-21.05a4,4,0,0,1,3.34-4.15l18.09-3.37a3.1,3.1,0,0,1,3.65,2.42,3.14,3.14,0,0,1-.39,2.22L318.93,78.4l-12.69,36.36L212.68,96Z" transform="translate(-0.35)" style="fill:none;stroke:#a25f1a;stroke-miterlimit:10;stroke-width:2.9809999465942383px"/><g id="Grupo_407" data-name="Grupo 407" style="opacity:0.30000001192092896"><g id="Grupo_406" data-name="Grupo 406"><g style="clip-path:url(#clip-path-10)"><g id="Grupo_405" data-name="Grupo 405"><path id="Trazado_1820" data-name="Trazado 1820" d="M262,28.9s12.17-18.12,14.45-17.31,8,21.92,8,21.92-8.16,7.49-9.87,17.78,3.9,16.5,3.9,16.5-9.2-6.86-6.88-20.76a23.89,23.89,0,0,1,8.67-15.12l-5.47-14.24A66.53,66.53,0,0,0,262,28.9" transform="translate(-0.35)" style="fill:#fff"/></g></g></g></g><g id="Grupo_410" data-name="Grupo 410" style="opacity:0.30000001192092896"><g id="Grupo_409" data-name="Grupo 409"><g style="clip-path:url(#clip-path-11)"><g id="Grupo_408" data-name="Grupo 408"><path id="Trazado_1821" data-name="Trazado 1821" d="M319,49.79l10.27-2.45a1.38,1.38,0,0,1,1.65,1,1.4,1.4,0,0,1-.15,1c-4,6.66-13.88,23.33-16.09,27.85-2.77,5.68-8,22.39-8,22.39s2.27-20.21,5.4-24.35,13.42-23.45,13.42-23.45Z" transform="translate(-0.35)" style="fill:#fff"/></g></g></g></g><g id="Grupo_413" data-name="Grupo 413" style="opacity:0.30000001192092896"><g id="Grupo_412" data-name="Grupo 412"><g style="clip-path:url(#clip-path-12)"><g id="Grupo_411" data-name="Grupo 411"><path id="Trazado_1822" data-name="Trazado 1822" d="M209,28.32l12.9,5.2s-5.66,17.47,4.5,26.06c0,0-11.75-5.18-8-23.83Z" transform="translate(-0.35)" style="fill:#fff"/></g></g></g></g><path id="Trazado_1823" data-name="Trazado 1823" d="M296.94,110.18s18.81-14.41,23-15.27,10.68-.45,16.87,13.82,3.65,21.08-1.25,21.86-33.28,3-33.28,3Z" transform="translate(-0.35)" style="fill:#faad3f"/><path id="Trazado_1824" data-name="Trazado 1824" d="M296.94,110.18s18.81-14.41,23-15.27,10.68-.45,16.87,13.82,3.65,21.08-1.25,21.86-33.28,3-33.28,3Z" transform="translate(-0.35)" style="fill:none;stroke:#dc6628;stroke-miterlimit:10;stroke-width:2.0329999923706055px"/><path id="Trazado_1825" data-name="Trazado 1825" d="M332.49,117.49c-2.58-6.27-7.58-17.62-15.21-14.63s-18.56,13.37-18.56,13.37L301.85,128s23.22.9,27.75-1.56,2.89-8.93,2.89-8.93" transform="translate(-0.35)" style="fill:#ef8226"/><path id="Trazado_1826" data-name="Trazado 1826" d="M174.26,247.62s-6.5,5.21-4.36,15.76c-3.29,6.77-8.52,14.75-8.68,21.38a24,24,0,0,1,8.29-2.94s-.17,18,11.73,28c0,0,.14-7.82,3.83-12.09,0,0,4.3,20.48,24.48,27.55,0,0,10.71-19.9,25.29-25.64s34.65-14,44.34-48.48c0,0,1.5,20.15-.74,28.9,0,0,14.95-22.15,13.59-50.51s-3.67-35.69-3.67-35.69l-67.93-6s-15.21,27.6-26.13,39.25-11.38,7.79-20,20.48" transform="translate(-0.35)" style="fill:#fff"/><path id="Trazado_1827" data-name="Trazado 1827" d="M174.26,247.62s-6.5,5.21-4.36,15.76c-3.29,6.77-8.52,14.75-8.68,21.38a24,24,0,0,1,8.29-2.94s-.17,18,11.73,28c0,0,.14-7.82,3.83-12.09,0,0,4.3,20.48,24.48,27.55,0,0,10.71-19.9,25.29-25.64s34.65-14,44.34-48.48c0,0,1.5,20.15-.74,28.9,0,0,14.95-22.15,13.59-50.51s-3.67-35.69-3.67-35.69l-67.93-6s-15.21,27.6-26.13,39.25S182.93,234.92,174.26,247.62Z" transform="translate(-0.35)" style="fill:none;stroke:#3f1f1c;stroke-miterlimit:10;stroke-width:1.9869999885559082px"/><path id="Trazado_1828" data-name="Trazado 1828" d="M196.92,225.59s-11.38,13.48-15.64,19.88-1.52,9.81,15.65,12.17,25.92,5.1,35.4-4.13,22.21-33.92,22.21-33.92Z" transform="translate(-0.35)" style="fill:#ca2e23"/><path id="Trazado_1829" data-name="Trazado 1829" d="M204.65,248.55A35,35,0,0,1,208.57,236c.67-1.33,1.43-2.61,2.21-3.9a1.74,1.74,0,1,1,3,1.83,1.89,1.89,0,0,1-.2.27c-3.86,4.12-7.27,8.9-8.9,14.37" transform="translate(-0.35)" style="fill:#3f1f1c"/><path id="Trazado_1830" data-name="Trazado 1830" d="M207.11,151.43s-2.7-21.57-4.08-23.55,11.2-24,29.92-23.22,48.66,8.86,58.84,6.89c0,0-.23,16.8.31,44.92,0,0-1.58,25.06-5,33.07s-41.6,33.74-48.75,37.11C235.55,228,226.55,233.4,222,232c-7.6-2.39-12.37-.78-19.12-3.62-3.34-1.41-6-8.62-6-8.62s-4.06,2.25-7.07,3.65-5.84,3.17-12.43-1.11-15.52-6.53-12.84-15.17c3.47-11.16,7-28.64,11.74-35.79s6.24-7.69,30.79-19.89" transform="translate(-0.35)" style="fill:#faad3f"/><path id="Trazado_1831" data-name="Trazado 1831" d="M207.11,151.43s-2.7-21.57-4.08-23.55,11.2-24,29.92-23.22,48.66,8.86,58.84,6.89c0,0-.23,16.8.31,44.92,0,0-1.58,25.06-5,33.07s-41.6,33.74-48.75,37.11C235.55,228,226.55,233.4,222,232c-7.6-2.39-12.37-.78-19.12-3.62-3.34-1.41-6-8.62-6-8.62s-4.06,2.25-7.07,3.65-5.84,3.17-12.43-1.11-15.52-6.53-12.84-15.17c3.47-11.16,7-28.64,11.74-35.79S182.57,163.63,207.11,151.43Z" transform="translate(-0.35)" style="fill:none;stroke:#dc6628;stroke-miterlimit:10;stroke-width:2.0329999923706055px"/><path id="Trazado_1832" data-name="Trazado 1832" d="M226.25,107s22.06,5.36,33.1,7.85S283.3,121,283.3,121s-1.35,53.84-1.75,55,10.75-3.25,10.75-3.25l-.88-61.42s-60.52-7.69-65.17-4.33" transform="translate(-0.35)" style="fill:#ef8226"/><path id="Trazado_1833" data-name="Trazado 1833" d="M246.89,224s-3.24,12.3-8,15.35c0,0-.74-9.33-2.67-10.74Z" transform="translate(-0.35)" style="fill:#fff"/><path id="Trazado_1834" data-name="Trazado 1834" d="M246.89,224s-3.24,12.3-8,15.35c0,0-.74-9.33-2.67-10.74Z" transform="translate(-0.35)" style="fill:none;stroke:#3f1f1c;stroke-linecap:round;stroke-linejoin:round;stroke-width:2.1579999923706055px"/><path id="Trazado_1835" data-name="Trazado 1835" d="M177.66,224s3.51,12.13,8.36,15.05c0,0,.51-9.28,2.39-10.72Z" transform="translate(-0.35)" style="fill:#fff"/><path id="Trazado_1836" data-name="Trazado 1836" d="M177.66,224s3.51,12.13,8.36,15.05c0,0,.51-9.28,2.39-10.72Z" transform="translate(-0.35)" style="fill:none;stroke:#3f1f1c;stroke-linecap:round;stroke-linejoin:round;stroke-width:2.1410000324249268px"/><path id="Trazado_1837" data-name="Trazado 1837" d="M176.32,171.31s-2.23,2-5.46,11.09-5.75,21.67-7.11,26.64c-1.14,4.17.64,9.57,8,13.6s13.85,11.54,24.11,2.15c0,0,1.19,6.79,7.79,8.27s24.11,2.1,33.05-1.44c4.11-1.63,48-29.88,53.81-45.4l-.18-13.39S251.67,185,239.41,183.21s-63.09-11.9-63.09-11.9" transform="translate(-0.35)" style="fill:#fff"/><path id="Trazado_1838" data-name="Trazado 1838" d="M176.32,171.31s-2.23,2-5.46,11.09-5.75,21.67-7.11,26.64c-1.14,4.17.64,9.57,8,13.6s13.85,11.54,24.11,2.15c0,0,1.19,6.79,7.79,8.27s24.11,2.1,33.05-1.44c4.11-1.63,48-29.88,53.81-45.4l-.18-13.39S251.67,185,239.41,183.21,176.32,171.31,176.32,171.31Z" transform="translate(-0.35)" style="fill:none;stroke:#3f1f1c;stroke-miterlimit:10;stroke-width:1.9869999885559082px"/><path id="Trazado_1839" data-name="Trazado 1839" d="M208.07,228.68s18.5,4.48,28.1,0,39-28,49.41-39.86c0,0-37.62,30.92-49.27,35.32s-28.24,4.57-28.24,4.57" transform="translate(-0.35)" style="fill:#c3cfd7"/><path id="Trazado_1840" data-name="Trazado 1840" d="M186.17,224.94s-11.65-4.62-15.4-7.37-4.08-8.79-1.38-20.85c0,0-1.26,13.26,4.09,17.81,5.87,5,12.7,10.41,12.7,10.41" transform="translate(-0.35)" style="fill:#c3cfd7"/><path id="Trazado_1841" data-name="Trazado 1841" d="M207.11,151.43s13.63-3,22.83-2" transform="translate(-0.35)" style="fill:#faad3f"/><path id="Trazado_1842" data-name="Trazado 1842" d="M206.86,150.27c7.64-1.11,15.42-1.91,23.08-.8a55.92,55.92,0,0,0-11.41.76,109,109,0,0,0-11.16,2.35Z" transform="translate(-0.35)" style="fill:#dc6628"/><path id="Trazado_1843" data-name="Trazado 1843" d="M284.49,279.12a132,132,0,0,0,6.18-19.8c5.56-24.36,2.69-42.84,2.61-42.41-2.45,13-9.88,15.2-9.88,15.2s4.6-12.28,6.1-43.51.91-75.08.91-75.08c-6.44,1.46-25.57-3.43-40-6.45s-28-1.51-35.79-5.7c0,0-10-4.36-9.67-17.07,0,0,6.82,4.27,10.62,6.32s10.6,2.84,10.6,2.84c-16.53-10.31-1.91-28.83-1.91-28.83S226,81,235.62,88.53c0,0-6.13-23.68,6.67-36.13,0,0,1.75,15.75,15,22.88,0,0-7.47-15.22-.3-27.93,0,0-.2,21.9,15.05,32.85,7.57,5.44,19.44,9.59,27.61,20.53,3.76,5,.58,24.12,3.85,41.75s16.82,39.11,18.94,51.31c0,0-5.66-5.09-9.76-8.22,0,0,10,17.53,4.84,45.68a108.09,108.09,0,0,1-10.49,29.81,112.74,112.74,0,0,1-12.41,19.26" transform="translate(-0.35)" style="fill:#563317"/><path id="Trazado_1844" data-name="Trazado 1844" d="M284.5,279.12c3.18-13.27,7-26.4,7.83-40.08a105.24,105.24,0,0,0-.4-21.73v0a1,1,0,0,0,.11.25c.86,0-1.57.78,2.38.15.5-1.16.13-.31.25-.56v0l0,.16c-1.27,6.42-4.35,13.5-10.81,16.12l-2.73.91a91,91,0,0,0,4.12-17c2.33-14.66,2.92-29.47,3.3-44.32.48-19.82.49-39.68.27-59.5l2,1.58c-6.74,1-13.22-.81-19.77-1.92-6.33-1.26-12.6-2.7-18.86-4a124.63,124.63,0,0,0-18.85-2.52c-7.46-.66-15.84-.82-21.92-5.19-6.82-4.93-8.78-12.3-8.12-20.34,4.53,2.79,9.12,5.78,13.78,8.22a36,36,0,0,0,9.36,2.33L225.24,95c-5.21-3-9.12-9-8.71-15.2.28-7.57,4.43-14,9-19.78,1,9.67,3.39,20.63,11.22,27.12L233.89,89a57.07,57.07,0,0,1-1.13-19.71c.81-6.65,3.38-13.4,8.28-18.17l2.54-2.54a42.21,42.21,0,0,0,2.17,10.06c2.27,6.26,6.5,11.92,12.42,15.07l-2.46,2.38c-4.1-9.28-5.34-20.48-.25-29.61l3.26-5.88c0,5.42,0,11.52,1.41,16.81,2.18,10,7.76,19,16.94,23.92,8.65,5,18.52,10.35,24.41,19,2,4,1.73,8.3,1.94,12.48.18,10.55-.09,21,2.11,31.24s6.84,19.69,11.07,29.3c3.55,7.9,7.06,15.8,8.21,24.57l-3.36-3c-3.15-2.8-6.37-5.6-9.66-8.16l2.25-2c14.37,31.92,1.61,69.61-19.38,95.5,18.72-24.59,29.82-58.3,19.18-88.45-1.15-3.54-4.27-8.77-6.07-12,5.12,3.88,11,8.53,15.74,12.81L321,194.06c-1.34-6.67-4.5-13.1-7.24-19.39-5.8-12.85-12-26.2-12.95-40.53-.65-7.12-.57-14.24-.72-21.22-.19-3.6,0-7.63-1.52-10.85-14.79-19.46-35-14.33-41.9-43.85a51.89,51.89,0,0,1-1.39-10.89l3.37.9c-5.54,9.9-2.26,21.79,2.63,31.25l-4.76-2.61c-9-4.82-14.46-14.37-16-24.27l3,1.09c-4.33,4.24-6.49,10.09-7.23,16-1.06,7.75.24,15.9,2.23,23.39l-4-3.18c-7.5-6.14-10.64-15.84-12-25.12l3.19.92c-4.2,5.78-7.85,14.35-3.83,21.07,2.05,3.85,8.53,7,12.08,9.45C228.84,95.61,221.85,95,217,93.2c-4.65-1.9-8.76-4.86-13-7.38l2.74-1.47c-.28,10.64,7.19,16.92,17.35,17.92,9.52,1.22,19.31,1.29,28.76,3.58,6.3,1.36,12.55,2.82,18.81,4.08,6,1,12.36,2.75,18.39,2l2-.42,0,2c.07,29.83.39,59.68-2.06,89.46-1.05,10-2.19,20-5.24,29.66l-1.78-1.9c5.37-2.42,7.78-8.57,8.89-14,.14-.38-.26.59.27-.64,3.95-.64,1.52.22,2.4.17a1.48,1.48,0,0,1,.12.29l0,.06,0,.1.08.4c2.16,19-.63,45.41-10.29,62" transform="translate(-0.35)" style="fill:#3f1f1c"/><path id="Trazado_1845" data-name="Trazado 1845" d="M291.79,111.55s-.59,36.1-.94,53-.17,50.5-6.11,65.13c0,0,5-1.67,8.88-13.1,0,0,6,21.88-4.28,51.74,0,0,15.51-13.92,12-57.82s-9.5-99-9.5-99" transform="translate(-0.35)" style="fill:#40220d"/><path id="Trazado_1846" data-name="Trazado 1846" d="M191.57,226.72S184.66,236.82,180,243s-7.38,11.1-1.66,13.88,23.22,5.53,36.39,5.67,14.59-.2,21.71-8.72c8.32-9.94,15-18.3,21.4-35.85l-6.16,3.86s-8.54,19-19.59,29.72c-4.84,4.71-6.77,5.89-15.68,5.91s-27.89-2.21-31.5-4.75-3.77-4.31.06-9.49S196.76,228,196.76,228l-1-4.65Z" transform="translate(-0.35)" style="fill:#3f1f1c"/><path id="Trazado_1847" data-name="Trazado 1847" d="M177.81,207.69a1.24,1.24,0,1,0-1.39,1.07h0a1.22,1.22,0,0,0,1.38-1v0" transform="translate(-0.35)" style="fill:#20120d"/><path id="Trazado_1848" data-name="Trazado 1848" d="M220.79,222.82a1.24,1.24,0,1,0-1.39,1.07h0a1.23,1.23,0,0,0,1.38-1.06h0" transform="translate(-0.35)" style="fill:#20120d"/><path id="Trazado_1849" data-name="Trazado 1849" d="M224.67,215.13a1.24,1.24,0,1,0-1.39,1.07h0a1.23,1.23,0,0,0,1.38-1.06h0" transform="translate(-0.35)" style="fill:#20120d"/><path id="Trazado_1850" data-name="Trazado 1850" d="M222,204.73a1.24,1.24,0,1,0-1.39,1.07h0a1.24,1.24,0,0,0,1.38-1.06h0" transform="translate(-0.35)" style="fill:#20120d"/><path id="Trazado_1851" data-name="Trazado 1851" d="M219.64,212.38a1.24,1.24,0,1,0-1.39,1.07h0a1.23,1.23,0,0,0,1.37-1.06h0" transform="translate(-0.35)" style="fill:#20120d"/><path id="Trazado_1852" data-name="Trazado 1852" d="M178.44,216.69a1.23,1.23,0,0,0-1.06-1.39,1.24,1.24,0,1,0-.32,2.46h0a1.21,1.21,0,0,0,1.37-1.06h0" transform="translate(-0.35)" style="fill:#20120d"/><path id="Trazado_1853" data-name="Trazado 1853" d="M186.13,205.57a1.23,1.23,0,1,0-1.38,1.07h0a1.22,1.22,0,0,0,1.37-1v0" transform="translate(-0.35)" style="fill:#20120d"/><path id="Trazado_1854" data-name="Trazado 1854" d="M181.28,197.31a1.24,1.24,0,1,0-1.39,1.07h0a1.24,1.24,0,0,0,1.38-1.06v0" transform="translate(-0.35)" style="fill:#20120d"/><path id="Trazado_1855" data-name="Trazado 1855" d="M227,141.08c-.4,3.37-2.83,5.87-5.43,5.56s-4.36-3.28-4-6.66,2.83-5.87,5.43-5.56,4.36,3.28,4,6.66" transform="translate(-0.35)" style="fill:#3f1f1c"/><path id="Trazado_1856" data-name="Trazado 1856" d="M226.33,139c-.16,1.31-1.1,2.27-2.1,2.16a2.16,2.16,0,0,1-1.54-2.58c.16-1.31,1.1-2.27,2.1-2.16a2.17,2.17,0,0,1,1.54,2.58" transform="translate(-0.35)" style="fill:#fdfcfc"/><path id="Trazado_1857" data-name="Trazado 1857" d="M262.61,145.25c-.4,3.38-2.83,5.87-5.42,5.56s-4.37-3.28-4-6.66,2.84-5.87,5.43-5.56,4.37,3.28,4,6.66" transform="translate(-0.35)" style="fill:#3f1f1c"/><path id="Trazado_1858" data-name="Trazado 1858" d="M261.57,143.13c-.16,1.31-1.1,2.27-2.1,2.15a2.15,2.15,0,0,1-1.54-2.58c.16-1.3,1.1-2.27,2.1-2.15a2.15,2.15,0,0,1,1.54,2.58" transform="translate(-0.35)" style="fill:#fdfcfc"/><path id="Trazado_1859" data-name="Trazado 1859" d="M206.27,135.33s4.25-8.81,11.28-9.54c4.5-.47,9.73,1.06,12.9,2.22a2.26,2.26,0,0,0,3-1,2,2,0,0,0,.19-.58l.81-8.69a2.59,2.59,0,0,0-2-2.58c-3.5-1-10.34-2.56-14.24-1.4-5.4,1.61-11.43,14.33-12.52,18.59s.57,3,.57,3" transform="translate(-0.35)" style="fill:#3f1f1c"/><path id="Trazado_1860" data-name="Trazado 1860" d="M243.72,116.4a1.23,1.23,0,0,1,1.25-1.16c4.47.07,21.07.53,26.36,3.4a15.62,15.62,0,0,1,8.54,13.24c.42,4.88.29,11.08-.6,11.9s-1.11-2.34-3.53-7.07-6.72-6.79-14.1-7.92c-5.57-.85-13.83,0-17.54.51a1.61,1.61,0,0,1-1.69-1.52,2.81,2.81,0,0,1,0-.29Z" transform="translate(-0.35)" style="fill:#3f1f1c"/><path id="Trazado_1861" data-name="Trazado 1861" d="M181.37,181.94s-6.63-5.19-5.32-11.43c.94-4.48,7.74-5.57,24.36-5.54,15.6,0,43.44,7.68,42.51,13.77s-12.58,10.33-12.58,10.33c-3.2,1.43-10,.43-7-2.62s-3.28-4.78-6.68-5.18-3.93,1.67-5,5.29c-1.17,4-1.66,7.19-2.55,9.4-1.54,3.8-3.7,4.79-7.06,2.39-4.1,2.12-7-.62-7.24-3.85-.29-3.66-.6-9.3.1-12.57.65-3-2.55-4.48-5.61-3.86-1.87.38-3.91.54-3.05,3.44,1.1,3.66-3.1,2.24-4.91.43" transform="translate(-0.35)" style="fill:#3f1f1c"/><path id="Trazado_1862" data-name="Trazado 1862" d="M225.65,202.94s33.3-6.61,51.3-8.29" transform="translate(-0.35)" style="fill:none;stroke:#3f1f1c;stroke-miterlimit:10;stroke-width:0.9940000176429749px"/><path id="Trazado_1863" data-name="Trazado 1863" d="M225.44,211.51s42,.41,56.15,2.47" transform="translate(-0.35)" style="fill:none;stroke:#3f1f1c;stroke-miterlimit:10;stroke-width:0.9940000176429749px"/><path id="Trazado_1864" data-name="Trazado 1864" d="M226.32,219.41s33.47,4.12,49.31,10.57" transform="translate(-0.35)" style="fill:none;stroke:#3f1f1c;stroke-miterlimit:10;stroke-width:0.9940000176429749px"/><path id="Trazado_1865" data-name="Trazado 1865" d="M308,109.05c2.89-3.08,8.86-9.07,13.53-7.64a12.32,12.32,0,0,1,3.59,2.56,37.15,37.15,0,0,1,7.43,10.88c1.43,3.1,2,6.93.34,10.09-1.86,3.24-6.21,3-9.29,2.48,2.93-.2,6.62-.27,8-3.16,1.08-2.75.32-5.92-1-8.49-2.37-4.43-5.27-9.06-9.27-12.15-3.17-2.11-10.43,3.65-13.31,5.44" transform="translate(-0.35)" style="fill:#dc6628"/><path id="Trazado_1866" data-name="Trazado 1866" d="M225.63,267.54s-26.74,1.43-43-5" transform="translate(-0.35)" style="fill:#3f1f1c"/><path id="Trazado_1867" data-name="Trazado 1867" d="M225.63,267.54a98,98,0,0,1-21.85.34c-7.24-.74-14.61-2.1-21.17-5.38,13.82,3.73,28.78,4.16,43,5" transform="translate(-0.35)" style="fill:#3f1f1c"/><path id="Trazado_1868" data-name="Trazado 1868" d="M174.15,282.38s1.36,14.06,5,18.62a39.21,39.21,0,0,1,8.4-12.92s.85,21.52,19.31,32.7c0,0,6.19-13.56,17.63-20.11s20-7.81,24.43-13.3c0,0-13.52,4.81-25,8.72-9,3.08-18.84,14.33-18.84,14.33s-15-11.9-13.66-29a29.45,29.45,0,0,0-12.34,11,18.5,18.5,0,0,1-4.9-10" transform="translate(-0.35)" style="fill:#c3cfd7"/><path id="Trazado_1869" data-name="Trazado 1869" d="M369.44,233.43c.48-27.07-13.47-50.34-35.05-66,23.35,12.35,39.2,39.37,35.05,66" transform="translate(-0.35)" style="fill:#906331"/><path id="Trazado_1870" data-name="Trazado 1870" d="M364.14,217.34c-4.8-11.78-11.09-23.57-22.43-30.15,13,3.61,20.84,17.41,22.43,30.15" transform="translate(-0.35)" style="fill:#906331"/><path id="Trazado_1871" data-name="Trazado 1871" d="M175.84,126.7c4.4-4.87,11.13-7.14,17.24-9a60.57,60.57,0,0,0,16.69-9.23,34.87,34.87,0,0,1-15.94,11.4c-6.16,1.91-12.37,3.54-18,6.86" transform="translate(-0.35)" style="fill:#906331"/><path id="Trazado_1872" data-name="Trazado 1872" d="M231.11,102.94S213,100.4,212,94.49c0,0,19.37,6.41,26.33,4.32,0,0-17-8.62-17.93-14.94,0,0,17.88,15.35,33.48,14.69,0,0-12.63-3.14-12.48-18.44,0,0,1.12,4.69,4.65,6.76,0,0-2.53-6.92-2.87-11.1,0,0,1.6,7.64,11.5,12.53s26.16,16.3,26.16,16.3S279,99,273.05,92.52c0,0,19.93,10.58,18.37,18.76,0,0-6.57,3.22-31.08-3.68-10.54-3-29.22-4.66-29.22-4.66" transform="translate(-0.35)" style="fill:#40220d"/><path id="Trazado_1873" data-name="Trazado 1873" d="M223.1,81.17a53.19,53.19,0,0,0,15.25,16.22c2.05,1.51,4.24,2.72,6.39,4.13-10.1-2-19.46-10.09-21.64-20.35" transform="translate(-0.35)" style="fill:#906331"/><path id="Trazado_1874" data-name="Trazado 1874" d="M217.49,95.53c4.58,1,9.16,2.14,13.63,3.1,1.52.36,3,.65,4.63,1.13a19.12,19.12,0,0,1-9.65.11,18.37,18.37,0,0,1-8.61-4.34" transform="translate(-0.35)" style="fill:#906331"/><path id="Trazado_1875" data-name="Trazado 1875" d="M241.82,64.12c-.83,1.65-.78,3.66-1,5.47a44.91,44.91,0,0,0,1.68,16.34,24.33,24.33,0,0,0,14.26,15.6c-12.6-2-18.7-14.58-17.81-26.4.34-3.68.66-7.94,2.86-11" transform="translate(-0.35)" style="fill:#906331"/><path id="Trazado_1876" data-name="Trazado 1876" d="M302.08,154.71c4.26,8.59,6.73,17.79,11.39,26.14-3.6-3.28-5.53-7.94-7.41-12.32a70,70,0,0,1-4-13.82" transform="translate(-0.35)" style="fill:#906331"/><path id="Trazado_1877" data-name="Trazado 1877" d="M301.2,159.15a158.76,158.76,0,0,0,5.25,17.43c2.06,5.76,5.59,10.89,7.21,16.82a63.11,63.11,0,0,1-.38,36.35q.84-4.49,1.23-9A71.54,71.54,0,0,0,312,193.89c-1.58-5.9-5.05-11-6.82-16.86a98.51,98.51,0,0,1-4-17.88" transform="translate(-0.35)" style="fill:#906331"/><path id="Trazado_1878" data-name="Trazado 1878" d="M178.48,140.59c-6.73,11.43-14.07,22.76-23.82,31.9-11.48,12.13-20.54,27.59-21.78,44.53-.84-19.35,10.35-37.39,24.26-50.05,7.83-8.15,14.49-17.36,21.34-26.38" transform="translate(-0.35)" style="fill:#906331"/><path id="Trazado_1879" data-name="Trazado 1879" d="M148.63,246.81a45.17,45.17,0,0,1,1.25-41.4,81.72,81.72,0,0,0-1.25,41.4" transform="translate(-0.35)" style="fill:#906331"/><path id="Trazado_1880" data-name="Trazado 1880" d="M177.29,199.06s-25.19-12.41-35.36-18.8" transform="translate(-0.35)" style="fill:none;stroke:#3f1f1c;stroke-miterlimit:10;stroke-width:0.9940000176429749px"/><path id="Trazado_1881" data-name="Trazado 1881" d="M169.05,205.29s-28.55-6.52-41.71-8.26" transform="translate(-0.35)" style="fill:none;stroke:#3f1f1c;stroke-miterlimit:10;stroke-width:0.9940000176429749px"/><path id="Trazado_1882" data-name="Trazado 1882" d="M171.19,214.54s-26.23-2.42-40.86-3.74" transform="translate(-0.35)" style="fill:none;stroke:#3f1f1c;stroke-miterlimit:10;stroke-width:0.9940000176429749px"/><path id="Trazado_1883" data-name="Trazado 1883" d="M195.13,225.16c0-8.4.24-16.94,2.76-25-1.95,8.12-1.67,16.63-1.07,24.88l-1.69.11" transform="translate(-0.35)" style="fill:#3f1f1c"/><path id="Trazado_1884" data-name="Trazado 1884" d="M246.29,73.33a57.08,57.08,0,0,0,14.86,19.74,81.52,81.52,0,0,0,21,11.84c.23,0,.7.18.62-.08.14.3-.49.21-.64.21a41.34,41.34,0,0,1-11.22-3.92,54.5,54.5,0,0,1-10.82-6.73,43.72,43.72,0,0,1-13.76-21.06" transform="translate(-0.35)" style="fill:#906331"/><path id="Trazado_1885" data-name="Trazado 1885" d="M306.3,191.33c7.68,17.45,7.8,38,2,56-.82,2.58-2,5.07-3,7.57.3-1.33.62-2.64,1-3.95a119.05,119.05,0,0,0,.07-59.61" transform="translate(-0.35)" style="fill:#906331"/><path id="Trazado_1886" data-name="Trazado 1886" d="M359,184.93A284.93,284.93,0,0,0,333,161.76q7.24,4.89,14.23,10.14c4.67,3.55,9.23,7.14,13.65,11l-1.95,2" transform="translate(-0.35)" style="fill:#3f1f1c"/><path id="Trazado_1887" data-name="Trazado 1887" d="M358.53,229.13c-1.46-5.47-5.49-10-9.86-13.51-.67-.51-1.36-1-2-1.49a33.36,33.36,0,0,1,11.9,9.57,19,19,0,0,1,2.69,4.72l-2.7.71" transform="translate(-0.35)" style="fill:#3f1f1c"/><path id="Trazado_1888" data-name="Trazado 1888" d="M337.16,203.29c3.21,23.6-1,53-21.37,68.13a44.53,44.53,0,0,1-9.36,5,53.15,53.15,0,0,0,8.67-5.89c18.78-16.43,22.17-43.6,22.06-67.24" transform="translate(-0.35)" style="fill:#906331"/><path id="Trazado_1889" data-name="Trazado 1889" d="M246.82,87.15c5.21,7.63,12.16,13.87,21.27,16-9.63.42-18.33-7.15-21.27-16" transform="translate(-0.35)" style="fill:#906331"/><path id="Trazado_1890" data-name="Trazado 1890" d="M185.44,169.32c14.32-4.16,30.44-1.34,43.68,5.08-1.85-.34-3.63-.82-5.44-1.21-12.54-2.83-25.35-4.65-38.24-3.87" transform="translate(-0.35)" style="fill:#6a4f4f"/><path id="Trazado_1891" data-name="Trazado 1891" d="M206.41,336.61a2.93,2.93,0,1,0-2.93,2.92h0a2.92,2.92,0,0,0,2.89-2.92" transform="translate(-0.35)" style="fill:#c78b39"/><path id="Trazado_1892" data-name="Trazado 1892" d="M206.41,336.61a2.93,2.93,0,1,0-2.93,2.92h0A2.92,2.92,0,0,0,206.41,336.61Z" transform="translate(-0.35)" style="fill:none;stroke:#3f1f1c;stroke-miterlimit:10;stroke-width:1.9869999885559082px"/><path id="Trazado_1893" data-name="Trazado 1893" d="M284.81,0,287,20.3h8.73l-7.07,5.14,2.7,8.3-7.06-5.13L271.75,43.86l8.17-18.42-7.07-5.14h8.74Z" transform="translate(-0.35)" style="fill:#fff"/><path id="Trazado_1894" data-name="Trazado 1894" d="M208.72,30.37l1.35,15.1,6.48.11-5.31,3.72,1.89,6.2L208,51.6l-9.5,11.15,6.31-13.56-5.18-3.9,6.48.11Z" transform="translate(-0.35)" style="fill:#fff"/><path id="Trazado_1895" data-name="Trazado 1895" d="M311.08,63.77l1.34,15.1,6.48.11-5.31,3.72,1.89,6.2L310.31,85l-9.5,11.15,6.3-13.57-5.17-3.9,6.48.12Z" transform="translate(-0.35)" style="fill:#fff"/><path id="Trazado_1896" data-name="Trazado 1896" d="M245.83,316.91l4.48,11.3a2.27,2.27,0,0,1-.64,2,4.3,4.3,0,0,0-1.65,2.26c-.32,1-.31,1.56-1,1.73s-1.49-.21-2.4-.07-1.46.95-1.93,3-2.4,10.88-2,17a20,20,0,0,0,5.93,13c2.3,2,8.56,6.27,8.56,6.27a3.75,3.75,0,0,0,3,.41c1.67-.48,10-2.53,13.75-6.09s5.4-6.19,6.33-9.7a121.43,121.43,0,0,0,2.14-16c.09-2.57-.92-3-2.29-3.35a2.08,2.08,0,0,1-1.75-2.11,17.24,17.24,0,0,0-.76-3.49c-.27-.66.33-1.73,1.33-3.2s5.86-7.54,5.86-7.54-9.34,2.52-11,3-2.52.18-3.09-1.5-3.68-8.7-3.68-8.7-5.38,6.72-6.06,7.78-1.42,1.23-2.8.32-10.24-6.39-10.24-6.39" transform="translate(-0.35)" style="fill:#fff"/><path id="Trazado_1897" data-name="Trazado 1897" d="M251,323.62c.32-.42.7-.3,1.49.21s2.75,1.57,2.75,1.57a8.78,8.78,0,0,0-.09,4c.51,1.52,2.27,2.16,4.07,1.62a3.24,3.24,0,0,0,2.16-3.66,6.57,6.57,0,0,0-1.23-2.55s3.4-4.48,3.87-5.07.73,0,1,.6,2,5.23,2,5.23a9.91,9.91,0,0,0-2.08,3.08,3,3,0,0,0,1.92,3.76l.07,0c1.68.7,3.72-.21,4.14-1.34a9.26,9.26,0,0,0,.38-2.72c.1-.71.45-.86,1.22-1.15s1.7-.36,2.66-.62,1.09.22.68.82-2.36,4.16-2.85,5.28-.36,1.14.16,1.68a2.07,2.07,0,0,1,.88,2.23,2.26,2.26,0,0,0,1.05,2.92c1.32.91,3.38,1.33,3,3.59a50.18,50.18,0,0,0-.74,6.23c-.17,2.62,0,4.76-.89,5s-2.75-1.58-3.84-1.86,0,.59.39,1a20.93,20.93,0,0,0,2.48,2.59c.77.58.58,1.47.27,2.29a20.13,20.13,0,0,1-2.85,5.28,11.57,11.57,0,0,1-2.33,2.51c-.52.46-1.15.24-2-1.07s-1.65-2.34-1.65-2.34a39.74,39.74,0,0,1,.86,4.21,1.65,1.65,0,0,1-1,1.64c-.76.29-7.49,2.59-8.38,2.86a2.28,2.28,0,0,1-2.42-.2c-1-.67-7.06-4.75-7.71-5.3s-.67-.88-.1-2.13,1.32-3.31,1.32-3.31-1.75,1.6-2.4,2-1.22.69-2-.41a15.13,15.13,0,0,1-2-5.22c-.63-2.61-.64-4.45-.25-4.86s4.88-3.28,4.88-3.28a25.51,25.51,0,0,1-4.15.87c-.85-.05-1.4-.85-.66-2.34a15.84,15.84,0,0,0,1.6-5.85c.1-2.1-.25-4.32.94-4.82s2.89-.85,3.61-1.28,1.05-2.82,2-3.61,1.28-.62.95-3a31.45,31.45,0,0,0-1.21-5.05" transform="translate(-0.35)" style="fill:#2a0922"/><path id="Trazado_1898" data-name="Trazado 1898" d="M252.8,339.67a20.84,20.84,0,0,0,2.29-1.77c.8-.79,2-.57,3.09-.07a25.91,25.91,0,0,0,4.23,1.73,11.27,11.27,0,0,1-2.89.79,7.64,7.64,0,0,0,3.82-.36c1.85-.74,3.38-1.07,4.42-.68s2.17,2.24,2.4,2.77-.26,1.16-1.21,1.18a13.51,13.51,0,0,0-4,.29,2.32,2.32,0,0,0-1.71,2.3c0,1,.53,1.86.26,2.37s-.6.37-2.69.07-2.47-.44-3-.51-.61-.24.07-1.58.5-3.26-.45-3.89-3.81-1.18-4.42-1.46-.6-.68-.23-1.18" transform="translate(-0.35)" style="fill:#fff"/><path id="Trazado_1899" data-name="Trazado 1899" d="M251.65,343.33a17.37,17.37,0,0,1,3.83,1.73,2,2,0,0,1,.69,2.58c-.29.6-1,1.25-.08,2s3.23,1.1,3.08,2.52-1.73,2.39-3.06,3.05a3.1,3.1,0,0,1-3.82-1.13l1.9-.82-3.51.6,1.25-.82,0-1.1H254s-2.37-.48-3-1.41l1.53.11.4-.39L255,351l-2-1.38.2-.41s.77.2,1-.86a1.86,1.86,0,0,0-.61-2.08l-.61-.58.12-.13s1.61.92,1.71,1.63c0,0,.17-.87-1.58-2.21s-1.51-1.65-1.51-1.65" transform="translate(-0.35)" style="fill:#fff"/><path id="Trazado_1900" data-name="Trazado 1900" d="M270.17,345.91a17.72,17.72,0,0,0-4.16.61,2,2,0,0,0-1.37,2.3c.11.66.59,1.47-.46,1.92s-3.4.17-3.65,1.58,1,2.78,2.11,3.77a3.1,3.1,0,0,0,4,0L265,354.74l3.22,1.54-1-1.13.35-1-2-.58s2.41.19,3.26-.54l-1.5-.3-.28-.49-2.22.19,2.35-.77-.09-.46s-.79,0-.69-1.09a1.85,1.85,0,0,1,1.15-1.83l.75-.39-.08-.16s-1.8.45-2.09,1.1c0,0,.07-.88,2.12-1.69s1.9-1.18,1.9-1.18" transform="translate(-0.35)" style="fill:#fff"/><path id="Trazado_1901" data-name="Trazado 1901" d="M254.55,357.45s2.2-.79,3.29-.39l-2.12,2a14.34,14.34,0,0,1,3,6.09,7.37,7.37,0,0,0,3.06-6.28,5.25,5.25,0,0,1,1.33,1.87s.9-2.16-1.46-4.17-5.07-1-7.13.9" transform="translate(-0.35)" style="fill:#fff"/><path id="Trazado_1902" data-name="Trazado 1902" d="M73.65,350s-23.06.16-29.76,19.87c0,0,.13.64,9.43.39,0,0-11.84,10.51-12.56,29.56,0,0,3-1,13.54-4.6,0,0-.37,12.13,9.83,24.76s49.69,17.28,71.92,8,36.22-11.71,30.48-33-16.2-18.88-27.2-25.23S100.11,340.58,73.65,350" transform="translate(-0.35)" style="fill:#faad3f"/><path id="Trazado_1903" data-name="Trazado 1903" d="M73.65,350s-23.06.16-29.76,19.87c0,0,.13.64,9.43.39,0,0-11.84,10.51-12.56,29.56,0,0,3-1,13.54-4.6,0,0-.37,12.13,9.83,24.76s49.69,17.28,71.92,8,36.22-11.71,30.48-33-16.2-18.88-27.2-25.23S100.11,340.58,73.65,350Z" transform="translate(-0.35)" style="fill:none;stroke:#dc6628;stroke-miterlimit:10;stroke-width:3.1570000648498535px"/><path id="Trazado_1904" data-name="Trazado 1904" d="M140.06,377.49c3.42-6.7,13.79-23.66,17.18-26.92,7.28-7,9.41-9.19,15.47-15.73,7-7.53,16.1-3.75,18.12,4.75S181,355.78,181,355.78L172.33,366l.13.59a42.7,42.7,0,0,0,7.14-2.37c16-7.08,39.22-14.82,42.94-12.72,6.32,3.58,8.13,12,7.15,15.42-1.23,4.32-17.34,7.21-21.6,8.39-3.93,1.09-19.62,6-19.61,8,0,0,23-10.54,28.52-7.43s7.13,9.71,5.47,13.25-.53,4.3,1.39,6.14c3.83,3.66,3.67,9.37,1.41,11.87s-3.1,1.65-1.6,6.36.92,10.91-2.16,12.13-15.2,6-19.13,6.24c-3.46.23-26.61-.89-32.13-1.17-10-.49-25.32-3.13-30.18-6.66" transform="translate(-0.35)" style="fill:#faad3f"/><path id="Trazado_1905" data-name="Trazado 1905" d="M139.9,377.4c2.63-7.85,6.77-15,11.34-21.81a47.58,47.58,0,0,1,4.85-6.35c4-3.86,8-7.8,11.8-11.85,1.3-1.37,2.88-3.14,4.24-4.52,3.27-3.33,8.72-5.07,13.17-3a13.31,13.31,0,0,1,7.59,11.29c.47,6.59-7.16,13.87-10.45,15.82l-8.66,10.22.4-1.7.15.63L172,364.71a39.67,39.67,0,0,0,6.56-2.16c7.48-3.28,39-16.45,45.2-12.68C229,353,231.92,359.05,232,365a6.17,6.17,0,0,1-1.79,4.76c-2.23,2-4.57,2.76-7.16,3.72-4,1.42-9.93,2.73-14.13,3.76-6.16,1.93-13.11,3.76-18.55,7a1.39,1.39,0,0,0,.27-.9l-3-1.93c3.3-1.49,6.59-2.83,10-4.08a91.61,91.61,0,0,1,10.37-3.25c3.15-.63,6.69-1.57,9.94-.11,5.32,2.89,8.77,9.57,6.75,15.54-.36,1.08-.86,1.64-.82,2.59a.83.83,0,0,0,.19.34c.44.57,1.13,1.1,1.71,1.74,3.73,3.8,4.73,10.89.63,14.94-.36.35-.73.7-1,1s-.42.45-.31.27,0-.08,0,.22a9.92,9.92,0,0,0,.24,1.05c1.61,4.85,2.53,13.06-2.93,15.84-.79.32-2.94,1.13-3.77,1.45-6,2-12,5-18.51,4.93-4.82-.07-13.72-.49-18.62-.7-6.25-.44-15.19-.53-21.31-1.59-3.18-.44-24.52-3.85-21.48-8.49a1.74,1.74,0,0,1,2.42-.42l0,0c2.6,1.71,6.15,2.64,9.27,3.42,9.79,2.5,21.12,2.93,31.23,3.3,4.89.19,13.68.56,18.49.61,4.19.2,8.15-1.63,12.14-2.93,2.39-.82,5-1.88,7.39-2.79l1.18-.47c1.11-.64,1.43-2.27,1.6-4a17.56,17.56,0,0,0-1.13-7.1,6,6,0,0,1-.15-3.93c.73-1.53,1.38-1.7,2.22-2.62a5.75,5.75,0,0,0,1.25-5.47c-.55-2.62-2.07-3.63-3.93-5.67-1.38-1.48-1.31-4.11-.52-5.82,2.18-4.1-.36-9.31-4.22-11.46-2.14-.69-4.7,0-7,.48a120.65,120.65,0,0,0-19.52,7.06,2.1,2.1,0,0,1-2.81-1,2,2,0,0,1-.22-1,3,3,0,0,1,1.23-2.37,25.32,25.32,0,0,1,6.27-3.17c4.64-1.79,9.17-3.26,14-4.62,4-1,10-2.29,13.87-3.62,2-.76,4.6-1.56,6-3.11a3.92,3.92,0,0,0,.24-1.51c0-4.53-2.44-9.46-6.32-11.69-2.33-.36-5.11.39-7.69.93a207.46,207.46,0,0,0-27.15,9.09c-4.54,1.8-9,4.12-13.82,5.15A1.92,1.92,0,0,1,170.6,367v0a2.26,2.26,0,0,1,.28-2.24l8.7-10.2c3.1-2.33,6.37-5.09,8.24-8.42,4.1-5.89-1.77-15.23-8.76-13.28-3.58.85-6,4.45-8.56,7-3.83,4.08-7.92,8.05-12,11.92a46.68,46.68,0,0,0-4.41,5.78c-4.46,6.73-8.9,13.51-13.89,20a.19.19,0,0,1-.27,0,.2.2,0,0,1-.06-.19" transform="translate(-0.35)" style="fill:#dc6628"/><path id="Trazado_1906" data-name="Trazado 1906" d="M174.29,350.33S163,368.61,165,376.13c0,0-5.83,6.06-5.09,14s-.34,18.92,13.73,19.17,25.06,1.33,25.06,1.33L211.61,428s12.83-3.73,16.41-7.18S216.75,363,216.75,363Z" transform="translate(-0.35)" style="fill:#ef8226"/><path id="Trazado_1907" data-name="Trazado 1907" d="M186,335.87s-2.54,10.83-6.78,16.28a105.62,105.62,0,0,0-9.55,14.33l4.51-1.4a47.37,47.37,0,0,0,8.42-8.44c9.22-11.36,9.33-16.35,3.4-20.77" transform="translate(-0.35)" style="fill:#fff"/><path id="Trazado_1908" data-name="Trazado 1908" d="M174.79,366.26s-14.15,2.5-23.43,3.25" transform="translate(-0.35)" style="fill:#faad3f"/><path id="Trazado_1909" data-name="Trazado 1909" d="M175.1,368c-7.9.76-15.81,1.43-23.74,1.55,7.79-1.27,15.49-3.07,23.13-5l.6,3.41" transform="translate(-0.35)" style="fill:#dc6628"/><path id="Trazado_1910" data-name="Trazado 1910" d="M60.7,370S49.45,381.42,45.88,394.7c0,0,8.12-3.68,11.6-4.2,0,0-3.76,19.16,21.06,31.36,16.39,8.06,41.58,6.36,41.58,6.36a80.26,80.26,0,0,1,12.5.3c5.6.7,51.84,4.26,56.07,3.84-43.88-6.54-72.61-17.15-72.61-17.15S59.22,408.72,60.7,370" transform="translate(-0.35)" style="fill:#ef8226"/><path id="Trazado_1911" data-name="Trazado 1911" d="M221.68,393.34c-7.4,2.47-14.79,4.84-22.48,6.07l-7.61,1.21,7.51-1.7c7.5-1.59,14.34-5.53,21.14-8.87l1.44,3.29" transform="translate(-0.35)" style="fill:#dc6628"/><path id="Trazado_1912" data-name="Trazado 1912" d="M223.88,411.16c-7.13,2.82-14.41,5.43-22,6.65l-7.49,1.2c2.6-.63,8.56-1.92,11-2.67a94.24,94.24,0,0,0,10.26-4.73c2.22-1.17,4.44-2.39,6.57-3.66Z" transform="translate(-0.35)" style="fill:#dc6628"/><path id="Trazado_1913" data-name="Trazado 1913" d="M71.2,357s15.13-6.89,30.91-.1,20.49,11,20.49,11-15.88-6-22.39-7.23c0,0,1.5-.61,5.44,5.89A95.65,95.65,0,0,0,71.2,357" transform="translate(-0.35)" style="fill:#f9d772"/><path id="Trazado_1914" data-name="Trazado 1914" d="M180.55,370.3a174.52,174.52,0,0,1,22.15-9.61,113.34,113.34,0,0,1,11.59-3.58c2.9-.8,7.45-1.15,8.66,2.39a5.73,5.73,0,0,1,.11,3.1,6.23,6.23,0,0,0-.79-2.79c-1.67-2.65-4.85-1.58-7.47-.78-3.77,1.18-7.53,2.58-11.31,3.89-7.58,2.65-15.15,5.31-22.94,7.38" transform="translate(-0.35)" style="fill:#f9d772"/><path id="Trazado_1915" data-name="Trazado 1915" d="M190.88,388.42c5.78-2.76,12-4.59,18.13-6.39,1.37-.31,2.59-1,4-.93,3.27.25,4.09,4.18,4,6.8-.93-2.4-2.43-6.31-5.49-4.46a75.12,75.12,0,0,1-20.68,5" transform="translate(-0.35)" style="fill:#f9d772"/><path id="Trazado_1916" data-name="Trazado 1916" d="M390.82,366.16c15.06,10,23.45,29.41,16.71,43.8-2.36-6.65-13.63-9.48-13.63-9.48C393.82,417.6,378,424.4,378,424.4l2.5-17s-12.24,22.92-66,25.35c-41.05,1.85-76,10.78-84.6,3.28s-22.4-29.28-22.29-31.69-30.47-2.25-30.47-2.25-17.81-3-9.92-21.08l7.21-3.68s-5.72-2.26-4.06-6.51,6.49-20.46,6.49-20.46l5.55.56,2.86-18.31s25.47.28,35.64,5.93S250.46,396,250.46,396s29.06-10.41,48.61-27.32c32.38-28,60-22.25,60-22.25" transform="translate(-0.35)" style="fill:#faad3f"/><path id="Trazado_1917" data-name="Trazado 1917" d="M390.82,366.15c15.45,9.53,26,30.27,16.64,47.5l-1.27-3.21c-2.06-4.61-8.06-6.88-12.75-8.13l2.35-1.82a28.22,28.22,0,0,1-1,8.08c-2.25,8.05-8.4,14.45-15.89,17.94l-3.79,1.72c.39-2.6,2.67-18.18,3.12-21.14l4.28,1.41c-2.69,4.43-6.66,7.79-10.8,10.75-20.39,14-45.78,15.28-69.63,16.59-9.43.73-18.86,1.77-28.3,2.86-11.84,1.18-23.92,3.26-36,2.34-2.77-.3-6.05-.89-8.7-2.75a39.47,39.47,0,0,1-4.8-4.7,146.91,146.91,0,0,1-12.93-17.48,75.48,75.48,0,0,1-5.47-9.67,5.52,5.52,0,0,1-.5-2.07v.08a1.74,1.74,0,0,0,.05.39,1.66,1.66,0,0,0,.71,1.06c-9-1.76-19.52-1.3-28.93-1.49-13.3-2.55-17.41-13.23-11.71-25l.73-.38,7.21-3.68.2,4.17c-3.18-1.31-6.26-4.18-5.75-7.92a29.5,29.5,0,0,1,1.27-4l1.16-3.53c1.7-5.33,3.34-10.74,5-16.12,1,.09,6.24.65,7.44.76l-2.5,1.93c0-.85,3.24-20.15,3.16-20.29A153.52,153.52,0,0,1,211,332.89a40.07,40.07,0,0,1,11.17,3.74c2.64,1.6,4.48,4.18,6.1,6.44,6,8.95,10.4,18.82,14.75,28.53,3.41,7.8,6.61,15.64,9.64,23.6l-2.92-1.36a202.72,202.72,0,0,0,40-20.57c4.19-2.77,8-5.88,12.1-9.08a97.14,97.14,0,0,1,27.07-14.64c9.65-3.22,20.14-4.91,30.23-3.12-10.08-1.16-20.26,1.19-29.6,4.82A94.48,94.48,0,0,0,304,366.86c-3.73,3.22-7.63,6.79-11.77,9.86-12.46,9.24-26.51,15.82-40.94,21.44l-2.1.79-.82-2.15c-3-7.84-6.17-15.66-9.54-23.36a242.43,242.43,0,0,0-11.05-22.55c-2-3.33-4.19-7.08-7-9.61-3.11-2.3-7-3-10.75-3.9a145,145,0,0,0-24.77-2.46l2.29-1.93-2.86,18.31-.34,2.15c-2-.22-5.8-.58-7.71-.79l2.43-1.62c-2,6.57-4,13.31-6.25,19.81l-.32.88a1.3,1.3,0,0,0-.11.43c-.17.84.83,1.87,1.67,2.39q2.83,1.44,5.81,2.6c-2.8,1.4-8.78,4.5-11.6,5.92l1.06-1.13c-4,8.62-1.39,15.8,8.2,17.9,5.2-.12,14.51.1,21.16.49,3.21.35,6.69.16,9.85,1.68a2.82,2.82,0,0,1,1.36,2.21c2.74,6.27,8.57,14.62,13.33,20.92,2.79,3.45,5.46,7.15,9,9.77,3.59,1.86,8.6,1.8,12.78,1.77,9.3-.26,18.76-1.5,28.2-2.54s18.94-2.14,28.48-2.88c18.64-1.12,37.91-1.77,55.26-9.23,8.18-3.53,16.4-8.23,21.48-15.7l6.05-10.55-1.76,12-2.5,17-3.17-2.44A23.73,23.73,0,0,0,380,420.6c6.77-4.48,11.87-11.83,12-20.14l.1-2.48c5.17,1.44,10.34,3.42,14.17,7.33a11.27,11.27,0,0,1,2.59,4.16l-2.64-.13c7.29-15.51-2.38-33.83-15.41-43.2" transform="translate(-0.35)" style="fill:#dc6628"/><path id="Trazado_1918" data-name="Trazado 1918" d="M213,359s-18.14-12.52-19.52-15.88.37-7.69.37-7.69l-7.52-.81-1.91,15.63Z" transform="translate(-0.35)" style="fill:#ef8226"/><path id="Trazado_1919" data-name="Trazado 1919" d="M209.61,377.66s-18.15-8.57-24.5-9.63-7.49-12.69-7.49-12.69-5.35,13.94-5.13,17.55,5.5,4,9.92,3.34,24.61.77,27.2,1.43" transform="translate(-0.35)" style="fill:#ef8226"/><path id="Trazado_1920" data-name="Trazado 1920" d="M174.22,375.07c5.44-.07,10.82,0,16.22.34s10.91.58,15.94,2.56c-5.21-1.23-10.62-.6-15.91-.27s-10.62,1.12-15.85,1.93Z" transform="translate(-0.35)" style="fill:#dc6628"/><path id="Trazado_1921" data-name="Trazado 1921" d="M182.46,348.54c9.2,2.76,18.5,5.29,27.28,9.18-9.21-2.42-18.76-3.44-28.17-4.68l.89-4.5" transform="translate(-0.35)" style="fill:#dc6628"/><path id="Trazado_1922" data-name="Trazado 1922" d="M406.79,405.89s-8.12-20.45-21.12-23.62a14.23,14.23,0,0,1-1.86,8.09s-1.58-5.64-2.5-7.15c0,0-8.85,12.44-20.83,18.73s-48.93,15.7-69.56,17.88-44.89-.27-48.86-1.4-16.84-11.17-20.63-17.75-5.22-6.56-15.72-6.29-38.73-3.3-38.73-3.3-.73,5.56,8.35,9S209,402.5,209,402.5s10.37,22.81,21.57,31.78,41.92-.23,66.06-2,70.67-5.58,85.44-25.86c0,0,1.53,7.93-1.79,14.63,0,0,14.54-8.84,14.85-21.15,0,0,9.91,2.13,11.66,6" transform="translate(-0.35)" style="fill:#ef8226"/><path id="Trazado_1923" data-name="Trazado 1923" d="M363.2,367.88s-19.82-4.58-32.43.77c0,0,9.75.85,14.9,4.66,0,0-18.6-2.44-30.89,1.75-13.13,4.48-26.13,13.86-33.66,15.48,0,0,23.3-20.47,44.16-28.59s37.92,5.93,37.92,5.93" transform="translate(-0.35)" style="fill:#f9d772"/><path id="Trazado_1924" data-name="Trazado 1924" d="M219.15,368.79s-2.84-6.61-11.85-8.6-23.6-3.77-23.6-3.77,29.86,6.68,35.45,12.37" transform="translate(-0.35)" style="fill:#f9d772"/><path id="Trazado_1925" data-name="Trazado 1925" d="M214.49,382.93s-30.49-2.28-37.74.6c0,0,24.6,3.88,37.74-.6" transform="translate(-0.35)" style="fill:#f9d772"/><path id="Trazado_1926" data-name="Trazado 1926" d="M222.65,353.91s-1.91-9.77-5.62-11.6-21.47-4.55-21.47-4.55,15.58,6.16,19.19,9a103.05,103.05,0,0,1,7.9,7.16" transform="translate(-0.35)" style="fill:#f9d772"/></g></g></g></g></g></g></g></svg>