<svg xmlns="http://www.w3.org/2000/svg" xmlns:xlink="http://www.w3.org/1999/xlink" viewBox="0 0 521.25 290.47"><defs><clipPath id="clip-path" transform="translate(0 0)"><rect width="521.24" height="290.47" style="fill:none"/></clipPath></defs><g id="Capa_2" data-name="Capa 2"><g id="Capa_1-2" data-name="Capa 1"><g style="clip-path:url(#clip-path)"><g id="Grupo_153" data-name="Grupo 153"><path id="Trazado_974" data-name="Trazado 974" d="M159.45,21.73c5.71,2.44,9.39,3.95,13,5.58,14,6.3,28.05,12.48,41.92,19,5.45,2.58,8.73,1.8,11.69-3.72,6-11.26,12.64-22.23,19.08-33.28,1.63-2.8,3.51-5.45,6-9.34,2.2,3.19,3.86,5.31,5.2,7.6C263,18.87,269.73,30,275.87,41.55c3.31,6.22,6.69,7.71,13.3,4.44,14-6.89,28.35-13,42.56-19.45,3-1.34,6.58-2.17,10.32-3.77-1.55,2.39-3.26,5.78-4.66,8.26-7.8,13.75-15.85,27.38-23,41.46-1.37,2.69.58,7.35,1.67,10.91,1.17,3.83,4.43,7.42,4.46,11.13.06,8,4.7,10.78,11,10.82,9.16.07,11.26,4.71,12.07,12.84,2.76,27.82,4.82,55.58-.37,83.32-5.8,31-21.38,55-50.1,69.46-12.56,6.33-25.06,12.79-37.8,18.74a11.29,11.29,0,0,1-8.51-.15c-12.27-5.75-24.26-12.09-36.42-18.07-32.72-16.1-48-44-52.6-78.69-3.5-26.31-1.5-52.59,1.74-78.81.61-4.95,2.58-7.66,8.1-8.21,11.94-1.16,12.29-1.88,14.61-13.24a13.07,13.07,0,0,1,2.88-7c6.5-5.7,4.9-12,1.5-18-7.41-13.11-15.29-26-23-38.91-1-1.66-2-3.29-4.21-6.95" transform="translate(0 0)" style="fill:#fff"/><path id="Trazado_975" data-name="Trazado 975" d="M13.51,182.12,8.85,190v26.67H0V137.18H8.85v38.37L30,137.19h9L18.84,173.38l20.77,43.24H30.53Z" transform="translate(0 0)" style="fill:#fff"/><rect id="Rectángulo_804" data-name="Rectángulo 804" x="46.43" y="137.18" width="8.85" height="79.44" style="fill:#fff"/><path id="Trazado_976" data-name="Trazado 976" d="M72.19,216.62H64.25V137.18H75.48L93.87,194.6V137.18h7.83v79.44H92.5L72.19,152.39Z" transform="translate(0 0)" style="fill:#fff"/><path id="Trazado_977" data-name="Trazado 977" d="M145.85,156.36v6.81h-8.4v-7.26c0-7.15-2.84-11.47-9.3-11.47s-9.31,4.32-9.31,11.47v42c0,7.15,3,11.46,9.31,11.46s9.3-4.31,9.3-11.46V182h-8.17v-7.94h16.57v23.37c0,12-5.68,20-17.93,20s-17.82-7.94-17.82-20V156.36c0-12,5.67-20,17.82-20s17.93,8,17.93,20" transform="translate(0 0)" style="fill:#fff"/><path id="Trazado_978" data-name="Trazado 978" d="M374.37,137.18c12.48,0,17.7,6.35,17.7,18.16v6.47c0,8.73-3.06,14.18-9.87,16.34,7.26,2.15,10,8.06,10,16.57v12.37a19.73,19.73,0,0,0,1.59,9.53h-9a20.8,20.8,0,0,1-1.48-9.65V194.49c0-9-4.19-11.8-11.57-11.8h-6.24v33.93h-8.86V137.18Zm-2.27,37.45c7,0,11.23-2.27,11.23-10.9v-7.6c0-7.15-2.61-10.89-9.19-10.89h-8.62v29.39Z" transform="translate(0 0)" style="fill:#fff"/><path id="Trazado_979" data-name="Trazado 979" d="M400.71,156.36c0-12.15,6-20,18.15-20s18.28,7.83,18.28,20v41.08c0,12-6,20-18.28,20s-18.15-7.94-18.15-20Zm8.74,41.53c0,7.27,3.06,11.47,9.41,11.47s9.42-4.2,9.42-11.47v-42c0-7.15-2.95-11.47-9.42-11.47s-9.41,4.32-9.41,11.47Z" transform="translate(0 0)" style="fill:#fff"/><path id="Trazado_980" data-name="Trazado 980" d="M444.86,156.36c0-12.15,6-20,18.16-20s18.27,7.83,18.27,20v41.08c0,12-6,20-18.27,20s-18.16-7.94-18.16-20Zm8.74,41.53c0,7.27,3.06,11.47,9.41,11.47s9.42-4.2,9.42-11.47v-42c0-7.15-2.95-11.47-9.42-11.47s-9.41,4.32-9.41,11.47Z" transform="translate(0 0)" style="fill:#fff"/><path id="Trazado_981" data-name="Trazado 981" d="M516.82,174.18v8H498.55v34.39H489.7V137.18h31.55v8h-22.7v28.94Z" transform="translate(0 0)" style="fill:#fff"/><path id="Trazado_982" data-name="Trazado 982" d="M248.83,22.59a2.94,2.94,0,0,1,5.08,0C259.29,32,264,40.13,268.36,48.46c.56,1.06-1.42,3.92-2.79,5.44-6,6.67-7.12,14.41-2.75,21A15.86,15.86,0,0,0,291.43,62c-1.14-4.87.34-7.09,4.54-8.81,3.77-1.54,10.78-4.37,15.37-6a1.87,1.87,0,0,1,2.25,2.64c-1.79,3.47-3.49,6.71-4.86,10.08-2.19,5.44-4,11-5.7,16.66-1.42,4.7-1.21,8.76,3.76,12a9.44,9.44,0,0,1,3.95,7.58c-2.53,10.54,4.78,14.81,11.91,16.45C333.93,115.23,335.4,122,335,133a370.82,370.82,0,0,0,1.64,40.55c.54,7.14-1.93,9.5-8.38,6.63a51.13,51.13,0,0,0-16.54-4.49c5.65,4.4,11.07,9.14,17,13.11,5.1,3.41,6,7.33,4.65,13.06C330,216.5,324.82,230.2,315.14,242c-3.64,4.41-6.53,5-10.07-.11-3-4.37-11-13-11.63-12.73,2.18,5.39,4,11.91,6.54,17.16,2.62,5.47,1.44,9.17-3.92,11.88-13.9,7-27.73,14.27-41.73,21.13a8.37,8.37,0,0,1-6.46-.18c-13.78-6.75-27.38-13.84-41.1-20.71-5.72-2.87-6.85-6.69-4-12.49a47.32,47.32,0,0,0,4.77-16.82c-3.4,4.35-7,8.61-10.21,13.08-2.84,3.91-5.32,4.95-9,.77-11.63-13.16-17.08-29-19.63-45.88-.34-2.21,2.22-5.5,4.29-7.31,5.15-4.5,11.73-10,17.17-14.18a84.46,84.46,0,0,0-15.89,4.67c-7.78,3.45-9.76-.85-6.61-14a97.14,97.14,0,0,0,1-39.78c-1.42-8,1.19-10.4,6.53-12.1A38.74,38.74,0,0,0,188,107.88c2.23-1.85,2.67-5.89,3.87-9,1.39-3.56,1.77-8.29,4.33-10.45,3.81-3.24,5-6.55,3.6-10.66C197.86,72,192,58.08,189,51.06a2,2,0,0,1,1.08-2.67,2,2,0,0,1,1.48,0c5,1.74,13.26,4.68,18.41,6.92,1.2.52,1.47,4,1.16,6-1.49,9.52,1.62,16.56,9.11,19.73a16,16,0,0,0,19.63-6c4.61-6.61,3.37-14.11-3.19-21.52-1.3-1.46-2.84-4.43-2.2-5.61,4.31-8.12,9-16,14.38-25.25" transform="translate(0 0)" style="fill:#2f0d31"/><path id="Trazado_983" data-name="Trazado 983" d="M208,146.1a1,1,0,0,0-.64,1.83c2.43,1.42,5.78,3.35,9.45,5.36,7.38,4,6,8.38,6,8.38s-10-8-9.68-6.71c.62,2.65,8.67,5.7,8,12.41a4.58,4.58,0,0,1-3.25,5.59,4.71,4.71,0,0,1-.85.14,1,1,0,0,0-.34,1.85l11.15,5.84L216.49,178a1,1,0,0,0-1.15.6l-.62,1.58a1,1,0,0,1-.91.63h-6.38s1,2.35,17.45,4l-11.53,1.82a1,1,0,0,0-.82,1.12.79.79,0,0,0,.06.22l1.3,3.25a1,1,0,0,1-.33,1.16l-5.64,4.14,18.3-5.67-9.38,5.36a1,1,0,0,0-.38,1.33.85.85,0,0,0,.23.27c2.34,1.94,8.29,6,14.56,3.1,0,0,15.95-8.56,16.43-16.24.25-4-.89-7.73-12.07-9.26,0,0-10.73-1.41-6-11.74,0,0,8.23-13.42-21.56-17.59" transform="translate(0 0)" style="fill:#fff"/><path id="Trazado_984" data-name="Trazado 984" d="M295.25,146.1a1,1,0,0,1,1.11.85,1,1,0,0,1-.47,1c-2.43,1.42-5.78,3.35-9.45,5.36-7.38,4-6,8.38-6,8.38s10-8,9.68-6.71c-.62,2.65-8.68,5.7-8,12.41a4.58,4.58,0,0,0,3.25,5.59,4.71,4.71,0,0,0,.85.14,1,1,0,0,1,.86,1.1,1,1,0,0,1-.52.75l-11.14,5.84,11.4-2.81a1,1,0,0,1,1.16.6l.61,1.58a1,1,0,0,0,.92.63h6.37s-1,2.35-17.44,4l11.53,1.82a1,1,0,0,1,.82,1.12l-.06.22-1.31,3.25a1,1,0,0,0,.33,1.16l5.64,4.14-18.29-5.67,9.38,5.36a1,1,0,0,1,.38,1.33,1,1,0,0,1-.23.27c-2.34,1.94-8.3,6-14.56,3.1,0,0-15.95-8.56-16.44-16.24-.25-4,.89-7.73,12.07-9.26,0,0,10.73-1.41,6-11.74,0,0-8.23-13.42,21.56-17.59" transform="translate(0 0)" style="fill:#fff"/><path id="Trazado_985" data-name="Trazado 985" d="M214.53,132.76s21.2.15,22.47,10.29a15.23,15.23,0,0,1,0,13.76s-4.54,6.33,3.08,5.79h23s5.43.37,2.9-6.15c0,0-8.69-16.47,9.05-20.64l16.07-3.68a4.3,4.3,0,0,0,2.72-6.42C291,121.12,284,114.8,277,115.53c-14.68,1.54-21,13.21-37.65,9.77,0,0,9.77-.9,14.3-4.7a76.76,76.76,0,0,1-11.05-2.9c-3.44-1.45-15.75-8.87-26.61,2.17s-9.11,9.78-9.11,9.78.56,2.5,7.64,3.1" transform="translate(0 0)" style="fill:#fff"/><path id="Trazado_986" data-name="Trazado 986" d="M229.09,211.55s10.46-13.91,24.35-11.92c0,0,20.39,2.53,19.48,21.28,0,0-4.69-6.49-7.57-6.31a32.52,32.52,0,0,1-11.19,30.66s-8.74-21.59-18.31-26.28a100.18,100.18,0,0,0,10-11.87c-5.71-1-16.76,4.42-16.76,4.42" transform="translate(0 0)" style="fill:#fff"/></g></g></g></g></svg>