<svg xmlns="http://www.w3.org/2000/svg" xmlns:xlink="http://www.w3.org/1999/xlink" viewBox="0 0 868.13 773.17"><defs><clipPath id="clip-path" transform="translate(0.41)"><rect y="156.34" width="288.35" height="504.01" style="fill:none"/></clipPath><clipPath id="clip-path-3" transform="translate(0.41)"><rect x="65.25" y="376.6" width="25.43" height="33.78" style="fill:none"/></clipPath><clipPath id="clip-path-4" transform="translate(0.41)"><rect x="174.51" y="502.72" width="41.98" height="113.61" style="fill:none"/></clipPath><clipPath id="clip-path-5" transform="translate(0.41)"><rect x="75.86" y="357.86" width="21.82" height="37.21" style="fill:none"/></clipPath><clipPath id="clip-path-6" transform="translate(0.41)"><rect x="96.4" y="395.67" width="126.76" height="101.7" style="fill:none"/></clipPath><clipPath id="clip-path-7" transform="translate(0.41)"><rect x="223.56" y="388.61" width="14.09" height="19.63" style="fill:none"/></clipPath><clipPath id="clip-path-8" transform="translate(0.41)"><path d="M192.23,159.59l-13,14.88a3.83,3.83,0,0,0-.42,4.43c3.5,6.34,4.36,21.36-10.16,20.21-13.29-1.05-11.61-13.88-10.28-19.31a3,3,0,0,0-1.75-3.45l-11-4.72a2.19,2.19,0,0,0-3,2.5l6,23.94.17,25.38,65.45,13.17,8.88-25.44,13.81-22.63a2.17,2.17,0,0,0-2.28-3.25L222,187.66a2.84,2.84,0,0,0-2.34,2.9c.41,9-3.78,19.28-17,14.73-11.47-3.95-6.69-16.55-1.24-23.12a3.8,3.8,0,0,0,.67-3.73l-6.6-18.24a1.93,1.93,0,0,0-2.48-1.15,2,2,0,0,0-.79.54" style="fill:none"/></clipPath><linearGradient id="Degradado_sin_nombre_3" x1="-455.12" y1="928.08" x2="-455.11" y2="928.08" gradientTransform="matrix(79.41, 0, 0, -97.14, 36143.13, 90348.08)" gradientUnits="userSpaceOnUse"><stop offset="0" stop-color="#dba949"/><stop offset="1" stop-color="#c37a00"/></linearGradient><clipPath id="clip-path-10" transform="translate(0.41)"><rect x="183.31" y="164.42" width="15.71" height="39.33" style="fill:none"/></clipPath><clipPath id="clip-path-11" transform="translate(0.41)"><rect x="214.49" y="189.43" width="17.02" height="36.59" style="fill:none"/></clipPath><clipPath id="clip-path-12" transform="translate(0.41)"><rect x="146.17" y="176.15" width="12.17" height="21.87" style="fill:none"/></clipPath></defs><g id="Capa_2" data-name="Capa 2"><g id="Capa_1-2" data-name="Capa 1"><g id="Grupo_514" data-name="Grupo 514"><g id="tes_timo_nial" data-name="tes timo nial" style="isolation:isolate"><text transform="translate(223.23 212.27)" style="isolation:isolate;font-size:249px;fill:#69326c;font-family:Poppins-Bold, Poppins;font-weight:700">TES</text><text transform="translate(223.23 417.27)" style="isolation:isolate;font-size:249px;fill:#69326c;font-family:Poppins-Bold, Poppins;font-weight:700">TIMO</text><text transform="translate(223.23 622.27)" style="isolation:isolate;font-size:249px;fill:#69326c;font-family:Poppins-Bold, Poppins;font-weight:700">NIAL</text></g><g id="Grupo_448" data-name="Grupo 448"><g style="clip-path:url(#clip-path)"><g id="Grupo_416" data-name="Grupo 416"><g id="Grupo_402" data-name="Grupo 402"><g style="clip-path:url(#clip-path)"><g id="Grupo_401" data-name="Grupo 401"><path id="Trazado_1738" data-name="Trazado 1738" d="M66.27,363.16S54.07,373.71,48,387.46s-15,32.05,1.67,44.05,38.1.18,47.82-16.48,25-41.32,6.72-54.88-31.32-4.26-37.92,3" transform="translate(0.41)" style="fill:#faad3f"/><path id="Trazado_1739" data-name="Trazado 1739" d="M66.27,363.16S54.07,373.71,48,387.46s-15,32.05,1.67,44.05,38.1.18,47.82-16.48,25-41.32,6.72-54.88S72.87,355.89,66.27,363.16Z" transform="translate(0.41)" style="fill:none;stroke:#dc6628;stroke-miterlimit:10;stroke-width:3.1570000648498535px"/><path id="Trazado_1740" data-name="Trazado 1740" d="M66.2,384.09,49.27,401a55.26,55.26,0,0,1,38.65,8.08l1.64-5.51Z" transform="translate(0.41)" style="fill:#ef8226"/><path id="Trazado_1741" data-name="Trazado 1741" d="M94.41,412.82s-36-24.76-35.6-49.95l7.53-7.73s10.43,34.91,38.3,46.14c0,0-6.48,9-10.23,11.54" transform="translate(0.41)" style="fill:#c78b39"/><path id="Trazado_1742" data-name="Trazado 1742" d="M94.41,412.82s-36-24.76-35.6-49.95l7.53-7.73s10.43,34.91,38.3,46.14C104.64,401.28,98.15,410.29,94.41,412.82Z" transform="translate(0.41)" style="fill:none;stroke:#3f1f1c;stroke-miterlimit:10;stroke-width:3.2260000705718994px"/><g id="Grupo_388" data-name="Grupo 388"><g id="Grupo_387" data-name="Grupo 387"><g style="clip-path:url(#clip-path-3)"><g id="Grupo_386" data-name="Grupo 386"><path id="Trazado_1743" data-name="Trazado 1743" d="M65.25,385.61s8.12-6.31,12.17-9c0,0,5.64,11.8,13.26,15.94l-.63,17.84a65.4,65.4,0,0,1-24.8-24.77" transform="translate(0.41)" style="fill:#cca471"/></g></g></g></g><path id="Trazado_1744" data-name="Trazado 1744" d="M184.69,507.1s33.52-3.9,45.19,16c11.8,20.13-9.69,43.73-46,36.74s-83.91-30.92-113-24-27.61,8.92-28.59,7.43-5.9-5.52-.86-8.4S60.05,524.83,91,524.34s80.43,24.17,109.51,22c21.5-1.63,15.73-19,5.34-21.61-9.3-2.36-21.4-4.78-21.4-4.78Z" transform="translate(0.41)" style="fill:#ef8226"/><path id="Trazado_1745" data-name="Trazado 1745" d="M184.69,507.1s33.52-3.9,45.19,16c11.8,20.13-9.69,43.73-46,36.74s-83.91-30.92-113-24-27.61,8.92-28.59,7.43-5.9-5.52-.86-8.4S60.05,524.83,91,524.34s80.43,24.17,109.51,22c21.5-1.63,15.73-19,5.34-21.61-9.3-2.36-21.4-4.78-21.4-4.78Z" transform="translate(0.41)" style="fill:none;stroke:#dc6628;stroke-miterlimit:10;stroke-width:2.746999979019165px"/><path id="Trazado_1746" data-name="Trazado 1746" d="M106.61,528s-28.29-2.26-51.21,3.85c0,0,35.47-3.84,50.35.8Z" transform="translate(0.41)" style="fill:#faad3f"/><path id="Trazado_1747" data-name="Trazado 1747" d="M191.1,510.18s28.62-1.62,36.76,14.57c4.3,8.55,1.37,16.37-4,22.35a1.5,1.5,0,0,1-2.45-1.69c2.54-4.77,4.26-10.76,1.62-16.33-5.59-11.75-29.18-12.65-29.18-12.65Z" transform="translate(0.41)" style="fill:#faad3f"/><path id="Trazado_1748" data-name="Trazado 1748" d="M50.53,532.55s-17.85-16.43-31.95-11.46l-2.41,4.57s10.52.17,15.73,2.56c0,0-6.38-2.41-24,3.65l1.7,3.49,6.43-.47S4.8,542.78,1.79,548.5l15,11.77s8.42-15.43,13.69-15.92c0,0-8.4,14.28-6.11,16.62l7,.11,6-11.43-3.78,17.24,7-1s13.73-18.82,9.87-33.3" transform="translate(0.41)" style="fill:#563317"/><path id="Trazado_1749" data-name="Trazado 1749" d="M50.53,532.55s-17.85-16.43-31.95-11.46l-2.41,4.57s10.52.17,15.73,2.56c0,0-6.38-2.41-24,3.65l1.7,3.49,6.43-.47S4.8,542.78,1.79,548.5l15,11.77s8.42-15.43,13.69-15.92c0,0-8.4,14.28-6.11,16.62l7,.11,6-11.43-3.78,17.24,7-1S54.39,547,50.53,532.55Z" transform="translate(0.41)" style="fill:none;stroke:#3f1f1c;stroke-miterlimit:10;stroke-width:3.4590001106262207px"/><path id="Trazado_1750" data-name="Trazado 1750" d="M131.92,610s2.83,7.34,5.26,9.47,6,21.48-6.25,21.81c-5.19.13-17,2.78-24.31,5.2-2.2,4.6-15.25,6.68-15.25,6.68s-22.19,2.78-24.06-3c0,0-14.32.21-15.25-2.94,0,0-8.86,2.55-9.73-4.24s-.57-13.55,2-17.16,18.07-4.43,24.48-4.85,34.65-13,34.65-13Z" transform="translate(0.41)" style="fill:#faad3f"/><path id="Trazado_1751" data-name="Trazado 1751" d="M131.92,610s2.83,7.34,5.26,9.47,6,21.48-6.25,21.81c-5.19.13-17,2.78-24.31,5.2-2.2,4.6-15.25,6.68-15.25,6.68s-22.19,2.78-24.06-3c0,0-14.32.21-15.25-2.94,0,0-8.86,2.55-9.73-4.24s-.57-13.55,2-17.16,18.07-4.43,24.48-4.85,34.65-13,34.65-13Z" transform="translate(0.41)" style="fill:none;stroke:#dc6628;stroke-miterlimit:10;stroke-width:2.803999900817871px"/><path id="Trazado_1752" data-name="Trazado 1752" d="M98.8,611s6.15,6.55,11.53,7.2,10.49,1.57,12.72,4.69-.14,8.7-3.56,8.92-18,8.69-20.31,8.66-20,5.57-24.5,4.1-6.14-6.84-6.14-6.84S67,643.86,67.29,645s-13.92.06-14.62-9.49l-.94,5.31S44,638,43,633.55c0,0-1.61,7.64,1.19,11.6,1.94,2.75,8.5,1.12,8.5,1.12s.48,3.16,15.65,2.8c0,0-.68,4.78,14.76,4.3,14.24-.44,22.3-5.1,22.91-7.89,0,0,11.64-3.34,17.34-4.37S135,641,137,636.56s1.92-13.15.24-15.14-6.08-10.2-6.08-10.2l-30.33-4.41Z" transform="translate(0.41)" style="fill:#ef8226"/><path id="Trazado_1753" data-name="Trazado 1753" d="M65.83,650.47c.11-2.38.3-4.72.55-7.07a36.73,36.73,0,0,1,1.35-7,4.52,4.52,0,0,1,1-1.75c1.47-1.24,3.35-1.54,5.13-1.92a38.63,38.63,0,0,1,5.26-.57,7.9,7.9,0,0,1,1.75.07,16.15,16.15,0,0,0-3.47.35c-2.67.59-5.78,1-7.88,2.84-1.26,2.32-1,5.48-1.24,8.16-.05,2.31,0,4.64.07,6.94Z" transform="translate(0.41)" style="fill:#dc6628"/><path id="Trazado_1754" data-name="Trazado 1754" d="M50.73,647.65c.11-2.35.29-4.66.55-7,.46-2.9.49-6.09,2.16-8.7,1.34-1.35,3.12-1.85,4.82-2.45a37.14,37.14,0,0,1,5.08-1.21,5.59,5.59,0,0,1,1.73-.1,12,12,0,0,0-3.35.73c-2.54.91-5.51,1.76-7.4,3.73-1.15,2.43-1,5.41-1.16,8.13,0,2.28,0,4.59.08,6.85Z" transform="translate(0.41)" style="fill:#dc6628"/><path id="Trazado_1755" data-name="Trazado 1755" d="M89.77,636.73s-3.06-3.22-9.59-3.32-8.26,1.34-9.15,2.74c0,0,10.27-2.65,18.74.58" transform="translate(0.41)" style="fill:#f9d772"/><path id="Trazado_1756" data-name="Trazado 1756" d="M68.94,633.33a9.7,9.7,0,0,0-7.14-2.81c-4.87-.08-6.16,1.16-6.83,2.35,0,0,7.66-2.26,14,.46" transform="translate(0.41)" style="fill:#f9d772"/><path id="Trazado_1757" data-name="Trazado 1757" d="M55.32,630.05a7.14,7.14,0,0,0-5.87-3.72c-4-.07-5.09,1.61-5.65,3.21,0,0,6.34-3.11,11.52.51" transform="translate(0.41)" style="fill:#f9d772"/><path id="Trazado_1758" data-name="Trazado 1758" d="M216.69,610.73S230,623.47,240.86,625.9s11.37,4.7,12.4,12.06,1.75,13.13-4.82,15.18a57.14,57.14,0,0,1-9.76,2.1s-5.12-2.34-5.09-4c0,0,1.65,4.55-3,5.6s-16.12,2-20.34.63a9.17,9.17,0,0,1-5.63-5.74s-1.82,6.19-4.11,6.72-13.19,1.48-17.16-.84-7.92-5.78-6.69-11.41S187,612.91,187,612.91" transform="translate(0.41)" style="fill:#faad3f"/><path id="Trazado_1759" data-name="Trazado 1759" d="M216.69,610.73S230,623.47,240.86,625.9s11.37,4.7,12.4,12.06,1.75,13.13-4.82,15.18a57.14,57.14,0,0,1-9.76,2.1s-5.12-2.34-5.09-4c0,0,1.65,4.55-3,5.6s-16.12,2-20.34.63a9.17,9.17,0,0,1-5.63-5.74s-1.82,6.19-4.11,6.72-13.19,1.48-17.16-.84-7.92-5.78-6.69-11.41S187,612.91,187,612.91" transform="translate(0.41)" style="fill:none;stroke:#dc6628;stroke-miterlimit:10;stroke-width:3.1480000019073486px"/><path id="Trazado_1760" data-name="Trazado 1760" d="M223.18,616.52s-3.28,5.4-9.39,5.87-10.42-2.46-16.51-2.85S183,623,183,623l2.15-7.42,33.8-3.71a7.76,7.76,0,0,0,4.24,4.6" transform="translate(0.41)" style="fill:#ef8226"/><path id="Trazado_1761" data-name="Trazado 1761" d="M252.46,642.25s-2.13,4-8.13,5.16-6.38-.31-7.78-3.18-5.17-12.09-14-15.28c0,0,6.72,5.4,8.06,11.52s.27,9.17-5.92,9.48-14,.79-16.05-2.09-5.9-18-5.9-18,.15,16.29-.29,18.32-6.23,2.54-12.19,1.63-9.5.87-9.81-5,2.59-20.11,2.59-20.11-6.12,21.28-5.74,23.73a13.14,13.14,0,0,0,8.71,9.3c5.54,1.71,13.8.83,14.86-.58a54.63,54.63,0,0,0,3.19-6.06s3.84,4.75,6.92,5.4,19.17.1,20.84-1.3,2.76-4.63,2.76-4.63,1.8,3.28,4.48,3.32,16.29-.35,13.38-11.59" transform="translate(0.41)" style="fill:#ef8226"/><path id="Trazado_1762" data-name="Trazado 1762" d="M232.92,654.11c-.41-4.69-1.24-18.06-5.56-20.36,1.79.63,2.72,2.53,3.54,4.11a69.28,69.28,0,0,1,4.57,16l-2.55.28" transform="translate(0.41)" style="fill:#dc6628"/><path id="Trazado_1763" data-name="Trazado 1763" d="M203.54,653.06c0-6.15.11-14.79-.13-20.85,1,6,1.93,14.63,2.68,20.71l-2.55.14" transform="translate(0.41)" style="fill:#dc6628"/><path id="Trazado_1764" data-name="Trazado 1764" d="M245.89,630.93s-6.65-1.82-11.64,1.25c0,0,7,.11,11.64-1.25" transform="translate(0.41)" style="fill:#f9d772"/><path id="Trazado_1765" data-name="Trazado 1765" d="M224.64,634a17.18,17.18,0,0,0-11.57-3c-6.69.75-7.63,4.75-7.63,4.75a25.06,25.06,0,0,1,19.2-1.7" transform="translate(0.41)" style="fill:#f9d772"/><path id="Trazado_1766" data-name="Trazado 1766" d="M199.94,635.07a14.45,14.45,0,0,0-10.1-3.89c-6.68-.1-7.29,1.6-9.06,3.3,0,0,10.5-2.7,19.16.59" transform="translate(0.41)" style="fill:#f9d772"/><path id="Trazado_1767" data-name="Trazado 1767" d="M191,494s8.89,32.06,12.1,64.66l6.74,8.49s4.36,35.81,7.66,44.25c0,0-8,7.52-14.33,5.69s-17.65-2-17.65-2-2.95-31.6-10.16-41.58a221.63,221.63,0,0,1-13.63-22s-10.27-2.63-18.67.2c0,0-10.29,12.77-10.34,16.22s3.3,8.44,3.3,8.44-4.37,30.19-3,34.4c0,0-17.28,3.49-20.72,3.43s-10.51-6.33-10.51-6.33,4.33-36.91-.78-55.73l10.73-56.77S184.84,493.44,191,494" transform="translate(0.41)" style="fill:#2683a9"/><path id="Trazado_1768" data-name="Trazado 1768" d="M191,494s8.89,32.06,12.1,64.66l6.74,8.49s4.36,35.81,7.66,44.25c0,0-8,7.52-14.33,5.69s-17.65-2-17.65-2-2.95-31.6-10.16-41.58a221.63,221.63,0,0,1-13.63-22s-10.27-2.63-18.67.2c0,0-10.29,12.77-10.34,16.22s3.3,8.44,3.3,8.44-4.37,30.19-3,34.4c0,0-17.28,3.49-20.72,3.43s-10.51-6.33-10.51-6.33,4.33-36.91-.78-55.73l10.73-56.77S184.85,493.43,191,494Z" transform="translate(0.41)" style="fill:none;stroke:#004b79;stroke-miterlimit:10;stroke-width:2.7239999771118164px"/><path id="Trazado_1769" data-name="Trazado 1769" d="M139.43,502.6s-.11,27.6.91,35.21c.53,4,10.2,2.34,10.2,2.34L150,502.53Z" transform="translate(0.41)" style="fill:none;stroke:#004b79;stroke-miterlimit:10"/><g id="Grupo_391" data-name="Grupo 391"><g id="Grupo_390" data-name="Grupo 390"><g style="clip-path:url(#clip-path-4)"><g id="Grupo_389" data-name="Grupo 389"><path id="Trazado_1770" data-name="Trazado 1770" d="M174.51,504.75s10.85,34.06,11.07,37c0,0,5.35,10.85,7.76,12.21,0,0,7.1,11,7.82,16.62s4.28,35.71,4,37.83-4.7,7.38-4.7,7.38,6.17,1.69,11.6-.88,4.37-3.66,4.37-3.66-7.54-34.16-6.86-42.66l-7.67-9.44s-3.4-41.16-9.9-56.42c0,0-10.9,1.89-17.47,2" transform="translate(0.41)" style="fill:#94afc7"/></g></g></g></g><path id="Trazado_1771" data-name="Trazado 1771" d="M197.34,528l-18.91-4.25-12.49-14.25" transform="translate(0.41)" style="fill:none;stroke:#004b79;stroke-miterlimit:10"/><path id="Trazado_1772" data-name="Trazado 1772" d="M197,524.85l-17.27-3.47-10.49-16" transform="translate(0.41)" style="fill:none;stroke:#004b79;stroke-miterlimit:10"/><path id="Trazado_1773" data-name="Trazado 1773" d="M128.3,506.15l-7,10.65-13,3.9" transform="translate(0.41)" style="fill:none;stroke:#004b79;stroke-miterlimit:10"/><path id="Trazado_1774" data-name="Trazado 1774" d="M124.84,504.64,119.32,514l-10.26,2.65" transform="translate(0.41)" style="fill:none;stroke:#004b79;stroke-miterlimit:10"/><path id="Trazado_1775" data-name="Trazado 1775" d="M202.34,559.67a113.21,113.21,0,0,1-10.56-6.76c-3.23-2.51-6.95-5-8.68-8.85,2,3.62,5.9,5.74,9.3,7.92a110.28,110.28,0,0,0,10.95,5.69l-1,2" transform="translate(0.41)" style="fill:#004b79"/><path id="Trazado_1776" data-name="Trazado 1776" d="M208.43,615.47c-2.18-11.54-4.17-23.11-5.55-34.78A81.21,81.21,0,0,0,198,560.42a25.31,25.31,0,0,0-1.72-3.83,3.37,3.37,0,0,1-.44-1c-.85-2.85-1.43-5.74-2.06-8.63-2.86-13.79-5.33-27.65-7.62-41.54,2.13,9.79,6.8,31.84,9,41.25.66,2.83,1.26,5.7,2.12,8.46a3.16,3.16,0,0,0,.25.6,23.35,23.35,0,0,1,2,4.13,74.8,74.8,0,0,1,4.9,20.68c1.2,11.65,2.79,23.27,4,34.93" transform="translate(0.41)" style="fill:#004b79"/><path id="Trazado_1777" data-name="Trazado 1777" d="M132.61,571.63c-4.56-5-9.24-10.14-12.2-16.32a13.13,13.13,0,0,1,1.39-11.81,13.26,13.26,0,0,0-1.6,7.71c0,2.68,1.6,4.91,3.13,7.06A92.89,92.89,0,0,0,134.17,570l-1.57,1.6" transform="translate(0.41)" style="fill:#004b79"/><path id="Trazado_1778" data-name="Trazado 1778" d="M125.34,611.51a89.24,89.24,0,0,1-2.28-20.27,22.34,22.34,0,0,1,2.26-10.07,30.14,30.14,0,0,0,1.39-14.62,9.6,9.6,0,0,0-.73-2.68,11.61,11.61,0,0,1-.08-2.43,104.49,104.49,0,0,1,4.65-25.09,18.55,18.55,0,0,1,2.2-4.6,20,20,0,0,0-1.81,4.72,131.21,131.21,0,0,0-3.56,25,6.88,6.88,0,0,0,.15,2.12,10.11,10.11,0,0,1,.74,2.7,30.3,30.3,0,0,1-1.5,15.44,21.46,21.46,0,0,0-2.43,9.54,119.89,119.89,0,0,0,1,20.22" transform="translate(0.41)" style="fill:#004b79"/><path id="Trazado_1779" data-name="Trazado 1779" d="M191.06,562.24s-15.27-12.68-16.26-16.84c0,0,4.23,14.57,7.6,17s11.43,23.23,11.93,25.31-2.5-24.13-3.27-25.43" transform="translate(0.41)" style="fill:#7fbee7"/><path id="Trazado_1780" data-name="Trazado 1780" d="M123.8,568.67s-8.45-12.82-8.41-15.41S119,541.4,119,541.4s-6.43,8.7-6.48,11.55,7.93,13.08,11.3,15.72" transform="translate(0.41)" style="fill:#7fbee7"/><path id="Trazado_1781" data-name="Trazado 1781" d="M110.48,503.28s4.8,3.82,34.45,5.45,48-4.09,48-4.09l-.91-6.89s-27.36,3.32-46.66,2.42a181.43,181.43,0,0,1-35-5.17s-.79,5.26.09,8.29" transform="translate(0.41)" style="fill:#20120d"/><path id="Trazado_1782" data-name="Trazado 1782" d="M152.2,510l-16.2-.57a3.86,3.86,0,0,1-3.76-4v-.08l.24-4.58a3.9,3.9,0,0,1,4.08-3.65l16.1.72a3.87,3.87,0,0,1,3.73,4l-.15,4.44a3.88,3.88,0,0,1-4,3.71" transform="translate(0.41)" style="fill:#c78b39"/><path id="Trazado_1783" data-name="Trazado 1783" d="M152.2,510l-16.2-.57a3.86,3.86,0,0,1-3.76-4v-.08l.24-4.58a3.9,3.9,0,0,1,4.08-3.65l16.1.72a3.87,3.87,0,0,1,3.73,4l-.15,4.44A3.88,3.88,0,0,1,152.2,510Z" transform="translate(0.41)" style="fill:none;stroke:#3f1f1c;stroke-miterlimit:10;stroke-width:3.5429999828338623px"/><path id="Trazado_1784" data-name="Trazado 1784" d="M117.07,507.22s-.1-9,1.64-11.5l4.06,1.2s-2.45,6.77-1.9,11.26" transform="translate(0.41)" style="fill:#2683a9"/><path id="Trazado_1785" data-name="Trazado 1785" d="M117.07,507.22s-.1-9,1.64-11.5l4.06,1.2s-2.45,6.77-1.9,11.26" transform="translate(0.41)" style="fill:none;stroke:#004b79;stroke-linecap:round;stroke-linejoin:round;stroke-width:1.9869999885559082px"/><path id="Trazado_1786" data-name="Trazado 1786" d="M167.17,510.19s-.1-8.73-1.15-12c0,0,4.53-2,5.06-.05s1.63,10,.14,12.73" transform="translate(0.41)" style="fill:#2683a9"/><path id="Trazado_1787" data-name="Trazado 1787" d="M167.17,510.19s-.1-8.73-1.15-12c0,0,4.53-2,5.06-.05s1.63,10,.14,12.73" transform="translate(0.41)" style="fill:none;stroke:#004b79;stroke-linecap:round;stroke-linejoin:round;stroke-width:1.9869999885559082px"/><path id="Trazado_1788" data-name="Trazado 1788" d="M188.55,506.12s-.08-7.36-1-10.08c0,0,3.81-1.72,4.25-.05s1.37,8.4.12,10.72" transform="translate(0.41)" style="fill:#2683a9"/><path id="Trazado_1789" data-name="Trazado 1789" d="M188.55,506.12s-.08-7.36-1-10.08c0,0,3.81-1.72,4.25-.05s1.37,8.4.12,10.72" transform="translate(0.41)" style="fill:none;stroke:#004b79;stroke-linecap:round;stroke-linejoin:round;stroke-width:1.6729999780654907px"/><path id="Trazado_1790" data-name="Trazado 1790" d="M120.2,321.55s-24.8.72-52.77,35.87c0,0,6.24,26.35,27.84,38.11,0,0,22.49-15.89,28.82-22.37" transform="translate(0.41)" style="fill:#2a0922"/><path id="Trazado_1791" data-name="Trazado 1791" d="M120.2,321.55s-24.8.72-52.77,35.87c0,0,6.24,26.35,27.84,38.11,0,0,22.49-15.89,28.82-22.37" transform="translate(0.41)" style="fill:none;stroke:#3f1f1c;stroke-miterlimit:10;stroke-width:3.26200008392334px"/><g id="Grupo_394" data-name="Grupo 394" style="opacity:0.5099999904632568"><g id="Grupo_393" data-name="Grupo 393"><g style="clip-path:url(#clip-path-5)"><g id="Grupo_392" data-name="Grupo 392"><path id="Trazado_1792" data-name="Trazado 1792" d="M97.68,357.86s-10.76,6.71-21.82,20.25c0,0,11.8,14.76,15.83,17,0,0,.61-23.89,6-37.22" transform="translate(0.41)" style="fill:#8b787a"/></g></g></g></g><path id="Trazado_1793" data-name="Trazado 1793" d="M99,355.19c-17.12,32.52-6.06,86.1-1.43,104.3,4.18,16.46,8.89,23.9,11.07,29.46a8.71,8.71,0,0,0-2.08,4.64c1.91,2.89,2.47,5.27,40.3,6.2,40.28,1,50.12-3.17,50.12-3.17s2.87-1.44.74-6.47c1.24-5.75,3.63-16.34,8-34.37,5.91-24.43,43.44-47.56,40.18-102.67-1.2-20.47-63.63-36.55-87.1-37.8-16.1-.86-31.1-.58-41.07,12.08" transform="translate(0.41)" style="fill:#2a0922"/><path id="Trazado_1794" data-name="Trazado 1794" d="M99,355.19c-12.2,25.4-9.15,57.37-4.33,84.35C96.76,450.74,99,462,103,472.68c2,5.46,4.56,10.4,6.83,15.79l.3.75a7.91,7.91,0,0,0-1.7,2.42,7.37,7.37,0,0,0-.59,2.06l-.21-.84a5,5,0,0,0,1.68,1.87c2.5,1.36,5.56,1.68,8.43,2.1,4,.5,8.15.79,12.26,1,20.47.83,41.26,1.77,61.57-1.27a36.72,36.72,0,0,0,4.77-1.12c1.34-1.07.78-3.27.15-4.8l-.16-.39.08-.4c1.88-8.57,4.09-18.09,6.14-26.67l1.07-4.44c1.42-7.66,5.18-14.78,9.39-21.07,10.14-15,21.29-29.6,26.86-47a99,99,0,0,0,4.79-35.47,12.72,12.72,0,0,0-2.33-7.89c-10.14-13.6-39.75-22.17-56.09-26.14-11.73-2.83-23.64-5.13-35.74-5.33-12-.54-24.93,1.61-32.8,11.54a30.11,30.11,0,0,1,6.48-6.42c7.53-5.5,17.27-6.66,26.33-6.77a120.74,120.74,0,0,1,18.33,1c19.21,2.43,71.36,15.22,77.83,35,2.69,19.85-2.25,40.57-11.61,58.15-5.68,10.82-13.15,20.59-19.85,30.7-3.27,5-6.35,10.25-8,15.88-1.2,5-3.07,12.59-4.23,17.67-1.39,5.91-2.75,11.83-4,17.76l-.08-.79c1.14,2.54,1.56,6.35-1.3,8.12a16.15,16.15,0,0,1-2.45.76c-13.29,2.77-27,2.69-40.46,2.71-8.29-.1-16.56-.32-24.84-.77-4.15-.23-8.29-.51-12.45-1-3.2-.49-6.53-.8-9.48-2.48a8.63,8.63,0,0,1-2.75-3,10.68,10.68,0,0,1,.85-3.33,9.08,9.08,0,0,1,1.63-2.52l-.26,1.37c-2.19-5.2-4.94-10.45-6.85-15.83C89.2,441.42,82.14,386,99,355.2" transform="translate(0.41)" style="fill:#3f1f1c"/><g id="Grupo_397" data-name="Grupo 397" style="opacity:0.5099999904632568"><g id="Grupo_396" data-name="Grupo 396"><g style="clip-path:url(#clip-path-6)"><g id="Grupo_395" data-name="Grupo 395"><path id="Trazado_1795" data-name="Trazado 1795" d="M99.85,464.74s35.31,4.95,41.52,2.29,11.78-4.71,11.78-4.71a16.31,16.31,0,0,0,14.62,8.57c10.47-.12,22.16.71,22.16.71l-6.32,25.75s11.5.48,13-2.23a3.26,3.26,0,0,0-.84-4.33l8-33.41,19.43-53.22-9.7-8.49s-10.52,20.13-18,23.39-27.83,6.88-27.83,6.88L96.39,451.13a68.42,68.42,0,0,0,3.45,13.61" transform="translate(0.41)" style="fill:#8b787a"/></g></g></g></g><path id="Trazado_1796" data-name="Trazado 1796" d="M137.31,374.55s-1.19,15.2-.2,23.68l10.42.34s1.64-15.65,5.17-23.73Z" transform="translate(0.41)" style="fill:#c78b39"/><path id="Trazado_1797" data-name="Trazado 1797" d="M137.31,374.55s-1.19,15.2-.2,23.68l10.42.34s1.64-15.65,5.17-23.73Z" transform="translate(0.41)" style="fill:none;stroke:#3f1f1c;stroke-miterlimit:10;stroke-width:3.2260000705718994px"/><path id="Trazado_1798" data-name="Trazado 1798" d="M267.65,375.29s19.48,16.1,16.79,39.83-23.53,18.73-41,6.13c-9.67-7-10.6-11.87-26-27.06" transform="translate(0.41)" style="fill:#faad3f"/><path id="Trazado_1799" data-name="Trazado 1799" d="M267.65,375.29s19.48,16.1,16.79,39.83-23.53,18.73-41,6.13c-9.67-7-10.6-11.87-26-27.06" transform="translate(0.41)" style="fill:none;stroke:#dc6628;stroke-miterlimit:10;stroke-width:3.26200008392334px"/><path id="Trazado_1800" data-name="Trazado 1800" d="M235.67,395.15s4.92,8.51,13.22,12a26.89,26.89,0,0,0-11.9,8.32s-10-9.23-11.34-11.28c0,0,4-8.49,10-9" transform="translate(0.41)" style="fill:#ef8226"/><path id="Trazado_1801" data-name="Trazado 1801" d="M222,320.12s36.18,18.95,52,58.49c0,0-38.65,11.38-46.6,30,0,0-17.35-16.53-21-24.8" transform="translate(0.41)" style="fill:#2a0922"/><path id="Trazado_1802" data-name="Trazado 1802" d="M222,320.12a103.28,103.28,0,0,1,17.13,10.36c5.4,4,10.08,8.86,14.65,13.74a114.85,114.85,0,0,1,22,35.23c-13.7,4.31-27.56,10-38.75,19.15a29.65,29.65,0,0,0-9.17,12.28c-2.43-2.33-4.86-4.72-7.18-7.12a77.86,77.86,0,0,1-8.13-9.27c-2.37-3.35-4.78-6.81-6.18-10.7a39.1,39.1,0,0,0,5,6.37c5.68,5.78,11.08,11.87,16.93,17.47l-2.13.44c7.08-15.65,31.88-25.71,47.44-30.74l-.85,1.76a109.89,109.89,0,0,0-14.63-25.53c-5.95-7.9-13.1-14.73-20.51-21.22A127.93,127.93,0,0,0,222,320.11" transform="translate(0.41)" style="fill:#3f1f1c"/><path id="Trazado_1803" data-name="Trazado 1803" d="M271,366.9s-41.62,10.86-48.6,35.07l6,8s19.08-26.45,49-29c0,0-3.55-10.52-6.4-14" transform="translate(0.41)" style="fill:#c78b39"/><path id="Trazado_1804" data-name="Trazado 1804" d="M271,366.9s-41.62,10.86-48.6,35.07l6,8s19.08-26.45,49-29C277.35,380.93,273.8,370.41,271,366.9Z" transform="translate(0.41)" style="fill:none;stroke:#3f1f1c;stroke-miterlimit:10;stroke-width:3.2260000705718994px"/><g id="Grupo_400" data-name="Grupo 400"><g id="Grupo_399" data-name="Grupo 399"><g style="clip-path:url(#clip-path-7)"><g id="Grupo_398" data-name="Grupo 398"><path id="Trazado_1805" data-name="Trazado 1805" d="M237.65,398.34s-5.2-7.44-6-9.73a52.71,52.71,0,0,0-8.13,13.47l4.76,6.17s7-8.29,9.33-9.91" transform="translate(0.41)" style="fill:#cca471"/></g></g></g></g><path id="Trazado_1806" data-name="Trazado 1806" d="M288.35,424.26s-5.55-9.12-13.57-11.08l-.42,4s1.16-3.75,14,7.05" transform="translate(0.41)" style="fill:#f9d772"/><path id="Trazado_1807" data-name="Trazado 1807" d="M175.12,492.29c-16.9,4.25-40.8,5.4-56.66-2.6,18.56,4.65,37.73,3.23,56.66,2.6" transform="translate(0.41)" style="fill:#3f2836"/><path id="Trazado_1808" data-name="Trazado 1808" d="M158,324.11c-18.68-2.65-39.07-2.69-50.68,9.49s-5,29.13-5,29.13,8-4.81,15.44-5.17,10.63,14.55,10.63,14.55l9.86,2.66,11.79,3.3,14.44-2.34s7.63-11.25,15.05-10.62,18.51,11.61,18.51,11.61a48.3,48.3,0,0,0,9.92-23c2.24-14.32-13.92-24.52-50-29.63" transform="translate(0.41)" style="fill:#c78b39"/><path id="Trazado_1809" data-name="Trazado 1809" d="M158,324.11c-18.68-2.65-39.07-2.69-50.68,9.49s-5,29.13-5,29.13,8-4.81,15.44-5.17,10.63,14.55,10.63,14.55l9.86,2.66,11.79,3.3,14.44-2.34s7.63-11.25,15.05-10.62,18.51,11.61,18.51,11.61a48.3,48.3,0,0,0,9.92-23C210.22,339.42,194.07,329.22,158,324.11Z" transform="translate(0.41)" style="fill:none;stroke:#3f1f1c;stroke-miterlimit:10;stroke-width:3.2260000705718994px"/><path id="Trazado_1810" data-name="Trazado 1810" d="M139.38,239.36S128,234.42,127.44,231s.3-8.65,5.95-13,12.69-6,13.69-4.18,2.39,14.74,4.06,17.11a78.67,78.67,0,0,0-11.76,8.5" transform="translate(0.41)" style="fill:#faad3f"/><path id="Trazado_1811" data-name="Trazado 1811" d="M139.38,239.36S128,234.42,127.44,231s.3-8.65,5.95-13,12.69-6,13.69-4.18,2.39,14.74,4.06,17.11A78.67,78.67,0,0,0,139.38,239.36Z" transform="translate(0.41)" style="fill:none;stroke:#dc6628;stroke-miterlimit:10;stroke-width:2.0329999923706055px"/><path id="Trazado_1812" data-name="Trazado 1812" d="M143.73,225.41c-.41-2.7-2.57-7-7.74-2.59s-5.55,7.54-4.24,8.9,10.44,4.6,10.44,4.6l4.22-2.64Z" transform="translate(0.41)" style="fill:#ef8226"/><path id="Trazado_1813" data-name="Trazado 1813" d="M147.34,234c-2.36-3.4-3.56-7.77-5.47-11.29-1.15-2-2.66-1.28-4.24-.21s-3.25,2.47-5,3.75a15.06,15.06,0,0,1,4.07-5c4.18-3.24,6.47-.4,7.66,3.79.95,3,1.8,6,3,9" transform="translate(0.41)" style="fill:#dc6628"/><path id="Trazado_1814" data-name="Trazado 1814" d="M232.9,253.2c15.7,22.2,23.52,30.08,31.67,32.71,0,0-6.4,2.09-14.14-2.21,0,0,10.55,11,11.46,27s-8.43,28-8.43,28,2.6-17-2.29-23.41c0,0-2.7,20.76-17.43,35.49S208.4,373,150.47,366.24s-64.36-49.91-61-68.48,12.56-20,21.52-31.22,16.28-20.4,16.28-20.4-6.61.65-14.32,6.41c0,0,4.48-8.67,16.21-14.39,12.16-5.94,16.8-8.94,22-12.78,7-5.23,14.29-12.08,35.31-9.62,30.29,3.55,38.58,26.28,46.49,37.45" transform="translate(0.41)" style="fill:#563317"/><path id="Trazado_1815" data-name="Trazado 1815" d="M232.9,253.2c15.7,22.2,23.52,30.08,31.67,32.71,0,0-6.4,2.09-14.14-2.21,0,0,10.55,11,11.46,27s-8.43,28-8.43,28,2.6-17-2.29-23.41c0,0-2.7,20.76-17.43,35.49S208.4,373,150.47,366.24s-64.36-49.91-61-68.48,12.56-20,21.52-31.22,16.28-20.4,16.28-20.4-6.61.65-14.32,6.41c0,0,4.48-8.67,16.21-14.39,12.16-5.94,16.8-8.94,22-12.78,7-5.23,14.29-12.08,35.31-9.62C216.7,219.31,225,242,232.9,253.2Z" transform="translate(0.41)" style="fill:none;stroke:#3f1f1c;stroke-miterlimit:10;stroke-width:2.4000000953674316px"/><path id="Trazado_1816" data-name="Trazado 1816" d="M149.44,230.1s-14.19,12-18.87,14.3l8.85.75s-5.74,6.28-17.8,23.7-20.44,23.68-20.44,23.68a15.43,15.43,0,0,0,11.39-5s-10.6,10.57-12.34,30.06a77.39,77.39,0,0,1,5.8-9.17s-1,17.85,6.83,26.29c0,0-.61-9.63,1.18-12.32a41.63,41.63,0,0,0,15.44,23c12.68,9.31,16.8,14.13,16.8,14.13s25.2-4.58,34.14-8.17S191,336.64,191,336.64s2.93,5,2.19,13.58c0,0,18.28-.75,25.58-12.65s6.89-28.16,6.89-28.16,2.45,4,.77,13.13c0,0,7.89-14.43,5.74-28.3s-11.06-25.34-13.2-32a17.63,17.63,0,0,0,8.3,4.16s-6.77-7.17-8.69-13.19c-1.14-3.57-5.92-16.56-14.51-23.43-5.88-4.7-13.38-5.08-23.37-3.31,0,0-7.88-5.27-14.13-4.55s-11.64,4.14-17.11,8.13" transform="translate(0.41)" style="fill:#40220d"/><path id="Trazado_1817" data-name="Trazado 1817" d="M147.53,232c-3.86,7.62-7.86,15.16-11.9,22.68-8.37,5.83-14.27,14.82-18,24.19l-1.66-1.1c4.5-4,8.78-8.13,13.75-11.58l6.59-4.23-5.24,5.86a85.78,85.78,0,0,0-16.85,31.29,73,73,0,0,0-1.37,35.66,68,68,0,0,1-.19-36.09,82,82,0,0,1,16.85-32.31l1.34,1.63c-1.14.75-2.32,1.67-3.45,2.58-4.49,3.65-9,7.7-13.23,11.6l1.52-4c3.6-9.31,11.13-19.87,18.74-24.35,4.28-7.33,8.62-14.62,13.09-21.83" transform="translate(0.41)" style="fill:#3f1f1c"/></g></g></g><g id="Grupo_404" data-name="Grupo 404"><g style="clip-path:url(#clip-path-8)"><g id="Grupo_403" data-name="Grupo 403"><rect id="Rectángulo_914" data-name="Rectángulo 914" x="150.35" y="149.2" width="79.41" height="97.14" transform="translate(-10.69 384.23) rotate(-88.97)" style="fill:url(#Degradado_sin_nombre_3)"/></g></g></g><g id="Grupo_415" data-name="Grupo 415"><g style="clip-path:url(#clip-path)"><g id="Grupo_414" data-name="Grupo 414"><path id="Trazado_1819" data-name="Trazado 1819" d="M148.61,198.07l-6-23.94a2.18,2.18,0,0,1,1.63-2.62,2.15,2.15,0,0,1,1.37.12l11,4.73a3,3,0,0,1,1.75,3.45c-1.33,5.43-3,18.25,10.28,19.3,14.52,1.15,13.66-13.87,10.15-20.21a3.85,3.85,0,0,1,.43-4.43l13-14.88a1.94,1.94,0,0,1,3.26.61l6.6,18.24a3.79,3.79,0,0,1-.66,3.73c-5.45,6.57-10.23,19.17,1.24,23.12,13.22,4.55,17.41-5.77,17-14.73a2.84,2.84,0,0,1,2.34-2.9l12.65-2.36A2.17,2.17,0,0,1,237.2,187a2.13,2.13,0,0,1-.27,1.54l-13.82,22.63-8.88,25.44-65.45-13.16Z" transform="translate(0.41)" style="fill:none;stroke:#a25f1a;stroke-miterlimit:10;stroke-width:2.9809999465942383px"/><g id="Grupo_407" data-name="Grupo 407" style="opacity:0.30000001192092896"><g id="Grupo_406" data-name="Grupo 406"><g style="clip-path:url(#clip-path-10)"><g id="Grupo_405" data-name="Grupo 405"><path id="Trazado_1820" data-name="Trazado 1820" d="M183.31,176.55s8.52-12.67,10.11-12.11,5.6,15.34,5.6,15.34-5.71,5.24-6.9,12.43a14.34,14.34,0,0,0,2.73,11.54s-6.44-4.8-4.82-14.51a16.76,16.76,0,0,1,6.07-10.59l-3.83-10a46.53,46.53,0,0,0-9,7.85" transform="translate(0.41)" style="fill:#fff"/></g></g></g></g><g id="Grupo_410" data-name="Grupo 410" style="opacity:0.30000001192092896"><g id="Grupo_409" data-name="Grupo 409"><g style="clip-path:url(#clip-path-11)"><g id="Grupo_408" data-name="Grupo 408"><path id="Trazado_1821" data-name="Trazado 1821" d="M223.14,191.17l7.18-1.71a1,1,0,0,1,1.16.7,1,1,0,0,1-.11.71c-2.78,4.66-9.71,16.33-11.25,19.49-2,4-5.63,15.66-5.63,15.66s1.59-14.13,3.78-17,9.38-16.4,9.38-16.4Z" transform="translate(0.41)" style="fill:#fff"/></g></g></g></g><g id="Grupo_413" data-name="Grupo 413" style="opacity:0.30000001192092896"><g id="Grupo_412" data-name="Grupo 412"><g style="clip-path:url(#clip-path-12)"><g id="Grupo_411" data-name="Grupo 411"><path id="Trazado_1822" data-name="Trazado 1822" d="M146.17,176.15l9,3.64s-4,12.22,3.15,18.23c0,0-8.22-3.63-5.58-16.67Z" transform="translate(0.41)" style="fill:#fff"/></g></g></g></g><path id="Trazado_1823" data-name="Trazado 1823" d="M207.72,233.41s13.16-10.08,16.11-10.68,7.48-.31,11.8,9.67,2.56,14.74-.87,15.29-23.28,2.08-23.28,2.08Z" transform="translate(0.41)" style="fill:#faad3f"/><path id="Trazado_1824" data-name="Trazado 1824" d="M207.72,233.41s13.16-10.08,16.11-10.68,7.48-.31,11.8,9.67,2.56,14.74-.87,15.29-23.28,2.08-23.28,2.08Z" transform="translate(0.41)" style="fill:none;stroke:#dc6628;stroke-miterlimit:10;stroke-width:2.0329999923706055px"/><path id="Trazado_1825" data-name="Trazado 1825" d="M232.59,238.53c-1.8-4.39-5.3-12.33-10.63-10.24s-13,9.36-13,9.36l2.19,8.22s16.24.63,19.41-1.09,2-6.25,2-6.25" transform="translate(0.41)" style="fill:#ef8226"/><path id="Trazado_1826" data-name="Trazado 1826" d="M121.91,329.56s-4.55,3.64-3,11c-2.3,4.74-6,10.32-6.08,15a16.53,16.53,0,0,1,5.8-2.07s-.11,12.6,8.2,19.6c0,0,.1-5.47,2.68-8.45,0,0,3,14.33,17.13,19.27,0,0,7.49-13.92,17.69-17.94s24.24-9.76,31-33.91c0,0,1,14.1-.52,20.22,0,0,10.46-15.49,9.5-35.34s-2.56-25-2.56-25l-47.52-4.19s-10.64,19.31-18.28,27.46-8,5.44-14,14.33" transform="translate(0.41)" style="fill:#fff"/><path id="Trazado_1827" data-name="Trazado 1827" d="M121.91,329.56s-4.55,3.64-3,11c-2.3,4.74-6,10.32-6.08,15a16.53,16.53,0,0,1,5.8-2.07s-.11,12.6,8.2,19.6c0,0,.1-5.47,2.68-8.45,0,0,3,14.33,17.13,19.27,0,0,7.49-13.92,17.69-17.94s24.24-9.76,31-33.91c0,0,1,14.1-.52,20.22,0,0,10.46-15.49,9.5-35.34s-2.56-25-2.56-25l-47.52-4.19s-10.64,19.31-18.28,27.46S128,320.68,121.91,329.56Z" transform="translate(0.41)" style="fill:none;stroke:#3f1f1c;stroke-miterlimit:10;stroke-width:1.9869999885559082px"/><path id="Trazado_1828" data-name="Trazado 1828" d="M137.76,314.15s-8,9.43-10.94,13.91-1.07,6.86,10.94,8.51,18.13,3.57,24.77-2.89S178.06,310,178.06,310Z" transform="translate(0.41)" style="fill:#ca2e23"/><path id="Trazado_1829" data-name="Trazado 1829" d="M143.16,330.21a24.51,24.51,0,0,1,2.75-8.79c.47-.93,1-1.83,1.55-2.73a1.22,1.22,0,0,1,2.06,1.29,1.18,1.18,0,0,1-.13.18,26.1,26.1,0,0,0-6.23,10" transform="translate(0.41)" style="fill:#3f1f1c"/><path id="Trazado_1830" data-name="Trazado 1830" d="M144.89,262.27S143,247.18,142,245.8,149.86,229,163,229.56s34,6.19,41.16,4.82c0,0-.16,11.75.22,31.42,0,0-1.1,17.53-3.51,23.14s-29.1,23.6-34.1,25.95c-1.94.92-8.25,4.73-11.44,3.73-5.31-1.67-8.65-.54-13.37-2.53-2.33-1-4.16-6-4.16-6s-2.84,1.57-4.94,2.55-4.09,2.22-8.7-.77-10.86-4.57-9-10.62c2.43-7.81,4.88-20,8.21-25s4.37-5.38,21.54-13.92" transform="translate(0.41)" style="fill:#faad3f"/><path id="Trazado_1831" data-name="Trazado 1831" d="M144.89,262.27S143,247.18,142,245.8,149.86,229,163,229.56s34,6.19,41.16,4.82c0,0-.16,11.75.22,31.42,0,0-1.1,17.53-3.51,23.14s-29.1,23.6-34.1,25.95c-1.94.92-8.25,4.73-11.44,3.73-5.31-1.67-8.65-.54-13.37-2.53-2.33-1-4.16-6-4.16-6s-2.84,1.57-4.94,2.55-4.09,2.22-8.7-.77-10.86-4.57-9-10.62c2.43-7.81,4.88-20,8.21-25S127.72,270.81,144.89,262.27Z" transform="translate(0.41)" style="fill:none;stroke:#dc6628;stroke-miterlimit:10;stroke-width:2.0329999923706055px"/><path id="Trazado_1832" data-name="Trazado 1832" d="M158.28,231.15s15.43,3.76,23.15,5.5S198.18,241,198.18,241s-.94,37.67-1.22,38.46,7.52-2.26,7.52-2.26l-.62-43s-42.33-5.38-45.58-3" transform="translate(0.41)" style="fill:#ef8226"/><path id="Trazado_1833" data-name="Trazado 1833" d="M172.71,313.07s-2.26,8.6-5.63,10.74c0,0-.52-6.54-1.87-7.52Z" transform="translate(0.41)" style="fill:#fff"/><path id="Trazado_1834" data-name="Trazado 1834" d="M172.71,313.07s-2.26,8.6-5.63,10.74c0,0-.52-6.54-1.87-7.52Z" transform="translate(0.41)" style="fill:none;stroke:#3f1f1c;stroke-linecap:round;stroke-linejoin:round;stroke-width:2.1579999923706055px"/><path id="Trazado_1835" data-name="Trazado 1835" d="M124.28,313s2.46,8.48,5.85,10.52c0,0,.35-6.49,1.67-7.5Z" transform="translate(0.41)" style="fill:#fff"/><path id="Trazado_1836" data-name="Trazado 1836" d="M124.28,313s2.46,8.48,5.85,10.52c0,0,.35-6.49,1.67-7.5Z" transform="translate(0.41)" style="fill:none;stroke:#3f1f1c;stroke-linecap:round;stroke-linejoin:round;stroke-width:2.1410000324249268px"/><path id="Trazado_1837" data-name="Trazado 1837" d="M123.35,276.18s-1.56,1.37-3.82,7.75-4,15.17-5,18.64c-.8,2.92.45,6.7,5.59,9.52s9.69,8.07,16.87,1.5c0,0,.83,4.75,5.45,5.79s16.87,1.47,23.12-1c2.88-1.14,33.6-20.91,37.64-31.76l-.13-9.37s-27,8.51-35.61,7.26-44.14-8.33-44.14-8.33" transform="translate(0.41)" style="fill:#fff"/><path id="Trazado_1838" data-name="Trazado 1838" d="M123.35,276.18s-1.56,1.37-3.82,7.75-4,15.17-5,18.64c-.8,2.92.45,6.7,5.59,9.52s9.69,8.07,16.87,1.5c0,0,.83,4.75,5.45,5.79s16.87,1.47,23.12-1c2.88-1.14,33.6-20.91,37.64-31.76l-.13-9.37s-27,8.51-35.61,7.26S123.35,276.18,123.35,276.18Z" transform="translate(0.41)" style="fill:none;stroke:#3f1f1c;stroke-miterlimit:10;stroke-width:1.9869999885559082px"/><path id="Trazado_1839" data-name="Trazado 1839" d="M145.56,316.31s12.94,3.13,19.65,0,27.25-19.58,34.57-27.88c0,0-26.32,21.63-34.47,24.7s-19.75,3.2-19.75,3.2" transform="translate(0.41)" style="fill:#c3cfd7"/><path id="Trazado_1840" data-name="Trazado 1840" d="M130.24,313.69s-8.15-3.23-10.78-5.15-2.85-6.15-1-14.58c0,0-.89,9.27,2.86,12.45,4.1,3.49,8.88,7.28,8.88,7.28" transform="translate(0.41)" style="fill:#c3cfd7"/><path id="Trazado_1841" data-name="Trazado 1841" d="M144.89,262.27s9.53-2.12,16-1.37" transform="translate(0.41)" style="fill:#faad3f"/><path id="Trazado_1842" data-name="Trazado 1842" d="M144.71,261.46c5.35-.78,10.79-1.33,16.15-.56a39.58,39.58,0,0,0-8,.53,76.62,76.62,0,0,0-7.8,1.64Z" transform="translate(0.41)" style="fill:#dc6628"/><path id="Trazado_1843" data-name="Trazado 1843" d="M199,351.6a91.93,91.93,0,0,0,4.32-13.86c3.89-17,1.88-30,1.83-29.67-1.72,9.09-6.92,10.64-6.92,10.64s3.22-8.6,4.27-30.44.64-52.52.64-52.52c-4.51,1-17.89-2.4-28-4.51s-19.61-1.06-25-4a12.5,12.5,0,0,1-6.76-11.94s4.76,3,7.42,4.42,7.42,2,7.42,2c-11.57-7.21-1.34-20.17-1.34-20.17s1.22,11.47,7.94,16.72c0,0-4.28-16.57,4.67-25.28,0,0,1.22,11,10.51,16,0,0-5.22-10.65-.2-19.55,0,0-.14,15.32,10.52,23,5.3,3.8,13.6,6.71,19.32,14.36,2.63,3.52.4,16.87,2.69,29.21s11.77,27.36,13.25,35.9c0,0-4-3.56-6.83-5.75,0,0,7,12.26,3.39,31.95A75.54,75.54,0,0,1,214.81,339a79,79,0,0,1-8.68,13.46" transform="translate(0.41)" style="fill:#563317"/><path id="Trazado_1844" data-name="Trazado 1844" d="M199,351.6c2.22-9.29,4.89-18.48,5.48-28a73.54,73.54,0,0,0-.28-15.2h0v0a.89.89,0,0,0,.08.17c.6,0-1.1.54,1.66.1.36-.81.1-.22.18-.39v0l0,.12c-.89,4.49-3,9.44-7.57,11.27l-1.9.64a64.43,64.43,0,0,0,2.88-11.93c1.63-10.25,2-20.62,2.31-31,.34-13.86.34-27.75.18-41.62l1.4,1.1c-4.71.67-9.24-.57-13.82-1.34s-8.82-1.89-13.2-2.82A87.61,87.61,0,0,0,163.2,231c-5.22-.46-11.08-.58-15.33-3.64-4.78-3.44-6.15-8.6-5.68-14.22,3.16,1.94,6.37,4,9.64,5.74a25.11,25.11,0,0,0,6.54,1.64l-.81,2.3c-3.65-2.11-6.38-6.3-6.09-10.63.2-5.29,3.1-9.81,6.28-13.84.7,6.77,2.37,14.44,7.84,19l-2,1.3a40.12,40.12,0,0,1-.79-13.77,21.27,21.27,0,0,1,5.8-12.72l1.78-1.77a29.31,29.31,0,0,0,1.52,7,19.18,19.18,0,0,0,8.69,10.54l-1.73,1.66c-2.87-6.49-3.73-14.33-.17-20.72l2.28-4.11c0,3.8,0,8.06,1,11.76,1.53,7,5.42,13.32,11.85,16.74,6,3.49,13,7.24,17.08,13.32,1.37,2.76,1.2,5.8,1.35,8.73.13,7.38-.06,14.67,1.48,21.85s4.78,13.77,7.74,20.49c2.49,5.54,4.94,11.06,5.75,17.19l-2.36-2.1c-2.2-2-4.45-3.92-6.76-5.7l1.58-1.38c10.05,22.33,1.13,48.7-13.56,66.81,13.1-17.2,20.86-40.79,13.42-61.88-.8-2.48-3-6.14-4.24-8.42,3.58,2.71,7.71,6,11,9l-1.79,1c-.94-4.66-3.15-9.16-5.07-13.56-4.06-9-8.43-18.33-9.06-28.36-.45-5-.4-9.95-.5-14.84-.13-2.52,0-5.34-1.06-7.59-10.35-13.61-24.46-10-29.31-30.68a36.72,36.72,0,0,1-1-7.61l2.36.63c-3.87,6.93-1.58,15.24,1.84,21.86l-3.33-1.83c-6.28-3.37-10.11-10-11.16-17l2.12.77a18.78,18.78,0,0,0-5.06,11.23c-.74,5.42.18,11.12,1.57,16.36l-2.83-2.23c-5.24-4.3-7.44-11.08-8.41-17.57l2.24.64c-2.95,4.05-5.5,10-2.69,14.74,1.44,2.69,6,4.92,8.45,6.62-3.56-.46-8.45-.9-11.81-2.15s-6.12-3.4-9.11-5.17l1.92-1c-.2,7.45,5,11.84,12.13,12.54,6.66.86,13.51.9,20.12,2.51,4.4,1,8.78,2,13.16,2.85,4.19.73,8.64,1.92,12.86,1.4l1.39-.29v1.39c.05,20.88.27,41.76-1.44,62.59-.73,7-1.53,14-3.67,20.75L198,317.74c3.75-1.7,5.44-6,6.22-9.82.1-.26-.18.41.19-.44,2.76-.45,1.06.15,1.67.11a.88.88,0,0,1,.09.2v0l0,.07.05.28c1.51,13.3-.43,31.77-7.19,43.4" transform="translate(0.41)" style="fill:#3f1f1c"/><path id="Trazado_1845" data-name="Trazado 1845" d="M204.12,234.37s-.41,25.26-.66,37.11-.11,35.33-4.27,45.56c0,0,3.52-1.17,6.21-9.17,0,0,4.2,15.31-3,36.2,0,0,10.85-9.74,8.36-40.44s-6.65-69.25-6.65-69.25" transform="translate(0.41)" style="fill:#40220d"/><path id="Trazado_1846" data-name="Trazado 1846" d="M134,314.94s-4.83,7.07-8.09,11.36-5.16,7.76-1.16,9.71,16.24,3.87,25.46,4,10.2-.14,15.19-6.1c5.81-6.95,10.5-12.8,15-25.07l-4.31,2.7s-6,13.27-13.71,20.79c-3.38,3.3-4.73,4.12-11,4.13s-19.51-1.54-22-3.32-2.63-3,0-6.64,8.25-10.6,8.25-10.6l-.72-3.25Z" transform="translate(0.41)" style="fill:#3f1f1c"/><path id="Trazado_1847" data-name="Trazado 1847" d="M124.39,301.63a.87.87,0,1,0-1,.75h0a.86.86,0,0,0,1-.74h0" transform="translate(0.41)" style="fill:#20120d"/><path id="Trazado_1848" data-name="Trazado 1848" d="M154.45,312.21a.86.86,0,0,0-.74-1,.87.87,0,1,0-.23,1.72h0a.86.86,0,0,0,1-.74h0" transform="translate(0.41)" style="fill:#20120d"/><path id="Trazado_1849" data-name="Trazado 1849" d="M157.17,306.83a.87.87,0,0,0-.75-1,.87.87,0,1,0-.22,1.72h0a.86.86,0,0,0,1-.74h0" transform="translate(0.41)" style="fill:#20120d"/><path id="Trazado_1850" data-name="Trazado 1850" d="M155.31,299.56a.87.87,0,1,0-1,.74h0a.85.85,0,0,0,1-.74h0" transform="translate(0.41)" style="fill:#20120d"/><path id="Trazado_1851" data-name="Trazado 1851" d="M153.65,304.91a.87.87,0,1,0-1,.75h0a.86.86,0,0,0,1-.74h0" transform="translate(0.41)" style="fill:#20120d"/><path id="Trazado_1852" data-name="Trazado 1852" d="M124.83,307.92a.87.87,0,1,0-1,.75h0a.86.86,0,0,0,1-.74h0" transform="translate(0.41)" style="fill:#20120d"/><path id="Trazado_1853" data-name="Trazado 1853" d="M130.21,300.15a.87.87,0,0,0-1.72-.23.88.88,0,0,0,.75,1h0a.86.86,0,0,0,1-.74h0" transform="translate(0.41)" style="fill:#20120d"/><path id="Trazado_1854" data-name="Trazado 1854" d="M126.81,294.37a.86.86,0,1,0-1,.75h0a.86.86,0,0,0,1-.74h0" transform="translate(0.41)" style="fill:#20120d"/><path id="Trazado_1855" data-name="Trazado 1855" d="M158.78,255c-.29,2.36-2,4.1-3.8,3.89s-3.06-2.3-2.77-4.66,2-4.11,3.8-3.89,3.05,2.3,2.77,4.66" transform="translate(0.41)" style="fill:#3f1f1c"/><path id="Trazado_1856" data-name="Trazado 1856" d="M158.33,253.58c-.11.91-.77,1.59-1.47,1.5a1.5,1.5,0,0,1-1.07-1.8c.11-.91.76-1.59,1.47-1.5a1.51,1.51,0,0,1,1.07,1.8" transform="translate(0.41)" style="fill:#fdfcfc"/><path id="Trazado_1857" data-name="Trazado 1857" d="M183.71,258c-.28,2.36-2,4.1-3.8,3.89s-3-2.3-2.77-4.66,2-4.11,3.8-3.89,3.05,2.3,2.77,4.66" transform="translate(0.41)" style="fill:#3f1f1c"/><path id="Trazado_1858" data-name="Trazado 1858" d="M183,256.46c-.11.92-.77,1.59-1.47,1.51a1.51,1.51,0,0,1-1.07-1.8c.11-.91.77-1.59,1.47-1.51a1.51,1.51,0,0,1,1.07,1.8" transform="translate(0.41)" style="fill:#fdfcfc"/><path id="Trazado_1859" data-name="Trazado 1859" d="M144.3,251s3-6.17,7.89-6.68c3.15-.33,6.8.74,9,1.56a1.57,1.57,0,0,0,2.1-.74,1.42,1.42,0,0,0,.14-.41l.56-6.07a1.79,1.79,0,0,0-1.4-1.8c-2.44-.68-7.23-1.79-10-1-3.77,1.12-8,10-8.75,13s.4,2.12.4,2.12" transform="translate(0.41)" style="fill:#3f1f1c"/><path id="Trazado_1860" data-name="Trazado 1860" d="M170.49,237.77a.89.89,0,0,1,.88-.82c3.13.05,14.74.38,18.44,2.38a10.93,10.93,0,0,1,6,9.27c.3,3.41.2,7.75-.41,8.33s-.78-1.64-2.47-5-4.7-4.75-9.87-5.54c-3.9-.6-9.67,0-12.26.35a1.11,1.11,0,0,1-1.19-1,1.48,1.48,0,0,1,0-.21Z" transform="translate(0.41)" style="fill:#3f1f1c"/><path id="Trazado_1861" data-name="Trazado 1861" d="M126.88,283.61s-4.64-3.63-3.73-8c.66-3.14,5.42-3.9,17-3.88,10.91,0,30.39,5.38,29.74,9.64s-8.8,7.22-8.8,7.22c-2.25,1-7,.3-4.88-1.83s-2.3-3.34-4.67-3.62-2.76,1.16-3.5,3.7c-.82,2.78-1.16,5-1.79,6.57-1.08,2.66-2.59,3.35-4.94,1.67-2.87,1.49-4.89-.43-5.06-2.69-.2-2.56-.42-6.51.07-8.8.45-2.11-1.79-3.13-3.93-2.7-1.31.27-2.74.38-2.13,2.41.77,2.56-2.17,1.57-3.44.3" transform="translate(0.41)" style="fill:#3f1f1c"/><path id="Trazado_1862" data-name="Trazado 1862" d="M157.86,298.3s23.29-4.62,35.89-5.8" transform="translate(0.41)" style="fill:none;stroke:#3f1f1c;stroke-miterlimit:10;stroke-width:0.9940000176429749px"/><path id="Trazado_1863" data-name="Trazado 1863" d="M157.71,304.3s29.39.29,39.28,1.73" transform="translate(0.41)" style="fill:none;stroke:#3f1f1c;stroke-miterlimit:10;stroke-width:0.9940000176429749px"/><path id="Trazado_1864" data-name="Trazado 1864" d="M158.32,309.83s23.42,2.88,34.5,7.39" transform="translate(0.41)" style="fill:none;stroke:#3f1f1c;stroke-miterlimit:10;stroke-width:0.9940000176429749px"/><path id="Trazado_1865" data-name="Trazado 1865" d="M215.43,232.63c2-2.16,6.2-6.35,9.47-5.35a8.59,8.59,0,0,1,2.51,1.79,25.86,25.86,0,0,1,5.2,7.61c1,2.17,1.42,4.85.24,7.06s-4.35,2.11-6.5,1.74c2.05-.15,4.63-.19,5.6-2.21a7.35,7.35,0,0,0-.72-6c-1.66-3.1-3.69-6.33-6.48-8.5-2.22-1.47-7.3,2.56-9.32,3.8" transform="translate(0.41)" style="fill:#dc6628"/><path id="Trazado_1866" data-name="Trazado 1866" d="M157.84,343.49s-18.7,1-30.1-3.52" transform="translate(0.41)" style="fill:#3f1f1c"/><path id="Trazado_1867" data-name="Trazado 1867" d="M157.84,343.49a67.4,67.4,0,0,1-15.29.24c-5.06-.52-10.22-1.47-14.81-3.76,9.67,2.61,20.14,2.91,30.1,3.52" transform="translate(0.41)" style="fill:#3f1f1c"/><path id="Trazado_1868" data-name="Trazado 1868" d="M121.83,353.87s1,9.84,3.5,13a27.59,27.59,0,0,1,5.87-9s.6,15.06,13.51,22.88c0,0,4.33-9.48,12.33-14.07s14-5.46,17.09-9.3c0,0-9.45,3.36-17.5,6.1-6.32,2.15-13.18,10-13.18,10s-10.46-8.33-9.56-20.31a20.69,20.69,0,0,0-8.63,7.66,12.93,12.93,0,0,1-3.43-7" transform="translate(0.41)" style="fill:#c3cfd7"/><path id="Trazado_1869" data-name="Trazado 1869" d="M258.44,319.63c.34-18.93-9.42-35.22-24.52-46.14,16.34,8.64,27.42,27.54,24.52,46.14" transform="translate(0.41)" style="fill:#906331"/><path id="Trazado_1870" data-name="Trazado 1870" d="M254.73,308.37c-3.36-8.23-7.76-16.49-15.69-21.09,9.1,2.53,14.58,12.19,15.69,21.09" transform="translate(0.41)" style="fill:#906331"/><path id="Trazado_1871" data-name="Trazado 1871" d="M123,245c3.08-3.4,7.78-5,12.06-6.32a42.06,42.06,0,0,0,11.67-6.46,24.36,24.36,0,0,1-11.14,8c-4.31,1.33-8.66,2.47-12.59,4.8" transform="translate(0.41)" style="fill:#906331"/><path id="Trazado_1872" data-name="Trazado 1872" d="M161.68,228.35s-12.7-1.78-13.38-5.91c0,0,13.55,4.48,18.42,3,0,0-11.9-6-12.55-10.45,0,0,12.51,10.74,23.42,10.27,0,0-8.83-2.19-8.72-12.9,0,0,.78,3.28,3.25,4.73a40.16,40.16,0,0,1-2-7.77s1.12,5.35,8,8.77,18.29,11.42,18.29,11.42a26.17,26.17,0,0,0-5.44-8.46s14,7.4,12.85,13.12c0,0-4.59,2.25-21.74-2.58-7.37-2.07-20.44-3.26-20.44-3.26" transform="translate(0.41)" style="fill:#40220d"/><path id="Trazado_1873" data-name="Trazado 1873" d="M156.07,213.12a37.29,37.29,0,0,0,10.67,11.35c1.43,1.05,3,1.9,4.47,2.89-7.07-1.43-13.62-7.06-15.14-14.24" transform="translate(0.41)" style="fill:#906331"/><path id="Trazado_1874" data-name="Trazado 1874" d="M152.15,223.17c3.2.69,6.4,1.49,9.53,2.17,1.06.25,2.13.45,3.24.79a13.31,13.31,0,0,1-6.75.07,12.77,12.77,0,0,1-6-3" transform="translate(0.41)" style="fill:#906331"/><path id="Trazado_1875" data-name="Trazado 1875" d="M169.16,201.19a11.36,11.36,0,0,0-.68,3.83,31.32,31.32,0,0,0,1.17,11.43,17,17,0,0,0,10,10.91c-8.82-1.38-13.09-10.2-12.47-18.47.24-2.57.47-5.55,2-7.7" transform="translate(0.41)" style="fill:#906331"/><path id="Trazado_1876" data-name="Trazado 1876" d="M211.33,264.56c3,6,4.7,12.45,8,18.29-2.52-2.3-3.87-5.55-5.18-8.62a47.93,47.93,0,0,1-2.78-9.67" transform="translate(0.41)" style="fill:#906331"/><path id="Trazado_1877" data-name="Trazado 1877" d="M210.7,267.67a112.66,112.66,0,0,0,3.68,12.2c1.44,4,3.91,7.62,5,11.76a44.17,44.17,0,0,1-.26,25.44q.59-3.13.86-6.32A50,50,0,0,0,218.26,292c-1.1-4.13-3.53-7.72-4.77-11.8a68.56,68.56,0,0,1-2.79-12.51" transform="translate(0.41)" style="fill:#906331"/><path id="Trazado_1878" data-name="Trazado 1878" d="M124.85,254.68c-4.7,8-9.84,15.92-16.66,22.32-8,8.48-14.37,19.3-15.24,31.15-.58-13.54,7.25-26.16,17-35,5.48-5.7,10.13-12.15,14.92-18.46" transform="translate(0.41)" style="fill:#906331"/><path id="Trazado_1879" data-name="Trazado 1879" d="M104,329a31.61,31.61,0,0,1,.88-29,57.21,57.21,0,0,0-.88,29" transform="translate(0.41)" style="fill:#906331"/><path id="Trazado_1880" data-name="Trazado 1880" d="M124,295.59s-17.62-8.68-24.74-13.15" transform="translate(0.41)" style="fill:none;stroke:#3f1f1c;stroke-miterlimit:10;stroke-width:0.9940000176429749px"/><path id="Trazado_1881" data-name="Trazado 1881" d="M118.26,300s-20-4.56-29.18-5.78" transform="translate(0.41)" style="fill:none;stroke:#3f1f1c;stroke-miterlimit:10;stroke-width:0.9940000176429749px"/><path id="Trazado_1882" data-name="Trazado 1882" d="M119.75,306.42s-18.34-1.7-28.58-2.61" transform="translate(0.41)" style="fill:none;stroke:#3f1f1c;stroke-miterlimit:10;stroke-width:0.9940000176429749px"/><path id="Trazado_1883" data-name="Trazado 1883" d="M136.5,313.85c0-5.87.17-11.85,1.94-17.48-1.37,5.68-1.17,11.63-.76,17.4l-1.18.08" transform="translate(0.41)" style="fill:#3f1f1c"/><path id="Trazado_1884" data-name="Trazado 1884" d="M172.29,207.63a40,40,0,0,0,10.4,13.81,57,57,0,0,0,14.66,8.28c.16,0,.48.13.44-.05.1.21-.35.14-.46.14a28.77,28.77,0,0,1-7.84-2.74,38.6,38.6,0,0,1-7.57-4.7,30.69,30.69,0,0,1-9.63-14.74" transform="translate(0.41)" style="fill:#906331"/><path id="Trazado_1885" data-name="Trazado 1885" d="M214.27,290.18c5.38,12.21,5.46,26.56,1.38,39.17-.57,1.81-1.37,3.55-2.1,5.29.21-.92.44-1.84.67-2.76a83.31,83.31,0,0,0,.05-41.7" transform="translate(0.41)" style="fill:#906331"/><path id="Trazado_1886" data-name="Trazado 1886" d="M251.12,285.71A199.14,199.14,0,0,0,233,269.5c3.38,2.28,6.69,4.64,10,7.09s6.45,5,9.54,7.73l-1.36,1.39" transform="translate(0.41)" style="fill:#3f1f1c"/><path id="Trazado_1887" data-name="Trazado 1887" d="M250.81,316.63c-1-3.82-3.84-7-6.9-9.45-.47-.36-.95-.69-1.42-1a23.45,23.45,0,0,1,8.33,6.69,13.13,13.13,0,0,1,1.87,3.3l-1.88.49" transform="translate(0.41)" style="fill:#3f1f1c"/><path id="Trazado_1888" data-name="Trazado 1888" d="M235.86,298.55c2.25,16.5-.73,37.1-15,47.66a31.17,31.17,0,0,1-6.54,3.5,37.18,37.18,0,0,0,6.06-4.12c13.14-11.49,15.51-30.5,15.43-47" transform="translate(0.41)" style="fill:#906331"/><path id="Trazado_1889" data-name="Trazado 1889" d="M172.67,217.3c3.64,5.34,8.5,9.7,14.87,11.19-6.73.29-12.82-5-14.87-11.19" transform="translate(0.41)" style="fill:#906331"/><path id="Trazado_1890" data-name="Trazado 1890" d="M129.73,274.79c10-2.92,21.29-.94,30.55,3.55-1.29-.24-2.54-.58-3.8-.85-8.77-2-17.73-3.25-26.75-2.71" transform="translate(0.41)" style="fill:#6a4f4f"/><path id="Trazado_1891" data-name="Trazado 1891" d="M144.39,391.82a2,2,0,1,0-2,2h0a2,2,0,0,0,2-2" transform="translate(0.41)" style="fill:#c78b39"/><path id="Trazado_1892" data-name="Trazado 1892" d="M144.39,391.82a2,2,0,1,0-2,2h0A2,2,0,0,0,144.39,391.82Z" transform="translate(0.41)" style="fill:none;stroke:#3f1f1c;stroke-miterlimit:10;stroke-width:1.9869999885559082px"/><path id="Trazado_1893" data-name="Trazado 1893" d="M199.24,156.34l1.52,14.2h6.11l-4.94,3.59,1.89,5.81-4.94-3.59L190.11,187l5.71-12.89-4.94-3.59H197Z" transform="translate(0.41)" style="fill:#fff"/><path id="Trazado_1894" data-name="Trazado 1894" d="M146,177.58l.94,10.56,4.54.08-3.72,2.6,1.32,4.34-3.61-2.73-6.65,7.8,4.41-9.49L139.62,188l4.53.08Z" transform="translate(0.41)" style="fill:#fff"/><path id="Trazado_1895" data-name="Trazado 1895" d="M217.62,201l.94,10.56,4.53.08-3.71,2.6,1.32,4.34-3.62-2.73-6.65,7.8,4.41-9.49-3.61-2.73,4.53.08Z" transform="translate(0.41)" style="fill:#fff"/><path id="Trazado_1896" data-name="Trazado 1896" d="M172,378l3.13,7.9a1.56,1.56,0,0,1-.45,1.43,3,3,0,0,0-1.15,1.58c-.22.72-.21,1.09-.73,1.21s-1-.15-1.67,0-1,.67-1.35,2.12-1.68,7.6-1.4,11.87a14,14,0,0,0,4.14,9.1c1.61,1.41,6,4.38,6,4.38a2.62,2.62,0,0,0,2.08.29c1.16-.33,7-1.76,9.61-4.26s3.78-4.33,4.43-6.79a84.11,84.11,0,0,0,1.5-11.18c.06-1.8-.65-2.08-1.6-2.34a1.46,1.46,0,0,1-1.23-1.47,11.31,11.31,0,0,0-.53-2.44c-.18-.46.23-1.22.93-2.24s4.1-5.28,4.1-5.28-6.53,1.77-7.7,2.1-1.76.13-2.15-1-2.59-6.08-2.59-6.08-3.77,4.7-4.24,5.45-1,.85-2,.22S172,378,172,378" transform="translate(0.41)" style="fill:#fff"/><path id="Trazado_1897" data-name="Trazado 1897" d="M175.57,382.73c.22-.3.49-.21,1,.14s1.93,1.1,1.93,1.1a6.28,6.28,0,0,0-.07,2.76,2.18,2.18,0,0,0,2.85,1.14,2.27,2.27,0,0,0,1.51-2.56,4.68,4.68,0,0,0-.86-1.78s2.38-3.14,2.71-3.55.51,0,.68.41,1.43,3.67,1.43,3.67a6.8,6.8,0,0,0-1.45,2.15,2.08,2.08,0,0,0,1.34,2.63h0a2.34,2.34,0,0,0,2.9-.93,6.82,6.82,0,0,0,.27-1.9c.07-.5.31-.6.85-.8s1.19-.25,1.86-.44.77.16.48.58-1.66,2.91-2,3.69-.25.8.12,1.17a1.46,1.46,0,0,1,.61,1.57,1.59,1.59,0,0,0,.73,2c.93.64,2.37.93,2.1,2.51a35.5,35.5,0,0,0-.51,4.36c-.12,1.83,0,3.33-.62,3.47s-1.93-1.1-2.69-1.3,0,.42.27.73a14.89,14.89,0,0,0,1.74,1.81c.54.4.41,1,.19,1.6a14.36,14.36,0,0,1-2,3.7,8.55,8.55,0,0,1-1.64,1.76c-.36.32-.8.16-1.42-.75s-1.15-1.64-1.15-1.64a26.57,26.57,0,0,1,.6,2.95,1.14,1.14,0,0,1-.71,1.14c-.54.2-5.24,1.82-5.87,2a1.57,1.57,0,0,1-1.69-.14c-.72-.47-4.94-3.32-5.4-3.71s-.46-.62-.07-1.48.93-2.32.93-2.32-1.22,1.12-1.68,1.43-.85.48-1.39-.29a10.84,10.84,0,0,1-1.39-3.66c-.44-1.81-.44-3.11-.17-3.4s3.41-2.3,3.41-2.3a16.6,16.6,0,0,1-2.9.61c-.59,0-1-.6-.46-1.63a11,11,0,0,0,1.12-4.09c.07-1.47-.18-3,.66-3.38s2-.6,2.52-.89.74-2,1.42-2.53.89-.43.66-2.12a21.44,21.44,0,0,0-.84-3.54" transform="translate(0.41)" style="fill:#2a0922"/><path id="Trazado_1898" data-name="Trazado 1898" d="M176.85,394a13.68,13.68,0,0,0,1.6-1.24,1.9,1.9,0,0,1,2.16,0,18.57,18.57,0,0,0,3,1.21,8,8,0,0,1-2,.55,5.32,5.32,0,0,0,2.68-.25,4.66,4.66,0,0,1,3.09-.47,4.53,4.53,0,0,1,1.67,1.93c.16.37-.18.81-.84.82a9.62,9.62,0,0,0-2.78.2,1.64,1.64,0,0,0-1.2,1.61c0,.7.38,1.3.19,1.66s-.42.25-1.88.05-1.73-.31-2.11-.36-.43-.17,0-1.11a2.3,2.3,0,0,0-.32-2.72,23.29,23.29,0,0,0-3.09-1c-.42-.2-.42-.48-.16-.82" transform="translate(0.41)" style="fill:#fff"/><path id="Trazado_1899" data-name="Trazado 1899" d="M176,396.52a12.4,12.4,0,0,1,2.68,1.2,1.43,1.43,0,0,1,.48,1.81c-.2.42-.68.88,0,1.38s2.26.77,2.15,1.76-1.2,1.68-2.14,2.14a2.19,2.19,0,0,1-2.67-.79l1.33-.58-2.45.42.87-.57,0-.77h1.46s-1.65-.33-2.08-1l1.06.08.28-.28,1.46.55-1.43-1,.14-.29s.54.14.68-.6a1.3,1.3,0,0,0-.43-1.45l-.43-.41.09-.09s1.12.64,1.2,1.14c0,0,.11-.61-1.11-1.55s-1.06-1.15-1.06-1.15" transform="translate(0.41)" style="fill:#fff"/><path id="Trazado_1900" data-name="Trazado 1900" d="M189,398.32a12.4,12.4,0,0,0-2.91.43,1.42,1.42,0,0,0-1,1.6c.08.47.42,1-.32,1.35s-2.38.12-2.55,1.1.69,1.94,1.47,2.64a2.19,2.19,0,0,0,2.79,0l-1.13-.92,2.25,1.08-.69-.8.24-.73-1.4-.4s1.69.13,2.28-.38l-1-.21-.2-.34-1.55.13,1.64-.53-.06-.33s-.55,0-.48-.76a1.3,1.3,0,0,1,.8-1.28l.52-.27-.05-.11s-1.26.31-1.47.77c0,0,.06-.62,1.49-1.19s1.33-.82,1.33-.82" transform="translate(0.41)" style="fill:#fff"/><path id="Trazado_1901" data-name="Trazado 1901" d="M178.07,406.39a4.75,4.75,0,0,1,2.3-.27l-1.48,1.39a10,10,0,0,1,2.12,4.26,5.12,5.12,0,0,0,2.14-4.4,3.42,3.42,0,0,1,.93,1.32,2.62,2.62,0,0,0-1-2.93c-1.64-1.41-3.55-.7-5,.63" transform="translate(0.41)" style="fill:#fff"/><path id="Trazado_1902" data-name="Trazado 1902" d="M51.52,401.18s-16.13.11-20.82,13.9c0,0,.09.44,6.6.27A30.52,30.52,0,0,0,28.52,436s2.07-.69,9.47-3.22c0,0-.26,8.48,6.88,17.32s34.76,12.09,50.3,5.63,25.34-8.19,21.33-23.08-11.33-13.21-19-17.65S70,394.59,51.52,401.18" transform="translate(0.41)" style="fill:#faad3f"/><path id="Trazado_1903" data-name="Trazado 1903" d="M51.52,401.18s-16.13.11-20.82,13.9c0,0,.09.44,6.6.27A30.52,30.52,0,0,0,28.52,436s2.07-.69,9.47-3.22c0,0-.26,8.48,6.88,17.32s34.76,12.09,50.3,5.63,25.34-8.19,21.33-23.08-11.33-13.21-19-17.65S70,394.59,51.52,401.18Z" transform="translate(0.41)" style="fill:none;stroke:#dc6628;stroke-miterlimit:10;stroke-width:3.1570000648498535px"/><path id="Trazado_1904" data-name="Trazado 1904" d="M98,420.41c2.39-4.68,9.64-16.55,12-18.83,5.1-4.91,6.59-6.43,10.83-11,4.88-5.26,11.27-2.62,12.67,3.33s-6.87,11.32-6.87,11.32l-6.07,7.15s0,.15.1.41a30.11,30.11,0,0,0,5-1.66c11.17-5,27.44-10.37,30-8.89,4.42,2.5,5.69,8.37,5,10.78-.85,3-12.13,5-15.1,5.87-2.75.76-13.73,4.2-13.72,5.63,0,0,16.11-7.38,19.95-5.2s5,6.79,3.82,9.27-.36,3,1,4.29c2.68,2.56,2.57,6.55,1,8.3s-2.17,1.16-1.12,4.45.64,7.64-1.51,8.49-10.64,4.17-13.38,4.36c-2.42.16-18.62-.62-22.48-.81-7-.35-17.71-2.19-21.11-4.66" transform="translate(0.41)" style="fill:#faad3f"/><path id="Trazado_1905" data-name="Trazado 1905" d="M97.87,420.35a64.55,64.55,0,0,1,7.93-15.26,33.26,33.26,0,0,1,3.4-4.44c2.79-2.7,5.61-5.46,8.25-8.29.91-1,2-2.2,3-3.17,2.29-2.32,6.1-3.54,9.22-2.08a9.34,9.34,0,0,1,5.31,7.9c.33,4.61-5,9.7-7.32,11.07l-6.05,7.16.28-1.19.1.43-1.62-1a28.23,28.23,0,0,0,4.58-1.51c5.24-2.3,27.29-11.51,31.62-8.87a12.56,12.56,0,0,1,5.76,10.59A4.31,4.31,0,0,1,161,415a14.36,14.36,0,0,1-5,2.6c-2.83,1-6.94,1.91-9.88,2.63-4.31,1.35-9.17,2.63-13,4.88a.94.94,0,0,0,.19-.63l-2.11-1.35c2.31-1,4.6-2,7-2.85a63,63,0,0,1,7.26-2.27c2.2-.45,4.68-1.1,6.95-.08,3.72,2,6.13,6.7,4.72,10.87-.25.75-.6,1.14-.57,1.81a.56.56,0,0,0,.13.24c.31.4.79.77,1.2,1.22,2.61,2.66,3.3,7.62.44,10.44-.25.25-.51.49-.73.69s-.3.31-.22.18,0,0,0,.16.1.49.17.73c1.13,3.39,1.77,9.14-2.05,11.08-.55.23-2.06.79-2.63,1-4.21,1.41-8.39,3.53-13,3.45-3.37,0-9.6-.35-13-.5-4.37-.3-10.63-.36-14.91-1.11-2.22-.31-17.15-2.69-15-5.93a1.21,1.21,0,0,1,1.69-.3l0,0a21.8,21.8,0,0,0,6.48,2.39c6.85,1.75,14.78,2,21.85,2.31,3.42.13,9.57.39,12.93.43,2.93.13,5.7-1.15,8.5-2,1.67-.58,3.5-1.32,5.17-2l.83-.33c.77-.44,1-1.58,1.12-2.79a12.34,12.34,0,0,0-.79-5,4.12,4.12,0,0,1-.11-2.75c.52-1.08,1-1.19,1.56-1.84a4,4,0,0,0,.87-3.82c-.38-1.84-1.45-2.54-2.75-4a3.93,3.93,0,0,1-.36-4.07c1.52-2.87-.26-6.51-3-8-1.5-.48-3.28,0-4.9.33a84.72,84.72,0,0,0-13.66,4.95,1.47,1.47,0,0,1-2.12-1.36,2.09,2.09,0,0,1,.86-1.65,17.6,17.6,0,0,1,4.39-2.22c3.24-1.25,6.41-2.28,9.77-3.23,2.82-.67,7-1.6,9.7-2.54,1.43-.53,3.22-1.09,4.17-2.17a2.57,2.57,0,0,0,.17-1.06,9.78,9.78,0,0,0-4.42-8.18,16.33,16.33,0,0,0-5.38.66,144,144,0,0,0-19,6.36c-3.18,1.25-6.32,2.88-9.67,3.6a1.35,1.35,0,0,1-1.62-1h0a1.58,1.58,0,0,1,.19-1.57l6.08-7.13a20.75,20.75,0,0,0,5.77-5.89c2.87-4.13-1.24-10.66-6.13-9.29-2.5.59-4.21,3.11-6,4.88-2.68,2.85-5.55,5.63-8.37,8.34a31.07,31.07,0,0,0-3.09,4c-3.12,4.7-6.22,9.45-9.71,14a.13.13,0,0,1-.19,0,.11.11,0,0,1,0-.13" transform="translate(0.41)" style="fill:#dc6628"/><path id="Trazado_1906" data-name="Trazado 1906" d="M121.92,401.41s-7.92,12.79-6.48,18c0,0-4.08,4.23-3.56,9.79s-.24,13.23,9.6,13.41,17.54.93,17.54.93l9,12.17s9-2.61,11.48-5-7.89-40.47-7.89-40.47Z" transform="translate(0.41)" style="fill:#ef8226"/><path id="Trazado_1907" data-name="Trazado 1907" d="M130.11,391.3s-1.78,7.57-4.74,11.39a73.05,73.05,0,0,0-6.68,10l3.15-1a33.23,33.23,0,0,0,5.89-5.9c6.45-7.95,6.53-11.44,2.38-14.53" transform="translate(0.41)" style="fill:#fff"/><path id="Trazado_1908" data-name="Trazado 1908" d="M122.28,412.55s-9.9,1.75-16.39,2.28" transform="translate(0.41)" style="fill:#faad3f"/><path id="Trazado_1909" data-name="Trazado 1909" d="M122.49,413.74c-5.53.54-11.06,1-16.6,1.09,5.45-.89,10.83-2.15,16.18-3.47l.42,2.38" transform="translate(0.41)" style="fill:#dc6628"/><path id="Trazado_1910" data-name="Trazado 1910" d="M42.47,415.14s-7.88,8-10.38,17.31c0,0,5.69-2.57,8.12-2.93,0,0-2.63,13.4,14.73,21.93C66.41,457.09,84,455.9,84,455.9a56.81,56.81,0,0,1,8.75.2c3.92.5,36.26,3,39.22,2.69-30.7-4.57-50.79-12-50.79-12s-39.78-4.54-38.75-31.66" transform="translate(0.41)" style="fill:#ef8226"/><path id="Trazado_1911" data-name="Trazado 1911" d="M155.08,431.5a99.55,99.55,0,0,1-15.73,4.24l-5.32.85,5.25-1.19c5.25-1.11,10-3.86,14.79-6.2l1,2.3" transform="translate(0.41)" style="fill:#dc6628"/><path id="Trazado_1912" data-name="Trazado 1912" d="M156.62,444a74.35,74.35,0,0,1-15.38,4.65l-5.24.84c1.82-.44,6-1.34,7.72-1.87a67.55,67.55,0,0,0,7.18-3.31c1.55-.82,3.1-1.67,4.59-2.55Z" transform="translate(0.41)" style="fill:#dc6628"/><path id="Trazado_1913" data-name="Trazado 1913" d="M49.81,406.11s10.59-4.82,21.62-.07,14.33,7.68,14.33,7.68-11.11-4.2-15.65-5.05c0,0,1-.43,3.8,4.12a67,67,0,0,0-24.1-6.68" transform="translate(0.41)" style="fill:#f9d772"/><path id="Trazado_1914" data-name="Trazado 1914" d="M126.3,415.38a123.58,123.58,0,0,1,15.5-6.72,79.18,79.18,0,0,1,8.11-2.51c2-.56,5.21-.8,6.06,1.68A4,4,0,0,1,156,410a4.15,4.15,0,0,0-.55-1.95c-1.17-1.86-3.39-1.11-5.23-.55-2.63.83-5.27,1.8-7.91,2.72-5.3,1.86-10.6,3.72-16,5.16" transform="translate(0.41)" style="fill:#f9d772"/><path id="Trazado_1915" data-name="Trazado 1915" d="M133.53,428.06a83.69,83.69,0,0,1,12.68-4.47,9.55,9.55,0,0,1,2.83-.65c2.28.17,2.86,2.92,2.8,4.76-.65-1.68-1.7-4.42-3.84-3.12a52.57,52.57,0,0,1-14.47,3.48" transform="translate(0.41)" style="fill:#f9d772"/><path id="Trazado_1916" data-name="Trazado 1916" d="M273.4,412.48c10.54,7,16.41,20.58,11.69,30.65-1.65-4.66-9.53-6.63-9.53-6.63-.06,12-11.15,16.73-11.15,16.73l1.75-11.88s-8.56,16-46.16,17.73c-28.71,1.3-53.15,7.54-59.18,2.3s-15.67-20.48-15.59-22.16-21.31-1.58-21.31-1.58-12.47-2.07-7-14.75l5-2.57s-4-1.58-2.85-4.55,4.55-14.32,4.55-14.32l3.88.4,2-12.81s17.82.19,24.93,4.15,20.68,40.18,20.68,40.18,20.33-7.28,34-19.11c22.66-19.61,42-15.57,42-15.57" transform="translate(0.41)" style="fill:#faad3f"/><path id="Trazado_1917" data-name="Trazado 1917" d="M273.4,412.48c10.8,6.67,18.19,21.18,11.64,33.23l-.89-2.25c-1.44-3.22-5.64-4.81-8.91-5.68l1.64-1.28A19.26,19.26,0,0,1,265,454.7l-2.65,1.2c.28-1.82,1.87-12.71,2.18-14.79l3,1a26.51,26.51,0,0,1-7.55,7.52c-14.26,9.82-32,10.69-48.71,11.6-6.6.51-13.2,1.24-19.8,2-8.29.83-16.74,2.28-25.21,1.64a12.89,12.89,0,0,1-6.09-1.93,27.48,27.48,0,0,1-3.36-3.29,101.93,101.93,0,0,1-9-12.23,53.54,53.54,0,0,1-3.82-6.76,4.07,4.07,0,0,1-.36-1.45v.06a2.51,2.51,0,0,0,0,.27c.22.66.47.69.5.74-6.29-1.23-13.66-.91-20.23-1-9.31-1.78-12.18-9.25-8.2-17.52l.52-.26,5-2.58.14,2.92c-2.23-.92-4.38-2.92-4-5.54a21.18,21.18,0,0,1,.89-2.8l.81-2.47c1.19-3.73,2.34-7.51,3.46-11.27.74.06,4.37.45,5.2.53L126,401.58c0-.59,2.27-14.09,2.21-14.19a107.24,107.24,0,0,1,19.34,1.81,28,28,0,0,1,7.81,2.61,15.56,15.56,0,0,1,4.27,4.51c4.2,6.26,7.28,13.17,10.32,20,2.38,5.45,4.62,10.94,6.74,16.51l-2-1a142,142,0,0,0,28-14.39c2.92-1.94,5.56-4.11,8.46-6.35a67.59,67.59,0,0,1,18.93-10.25c6.75-2.25,14.09-3.43,21.15-2.18-7.06-.81-14.18.83-20.71,3.37A66.23,66.23,0,0,0,212.62,413c-2.61,2.24-5.34,4.75-8.23,6.9-8.72,6.46-18.55,11.06-28.64,15l-1.47.55-.57-1.5c-2.09-5.49-4.32-11-6.68-16.35a167.75,167.75,0,0,0-7.73-15.76,29.64,29.64,0,0,0-4.87-6.73c-2.17-1.61-4.9-2.11-7.51-2.73a102.91,102.91,0,0,0-17.33-1.72l1.6-1.35-2,12.81-.24,1.5-5.4-.55,1.7-1.14c-1.4,4.6-2.78,9.31-4.37,13.87l-.23.61a1.63,1.63,0,0,0-.07.3c-.12.59.58,1.31,1.17,1.67a40.91,40.91,0,0,0,4.06,1.82c-2,1-6.14,3.15-8.11,4.14l.74-.78c-2.79,6-1,11.05,5.74,12.52,3.64-.08,10.15.07,14.8.34,2.25.25,4.68.12,6.89,1.18a2,2,0,0,1,.95,1.54c1.92,4.39,6,10.23,9.32,14.64,2,2.41,3.82,5,6.33,6.83,2.51,1.3,6,1.26,8.94,1.24,6.51-.18,13.12-1.05,19.73-1.78s13.25-1.5,19.91-2c13-.78,26.52-1.24,38.66-6.46,5.72-2.47,11.48-5.76,15-11l4.23-7.38-1.23,8.37L266,453.46l-2.21-1.71a16,16,0,0,0,2.05-1.17c4.74-3.14,8.31-8.27,8.4-14.09l.07-1.74c3.62,1,7.24,2.39,9.91,5.13a8,8,0,0,1,1.82,2.91l-1.85-.09c5.1-10.85-1.67-23.67-10.78-30.22" transform="translate(0.41)" style="fill:#dc6628"/><path id="Trazado_1918" data-name="Trazado 1918" d="M149,407.46s-12.69-8.76-13.66-11.11.26-5.38.26-5.38l-5.26-.57L129,401.34Z" transform="translate(0.41)" style="fill:#ef8226"/><path id="Trazado_1919" data-name="Trazado 1919" d="M146.64,420.53s-12.7-6-17.14-6.73-5.25-8.88-5.25-8.88-3.74,9.75-3.59,12.28,3.85,2.79,7,2.33,17.21.54,19,1" transform="translate(0.41)" style="fill:#ef8226"/><path id="Trazado_1920" data-name="Trazado 1920" d="M121.88,418.72c3.8-.05,7.57,0,11.34.24s7.63.4,11.16,1.79c-3.65-.86-7.44-.42-11.14-.19s-7.43.78-11.08,1.35Z" transform="translate(0.41)" style="fill:#dc6628"/><path id="Trazado_1921" data-name="Trazado 1921" d="M127.64,400.16c6.43,1.93,12.94,3.7,19.09,6.42-6.45-1.69-13.13-2.4-19.72-3.27l.63-3.15" transform="translate(0.41)" style="fill:#dc6628"/><path id="Trazado_1922" data-name="Trazado 1922" d="M284.57,440.28s-5.68-14.31-14.78-16.53a9.89,9.89,0,0,1-1.3,5.66,35.21,35.21,0,0,0-1.74-5s-6.19,8.71-14.57,13.11-34.24,11-48.67,12.51-31.4-.19-34.18-1-11.78-7.81-14.43-12.41-3.65-4.59-11-4.4-27.1-2.31-27.1-2.31-.5,3.89,5.84,6.3,23.55,1.68,23.55,1.68,7.26,16,15.09,22.24,29.33-.16,46.22-1.42,49.43-3.91,59.76-18.09c0,0,1.07,5.55-1.25,10.23,0,0,10.17-6.18,10.39-14.79,0,0,6.94,1.49,8.16,4.21" transform="translate(0.41)" style="fill:#ef8226"/><path id="Trazado_1923" data-name="Trazado 1923" d="M254.08,413.69s-13.87-3.21-22.69.54c0,0,6.82.59,10.43,3.26,0,0-13-1.71-21.61,1.22-9.19,3.13-18.28,9.69-23.55,10.83,0,0,16.3-14.32,30.89-20s26.53,4.15,26.53,4.15" transform="translate(0.41)" style="fill:#f9d772"/><path id="Trazado_1924" data-name="Trazado 1924" d="M153.31,414.32s-2-4.62-8.29-6-16.5-2.64-16.5-2.64,20.88,4.68,24.8,8.66" transform="translate(0.41)" style="fill:#f9d772"/><path id="Trazado_1925" data-name="Trazado 1925" d="M150.05,424.22s-21.34-1.6-26.4.42c0,0,17.21,2.71,26.4-.42" transform="translate(0.41)" style="fill:#f9d772"/><path id="Trazado_1926" data-name="Trazado 1926" d="M155.76,403.91s-1.34-6.83-3.94-8.11-15-3.19-15-3.19,10.9,4.31,13.42,6.29q2.9,2.37,5.53,5" transform="translate(0.41)" style="fill:#f9d772"/></g></g></g></g></g></g></g></g></g></svg>